<?xml version="1.0" encoding="utf-8"?>
<!-- Generator: Adobe Illustrator 26.0.2, SVG Export Plug-In . SVG Version: 6.00 Build 0)  -->
<svg version="1.1" xmlns="http://www.w3.org/2000/svg" xmlns:xlink="http://www.w3.org/1999/xlink" x="0px" y="0px"
	 viewBox="0 0 512 512" style="enable-background:new 0 0 512 512;" xml:space="preserve">
<g id="Layer_1">
	<path d="M-365,324.3c-2.2,0.2-4.4,0.4-7,0.6c0,17.8,0,35.5,0,53.7c2,0.2,4,0.3,6.2,0.5c0,2,0,3.7,0,5.8c-2,0.2-3.9,0.4-6.3,0.6
		c0,15.4,0,30.7,0,46.6c-2.3,0.1-4.1,0.2-6.4,0.3c0-15.8,0-31.2,0-46.9c-2.5-0.2-4.5-0.4-6.7-0.6c-0.1-1.9-0.2-3.5-0.3-5.6
		c2.2-0.2,4.2-0.4,6.6-0.6c0-17.8,0-35.5,0-53.7c-2.3-0.2-4.7-0.4-7-0.6l0.2,0.2c0.2-1.8,0.3-3.7,0.5-5.8c2.1-0.2,4-0.4,6.5-0.7
		c0-13.2,0-26.4,0-39.9c2.2-0.1,3.8-0.2,6.2-0.4c0,13.6,0,26.9,0,40.4c2.5,0.2,4.3,0.3,6.5,0.5c0.3,2,0.5,4,0.8,5.9
		C-365.1,324.5-365,324.3-365,324.3z M-143,324.4c2.2,0.2,4.3,0.4,6.8,0.6c0,18,0,35.8,0,53.6c-2.3,0.3-4.3,0.5-6.2,0.8
		c0,2.1,0,3.9,0,5.7c2.2,0.2,4,0.3,6.4,0.5c0,15.6,0,31,0,46.6c2.3,0,4.1,0,6.5,0c0-15.7,0-31.1,0-46.5c2.5-0.2,4.3-0.4,6.3-0.6
		c0-2,0-3.8,0-5.7c-2.2-0.2-4.2-0.4-6.1-0.6c0-18.2,0-36,0-53.7c2.3-0.2,4.1-0.4,6.1-0.6c0-2,0-3.8,0-5.6c-2.3-0.3-4.2-0.5-6.5-0.8
		c0-13.4,0-26.4,0-39.8c-2.2,0-3.9,0-6.3,0c0,13.5,0,26.7,0,39.9c-2.5,0.3-4.5,0.5-6.8,0.7c0,2.1,0,4,0,5.8L-143,324.4z
		 M-317.9,183.2c0,2,0,4,0,6.2c2.3,0.2,4.3,0.5,6.8,0.8c0,13.4,0,26.6,0,39.8c2.4,0,4.1,0,6.3,0c0-13.4,0-26.5,0-39.7
		c2.3-0.3,4.3-0.6,6.2-0.8c0-2.1,0-3.9,0-5.7c-2.2-0.2-4-0.3-6-0.5c0-18,0-35.8,0-53.7c2.3-0.2,4.2-0.5,6.1-0.6c0-2.2,0-3.9,0-5.8
		c-2.2-0.1-4-0.2-6.4-0.3c0-15.6,0-31,0-46.6c-2.3,0-4.1,0-6.4,0c0,15.7,0,31.1,0,46.5c-2.6,0.3-4.5,0.5-6.7,0.8
		c0.1,2.1,0.2,3.8,0.3,5.6c2.2,0.2,4.2,0.4,6.3,0.6c0,18.1,0,35.9,0,54c-2.5,0-4.5,0-6.6,0L-317.9,183.2z M-195.9,189.2
		c2.3,0.2,4.1,0.4,6.2,0.6c0,13.3,0,26.4,0,39.8c2,0,3.7,0,5.9,0c0-14.2,0-28,0-41c2.3,0.3,4.2,0.6,6.3,0.9c0-2.3,0-3.9,0-5.6
		c-2.4-0.2-4.3-0.4-6.4-0.5c0-18.6,0-37,0-55c2.4,0,4.4,0,6.8,0c-0.2-2-0.3-3.6-0.5-5.3c-2.4-0.1-4.2-0.2-6.6-0.3
		c0-15.6,0-31,0-46.6c-2.1,0-3.7,0-5.8,0c0,15.8,0,31.2,0,46.6c-2.3,0.2-4.1,0.3-6.2,0.4c0,1.9,0,3.5,0,5.2c2.2,0.3,4.2,0.5,6,0.7
		c0,18.4,0,36.3,0,54.2c-2.1,0.1-3.8,0.3-6.3,0.4C-196.1,186-196,187.6-195.9,189.2z M-426.3,183.4c0-18.1,0-36.1,0-54.1
		c2.4-0.3,4.3-0.6,6.4-0.8c0-1.8,0-3.2,0-4.9c-2.2-0.3-4.1-0.5-6.7-0.9c0-15.5,0-30.9,0-46.5c-2.1,0-3.6,0-5.7,0
		c0.7,11.2-1.1,22.2,0.8,32.1c-0.4,5.3-0.8,9.8-1.1,14.5c-2,0.2-4,0.5-6.2,0.8c0.1,2,0.2,3.6,0.4,5.1c2.4,0.2,4.2,0.4,5.5,0.5
		c2.9,4.4-2.2,10.1,3.1,13.7c-0.2,0.1-0.7,0.1-0.7,0.3c-0.6,1.6-1.5,3.2-1.6,4.8c-0.1,11.9-0.1,23.7-0.1,35.6
		c-2.4,0.2-4.2,0.3-6.3,0.5c0,1.8,0,3.4,0,5.2c2.2,0.2,4.2,0.4,6.3,0.7c0,12.3-0.1,24.4,0.1,36.5c0,1.3,1.7,2.5,2.6,3.8
		c1-1.2,2.7-2.2,2.9-3.5c0.5-2.6,0.1-5.4,0.1-8.2c0-9.5,0-19,0-28.4c2.7-0.4,4.7-0.7,6.6-0.9c0-1.8,0-3.3,0-5
		C-422.2,183.8-424.2,183.6-426.3,183.4z M-251.2,385.3c2.5-0.2,4.3-0.4,6.3-0.6c0-1.9,0-3.5,0-5.2c-2.3-0.2-4.2-0.4-6.3-0.6
		c0-18.3,0-36.2,0-54.2c2.4-0.2,4.3-0.5,6.7-0.7c-0.1-1.9-0.2-3.5-0.4-5c-2.3-0.3-4.1-0.5-6.5-0.8c0-13.2,0-26.2,0-39.6
		c-2.2-0.1-3.8-0.2-5.9-0.3c0,13.6,0,26.8,0,40c-2.4,0.3-4.4,0.5-6.6,0.8c0.2,2,0.3,3.6,0.4,5c2.4,0.3,4.2,0.5,6.1,0.7
		c0,18.2,0,36.1,0,54.1c-2.2,0.2-4,0.3-6.1,0.5c0,1.8,0,3.4,0,5.3c2.2,0.2,4.1,0.3,6.6,0.5c0,15.7,0,31.2,0,46.7c1.9,0,3.2,0,5.6,0
		C-251.2,416.1-251.2,400.8-251.2,385.3z M-337.9,216.6c2.4,0.2,4.3,0.4,6.2,0.5c0.1,2.2,0.3,4,0.4,6.1c2.2,0.2,4.2,0.3,6.2,0.5
		c0.2,2.2,0.4,4.2,0.6,6.3c2.1,0,3.8,0,5.8,0c0-13.3,0-26.3,0-39.5c-2.3-0.2-4.2-0.4-6.2-0.6c-0.3-2.3-0.5-4.2-0.7-6.3
		c-2.1-0.2-4-0.3-5.8-0.5c-0.3-2.2-0.6-4.1-0.8-6.2c-2,0-3.7,0-5.7,0C-337.9,190.6-337.9,203.6-337.9,216.6z M-142.9,324.5
		c-2,0.2-4,0.5-6.2,0.7c-0.3,2.1-0.5,4.1-0.8,6.2c-2.1,0.2-4,0.4-6.2,0.6c-0.1,2.2-0.3,4.2-0.4,6.2c-2.3,0.2-4.3,0.4-6.3,0.5
		c0,13.4,0,26.4,0,39.5c2.1,0,3.9,0,5.9,0c0.2-2.3,0.4-4.2,0.5-6.3c2.1-0.2,4.1-0.4,6-0.6c0.2-2.3,0.5-4.2,0.7-6.1
		c2.3-0.2,4.3-0.4,6.5-0.6c0-13.8,0-27.1,0-40.4C-143,324.4-142.9,324.5-142.9,324.5z M-318,183.4c0-13.3,0-26.6,0-39.9
		c-3-0.4-5-0.6-6.9-0.8c-0.2-2.3-0.3-4.1-0.5-6.1c-2.1-0.3-4.1-0.5-6-0.8c-0.2-2.1-0.4-3.9-0.7-5.8c-2.2,0-4.1,0-5.8,0
		c0,13.4,0,26.3,0,39.3c2.2,0.2,4.1,0.4,6.1,0.6c0.2,2.1,0.5,4.1,0.7,6c2.2,0.3,4.1,0.5,6,0.7c0.3,2.3,0.5,4.3,0.8,6.5
		c2.4,0,4.4,0,6.4,0C-317.9,183.2-318,183.4-318,183.4z M-163.1,326.5c0,5.4,0.7,5.9,6.4,4c0.2-1.8,0.3-3.6,0.5-5.6
		c2.1-0.1,3.9-0.2,6-0.4c0.2-2.2,0.4-4.2,0.6-6.2c2.2-0.3,4.2-0.5,6.2-0.7c0-13.3,0-26.3,0-39.4c-2.2,0-3.9,0-5.6,0
		c-0.3,2.4-0.6,4.3-0.9,6.2c-2.2,0.2-4,0.3-6.1,0.5c-0.1,2.2-0.3,4.2-0.4,6.3c-2.2,0.1-4.2,0.3-6.6,0.4
		C-163.1,303.4-163.1,314.9-163.1,326.5z M-108.9,332.2c-2.3-0.3-4.6-0.5-7-0.8c-0.3-2.2-0.5-4.2-0.8-6.5c-2.1,0.1-3.9,0.2-5.6,0.3
		c0,13.6,0,26.6,0,39.6c2.3,0.2,4.2,0.4,6.1,0.5c0.2,2.3,0.4,4.3,0.5,6.2c2.5,0.3,4.5,0.5,6.3,0.7c0.2,2.2,0.3,4.1,0.5,6.2
		c2,0,3.8,0,5.8,0c0-13.3,0-26.3,0-39.6c-2.2-0.2-4.1-0.3-6.4-0.5c0.1-2.2,0.3-4.2,0.4-6.2L-108.9,332.2z M-109.1,332
		c2-0.4,3.9-0.7,6-1.1c0-13.2,0-26.2,0-39.4c-2.2-0.2-4.2-0.4-6.1-0.5c-0.2-2.3-0.5-4.2-0.7-6.1c-2.4-0.3-4.3-0.5-6.2-0.7
		c-0.2-2.2-0.4-4-0.5-6.1c-2,0-3.8,0-5.8,0c0,13.3,0,26.3,0,39.4c2.2,0.3,4.2,0.5,6.1,0.7c0.3,2.3,0.5,4.2,0.8,6.2
		c2.2,0.2,4,0.3,6.1,0.5c0.1,2.6,0.3,4.9,0.4,7.3C-108.9,332.2-109.1,332-109.1,332z M-351.9,331.8c2-0.2,4-0.5,6.2-0.7
		c0-13.2,0-26.2,0-39.5c-2.1-0.1-4.1-0.3-6.1-0.4c-0.2-2.2-0.4-4.2-0.6-6.2c-2.3-0.2-4.2-0.4-6.1-0.6c-0.3-2.3-0.5-4.2-0.8-6.5
		c-2.1,0.1-3.9,0.2-5.5,0.3c0,13.6,0,26.6,0,39.6c2.4,0.3,4.3,0.5,6.2,0.7c0.2,2.2,0.4,4,0.5,6c2.2,0.3,4.1,0.5,6.4,0.9
		c0,2.4,0,4.6,0,6.8L-351.9,331.8z M-351.7,331.9c-2.3-0.1-4.6-0.3-6.8-0.4c-0.3-2.4-0.5-4.3-0.8-6.1c-2.3-0.4-4.1-0.6-5.9-0.9
		c0,0,0.1-0.2,0.1-0.1c0,13.4,0,26.9,0,40.5c2.2,0.2,4.2,0.3,6.4,0.5c0.2,2.1,0.4,4.1,0.5,6.2c2.1,0.2,4,0.4,6,0.6
		c0.3,2.2,0.5,4.2,0.7,6.1c2.1,0,3.9,0,5.7,0c0-13.4,0-26.5,0-39.5c-2.3-0.2-4.3-0.3-6.1-0.5c0-2.4,0-4.5,0-6.5
		C-351.9,331.8-351.7,331.9-351.7,331.9z M-291.8,183.4c0.2-2.2,0.5-4.3,0.7-6.8c2-0.2,4-0.5,6.1-0.7c0.3-2.1,0.6-4.1,0.8-5.9
		c2.1-0.3,4-0.5,5.8-0.8c0-13.3,0-26.3,0-39.6c-2.2,0.1-3.9,0.2-5.6,0.3c-0.3,2.4-0.5,4.2-0.6,6c-2.2,0.3-4.2,0.5-6.2,0.8
		c-0.2,2.3-0.4,4.3-0.5,6.2c-2.2,0.2-4.1,0.3-6.1,0.5c0,13.2,0,26.3,0,39.6c2.1,0.1,4,0.2,5.8,0.4L-291.8,183.4z M-385.7,324.5
		c-2,0.3-4,0.5-6.1,0.8c-0.2,2.2-0.4,4.1-0.7,6.2c-2.2,0.2-4.1,0.4-6.3,0.6c-0.2,2.2-0.3,4.2-0.5,6.1c-2.3,0.3-4.2,0.5-6,0.7
		c0,13.4,0,26.4,0,39.8c2.2-0.1,4-0.2,5.8-0.3c0.2-2.3,0.3-4.2,0.5-6.2c2.1-0.2,4.1-0.5,6.1-0.7c0.2-2.2,0.3-4.1,0.5-6.1
		c2.3-0.2,4.3-0.4,6.4-0.5c0-13.7,0-27.1,0-40.5C-385.9,324.3-385.7,324.5-385.7,324.5z M-291.6,183.3c0.2,2.2,0.4,4.5,0.6,6.7
		c-2.6,0.2-4.4,0.4-6.4,0.5c0,13.2,0,26.2,0,39.5c2.1,0,3.8,0,5.8,0c0.2-2.2,0.4-4.2,0.5-6.2c2.3-0.3,4.3-0.5,6.4-0.8
		c0.1-2.1,0.2-3.9,0.3-5.9c2.1-0.2,4.1-0.3,6.1-0.5c0-13.4,0-26.4,0-39.4c-2.1,0-3.8,0-5.8,0c-0.1,2.1-0.3,4-0.4,6.3
		c-2.6,0-4.9,0-7.3,0C-291.8,183.4-291.6,183.3-291.6,183.3z M-398.9,325c2.1-0.2,4.1-0.5,6.1-0.7c0.3-2.2,0.5-4.1,0.7-6.1
		c2.2-0.2,4.1-0.4,6.1-0.6c0-13.3,0-26.4,0-39.6c-2.1,0-3.7,0-5.6,0c-0.2,2.2-0.4,4.1-0.6,6.3c-2.2,0.2-4.1,0.4-6.3,0.5
		c-0.2,2.3-0.3,4.3-0.5,6.2c-2.2,0.2-4.2,0.4-6,0.6c0,13.5,0,26.4,0,39.6c2.1,0,3.7,0,5.8,0C-399.2,328.8-399.1,327-398.9,325z
		 M-452.8,217c0.3,2.2,0.6,4.1,1,6c2.3,0.2,4.1,0.3,5.9,0.5c0.2,2.3,0.4,4.2,0.6,6.6c2-0.1,3.5-0.2,5.1-0.4c0-13.3,0-26,0-38.9
		c-2.2-0.3-4.2-0.5-6.1-0.7c-0.2-2.3-0.4-4.2-0.6-6.3c-2.3-0.2-4.2-0.3-6.1-0.4c-0.3-2.1-0.5-4-0.8-6.1c-1.8,0-3.3,0-5.1,0
		c0,12.9,0,25.6,0,38.8C-456.7,216.5-454.7,216.7-452.8,217z M-283.7,330.9c2-0.1,3.6-0.2,5.2-0.3c0.2-2.3,0.4-4.1,0.5-6
		c2.3-0.2,4.3-0.4,6.3-0.5c0.2-2.3,0.4-4.3,0.5-6.3c2-0.2,3.9-0.4,6.3-0.6c0-2.5,0-4.8,0-7.2c0-9.4,0.1-18.7-0.1-28.1
		c0-1.3-1.7-2.6-2.6-3.9c-1,1.2-2.3,2.3-3,3.6c-0.4,0.7-0.1,1.9-0.1,2.9c-2.4,0.3-4.3,0.5-6.2,0.8c-0.2,2.2-0.4,4.1-0.6,6
		c-2.1,0.2-3.9,0.5-6.2,0.8C-283.7,305.2-283.7,317.9-283.7,330.9z M-458.4,169c1.7,0.2,3.7,0.5,5.7,0.8c0.2,2,0.5,3.9,0.7,6
		c2.2,0.2,4,0.4,5.9,0.6c0.2,2.2,0.4,4.2,0.7,6.6c1.9-0.1,3.5-0.2,5-0.2c0-13.4,0-26.2,0-39c-2.3-0.2-4.1-0.4-5.9-0.6
		c-0.3-2.3-0.5-4.3-0.7-6.3c-2.3-0.2-4.2-0.4-6.1-0.6c-0.2-2.2-0.4-4-0.6-6c-1.8,0-3.3,0-4.7,0C-458.4,143.4-458.4,156-458.4,169z
		 M-203.7,143.1c-0.3-2.1-0.6-4.1-0.9-6.3c-2.2-0.2-4.1-0.4-6-0.5c-0.2-2.2-0.3-4.2-0.5-6.4c-2,0.1-3.5,0.3-5.2,0.4
		c0,13.1,0,25.9,0,38.9c2.3,0.2,4.3,0.3,6.2,0.5c0.2,2.2,0.5,4.1,0.7,6.5c2.3,0,4.2,0,6.5,0c0,2.4,0,4.4,0,6.8
		c1.9-0.1,3.5-0.2,5.3-0.3c0-13.1,0-25.8,0-38.9C-199.9,143.4-201.8,143.3-203.7,143.1z M-216.3,177.6c0,13,0,25.6,0,38.6
		c2.2,0.3,4.2,0.5,6.2,0.7c0.2,2,0.5,3.9,0.7,6c3,0.2,5.8,0.4,7.6,0.6c-0.5,1.9-1,3.9-1.9,7.1c3.3-0.9,6.3,1,6.4-3.2
		c0.1-12.1,0-24.1,0-36.4c-2.5-0.3-4.5-0.5-6.8-0.7c1-5.4-1.5-7.4-6.4-6.7c-0.2-2.1-0.3-3.8-0.5-5.9
		C-212.7,177.6-214.4,177.6-216.3,177.6z M-169.1,136.9c-0.3,2.3-0.6,4.2-0.8,6.1c-2.2,0.3-4,0.5-6,0.7c0,13.1,0,25.9,0,39.2
		c2-0.1,3.6-0.2,5.2-0.3c0.2-2.4,0.4-4.2,0.5-6.2c2.2-0.3,4.2-0.6,6.3-0.9c0.1-2.1,0.3-3.9,0.4-5.8c2.2-0.2,4.1-0.5,6.2-0.7
		c0-13.1,0-25.9,0-39.2c-1.9,0.1-3.5,0.3-5.1,0.4c-0.2,2.2-0.4,3.9-0.6,5.9C-165.1,136.5-167.1,136.7-169.1,136.9z M-277.6,338.5
		c-2.2,0.3-4,0.5-6.4,0.8c0,12.2-0.1,24.3,0.1,36.3c0,0.9,1.8,2.2,2.9,2.4c0.7,0.1,2.2-1.2,2.6-2.1c0.5-1.1,0.3-2.6,0.4-4.1
		c2.2-0.2,4.1-0.3,6.9-0.5c-0.5-2.4-0.9-4.4-1.3-6.3c1.6-0.1,4.2-0.3,7.3-0.5c0-13,0-25.9,0-38.7c-1.9,0-3.5,0-5.2,0
		c-0.2,2.3-0.5,4.3-0.7,6.1c-2,0.2-3.7,0.3-5.8,0.5C-277.1,334.7-277.4,336.7-277.6,338.5z M-414.1,176.3c2-0.2,4.6-0.4,7.4-0.6
		c0.3-2.2,0.6-4.1,0.9-6.3c5.2,0.9,7.2-0.8,6.2-6.1c-0.5-2.9,0.1-6.1,0.1-9.1c0-7.9,0-15.9,0-23.9c-2.3,0-3.9,0-5.5,0
		c-0.2,2.2-0.3,4.1-0.5,5.9c-2.2,0.2-4.2,0.4-6.3,0.6c-0.2,2.3-0.3,4.2-0.5,6.2c-2.1,0.2-4.1,0.5-6.2,0.7c0,13.1,0,25.8,0,38.8
		c1.9,0,3.4,0,5.9,0C-413.1,180.2-413.6,178.2-414.1,176.3z M-157.3,216.3c0-13.3,0-25.9,0-38.8c-1.8,0-3.3,0-4.9,0
		c-0.3,2.2-0.6,4.1-0.8,6c-2.2,0.2-4.2,0.4-6.2,0.6c-0.2,3-0.4,5.6-0.5,7.4c-2.1-0.4-3.9-0.7-6.5-1.2c0,2.4,0,4,0,5.7
		c0,9.7,0.2,19.4,0,29.1c-0.1,4.9,0.1,5.4,5.4,4.3c0.3-1.9,0.5-3.9,0.8-5.8c2.2-0.2,4-0.4,6.1-0.6c0.2-2,0.4-3.8,0.6-6
		C-161,216.6-159.1,216.4-157.3,216.3z M-224.6,292.1c-2.3-0.3-4.3-0.6-6.1-0.8c-0.3-2.2-0.5-4.2-0.8-6.1c-2.3-0.2-4.1-0.4-5.9-0.6
		c-0.3-2.2-0.5-4.2-0.8-6.3c-1.8,0-3.2,0-4.9,0c0,13.2,0,26.1,0,39c2.3,0.3,4.1,0.5,5.9,0.6c0.2,2.3,0.4,4.3,0.5,6.4
		c2.3,0,4.3,0,6.4,0c0.1,2.2,0.3,4.2,0.5,6.4c1.8,0,3.2,0,5.1,0C-224.6,317.5-224.6,304.9-224.6,292.1z M-406.5,222.8
		c0.2-2.3,0.4-4.3,0.6-6.5c5.4,1.4,7.5-0.4,6.3-5.7c-0.1-0.6,0.1-1.4,0.1-2c0-10.3,0-20.7,0-31.1c-2.1,0-3.7,0-5.5,0
		c-0.2,2.1-0.3,4-0.5,5.7c-6.9,0.9-8,2.2-5.5,7.1c-2.4,0.2-4.7,0.3-7.4,0.5c0,13.1,0,25.9,0,38.7c6.2,2.1,5.1-2.5,5.6-5.9
		C-410.4,223.3-408.5,223-406.5,222.8z M-231,338.9c-0.2-2.4-0.3-4.5-0.4-6.7c-2.4-0.2-4.2-0.3-6-0.5c-0.2-2.2-0.5-4.2-0.7-6.6
		c-2,0.2-3.5,0.5-5,0.6c0,13.2,0,25.9,0,38.6c2.6,0.2,4.7,0.4,6.5,0.5c0,2.3,0,4.2,0,6.4c2,0,3.6,0,5.4,0c0.3-1.6,0.5-3,0.8-4.5
		c0.2,3.7,0.5,7.4,0.7,11c4,1.1,5.8,0.3,5.6-4c-0.3-4.9-0.5-9.8,0-14.7c0.5-5.2-0.3-8.6-5-7.5c5.6,0,6.2-1,4.4-12.8
		C-227,338.9-229,338.9-231,338.9z M-257.6,176.5c0.2,2.2,0.3,4.2,0.5,6.2c2.2,0,4.1,0,5.9,0c0-11.2,0-21.9,0-32.7c-2.2,0-4,0-5.9,0
		c-0.1,2.3-0.3,4.3-0.4,6.2c-2.3,0.3-4.3,0.5-6.2,0.7c-0.1,2.2-0.3,4-0.4,6c-2.2,0.2-4.1,0.3-6.2,0.5c0,2.2,0,4.1,0,6
		c2.3,0.2,4.3,0.3,6.3,0.5c0.1,2.2,0.2,4,0.3,6.1C-261.4,176.3-259.6,176.4-257.6,176.5z M-318.5,285c-2.2,0-4.1,0-6.1,0
		c-0.1,2.2-0.2,4.1-0.3,6c-2.1,0.2-4.1,0.3-6.3,0.5c-0.2,2.2-0.3,4.2-0.5,6.2c-2.3,0.2-4.2,0.4-6.2,0.6c0,2.1,0,3.9,0,5.6
		c2.4,0.3,4.3,0.5,6.2,0.8c0.2,2.4,0.4,4.3,0.6,6.2c2.4,0.1,4.2,0.3,6,0.4c0.2,2.2,0.4,4.2,0.6,6.3c2,0,3.7,0,5.9,0
		C-318.5,306.5-318.5,295.8-318.5,285z M-425.9,291.1c-0.2-2.3-0.3-4.3-0.5-6.2c-2.1,0-3.9,0-5.8,0c0,11.1,0,21.8,0,32.6
		c2.2,0,4,0,5.9,0c0.1-2.3,0.2-4.2,0.4-6c2.4-0.3,4.3-0.5,6.2-0.7c0.3-2.4,0.5-4.3,0.7-6.2c2.2-0.2,4.1-0.4,6.1-0.5c0-2,0-3.8,0-5.8
		c-2.2-0.2-4.2-0.3-6.3-0.5c-0.1-2.2-0.2-4-0.4-6.3C-422,291.4-424,291.2-425.9,291.1z M-230.5,203.3c-0.2-2.4-0.4-4.3-0.6-6.2
		c-2.4-0.2-4.2-0.3-6-0.5c-0.1-2.1-0.3-4-0.4-6c-2.2,0-4.1,0-6,0c0,11.1,0,21.7,0,32.6c2.1,0,3.9,0,5.8,0c0.3-2.2,0.5-4.1,0.8-6
		c2.1-0.3,4-0.5,5.9-0.7c0.2-2.2,0.4-4.2,0.6-6.1c2.3-0.3,4.2-0.5,6.3-0.7c0-2,0-3.6,0-5.6C-226.7,203.8-228.7,203.5-230.5,203.3z
		 M-364.9,149.4c0,11.2,0,22.3,0,33.4c2.2,0,4,0,5.8,0c0.3-2.4,0.5-4.3,0.7-6.2c2.2-0.2,4.1-0.4,6.1-0.6c0.3-2.2,0.5-4.1,0.7-6.1
		c2.1-0.2,3.9-0.3,5.9-0.4c0-2.2,0-4.1,0-6.3c-2.2,0-4,0-6,0c-0.2-2.3-0.3-4.2-0.4-6.4c-2.3-0.2-4.3-0.3-6.3-0.4
		c-0.3-2.3-0.5-4.3-0.7-6.4c-2.1-0.1-4-0.3-5.8-0.4L-364.9,149.4z M-122.3,182.9c2,0,3.8,0,5.7,0c0.2-2.2,0.4-4.2,0.6-6.1
		c2.3-0.3,4.2-0.6,6.3-0.9c0.2-2.1,0.3-3.9,0.5-5.9c2.1-0.2,3.9-0.4,5.9-0.5c0-2.1,0-4,0-6c-2.2-0.1-4-0.3-5.9-0.4
		c-0.2-2.2-0.5-4.2-0.7-6.1c-2.3-0.3-4.3-0.5-6.1-0.7c-0.3-2.3-0.5-4.2-0.7-6.2c-2,0-3.7,0-5.6,0
		C-122.3,161.3-122.3,171.9-122.3,182.9z M-170.4,304.1c0-2,0-3.8,0-5.9c-2.2-0.1-4.1-0.3-6.1-0.4c-0.3-2.4-0.5-4.3-0.8-6.3
		c-2.3-0.2-4.3-0.4-6.2-0.5c-0.1-2.2-0.3-4-0.4-6.1c-2,0-3.8,0-5.8,0c0,11,0,21.8,0,32.7c2.1,0,3.9,0,5.8,0c0.2-2.3,0.5-4.2,0.7-6.1
		c2.3-0.2,4.2-0.4,6.2-0.6c0.2-2.3,0.3-4.2,0.5-6.3C-174.1,304.4-172.3,304.3-170.4,304.1z M-203.7,351.9c0.3,2.2,0.5,4.2,0.8,6.5
		c2.1-0.1,3.8-0.2,5.5-0.3c0-11.4,0-22.1,0-33.2c-2.1,0.1-3.7,0.2-5.5,0.3c-0.2,2.3-0.5,4.3-0.7,6.3c-2.2,0.2-4.1,0.4-6.1,0.6
		c-0.3,2.3-0.5,4.2-0.8,6.2c-2.2,0.1-4,0.3-5.9,0.4c0,2.1,0,3.9,0,5.9c2.2,0.3,4.1,0.5,6.1,0.8c0.1,2,0.2,3.7,0.4,5.8
		C-207.7,351.5-205.7,351.7-203.7,351.9z M-130.1,223.1c0-11,0-21.8,0-32.4c-2.2,0-4,0-5.7,0c-0.2,2.2-0.3,4.1-0.5,6
		c-2.2,0.2-4.2,0.4-6.3,0.6c-0.2,2.2-0.3,4.2-0.5,6.2c-2.3,0.2-4.3,0.5-6.5,0.7c0.1,2.2,0.2,3.9,0.4,5.6c2.4,0.2,4.2,0.4,6,0.6
		c0.2,2.2,0.4,4.2,0.6,6.2c2.2,0.3,4.2,0.5,6.3,0.7c0.1,2,0.3,3.7,0.4,5.8C-133.9,223.1-132,223.1-130.1,223.1z M-372.6,190.6
		c-2.1,0-3.9,0-5.7,0c-0.2,2.3-0.4,4.2-0.6,6.1c-2.2,0.2-4.2,0.4-6.2,0.5c-0.3,2.4-0.5,4.3-0.7,6.2c-2.2,0.2-4,0.4-5.9,0.5
		c0,2.1,0,3.8,0,5.8c2.1,0.2,3.9,0.3,6,0.5c0.2,2.1,0.4,4.1,0.6,6.3c2.2,0.2,4.1,0.4,6.2,0.6c0.3,2.2,0.6,4.1,0.8,6.1
		c2,0,3.7,0,5.6,0C-372.6,212.2-372.6,201.5-372.6,190.6z M-310.8,358.4c2.1-0.1,3.8-0.2,5.7-0.3c0.2-2.2,0.4-4.2,0.5-6.2
		c2.2-0.3,4.1-0.5,6.2-0.8c0.2-2.2,0.3-4,0.5-5.8c2.2-0.2,4.2-0.5,6.5-0.7c-0.1-2.1-0.2-3.9-0.3-5.8c-2.4-0.2-4.4-0.5-6.4-0.7
		c-0.1-2.1-0.3-4-0.4-6c-2.1-0.2-4.1-0.5-6-0.7c-0.3-2.2-0.5-4.2-0.8-6.3c-2,0-3.6,0-5.5,0C-310.8,336.6-310.8,347.4-310.8,358.4z
		 M-440.2,324.9c-2.1,0.1-3.8,0.3-5.6,0.4c-0.2,2.3-0.4,4.2-0.5,6.2c-2.2,0.3-4.2,0.5-6.2,0.7c-0.2,2.3-0.3,4.3-0.4,6.2
		c-2.3,0.1-4.3,0.2-6.5,0.4c0.1,2.4,0.2,4.2,0.3,6c2.4,0.1,4.2,0.3,6.1,0.4c0.2,2.1,0.4,4.1,0.6,6.1c2.2,0.2,4.2,0.5,6.1,0.7
		c0.3,2.3,0.5,4.2,0.8,6.2c2,0,3.7,0,5.4,0C-440.2,346.9-440.2,336-440.2,324.9z M-116,216.8c2.1-0.2,4-0.3,6-0.4
		c0.2-2.2,0.4-4.1,0.7-6.2c2-0.3,4-0.5,6.3-0.8c-0.1-1.9-0.2-3.4-0.3-5.1c-2.3-0.2-4.1-0.3-6-0.5c-0.2-2.2-0.4-4.2-0.6-6.2
		c-2.3-0.2-4.3-0.4-6.1-0.6c-0.3-2.3-0.6-4.2-0.9-6.4c-1.9,0.1-3.3,0.2-5,0.4c0,10.8,0,21.2,0,32c1.9,0,3.4,0,5.2,0
		C-116.5,220.7-116.3,218.7-116,216.8z M-372.7,152.6c0-1.1-2.8-2.2-5.2-3.9c-0.3,3.9-0.5,5.9-0.7,7.9c-2.2,0.2-4.1,0.4-6.2,0.6
		c-0.3,2.2-0.5,4.2-0.8,6.2c-2,0.2-3.8,0.4-5.9,0.6c0,1.8,0,3.4,0,5.1c2.3,0.2,4.2,0.4,6.1,0.5c0.2,2.2,0.3,4.2,0.5,6.2
		c2.3,0.1,4.2,0.2,6.2,0.4c0.2,2.2,0.4,4.2,0.7,6.4c1.8,0,3.2,0,5.5,0C-372.5,172.3-372.4,162.4-372.7,152.6z M-364.6,222.9
		c1.9,0,3.4,0,5.2,0c0.2-2.2,0.4-4.2,0.6-6c2.3-0.2,4.3-0.5,6.4-0.7c0.2-2.3,0.3-4.2,0.5-6.2c2.2-0.2,4-0.4,5.9-0.5
		c0-1.9,0-3.5,0-5.1c-2.3-0.3-4.2-0.5-6-0.7c-0.2-2.2-0.3-4-0.5-5.8c-2.4-0.4-4.4-0.6-6.3-0.9c-0.2-2.1-0.4-3.9-0.6-6
		c-1.7,0-3.2,0-5.2,0C-364.6,201.7-364.6,212.1-364.6,222.9z M-129.9,178.4c0-5.1,0-10.2-0.1-15.3c-0.1-2.5-0.5-4.9-0.6-7.4
		c-0.1-1.7,0.8-4,0-5c-0.8-0.9-3.2-0.4-5.2-0.5c0,2.7,0,4.7,0,6.6c-2.3,0.1-4.3,0.2-6.4,0.3c-0.2,2.4-0.4,4.4-0.6,6.2
		c-6.8,0.7-6.8,0.7-5.5,5.9c1.8,0.1,3.6,0.3,5.5,0.5c0.2,2.1,0.4,4,0.7,6.1c2.2,0.3,4.2,0.5,6.2,0.7c0.2,2.1,0.4,4,0.5,6.1
		C-129.9,182.9-129.9,182.9-129.9,178.4z M-189.4,357.8c2,0,3.5,0,5.1,0c0.3-2.3,0.6-4.3,0.8-6.1c2.3-0.3,4.3-0.5,6.4-0.8
		c0-2.2,0-4.1,0-6c2.2-0.2,4.2-0.3,6.6-0.5c-0.1-1.9-0.2-3.5-0.3-5.2c-2.2-0.2-4.1-0.3-6-0.5c-0.2-2.2-0.4-4.3-0.6-6.4
		c-2.4-0.2-4.4-0.4-6.3-0.5c-0.2-2.3-0.3-4.3-0.5-6.5c-2,0.1-3.5,0.2-5.2,0.3C-189.4,336.5-189.4,347-189.4,357.8z M-323.9,359.2
		c2.3-1.4,5.1-2.3,5.1-3.3c0.3-10,0.2-19.9,0.2-30.2c-2.2,0-3.8,0-5.5,0c-0.2,2.2-0.3,4.2-0.5,6.1c-2.3,0.2-4.2,0.4-6.3,0.6
		c-0.3,2.3-0.6,4.2-0.8,6.2c-0.3-0.3-0.6-0.5-0.9-0.8c-1.7,1.3-3.4,2.6-5.2,3.9c2,1.5,3.9,3,6.5,4.9c0.1,0.8,0.2,2.6,0.4,4.6
		c2.6,0.1,5,0.2,7,0.4C-323.9,353.6-323.9,355.6-323.9,359.2z M-209.8,298.1c-2.2,0.2-4.2,0.3-6.4,0.5c0,1.8,0,3.4,0,5.2
		c2.2,0.3,4.1,0.5,6,0.7c0.4,2.3,0.7,4.3,1,6.2c2.2,0.2,4,0.4,5.9,0.5c0.2,2.1,0.3,3.9,0.5,5.9c1.9,0,3.5,0,5.2,0
		c0-10.9,0-21.3,0-32c-1.9,0-3.5,0-5.3,0c-0.2,2.3-0.3,4.3-0.5,6.2c-2.1,0.2-4,0.3-6.4,0.5C-209.8,294.3-209.8,296.1-209.8,298.1z
		 M-432,356.5c0.6,1.2,3,1.4,5,2.2c0.4-3.1,0.7-5.1,0.9-7c2.2-0.3,4.2-0.6,6.2-0.9c0.2-2.2,0.3-4,0.4-5.9c2.2-0.2,4.2-0.4,6.3-0.6
		c0-2,0-3.6,0-5.6c-2.6,0-4.9,0-6.8,0c0-2.4,0-4.3,0-6.5c-2.3-0.1-4.4-0.3-6.4-0.4c-0.1-2.3-0.2-4.3-0.3-6.6
		c-2.1,0.1-3.7,0.2-5.9,0.4c1.4,8.9-0.8,17.6,1.4,27C-431.4,353.2-432.6,355.4-432,356.5z M-331,115.4c0,2.3,0,4.6,0,6.7
		c4.4,0,8.4,0,12.4,0c0-15.7,0-30.9,0-46.2c-2.1,0-3.9,0-6.2,0c0,13.4,0,26.6,0,40.2c-2.4-0.2-4.4-0.4-6.4-0.6L-331,115.4z
		 M-310.6,317.2c1.9,0,3.5,0,5.2,0c0.2-2.2,0.4-4.2,0.6-6.1c2.1-0.2,4-0.4,5.9-0.6c0.3-2.2,0.6-4.2,0.9-6.1c2.3-0.3,4.2-0.5,6.4-0.8
		c-0.1-1.8-0.2-3.3-0.2-5c-2.3-0.3-4.4-0.5-6.4-0.8c-0.2-2.2-0.4-4-0.5-5.9c-2.2-0.2-4-0.4-6-0.5c-0.2-2.1-0.4-4.1-0.5-6.3
		c-1.7-0.1-3.1-0.2-5.2-0.3C-310.6,296-310.6,306.5-310.6,317.2z M-224.4,166.7c0.9-5-4.2-2.1-6.4-3.9c-0.2-1.7-0.4-3.7-0.6-5.7
		c-2.2-0.3-4.2-0.5-6.3-0.7c0-1.1,0.3-2.1-0.1-2.8c-0.8-1.3-1.9-2.5-2.9-3.7c-1,1.2-2.3,2.3-2.8,3.7c-0.5,1.4-0.1,3-0.1,4.5
		c0,8.1,0,16.2,0,24.1c7.3,1.9,5.7-2.9,5.6-6.2c2.3-0.1,4.3-0.2,6.5-0.4c0.2-2.1,0.4-3.9,0.5-4.6
		C-228,169.3-224.7,168.3-224.4,166.7z M-446,311.2c0.2,2.1,0.3,3.9,0.5,5.9c1.9,0,3.5,0,5.2,0c0-10.8,0-21.3,0-31.9
		c-1.9,0-3.5,0-5.2,0c-0.2,2.3-0.4,4.2-0.6,6.1c-2.2,0.3-4.2,0.5-6.1,0.7c-0.2,2.3-0.4,4.1-0.5,5.9c-2.3,0.2-4.2,0.5-6.6,0.7
		c0.1,1.9,0.3,3.5,0.4,5c2.5,0.4,4.4,0.6,6.3,0.9c0.2,2.1,0.3,3.8,0.5,6C-449.8,310.9-447.8,311.1-446,311.2z M-264,209
		c0.2,2.1,0.4,4.8,0.6,7.6c2.3,0,4.2,0,6,0c0.2,2.3,0.4,4.2,0.6,6.4c1.8,0,3.2,0,5,0c0-10.8,0-21.4,0-32.2c-1.9,0-3.3,0-4.9,0
		c-0.3,2.2-0.5,4.2-0.7,6.2c-2.1,0.2-4.1,0.4-6.1,0.6c-0.2,2.2-0.4,4.2-0.6,6.1c-2.3,0.2-4.3,0.4-6.4,0.5c0,1.9,0,3.3,0,5.8
		C-267.9,209.7-266,209.3-264,209z M-297.4,122.2c4.3,0,8.3,0,12.5,0c0-2.1,0-3.9,0-5.9c-2.2-0.2-4.2-0.4-6.6-0.7
		c0-13.3,0-26.4,0-39.8c-2.2,0-3.8,0-5.9,0C-297.4,91.6-297.4,106.9-297.4,122.2z M-109,251.2c-2.3-0.1-4.7-0.2-7.2-0.3
		c-0.2-4.6-0.4-8.8-0.6-13.2c-2,0.1-3.5,0.2-5.2,0.3c0,8.6,0,16.8,0,25.8c7.4,0,14.5-0.1,21.6,0.1c4.3,0.1,4.9-1.8,3.7-5.8
		c-4.2,0-8.3,0-13,0c0.2-2.7,0.4-4.8,0.6-7L-109,251.2z M-318.4,242.3c0.2-4.3-1.4-5.5-5.9-4c0,4.1,0,8.3,0,12.4
		c-2.5,0.3-4.5,0.5-6.7,0.7c-0.2,2.2-0.3,4.2-0.5,6.7c-4.4,0-8.6,0-13.2,0c0.1,2.1,0.3,3.7,0.4,5.5c8.6,0,16.7,0,25.8,0
		C-318.5,256.2-318.7,249.3-318.4,242.3z M-190.9,251.3c-2.5-0.2-4.4-0.3-6.8-0.5c0-4.6,0-8.7,0-13.2c-1.9,0.1-3.4,0.2-5,0.3
		c0,8.7,0,17.1,0,25.5c8.7,0,16.9,0,25.3,0c0-1.9,0-3.5,0-5.5c-4.4,0-8.5,0-12.7,0C-190.5,255.3-190.7,253.3-190.9,251.3z
		 M-109.2,392.2c-0.1-2-0.2-4-0.4-6.2c-4.4,0-8.6,0-12.6,0c0,15.6,0,30.9,0,46.5c2.2-0.1,3.9-0.2,6.1-0.4c0-13.5,0-26.6,0-40.1
		c2.7,0,4.9,0,7,0L-109.2,392.2z M-399.8,263.5c0-8.7,0-17.1,0-25.8c-2,0.2-3.6,0.3-5.5,0.4c0,4.5,0,8.5,0,12.6
		c-2.5,0.3-4.5,0.5-6.6,0.7c-0.2,2.3-0.4,4.1-0.6,6.6c-4.3,0-8.5,0-12.8,0c0,2.1,0,3.6,0,5.5C-416.4,263.5-408.2,263.5-399.8,263.5z
		 M-352,392.2c0-2,0-4,0-6c-4.7,0-8.8,0-12.9,0c0,15.6,0,30.7,0,45.9c2.1,0,3.8,0,6.1,0c0-13.4,0-26.4,0-40c2.7,0,4.8,0,7,0
		L-352,392.2z M-399,392.1c2.2,0,4.3,0,7.1,0c0,13.7,0,26.9,0,40.4c2.3-0.1,4-0.2,5.8-0.3c0-15.5,0-30.8,0-46.2c-4.3,0-8.3,0-12.8,0
		c0,2.3,0,4.3,0,6.3L-399,392.1z M-156.1,392.2c2.1,0,4.2,0,6.8,0c0,13.7,0,26.7,0,39.9c2.2,0,4,0,5.9,0c0-15.5,0-30.8,0-46
		c-4.4,0-8.4,0-12.5,0c0,2.3,0,4.3,0,6.3L-156.1,392.2z M-382.9,263.6c7.7,0.4,15.5,0.2,23.5,0.2c0-9,0-17.2,0-25.8
		c-1.9,0-3.5,0-5.6,0c0,4.4,0,8.6,0,12.8c-2.3,0.2-4.1,0.4-6.1,0.6c-0.3,2.2-0.5,4.2-0.9,6.6c-4.4,0-8.6,0-14.4,0
		C-384.7,260.6-383.9,263.5-382.9,263.6z M-452.9,258.1c-4.3,0-8.5,0-14.4,0c1.7,2.7,2.6,5.5,3.7,5.5c7.7,0.4,15.5,0.2,23.4,0.2
		c0-9,0-17.2,0-25.7c-1.9,0-3.5,0-5.6,0c0,4.5,0,8.6,0,12.8c-2.2,0.2-3.9,0.3-6,0.4C-452.2,253.4-452.5,255.5-452.9,258.1z
		 M-243.3,261.1c0,0.9,2.1,2.5,3.2,2.6c6.8,0.2,13.6,0.1,20.4,0c0.6,0,1.2-0.4,2-0.7c-0.1-1.6-0.3-3-0.4-5.2c-4.4,0-8.5,0-12.6,0
		c-0.3-2.5-0.5-4.3-0.7-6.3c-2.2-0.3-4.2-0.6-6.1-0.8c-0.7-13-0.7-13-6-12.3C-243.5,245.9-243.6,253.5-243.3,261.1z M-265,430.6
		c0.1-11.5,0.1-23.1,0.2-34.7c0.1-10.6,0.1-10.6-10.6-9.7c-0.5,0-0.9,0.4-1.8,0.7c0.1,1.5,0.2,3.1,0.3,4.7c2.4,0.2,4.2,0.3,6.5,0.5
		c0,13.4,0,26.6,0,40.1c2-0.1,3.5-0.2,4.8-0.3C-265.2,431.2-265,430.9-265,430.6z M-162.4,263.4c8.6,0,17,0,25.6,0
		c-0.1-2-0.2-3.4-0.4-5.5c-4.4,0-8.6,0-12.6,0c-0.4-2.6-0.7-4.6-1-6.4c-2.4-0.2-4.3-0.4-6.6-0.6c0-4.5,0-8.6,0-12.8
		c-1.9,0-3.2,0-5,0C-162.4,246.8-162.4,255-162.4,263.4z M-197.7,76.3c-1.9,0-3.5,0-6.1,0c0.9,2.6,1.6,4.5,2.3,6.7
		c-2.2,1.3-2.2,1.3-1.6,21.9c0,1.5,1.1,3,1.2,3.2c-0.7,3.2-1.3,5.6-1.9,8.4c-1.7,0-3.7,0-5.9,0c0,1.9,0,3.5,0,5.4c4.1,0,7.9,0,12,0
		C-197.7,106.3-197.7,91.3-197.7,76.3z M-440.3,76.3c-1.9,0-3.5,0-5.4,0c0,13.5,0,26.7,0,39.9c-2.5,0.2-4.4,0.3-6.3,0.5
		c0,1.8,0,3.4,0,5.2c4,0,7.7,0,11.7,0C-440.3,106.5-440.3,91.5-440.3,76.3z M-170.4,80.6c0.1-4.3-1.4-5.5-5.5-4.1
		c-0.1,1-0.3,2-0.3,3c0,2.5,0,5.1,0.1,7.6c0.1,2.7-0.5,5.9,0.8,7.8c1.7,2.6-1.5,2.8-1.2,5c0.8,7.1,0.3,14.4,0.3,21.9
		c4.6,0,8.5,0,12.8,0c-0.2-2-0.3-3.4-0.5-5c-2.2-0.3-4-0.5-6.5-0.8C-170.5,103.9-170.7,92.2-170.4,80.6z M-231.1,391.4
		c-0.1-1.9-0.2-3.3-0.4-5.3c-2.7,0-5,0.2-7.4,0c-3.5-0.3-5,0.8-4.7,4.5c0.3,3.5,0,7.1,0,10.7c0,10.2,0,20.3,0,30.7
		c2.2,0,3.7,0,5.2,0c0-13.3,0-26.4,0-39.7C-235.5,391.9-233.4,391.7-231.1,391.4z M-413.1,79.8c0-1.3-1.7-2.5-2.6-3.8
		c-1,1.2-2.7,2.4-2.8,3.7c-0.2,9.2-0.2,18.4-0.2,27.5c0,4.8,0,9.7,0,14.7c4.6,0,8.3,0,12.4,0c-0.1-1.9-0.2-3.5-0.2-5.1
		c-2.2-0.2-3.9-0.3-6.5-0.6C-413,103.9-412.9,91.8-413.1,79.8z M-156,392.4c-2.2,0-4.4,0-6.8,0c0,13.5,0,26.5,0,39.8
		c2.1,0,3.9,0,6.2,0c0-1.9,0-3.6,0-5.3c0.2-11.5,0.3-23.1,0.5-34.7C-156.1,392.2-156,392.4-156,392.4z M-331.2,115.6
		c-0.2-2.7-0.5-5.3-0.5-8c-0.1-10.5,0-21,0-31.6c-2.4,0-4.2,0-6.2,0c0,13.3,0,26.3,0,39.5c2.5,0,4.7,0,6.9,0
		C-331,115.4-331.2,115.6-331.2,115.6z M-398.8,392.3c-2.1,0-4.3,0-6.5,0c0,13.7,0,26.7,0,39.8c2.1,0,3.9,0,6.3,0
		c0-13.5,0-26.8,0-40C-399,392.1-398.8,392.3-398.8,392.3z M-351.8,392.1c0,13.4,0,26.7,0,40.4c2.6-0.1,4.2-0.2,6.2-0.3
		c0-13.3,0-26.3,0-39.6c-2.3-0.1-4.3-0.2-6.3-0.4C-352,392.2-351.8,392.1-351.8,392.1z M-109,392c0,13.4,0,26.7,0,40.4
		c2.5-0.1,4.2-0.2,5.8-0.3c0-13.6,0-26.6,0-39.6c-2.3-0.1-4.2-0.3-6-0.4C-109.2,392.2-109,392-109,392z M-278.3,75.7
		c-2.1,0.1-3.9,0.2-5.6,0.2c0,13.5,0,26.5,0,39.6c2,0,3.7,0,5.6,0C-278.3,101.9-278.3,89-278.3,75.7z M-459.1,112.7
		c0.1,4.5,3.2,2.5,5.4,2.2c0-13.1,0-25.8,0-38.7c-1.8,0-3.2,0-5.5,0C-459.2,88.7-459.4,100.7-459.1,112.7z M-211,76.2
		c-1.9,0-3.5,0-5.2,0c0,13.2,0,26,0,39c1.9,0,3.3,0,5.2,0C-211,101.9-211,89.2-211,76.2z M-283.7,392.9c0,13.2,0,26.1,0,39
		c1.9,0,3.4,0,5.1,0c0-13,0-25.7,0-39.2C-280.4,392.8-282,392.8-283.7,392.9z M-229.7,393.1c0,12.8,0,25.6,0,38.7c1.8,0,3.4,0,5.5,0
		c0-12.3,0.1-24.4-0.2-36.4c0-1.2-2.6-2.4-4-3.6C-228.8,392.3-229.2,392.7-229.7,393.1z M-399.4,80.4c0.1-4.4-1.7-5.3-5.5-3.8
		c0,13,0,25.8,0,38.8c1.8,0,3.1,0,5.4,0C-399.4,103.4-399.5,91.9-399.4,80.4z M-162.4,113c0,0.8,2,2.3,2.9,2.2
		c1-0.1,2.4-1.8,2.4-2.9c0.3-4.1,0.1-8.1,0.1-12.2c0-7.9,0-15.9,0-24c-2.1,0-3.5,0-5.6,0C-162.6,88.6-162.6,100.8-162.4,113z
		 M-177.3,250.3c0-4.3,0-8.2,0-12.5c-4.4,0-8.4,0-12.4,0c0,4.4,0,8.4,0,12.5C-185.3,250.3-181.4,250.3-177.3,250.3z M-412.9,250.2
		c0-4.3,0-8.3,0-12.8c-4.3,0.2-8.2,0.4-12.5,0.6c0,4.3,0,8.1,0,12.3C-421.2,250.2-417.1,250.2-412.9,250.2z M-109.2,251
		c4.3-0.3,8.6-0.6,12.8-0.8c0-4.3,0-8.1,0-12.3c-4.4,0-8.3,0-12.6,0c0,4.6,0,8.9,0,13.3C-109,251.2-109.1,251-109.2,251z
		 M-284.9,250.3c0-4.3,0-8.3,0-12.4c-4.2,0-8.2,0-12.5,0c0,4.3,0,8.1,0,12.4C-293,250.3-289,250.3-284.9,250.3z M-344.5,250.2
		c4.4,0,8.4,0,12.3,0c0-4.4,0-8.4,0-12.3c-4.2,0-8,0-12.3,0C-344.5,242.5-344.5,246.5-344.5,250.2z M-385,237.8c0,4.4,0,8.3,0,12.4
		c4.3,0,8.3,0,12.5,0c0-4.2,0-8.1,0-12.4C-376.8,237.8-380.7,237.8-385,237.8z M-453.5,249.9c0-4.5,0-8.3,0-12c-4.2,0-8,0-12.1,0
		c-0.3,4.3-0.5,8.1-0.7,12C-461.3,249.9-457.3,249.9-453.5,249.9z M-149,250.2c4.4,0,8.2,0,12.6,0c-0.2-4.3-0.4-8.3-0.6-12.5
		c-4.3,0-8,0-12,0C-149,242.2-149,246.4-149,250.2z M-297.2,270.2c4.5,0,8.4,0,12.4,0c0-4.3,0-8.2,0-12.3c-4.3,0-8.3,0-13,0
		C-297.6,262.2-297.4,266-297.2,270.2z M-265,250.2c1.7-12.2-1-14.8-12.4-12c0,3.8,0,7.7,0,12C-272.9,250.2-268.9,250.2-265,250.2z
		 M-230,250.2c4.3,0,8.3,0,12.8,0c-0.2-4.3-0.5-8.2-0.7-12.5c-4.2,0-7.9,0-12,0C-230,242.1-230,246.1-230,250.2z M-277.2,270.2
		c4.2,0,8,0,12.2,0c0-4.3,0-8.1,0-12.2c-4,0-8,0-12.2,0C-277.2,262.2-277.2,266.2-277.2,270.2z M-196.4,371.4c2.1,0,4,0,5.9,0
		c0.1-12.9,0.5-13.9-5.9-11.7C-196.4,363.7-196.4,367.5-196.4,371.4z M-438.8,371.9c2.1-0.1,3.8-0.2,5.6-0.4c0-4.3,0-8.3,0-12.6
		c-1.9-0.1-3.5-0.2-5.6-0.3C-438.8,363.4-438.8,367.5-438.8,371.9z M-312.1,359.3c-2,0-3.6,0-5.6,0c0,4.3,0,8.3,0,12.3
		c2,0,3.7,0,5.6,0C-312.1,367.1-312.1,363.3-312.1,359.3z M-365.1,149.5c-0.2-3.3-0.2-6.7-0.7-10c-0.2-1.1-1.5-2.7-2.4-2.9
		c-1-0.1-3,1.2-3.1,2c-0.4,3.4-0.1,6.9-0.1,10.3c2.9,0.2,4.7,0.3,6.6,0.4C-364.9,149.4-365.1,149.5-365.1,149.5z M-244.5,141.3
		c0.5-4.7-1.4-5.8-5.4-4.2c0,4.1,0,7.9,0,11.9c1.8,0,3.3,0,5.4,0C-244.5,146.1-244.7,143.7-244.5,141.3z M-123.5,139.2
		c-0.1-1-1.8-2.5-2.7-2.5c-1,0-2.6,1.6-2.7,2.6c-0.4,3.1-0.1,6.3-0.1,9.6c2,0,3.5,0,5.6,0C-123.3,145.3-123.1,142.2-123.5,139.2z
		 M-210.3,419.7c0.1,2.4,0.2,4.1,0.3,6.2c2.3-0.1,4.1-0.2,6-0.3c0-2.1,0-3.7,0-6.2C-206.3,419.5-208.1,419.5-210.3,419.7z
		 M-210.4,405.5c0.1,2.1,0.3,4.2,0.4,6.5c2.2,0,4,0,5.8,0c0-2.1,0-4,0-6c-2.4-0.1-4.4-0.2-6.4-0.3
		C-210.6,405.7-210.4,405.5-210.4,405.5z M-324.8,372.4c0.1,2.3,0.2,4.1,0.3,6c2.2,0,3.9,0,5.9,0c0-2.1,0-3.9,0-6.3
		C-320.9,372.2-322.7,372.2-324.8,372.4z M-190.2,426.1c0-2.1,0-4.2,0-6.5c-2.5,0-4.3,0-6.2,0c0,2.2,0,4.1,0,6.3c2.3,0,4.4,0,6.4,0
		L-190.2,426.1z M-446.1,405.7c-2.1,0.1-4.3,0.2-6.4,0.3c0,2.4,0,4.1,0,6.3c2.2-0.1,3.9-0.2,6.2-0.4c0-2.4,0-4.5,0-6.5L-446.1,405.7
		z M-432.2,378.7c2.2-0.1,3.9-0.2,5.7-0.3c0-2.3,0-4,0-6c-2-0.1-3.6-0.2-5.7-0.3C-432.2,374.5-432.2,376.4-432.2,378.7z M-304.8,426
		c2-0.1,4-0.2,6.3-0.3c0-2.1,0-4.1,0-6.4c-2.2,0.1-4,0.2-6.1,0.4c0,2.5,0,4.5,0,6.5L-304.8,426z M-304.6,405.5c0,2.1,0,4.2,0,6.6
		c2.4,0,4.1,0,6.1,0c0-2.1,0-4,0-6.1c-2.3-0.1-4.3-0.2-6.3-0.3L-304.6,405.5z M-446.2,426.1c0-2.1,0-4.2,0-6.5c-2.5,0-4.2,0-6.1,0
		c0,2.2,0,4,0,6.4c2.3,0,4.3,0,6.3,0L-446.2,426.1z M-196.5,406.1c0,2.1,0,3.9,0,6.2c2.2-0.1,4.1-0.2,6-0.3c0-2.2,0-3.8,0-5.9
		C-192.8,406.1-194.6,406.1-196.5,406.1z M-419.4,412.7c0,2.1,0,4.2,0,6.3l-0.2-0.2c2.1,0,4.3,0,6.7,0c0-2.1,0-3.8,0-5.9
		c-2.4,0-4.6,0-6.7,0L-419.4,412.7z M-331,413.3c-2.2-0.2-4.4-0.5-6.9-0.7c0,2.5,0,4.2,0,6.4c2.5-0.2,4.6-0.3,6.8-0.5l-0.1,0.1
		c0.1-1.8,0.2-3.7,0.2-5.5C-331.1,413.2-331,413.3-331,413.3z M-419.4,419c-2.1,0-4.2,0-6.3,0l0.2-0.2c0,2.1,0,4.3,0,6.7
		c2,0,3.8,0,5.9,0c0-2.4,0-4.6,0-6.8L-419.4,419z M-331.2,418.5c0,2.3,0,4.6,0,7.3c2.3-0.1,4-0.2,6.1-0.3c-0.1-2.3-0.2-4.1-0.3-5.7
		c-2.3-0.5-4.1-0.8-5.9-1.2C-331.3,418.7-331.2,418.5-331.2,418.5z M-419.6,405.6c-1.9,0.2-3.9,0.4-5.8,0.6c0,2.4,0,4.6,0,6.7
		l-0.2-0.2c2.1,0,4.2,0,6.3,0l-0.2,0.2c-0.1-2.5-0.2-5-0.2-7.5C-419.8,405.4-419.6,405.6-419.6,405.6z M-331.2,405.4
		c-0.3-2-0.7-3.9-1-5.8c-2,0-3.8,0-5.7,0c0,2.1,0,3.8,0,6c2.5-0.1,4.7-0.2,6.8-0.4C-331.1,405.2-331.2,405.4-331.2,405.4z
		 M-419.8,405.4c2.2,0,4.4,0,6.9,0c0-2.1,0-3.8,0-5.8c-2.1,0-4,0-5.8,0c-0.3,2.3-0.6,4.1-0.9,5.9
		C-419.6,405.6-419.8,405.4-419.8,405.4z M-203.1,379.3c-2.3,0-4.5,0-6.7,0c0,2.2,0,4,0,6.1c2.2-0.1,3.9-0.3,5.7-0.4
		c0.3-2.2,0.6-4,0.9-5.9L-203.1,379.3z M-203.3,379.1c2-0.3,3.9-0.6,5.9-0.9c0-2,0-3.8,0-5.7c-2.1,0-3.8,0-5.8,0c0,2.5,0,4.7,0,6.8
		C-203.1,379.3-203.3,379.1-203.3,379.1z M-305,379.1c0-2.1,0-4.3,0-6.7c-2.1,0-3.9,0-5.7,0c0,2.2,0,4.1,0,6
		c2.2,0.2,4.1,0.4,5.9,0.5L-305,379.1z M-176.8,418.9c-2,0.3-4,0.6-6,0.9c0,2,0,3.8,0,5.7c2.1,0,3.8,0,5.9,0c0-2.5,0-4.6,0-6.8
		L-176.8,418.9z M-446,378.9c2-0.2,3.9-0.4,6.1-0.6c0-2,0-3.8,0-5.9c-2,0-3.8,0-5.9,0c0,2.4,0,4.5,0,6.7L-446,378.9z M-419.6,392
		c2.1,0,4.3,0,6.7,0c0-2.3,0-4,0-6c-2.1,0-3.9,0-5.9,0c-0.2,2.2-0.5,4.2-0.7,6.2L-419.6,392z M-190,378.9c2-0.2,3.9-0.4,6-0.6
		c0-2,0-3.8,0-5.7c-2.1,0-4,0-5.9,0c0,2.5,0,4.5,0,6.5L-190,378.9z M-317.8,405.5c0,2.1,0,4.2,0,6.5c2.2,0,3.9,0,5.7,0
		c0-2.2,0-4,0-6c-2.3-0.1-4.1-0.2-5.9-0.3L-317.8,405.5z M-325.6,413.2c0.5,1.9,1,3.7,1.6,5.8c2-0.1,3.7-0.2,5.5-0.3
		c0-2.2,0-3.8,0-6.1C-321.1,412.8-323.4,413.1-325.6,413.2L-325.6,413.2z M-432.9,405.6c-2,0.2-3.9,0.4-6.1,0.6c0,2,0,3.8,0,5.7
		c2.1,0,4,0,5.9,0c0-2.4,0-4.4,0-6.4C-433,405.5-432.9,405.6-432.9,405.6z M-318,405.6c-0.2-2-0.4-4-0.6-6.2c-2,0-3.8,0-5.7,0
		c0,2.1,0,3.9,0,6c2.5,0,4.5,0,6.5,0C-317.8,405.5-318,405.6-318,405.6z M-318,426c2-0.1,3.9-0.3,6.1-0.5c0-2.1,0-3.9,0-5.8
		c-2.1,0-4,0-5.9,0c0,2.4,0,4.4,0,6.4C-317.8,426.2-318,426-318,426z M-332,386.1c-2.1,0-4,0-6.3,0c0.1,2.1,0.2,3.9,0.3,5.8
		c2.2,0,4,0,6,0C-332,389.8-332,388-332,386.1z M-210.5,392.3c0.2,2,0.4,3.9,0.6,6.1c2,0,3.8,0,5.7,0c0-2.1,0-4,0-6
		c-2.5,0-4.5,0-6.5,0C-210.7,392.5-210.5,392.3-210.5,392.3z M-433.1,426.2c0-2.1,0-4.3,0-6.6c-2.1,0-3.9,0-5.7,0c0,2.1,0,4,0,6
		c2.2,0.2,4.1,0.4,5.9,0.5L-433.1,426.2z M-317.8,426.2c-2.2,0-4.3,0-6.6,0c0,2.2,0,4,0,6c2.1,0,3.9,0,5.9,0
		c0.2-2.2,0.4-4.2,0.6-6.2C-318,426-317.8,426.2-317.8,426.2z M-176.8,405.7c-2,0.1-4,0.3-6.2,0.4c0,2,0,3.8,0,5.8c2.1,0,4,0,6,0
		c0-2.4,0-4.4,0-6.4L-176.8,405.7z M-425.7,419c0-2.1,0-4.2,0-6.3l0.2,0.2c-2.3,0-4.5,0-6.8,0c0,2.3,0,4,0,5.9c2.5,0,4.6,0,6.8,0
		L-425.7,419z M-446,392.5c-2.1,0-4.3,0-6.5,0c0,2.3,0,4.1,0,6c2,0,3.8,0,5.9,0c0.1-2.2,0.3-4.2,0.4-6.2L-446,392.5z M-432.9,392.1
		c2.1,0,4.2,0,6.4,0c0-2.5,0-4.3,0-6c-2.1,0-3.9,0-6.2,0c0,2.3,0,4.2,0,6.2L-432.9,392.1z M-176.8,392.1c2.1,0,4.2,0,6.4,0
		c0-2.5,0-4.2,0-6.1c-2.1,0-3.9,0-5.9,0c-0.1,2.3-0.2,4.3-0.3,6.2L-176.8,392.1z M-304.7,392.3c0.1,2,0.2,4,0.3,6c2.3,0,4.1,0,6.4,0
		c-0.2-2.2-0.3-3.9-0.5-5.8c-2.4,0-4.4,0-6.4,0L-304.7,392.3z M-318.2,392.3c0-2,0-4,0-6.2c-2.4,0-4.3,0-6.2,0c0,2.1,0,3.9,0,6
		c2.3,0,4.3,0,6.4,0L-318.2,392.3z M-433,405.5c2.1,0,4.3,0,6.7,0c0-2.2,0-4,0-6c-2.1,0-3.9,0-5.9,0c-0.2,2.2-0.4,4.2-0.6,6.2
		C-432.9,405.6-433,405.5-433,405.5z M-176.9,405.5c2.1,0,4.2,0,6.6,0c0-2.3,0-4.1,0-6c-2.1,0-3.8,0-5.8,0c-0.2,2.2-0.4,4.2-0.5,6.2
		C-176.8,405.7-176.9,405.5-176.9,405.5z M-190,392.5c-2.1,0-4.2,0-6.4,0c0,2.3,0,4.1,0,6c2.1,0,3.9,0,6.2,0c0-2.2,0-4.2,0-6.2
		L-190,392.5z M-304.9,378.9c0.2,2,0.4,4,0.6,6.1c2.1,0,3.8,0,5.9,0c0-2,0-3.8,0-5.9c-2.3,0-4.5,0-6.7,0
		C-305,379.1-304.9,378.9-304.9,378.9z M-177,418.7c2.1,0,4.3,0,6.6,0c0-2,0-3.8,0-5.7c-2.1,0-3.9,0-5.9,0c-0.2,2.2-0.4,4-0.6,5.8
		C-176.8,418.9-177,418.7-177,418.7z M-325.7,413.3c0.2-2.4,0.4-4.7,0.5-7c-2.6-0.4-4.3-0.6-6.1-0.9c0,0,0.1-0.1,0.1-0.1
		c0,2.7,0.1,5.4,0.1,8.1c0,0-0.1-0.1-0.1-0.1C-329.3,413.2-327.5,413.2-325.7,413.3C-325.6,413.2-325.7,413.3-325.7,413.3z
		 M-190.2,392.3c2.1-0.2,4.2-0.3,6.6-0.5c-0.1-2.3-0.2-4-0.3-6c-2.2,0.1-4,0.2-6.1,0.3c0,2.4,0,4.4,0,6.4
		C-190,392.5-190.2,392.3-190.2,392.3z M-432.9,426.1c0.2,2,0.4,4,0.7,6.4c2.1-0.1,4-0.2,5.8-0.3c0-2.3,0-4,0-6c-2.4,0-4.5,0-6.7,0
		C-433.1,426.2-432.9,426.1-432.9,426.1z M-189.8,379.1c-2.1,0-4.2,0-6.6,0c0,2.2,0,3.9,0,5.7c2.2,0,4,0,5.9,0
		c0.2-2.3,0.4-4.1,0.5-5.9C-190,378.9-189.8,379.1-189.8,379.1z M-445.9,379.1c-2.1,0-4.3,0-6.6,0c0,2.2,0,4,0,6c2,0,3.8,0,5.8,0
		c0.2-2.2,0.4-4.1,0.6-6.1C-446,378.9-445.9,379.1-445.9,379.1z M-216.9,413.1c0.1,2.2,0.2,4,0.3,5.9c2.3-0.1,4.1-0.2,5.8-0.3
		c0-2.2,0-3.8,0-5.6C-212.9,413.1-214.8,413.1-216.9,413.1z M-291.7,418.6c0-2.1,0-3.8,0-5.7c-2.1,0-3.8,0-5.8,0c0,1.9,0,3.5,0,5.7
		C-295.3,418.6-293.6,418.6-291.7,418.6z M-305.2,412.6c-2.2,0.1-3.9,0.2-6,0.3c0.1,2.3,0.2,4.1,0.4,5.8c2.2,0,3.8,0,5.6,0
		C-305.2,416.4-305.2,414.6-305.2,412.6z M-352.5,123.4c-1.9,0-3.5,0-5.5,0c0.1,2,0.2,3.6,0.3,5.2c2,0,3.5,0,5.2,0
		C-352.5,126.8-352.5,125.2-352.5,123.4z M-203.2,418.6c2.2,0,4,0,5.7,0c0-2.1,0-3.9,0-5.8c-2,0-3.6,0-6,0
		C-203.3,415.2-203.2,416.9-203.2,418.6z M-184,413c-2.1,0-3.8,0-5.7,0c0,2.1,0,3.8,0,5.8c2,0,3.6,0,5.7,0
		C-184,416.6-184,414.8-184,413z M-359.5,103.2c-1.9,0-3.5,0-5.5,0c0.1,2,0.2,3.5,0.3,5.2c1.3,0.1,2.2,0.2,3,0.2
		c0.6,0,1.3-0.2,2.2-0.4C-359.5,106.5-359.5,104.9-359.5,103.2z M-433.5,379.3c-1.7,0-3.4,0-5.4,0c0,1.9,0,3.6,0,5.5
		C-432.5,385.7-432.3,385.4-433.5,379.3z M-419.7,378.9c-2.3,0.1-4,0.2-6.1,0.3c0.1,2.3,0.2,4.1,0.3,6c2.2-0.1,3.8-0.2,6.1-0.3
		C-419.5,382.6-419.6,380.9-419.7,378.9z M-325.5,384.9c0-2.1,0-3.8,0-5.6c-2.1,0-3.9,0-5.8,0c0,2,0,3.6,0,5.6
		C-329,384.9-327.2,384.9-325.5,384.9z M-317.6,385c1.9,0,3.6,0,5.6,0c0-2,0-3.8,0-5.8c-1.9,0-3.5,0-5.6,0
		C-317.6,381-317.6,382.9-317.6,385z M-373.5,130.4c-0.5-0.6-3.2-0.7-3.6-0.1c-0.9,1.2-0.9,3.1-1.5,5.3c2.5-0.1,4.1-0.2,6.3-0.3
		C-372.8,133.4-372.7,131.5-373.5,130.4z M-231.4,123.4c-2,0-3.5,0-5.5,0c0.2,2,0.4,3.6,0.5,5.3c1.8,0,3.1,0,5,0
		C-231.4,126.7-231.4,125.1-231.4,123.4z M-244.9,123.1c-2,0.1-3.5,0.2-5.5,0.4c0.1,2,0.2,3.6,0.3,5.2c1.9,0,3.4,0,5.1,0
		C-244.9,126.5-244.9,125-244.9,123.1z M-359.5,129.9c-2,0.1-3.5,0.2-5.1,0.2c0,1.9,0,3.5,0,5.3c1.8,0,3.3,0,5.5,0
		C-359.2,133.4-359.3,131.8-359.5,129.9z M-182.9,385c2.1,0,3.8,0,5.7,0c0-2.1,0-3.8,0-5.8c-1.9,0-3.5,0-5.7,0
		C-182.9,381.4-182.9,383.1-182.9,385z M-325.5,392.7c-1.9,0-3.7,0-5.6,0c0,2,0,3.8,0,5.8c1.9,0,3.6,0,5.6,0
		C-325.5,396.6-325.5,394.7-325.5,392.7z M-372.5,94.7c-0.2-2-0.3-3.6-0.4-5.5c-2.1,0.2-3.7,0.3-5.2,0.5c0,1.9,0,3.4,0,5
		C-376.2,94.7-374.5,94.7-372.5,94.7z M-446.1,425.9c0.1,2,0.2,4,0.3,6.2c2.1,0,3.8,0,5.8,0c0-2,0-3.8,0-6c-2.3,0-4.3,0-6.2,0
		C-446.2,426.1-446.1,425.9-446.1,425.9z M-304.6,426.1c-2.1,0-4.2,0-6.6,0c0.1,2.5,0.2,4.3,0.3,6.4c2.3-0.1,4.1-0.3,6.1-0.4
		c0-2.5,0-4.3,0-6.2C-304.8,426-304.6,426.1-304.6,426.1z M-197.5,426.1c-2.1,0.1-3.9,0.2-5.6,0.2c0,2.2,0,4,0,5.9c2,0,3.6,0,5.6,0
		C-197.5,430-197.5,428.2-197.5,426.1z M-453.5,386c-2,0-3.8,0-5.7,0c0,2.1,0,3.8,0,5.8c1.9,0,3.5,0,5.7,0
		C-453.5,389.8-453.5,388-453.5,386z M-446.2,392.3c2-0.2,4-0.3,6.2-0.5c0-2.1,0-3.9,0-5.7c-2.1,0-3.8,0-6,0c0,2.4,0,4.4,0,6.4
		C-446,392.5-446.2,392.3-446.2,392.3z M-190,426c0,2,0,4,0,6.2c2.4,0,4.1,0,6.1,0c0-2,0-3.8,0-6c-2.3,0-4.3,0-6.2,0
		C-190.2,426.1-190,426-190,426z M-236.5,96.5c0,1.9,0,3.4,0,5.2c1.9,0,3.5,0,5.2,0c0-1.9,0-3.3,0-5.4
		C-233.4,96.3-234.9,96.4-236.5,96.5z M-244.4,101.6c-0.2-2-0.3-3.6-0.5-5.5c-2.1,0.2-3.6,0.3-5.4,0.4c0.1,1.9,0.2,3.4,0.3,5.1
		C-248.1,101.6-246.4,101.6-244.4,101.6z M-304.9,392.5c0-2.1,0-4.3,0-6.8c-2.5,0.1-4.3,0.2-6.3,0.4c0.2,2.3,0.3,4.1,0.4,5.9
		c2.4,0.1,4.3,0.2,6.2,0.4C-304.7,392.3-304.9,392.5-304.9,392.5z M-297.4,391.7c2.3,0,4,0,5.6,0c0-2.2,0-3.9,0-5.8c-2,0-3.7,0-6,0
		C-297.6,388.3-297.5,390.1-297.4,391.7z M-258.3,101.7c0-1.9,0-3.5,0-5.5c-2,0.1-3.6,0.2-5.2,0.3c0,2,0,3.4,0,5.2
		C-261.6,101.7-260,101.7-258.3,101.7z M-250,230.2c2.1-0.3,3.7-0.5,5.5-0.7c-0.1-1.9-0.2-3.4-0.4-5.1c-1.8,0-3.3,0-5.5,0
		C-250.2,226.7-250.1,228.3-250,230.2z M-210.7,392.5c0-2.1,0-4.3,0-6.4c-2.4,0-4.1,0-6.2,0c0.1,2.2,0.2,4,0.3,5.8
		c2.4,0.2,4.2,0.3,6.1,0.4C-210.5,392.3-210.7,392.5-210.7,392.5z M-203.1,386.1c0,2.1,0,3.9,0,5.6c2.1,0,3.9,0,5.8,0
		c0-2,0-3.6,0-5.6C-199.5,386.1-201.3,386.1-203.1,386.1z M-391.5,94.8c2,0,3.6,0,5.5,0c-0.1-1.9-0.2-3.4-0.3-5.2
		c-1.9,0-3.3,0-5.5,0C-391.6,91.6-391.6,93.2-391.5,94.8z M-445.7,418.6c2.1,0,3.8,0,5.6,0c0-2.1,0-3.8,0-5.8c-2,0-3.6,0-5.6,0
		C-445.7,415.1-445.7,416.8-445.7,418.6z M-257.9,115c-0.1-1.9-0.2-3.5-0.4-5.1c-2,0-3.4,0-5.2,0c-0.1,1.7-0.2,3.2-0.3,5.1
		C-261.7,115-260,115-257.9,115z M-103,94.8c-0.2-2-0.3-3.6-0.4-5.5c-2,0.2-3.6,0.3-5.2,0.4c0,1.9,0,3.4,0,5.5
		C-106.5,95.1-104.9,94.9-103,94.8z M-250.4,110.1c0.1,2.1,0.3,3.6,0.4,5.5c2.1-0.2,3.6-0.3,5.5-0.4c-0.1-1.9-0.2-3.4-0.3-5.6
		C-247,109.7-248.5,109.9-250.4,110.1z M-432.7,392.3c-2,0.1-4,0.2-6.2,0.3c0,2.1,0,3.8,0,5.8c2,0,3.8,0,6.1,0c0-2.3,0-4.3,0-6.3
		C-432.9,392.1-432.7,392.3-432.7,392.3z M-419.4,392.2c-2,0.1-3.9,0.3-6,0.4c0,2.1,0,3.9,0,5.7c2.1,0,3.8,0,5.8,0
		c0-2.3,0-4.3,0-6.3L-419.4,392.2z M-122,89.8c0,1.8,0,3.3,0,5.1c1.9,0,3.5,0,5.3,0c0-1.8,0-3.2,0-5.1
		C-118.4,89.8-120.1,89.8-122,89.8z M-130.2,89.6c-1.9,0-3.4,0-5.3,0c0,1.8,0,3.4,0,5.2c1.8,0,3.4,0,5.6,0
		C-130,92.8-130,91.4-130.2,89.6z M-459.2,419c2.3-0.1,4.1-0.2,6.1-0.4c-0.1-2.3-0.2-4-0.4-5.8c-2.1,0-3.8,0-6.1,0
		C-459.4,415.2-459.3,417-459.2,419z M-318,392.1c0,2,0,4,0,6.3c2.2,0,4,0,5.9,0c0-2.1,0-4,0-6.1c-2.3,0-4.2,0-6.1,0L-318,392.1z
		 M-231.5,109.6c-2,0.2-3.5,0.3-5,0.4c0,1.9,0,3.5,0,5.3c1.8,0,3.3,0,5.5,0C-231.2,113-231.3,111.4-231.5,109.6z M-359.4,94.9
		c0-1.8,0-3.4,0-5.2c-1.9,0-3.5,0-5.3,0c0,1.8,0,3.3,0,5.2C-362.7,94.9-361.2,94.9-359.4,94.9z M-231.5,88c1.4-5-0.8-5.9-5.2-4.7
		C-237.6,88.4-235.5,89.4-231.5,88z M-312.3,324.1c0-1.9,0-3.5,0-5.2c-1.9,0-3.4,0-5.2,0c0,1.9,0,3.5,0,5.2
		C-315.7,324.1-314.1,324.1-312.3,324.1z M-438.9,319.2c0.1,1.6,0.2,3.2,0.3,4.9c1.9,0,3.4,0,5.1,0
		C-432.2,318.7-434.4,317.9-438.9,319.2z M-176.6,392.3c-2,0.1-4,0.2-6.2,0.3c0,2.1,0,3.8,0,5.8c2,0,3.8,0,6,0c0-2.3,0-4.3,0-6.3
		C-176.8,392.1-176.6,392.3-176.6,392.3z M-263.4,128.9c2.1-0.1,3.6-0.3,5.2-0.4c0-1.9,0-3.4,0-5.2c-1.8,0-3.4,0-5.6,0
		C-263.6,125.5-263.5,127.1-263.4,128.9z M-142.2,115.2c2,0,3.5,0,5.1,0c0-1.9,0-3.5,0-5.3c-1.8,0-3.2,0-5.5,0
		C-142.4,112-142.3,113.6-142.2,115.2z M-264.8,94.8c-0.1-2-0.3-3.6-0.4-5.5c-2,0.2-3.6,0.3-5.2,0.4c0,1.9,0,3.3,0,5.5
		C-268.2,95-266.7,94.9-264.8,94.8z M-433.4,269.1c0.5-0.3,0.5-2.9-0.1-3.2c-1.3-0.9-3.1-1.1-5.2-1.6c-0.1,2.3-0.2,3.8-0.4,6.7
		C-436.5,270.2-434.7,270-433.4,269.1z M-169.2,264.9c0,2,0,3.4,0,5c2,0,3.7,0,5.6,0c-0.1-1.9-0.2-3.4-0.3-5.5
		C-166.1,264.6-167.6,264.8-169.2,264.9z M-459.5,399.5c0.1,2.4,0.2,4.1,0.4,5.8c2.2,0,3.8,0,5.7,0c0-2,0-3.7,0-6.1
		C-455.8,399.3-457.5,399.4-459.5,399.5z M-446.2,405.5c2,0,4,0,6.2,0c0-2.2,0-4,0-5.9c-2.1,0-4,0-6,0c0,2.3,0,4.2,0,6
		C-446.1,405.7-446.2,405.5-446.2,405.5z M-122.3,76.3c0.1,2,0.2,3.6,0.3,5.5c2.1-0.2,3.7-0.3,5.5-0.4c-0.1-2-0.2-3.5-0.3-5.1
		C-118.7,76.3-120.2,76.3-122.3,76.3z M-135.4,81.4c1.9,0,3.5,0,5.1,0c0.5-5.4,0.5-5.4-5.1-5.2C-135.4,78.1-135.4,79.7-135.4,81.4z
		 M-244.5,270c-0.1-1.9-0.1-3.4-0.2-5c-2,0-3.7,0-5.4,0c0,1.9,0,3.4,0,5.5C-247.9,270.2-246.3,270.1-244.5,270z M-364.9,76.2
		c0.1,2,0.2,3.6,0.3,5.5c2-0.1,3.6-0.2,5.3-0.3c0-1.9,0-3.3,0-5.6C-361.5,76-363,76.1-364.9,76.2z M-304.8,405.7
		c-0.1-2-0.2-4-0.3-6.2c-2.1,0-3.9,0-5.8,0c0,2,0,3.8,0,6c2.3,0,4.3,0,6.3,0C-304.6,405.5-304.8,405.7-304.8,405.7z M-297.4,399.6
		c0,2.1,0,3.8,0,5.6c2.1,0,3.8,0,5.8,0c0-2,0-3.6,0-5.6C-293.8,399.6-295.6,399.6-297.4,399.6z M-210.6,405.7c0-2,0-4,0-6.2
		c-2.2,0-3.9,0-5.8,0c0,2.1,0,4,0,6c2.3,0,4.1,0,6,0C-210.4,405.5-210.6,405.7-210.6,405.7z M-203.1,405.2c2.1,0,3.8,0,5.7,0
		c0-2.1,0-3.9,0-5.8c-1.9,0-3.6,0-5.7,0C-203.1,401.6-203.1,403.4-203.1,405.2z M-189.6,405.2c2.1,0,3.9,0,5.6,0c0-2.1,0-3.9,0-5.8
		c-1.1-0.1-2-0.2-2.8-0.2s-1.6,0.1-2.8,0.2C-189.6,401.7-189.6,403.5-189.6,405.2z M-378.3,76.7c0.1,1.5,0.2,3.1,0.3,4.8
		c1.9,0,3.4,0,5.1,0C-372.4,75.5-372.5,75.3-378.3,76.7z M-317.5,270.1c1.9,0,3.4,0,5.2,0c0-1.9,0-3.4,0-5.2c-1.9,0-3.4,0-5.2,0
		C-317.5,266.7-317.5,268.3-317.5,270.1z M-357.7,265c0,1.7,0,3.3,0,5.1c1.8,0,3.2,0,5.1,0C-351.5,265.2-353.1,263.6-357.7,265z
		 M-398.4,270c1.9,0,3.5,0,5.5,0c-0.1-1.9-0.2-3.5-0.3-5.2c-2,0-3.4,0-5.6,0C-398.6,266.9-398.5,268.3-398.4,270z M-350.5,95.1
		c2-0.2,5.1,1.1,4.6-2.9c-0.1-1-2-1.8-3-2.8c-1.1,1.4-2.2,2.8-3.3,4.2C-351.6,94.1-351,94.6-350.5,95.1z M-135.5,130.2
		c0,1.9,0,3.4,0,5.2c1.8,0,3.4,0,5.3,0c0-1.8,0-3.2,0-5.4C-132.2,130.1-133.8,130.1-135.5,130.2z M-224.4,93.5
		c0.5-0.4,0.2-2.9-0.3-3.2c-1.5-0.7-3.2-0.7-5.3-1c0.1,2.3,0.2,3.8,0.3,6.7C-227.3,95-225.6,94.6-224.4,93.5z M-144.8,89.7
		c-0.4-0.6-2.9-0.5-3.2,0c-0.8,1.4-0.9,3.2-1.4,5.2c2.3,0,3.8,0,6.6,0C-143.6,92.7-143.8,90.9-144.8,89.7z M-249.9,184.2
		c0,1.6,0,3.2,0,5c1.8,0,3.3,0,5,0C-243.7,184.2-245.4,182.7-249.9,184.2z M-123.4,114.7c-0.1-1.5-0.2-3.1-0.3-4.8
		c-1.9,0-3.4,0-4.8,0C-129.6,115.7-129.3,115.9-123.4,114.7z M-357.7,96.5c0,1.8,0,3.4,0,5.2c4.4,0.9,6.5,0,4.9-5.2
		C-354.5,96.5-356,96.5-357.7,96.5z M-137.1,101.6c0-1.7,0-3.2,0-5.2c-1.7-0.1-3.1-0.1-4.9-0.2
		C-143.4,101.4-141.6,102.7-137.1,101.6z M-369.9,89.2c1.4-1.2,2.8-2.3,4.2-3.5c-1-1-2-2-2.9-3c-1.2,1.3-2.4,2.6-3.7,3.9
		C-371.5,87.6-370.7,88.4-369.9,89.2z M-128.1,101.6c0.5,0.7,3.3,0.7,3.6,0.1c0.9-1.3,0.9-3.2,1.3-5.2c-2.2,0-3.7,0-6.1,0
		C-128.9,98.6-128.9,100.4-128.1,101.6z M-357.7,115c5.3,1.4,6.1-0.8,5-5.1c-1.6,0-3.1,0-5.3,0C-357.9,112-357.8,113.6-357.7,115z
		 M-122,103.4c0,1.6,0,3,0,4.8c1.8,0,3.4,0,5.2,0C-115.6,102.6-118,102.1-122,103.4z M-264.8,107.8c-0.1-1.6-0.2-3.2-0.3-4.8
		c-2.8-0.2-5.9-1.2-5.3,2.7c0.2,1.4,2.6,2.4,4,3.6C-265.9,108.8-265.4,108.3-264.8,107.8z M-379.8,128.6c0-1.9,0-3.5,0-5.3
		c-1.8,0-3.3,0-5.1,0c-0.1,1.8-0.2,3.4-0.3,5.3C-383.2,128.6-381.6,128.6-379.8,128.6z M-372.8,103.1c-1.8,0-3.4,0-5.2,0
		c0,1.9,0,3.5,0,5.2c1.8,0,3.3,0,5.2,0C-372.8,106.3-372.8,104.8-372.8,103.1z M-116.8,134.2c0.5-0.4,0.4-3-0.1-3.2
		c-1.4-0.8-3.2-0.8-5.2-1.2c0,2.3,0,3.7,0,6.6C-119.7,135.5-118,135.2-116.8,134.2z M-136.7,128.5c-0.1-2-0.3-3.6-0.4-5
		c-4.8-1.3-6.1,0.5-5,5C-140.2,128.5-138.7,128.5-136.7,128.5z M-238,89.4c-1.9,0.1-3.5,0.2-5.1,0.2c0,2,0,3.6,0,5.3
		c1.1,0.1,1.9,0.2,2.8,0.2c0.6,0,1.3-0.1,2.4-0.2C-238,92.9-238,91.3-238,89.4z M-123.3,87.8c-0.1-1.5-0.3-3.1-0.4-4.7
		c-1.9,0-3.3,0-4.8,0C-129.5,88.7-129.2,89-123.3,87.8z M-128.8,123.4c0,1.9,0,3.5,0,5.5c1.9-0.1,3.5-0.2,5.2-0.3c0-2,0-3.4,0-5.2
		C-125.5,123.4-127,123.4-128.8,123.4z M-378,117.7c-0.6,0.5-0.4,3.3,0.2,3.7c1.4,0.8,3.3,0.7,5.3,1c-0.1-2.2-0.2-3.7-0.3-6.2
		C-375.1,116.7-376.9,116.7-378,117.7z M-386.2,103.1c-1.9,0-3.5,0-5.5,0c0.1,1.8,0.2,3.6,0.3,5.5c2-0.1,3.5-0.2,5.6-0.3
		C-386,106.2-386.1,104.8-386.2,103.1z M-115.4,123.4c0.1,2.1,0.3,3.7,0.4,5.5c2-0.1,3.5-0.2,5.1-0.3c0-1.8,0-3.2,0-5.6
		C-111.9,123.2-113.5,123.3-115.4,123.4z M-345.7,105.6c0-0.8-0.2-1.6-0.3-2.3c-5.9-0.9-6-0.7-4.5,5.2c1.4-0.1,2.9-0.2,4.5-0.3
		C-345.9,107.2-345.7,106.4-345.7,105.6z M-312.3,283.3c0-1.6,0-3.2,0-5c-1.8,0-3.3,0-5.1,0C-318.5,283.3-316.8,284.7-312.3,283.3z
		 M-366.4,224.3c-1.6,0.1-3.2,0.2-4.9,0.3c0,1.9,0,3.4,0,5.1C-365.8,230.9-365,228.7-366.4,224.3z M-243.1,81.7c2-0.1,3.6-0.2,5-0.2
		c1.3-4.8-0.2-6.5-5.4-5.1C-243.4,78.3-243.3,79.9-243.1,81.7z M-243.5,103.7c0.1,1.4,0.2,2.9,0.3,4.6c1.9,0,3.5,0,5.1,0
		C-237.5,102.4-237.9,102.1-243.5,103.7z M-229.7,108.3c1.9,0,3.4,0,5.2,0c0-1.8,0-3.4,0-5.2c-1.8-0.1-3.2-0.2-5.5-0.3
		C-229.9,105-229.8,106.6-229.7,108.3z M-145.8,102.8c-1.1,0.9-3.1,1.6-3.3,2.6c-0.6,3.9,2.2,3.3,6.8,2.7
		C-143.7,105.9-144.8,104.3-145.8,102.8z M-130.2,103.1c-1.9,0-3.5,0-5.3,0c0,1.7,0,3.3,0,5.2c1.8,0,3.4,0,5.3,0
		C-130.2,106.5-130.2,104.9-130.2,103.1z M-110,115.2c0-1.9,0-3.5,0-5.5c-2,0.1-3.5,0.2-5.4,0.3c0.1,2,0.2,3.4,0.3,5.6
		C-113,115.4-111.6,115.3-110,115.2z M-108.5,108.6c2-0.1,3.5-0.2,5.5-0.3c-0.1-2-0.2-3.5-0.3-5.3c-1.9,0-3.4,0-5.2,0
		C-108.5,105.1-108.5,106.6-108.5,108.6z M-371.1,109.8c0,2,0,3.7,0,5.7c1.9-0.1,3.4-0.2,5.1-0.3c0-1.8,0-3.4,0-5.6
		C-368,109.7-369.5,109.8-371.1,109.8z M-115.4,83.6c0.1,1.6,0.2,3.1,0.3,4.7c0.5,0.4,1,0.7,1.5,1.1c1.3-1.3,2.6-2.5,3.9-3.8
		c-1.4-1.2-2.8-2.3-4.1-3.5C-114.3,82.5-114.9,83.1-115.4,83.6z M-256.8,103.2c0,1.8,0,3.3,0,5.2c1.8,0,3.2,0,5,0
		C-250.5,103.3-252.3,102-256.8,103.2z M-109.9,96.5c-1.8,0-3.4,0-5,0c-1.2,4.2-0.3,6.4,5,5.2C-109.9,99.9-109.9,98.3-109.9,96.5z
		 M-196,324.1c1.9,0,3.4,0,5.1,0c0-1.9,0-3.5,0-5.2c-1.8,0-3.3,0-5.4,0C-196.2,320.9-196.1,322.4-196,324.1z M-379.7,88.2
		c0-1.8,0-3.4,0-5.1c-1.9,0-3.5,0-5.2,0c0,1.8,0,3.3,0,5.1C-383,88.2-381.4,88.2-379.7,88.2z M-263.4,88.5c2-0.1,3.6-0.2,5.2-0.3
		c0-2,0-3.5,0-5.2c-1.9,0-3.5,0-5.2,0C-263.4,85-263.4,86.6-263.4,88.5z M-352.5,83.1c-1.9,0-3.5,0-5.5,0c0.1,1.9,0.2,3.5,0.3,5.1
		c2,0,3.5,0,5.2,0C-352.5,86.4-352.5,84.9-352.5,83.1z M-128.6,270.3c1.7-0.1,3.3-0.2,5.1-0.3c0-1.9,0-3.4,0-5.1
		C-128.9,263.6-129.8,265.9-128.6,270.3z M-244.7,86.8c0.5-0.4,0.3-3-0.2-3.2c-1.5-0.6-3.3-0.6-5.2-0.9c0,2.2,0,3.6,0,6.5
		C-247.6,88.3-245.9,87.9-244.7,86.8z M-371.5,96.5c0.1,1.9,0.2,3.5,0.3,5.2c2,0,3.4,0,5.2,0c0.1-1.7,0.1-3.2,0.2-5.2
		C-367.9,96.5-369.5,96.5-371.5,96.5z M-365.7,128.6c-0.1-2-0.2-3.6-0.2-5.4c-1.9,0-3.4,0-5.2,0c0,1.8,0,3.4,0,5.7
		C-369.2,128.8-367.5,128.7-365.7,128.6z M-121.1,121.8c0.6,0.6,3.3,0.6,3.6,0c0.8-1.3,0.7-3.2,1-5c-2.2,0-3.7,0-6.3,0
		C-122.1,119-122,120.8-121.1,121.8z M-252,129.9c-1.6,0.1-3.2,0.1-4.9,0.2c0,1.9,0,3.4,0,5.2C-251.6,136.5-250.5,134.6-252,129.9z
		 M-128.8,189.5c2-0.1,3.5-0.2,5.2-0.3c0-1.9,0-3.4,0-5.2c-1.7-0.1-3.2-0.1-5.2-0.2C-128.8,185.9-128.8,187.5-128.8,189.5z
		 M-364.7,118c-0.5,0.4-0.4,2.9,0.1,3.2c1.4,0.7,3.2,0.8,5.2,1.2c0-2.2,0-3.7,0-6.6C-361.7,116.7-363.4,117-364.7,118z
		 M-266.2,115.8c-1.4,1.1-2.9,2.2-4.3,3.4c0.9,1.1,1.9,2.1,2.8,3.1c1.3-1.3,2.5-2.6,3.8-3.8C-264.7,117.6-265.5,116.7-266.2,115.8z
		 M-366.1,183.7c-1.9,0.1-3.5,0.2-5.4,0.3c0.2,2.1,0.3,3.7,0.4,5.4c1.8,0,3.1,0,5,0C-366.1,187.3-366.1,185.7-366.1,183.7z
		 M-128.8,230.1c2-0.1,3.5-0.2,5.2-0.2c0-2,0-3.5,0-5.2c-1.9,0-3.5,0-5.5,0C-129,226.4-128.9,228-128.8,230.1z M-251.7,94.8
		c0-1.9,0-3.5,0-5.2c-1.8,0-3.3,0-5,0c0,1.8,0,3.5,0,5.2C-255,94.8-253.4,94.8-251.7,94.8z M-142.1,88.5c1.9-0.1,3.5-0.2,5.3-0.4
		c-0.1-1.9-0.2-3.4-0.2-5.1c-1.7-0.1-3.2-0.2-5.1-0.2C-142.1,84.7-142.1,86.4-142.1,88.5z M-384.7,101.9c5.6-0.2,5.6-0.2,4.7-5.5
		c-1.4,0-2.9,0-5.1,0C-385,98.6-384.8,100.2-384.7,101.9z M-135.8,117c0.2,1.9,0.3,3.3,0.4,4.7c4.9,1.6,6.2-0.1,5-4.7
		C-132.1,117-133.8,117-135.8,117z M-193.1,283.7c1-0.1,1.7-1.8,2.6-2.8c-1.4-1.1-2.9-2.3-4.3-3.4
		C-196.3,281.4-197,284.2-193.1,283.7z M-380,109.7c-1.8,0.1-3.3,0.2-5.1,0.2c0.1,2,0.2,3.5,0.4,5.2
		C-379.2,116.3-378.9,113.8-380,109.7z M-391.4,121.8c1.9,0,3.5,0,5.3,0c0-1.8,0-3.3,0-5.1c-1.9,0-3.4,0-5.3,0
		C-391.4,118.7-391.4,120.2-391.4,121.8z M-346.1,116.8c-5.1-1-6.2,1-4.8,5.2c1.7,0,3.1,0,5.4,0
		C-345.8,119.8-345.9,118.3-346.1,116.8z M-241.9,123c1.4-1.2,2.8-2.4,4.2-3.6c-1-1-2-2-3-3c-1.2,1.3-2.4,2.7-3.7,4.1
		C-243.5,121.4-242.7,122.2-241.9,123z M-252.9,76.2c-0.4-0.5-2.9-0.3-3.2,0.2c-0.7,1.4-0.7,3.2-1.1,5.1c2.2,0,3.6,0,6.5,0
		C-251.6,79.1-251.9,77.4-252.9,76.2z M-204.8,264.5c-1.7,0.1-3.2,0.2-5,0.3c0.1,2,0.1,3.4,0.2,5.2
		C-204.2,271.1-203.5,268.8-204.8,264.5z M-238.2,129.9c-1.9,0.1-3.5,0.2-5.4,0.3c0.1,2,0.2,3.4,0.4,5.1c1.8,0,3.2,0,5,0
		C-238.2,133.6-238.2,132-238.2,129.9z M-103.3,120.6c0.5-0.4,0.3-2.9-0.2-3.2c-1.5-0.7-3.3-0.7-5.2-1c-0.1,1.6-0.1,2.4-0.1,3.2
		c0,0.6,0.1,1.3,0.3,3.2C-106.3,122-104.5,121.6-103.3,120.6z M-143.3,121.4c-0.1-1.5-0.2-3.1-0.2-4.7c-2,0-3.4,0-4.8,0
		C-149.5,122.2-149.1,122.7-143.3,121.4z M-437.5,283.5c0.5,0.6,2.9,0.3,3.6-0.4s1-3.2,0.5-3.5c-1.3-0.9-3.1-1-6.2-1.9
		C-438.6,280.5-438.4,282.3-437.5,283.5z M-224.4,119.7c-0.3-1.2-1.7-2.2-2.6-3.2c-1,1-2.5,1.9-2.8,3.1c-0.2,0.8,1.2,2,2.5,3.9
		C-225.8,121.6-224.2,120.4-224.4,119.7z M-256.1,121.8c0.4,0.6,3.2,0.7,3.6,0.1c0.9-1.2,0.9-3.1,1.5-5.1c-2.3-0.1-3.7-0.2-6.1-0.3
		C-256.8,118.8-256.9,120.6-256.1,121.8z"/>
	
		<image style="overflow:visible;" width="477" height="600" xlink:href="../../../../Tatreez/pattern_examples.jpeg"  transform="matrix(1 0 0 1 -391.305 -664.9818)">
	</image>
</g>
<g id="Layer_2">
	<path d="M256,115c0.8-10.2,19-35.7,30-50.3s5.5-27.3,0-27.3s-10.9-9.1-20,7.3c-9.1,16.4-18.2,36.7-18.2,36.7
		C224.1,66.6,204,34.9,204,34.9s-12.7,6.2-10.9,17.1C194.9,62.9,256,115,256,115z"/>
	<path d="M256,135.7c26.3-29.1,15.4-34.5,26.3-29.1s18.1,14.4,9.9,29.1c-8.1,14.6-28,21.4-36.3,30.8s-13.7,6.9-30.1-10.1
		s-23.7-19.4-23.7-34.6s-20-13.3,0-15.2C222.2,104.8,256,135.7,256,135.7z"/>
	<path d="M267.8,222.8c10.9-32.5,14.4-38.5,24.5-51c10.1-12.4,21-24,24.6-15.5c3.6,8.5-18.2,38.7-32.8,68.2
		c-14.6,29.5-19.9,57.9-28.1,56.5c-8.3-1.4-28.3,8.6-42.9-36.5c-14.6-45.1-32.8-45.4-32.8-61.6s-14.6-25.3,0-26.2
		c14.6-0.9,32.8,10.8,40.1,25.9c7.3,15.1,22.2,34.7,22.2,34.7L267.8,222.8z"/>
	<path d="M282.3,283.7c12.7-18.7,24.5-29.7,35-46c10.5-16.4,21.4-31.8,23.3-20.4c1.8,11.3,20,35.3,0,46.1
		c-20,10.8-61.9,84.9-67.4,87.9c-5.5,3-17.2,24.6-17.2,24.6s-19.2,6.4-35.6-24c-16.4-30.4-34.8-43.9-46.5-68.1s-13.6-30.6-11.7-46.5
		c1.8-15.9,20,7.3,20,7.3l41.9,60.6C224.1,305.1,269.6,302.5,282.3,283.7z"/>
	<path d="M255.7,432.5c37.5-38.2,61.6-73.2,61.6-73.2l32.6-41.6c0,0,23.5-26.9,18-32.5s-18-7.8-18-7.8l-54.1,64L256,395.6
		l-35.6-16.3l-27.5-48.6L151.2,285c0,0,1.8,9.2,0,20.1c-1.8,10.9,42.1,67.3,42.1,67.3L255.7,432.5z"/>
	<path d="M259.9,461.7c40.6-40.1,71.5-76.5,71.5-76.5s4.1-30.9,18.4-43.7s28.1-10.8,28.1-10.8l-9.2,34.4l-76.5,96.6
		c0,0-20.1,14.6-32.3,18.2s-52.6-49.8-67-61.3c-14.4-11.5-27.2-28.8-41.8-39.3c-14.5-10.5-20-11-20-28c0-17-1.8-26.5,10.9-19.1
		c12.7,7.5,71,79.6,71,79.6L259.9,461.7z"/>
	<polygon points="245.6,34.9 225.9,34.9 244.5,461.7 259.9,461.7 	"/>
</g>
</svg>
