<?xml version="1.0" encoding="utf-8"?>
<!-- Generator: Adobe Illustrator 26.0.2, SVG Export Plug-In . SVG Version: 6.00 Build 0)  -->
<svg version="1.1" id="Layer_1" xmlns="http://www.w3.org/2000/svg" xmlns:xlink="http://www.w3.org/1999/xlink" x="0px" y="0px"
	 viewBox="0 0 100 100" style="enable-background:new 0 0 100 100;" xml:space="preserve">
<style type="text/css">
	.st0{fill:#FFFFFF;stroke:#000000;stroke-miterlimit:10;}
</style>
<path class="st0" d="M33.5,7.5c-2,0-20.4,0-20.4,0L50,35.1L83.5,8.5h-22c0,0-11,13.7-11.5,13.9S33.5,7.5,33.5,7.5z"/>
<path class="st0" d="M33.5,34.5c-2,0-18.7,0-20.4,0s34,23.3,35.2,24.7c1.2,1.3,38.2-22.7,38.2-22.7s-23,1-25,1S49.1,47.9,48.3,48.7
	C47.5,49.5,33.5,34.5,33.5,34.5z"/>
<path class="st0" d="M26.3,59.2c-3.8,0.3-19.8,1.3-19.8,1.3s36,30,38,32s49-29,50-30s-30,0-32,0s-16,20-17,20S26.3,59.2,26.3,59.2z"
	/>
</svg>
