<?xml version="1.0" encoding="utf-8"?>
<!-- Generator: Adobe Illustrator 26.0.1, SVG Export Plug-In . SVG Version: 6.00 Build 0)  -->
<svg version="1.1" id="Layer_1" xmlns="http://www.w3.org/2000/svg" xmlns:xlink="http://www.w3.org/1999/xlink" x="0px" y="0px"
	 viewBox="0 0 512 512" style="enable-background:new 0 0 512 512;" xml:space="preserve">
<path d="M0,136.82c3.08,0.21,6.16,0.42,9.26,0.63c0.12,7.91,1.13,8.76,10.34,8.19c-0.26,3.71-1.18,8.42,5.42,8.43
	c6.71,0.01,5.76-4.63,5.23-8.37c10.22,0.12,10.27,0.07,10.75-8.36c2.82,0,5.65,0,8.5,0c0.07,7.83,1.14,8.72,10.58,8.28
	c-0.63,3.94-1.35,8.7,5.66,8.41c6.15-0.25,5.63-4.42,4.54-8.14c3.28-0.39,7.26,0.07,9.03-1.35c1.75-1.39,1.26-4.69,1.76-7.17
	c2.59,0,5.41,0,8.25,0c0.71,8.22,1.34,8.75,10.08,8.28c0.58,8.13,1.57,8.94,10.48,7.98c-0.11,1.33-0.33,2.56-0.28,3.78
	c0.05,1.26,0.35,2.51,0.55,3.81c-9.97,0.16-9.97,0.16-10.49,9.4c0,0,0.27-0.2,0.27-0.2c-8.08-1.63-10.54-0.41-10.08,4.95
	c0.09,1.11,0.03,2.23,0.04,3.35l0.21-0.17c-10.48-1.43-10.84,0.05-10.03,8.28l0.2-0.16c-10.07-1.04-11.23-0.08-10.04,8.29l0.19-0.16
	c-3.34,0.05-6.68,0.11-10.02,0.16c-0.93-4.74-1.86-9.48-2.77-14.11c-3.7-0.2-6.44-0.35-9.43-0.52c-0.31-2.8-0.59-5.35-0.87-7.91
	c-0.87-0.16-1.75-0.32-2.62-0.47c-1.08,2.68-2.16,5.36-3.37,8.36c-2.44,0.21-5.35,0.47-8.4,0.73c-0.34,2.73-0.64,5.13-0.93,7.44
	c-13.32,1.18-13.32,1.18-15.43-7.57c-2.82-0.24-5.73-0.49-8.2-0.71c-1.03-3.03-1.91-5.62-3.23-9.49c-2.38,4.73-3.76,7.48-5.14,10.23
	C0,166.24,0,151.53,0,136.82z M99.94,343.61c-8.28,1.76-10.95,0.89-10.05-8.3l0.21,0.17c-9.64,1.42-10.93,0.36-10.04-8.29
	c0,0,0.2,0.17,0.2,0.17c-9.76,1.17-11.23-0.05-10.04-8.29l0.2,0.17c-3.34-0.05-6.69-0.11-10.03-0.16
	c-0.93,4.57-1.86,9.13-2.85,14.03c-3.12,0.2-6.05,0.39-8.24,0.53c-1.51,3.04-2.78,5.59-4.04,8.14c-1.35-2.53-2.71-5.06-4.34-8.11
	c-1.86-0.14-4.61-0.35-7.95-0.6c-0.28-2.41-0.56-4.82-0.88-7.59c-4.66,0-9.19,0-14.04,0c-0.38,2.56-0.74,4.97-1.12,7.55
	c-3.25,0.31-6.18,0.58-9.04,0.86c-0.24,0.92-0.33,1.49-0.54,2.03c-0.75,1.94-1.53,3.87-2.3,5.81c-0.78-1.9-1.41-3.85-2.4-5.68
	c-0.59-1.1-1.74-1.98-2.64-2.97c0,14.71,0,29.42,0,44.13c3.07-0.22,6.14-0.45,9.1-0.66c0.51-2.36,0.09-5.62,1.85-7.08
	c1.72-1.43,5.67-1.02,9.08-1.47c-0.93-3.42-1.95-7.42,4.1-7.93c8.02-0.69,6.01,4.91,6.63,8.56c8.82-0.92,9.7-0.2,10.34,8.4
	c1.54-0.24,3.02-0.64,4.51-0.66c1.43-0.02,2.86,0.34,3.64,0.45c0.7-2.93,0.34-6.1,2.02-7.26c2-1.38,5.74-1.03,9.32-1.5
	c-1.74-3.7-2.13-7.6,4.11-8.02c8.05-0.55,5.54,5.15,6.02,7.89c3.59,0.65,7.4,0.42,8.8,1.83c1.64,1.65,1.19,4.72,1.59,6.86
	c2.99,0,5.82,0,8.39,0c0.47-2.48-0.05-5.67,1.61-6.95c1.84-1.42,5.66-1.08,9-1.57c-2.49-7.35,2.72-8.73,10.1-7.97
	c-0.2-2.9-0.36-5.24-0.52-7.58c-9.21,0.52-9.47,0.27-10.01-9.1L99.94,343.61z M421.91,178.54c9.83-1.58,10.77-0.06,10.03,8.28
	l-0.2-0.16c11.5-1.41,10.7,1.02,10.05,8.3l-0.21-0.17c3.34,0.05,6.69,0.11,10.03,0.16c0.8-4.56,1.61-9.13,2.46-13.99
	c3.45-0.25,6.37-0.46,8.78-0.64c1.34-2.88,2.53-5.44,3.73-8.01c1.34,2.3,2.68,4.6,4.6,7.88c1.4,0.15,4.29,0.47,7.7,0.84
	c0.31,2.36,0.63,4.76,1,7.52c4.48,0,8.8,0,13.75,0c0.35-2.32,0.71-4.7,1.13-7.54c2.89-0.26,5.8-0.52,9.29-0.83
	c0.15-1.63,0.07-3.34,0.56-4.92c0.33-1.06,1.48-1.94,2.27-2.91c0.79,0.96,1.74,1.85,2.32,2.88c1.05,1.85,1.88,3.79,2.8,5.7
	c0-14.71,0-29.42,0-44.13c-3.26,0.22-6.52,0.44-9.77,0.67c0.8,7.52-0.5,8.61-10.23,8.09c0.67,3.83,1.49,8.54-5.27,8.48
	c-6.76-0.06-5.24-5.09-5.48-7.96c-3.4-0.58-7.21-0.32-8.64-1.72c-1.72-1.68-1.41-4.78-1.93-7.01c-3,0-5.83,0-8.66,0
	c0.7,7.7-0.21,8.46-7.48,8.38c-2.96,3.43-4.77,7.73-7.26,8.02c-7.38,0.85-6.18-4.53-6.12-8.41c-9.03,0.89-10.43-0.27-10.06-7.98
	c-3.02,0-6.03,0-8.62,0c-0.51,2.56-0.04,5.76-1.71,7.04c-1.85,1.42-5.67,1.08-8.63,1.51c0.07,7.7-0.45,8.12-10.25,8.08
	c0,2.47,0,4.93,0,8.2c10.91-3.77,10.1,2.69,10.45,7.84c9.69-0.63,9.9-0.15,9.85,8.67L421.91,178.54z M512,333.08
	c-1.4,2.73-2.8,5.47-5.12,9.99c-1.41-3.6-2.41-6.15-3.63-9.25c-2.25-0.23-5.19-0.53-8.47-0.86c-0.3-2.34-0.59-4.59-0.94-7.35
	c-4.57,0-9.05,0-13.99,0c-0.28,2.36-0.56,4.76-0.86,7.37c-3.02,0.27-5.75,0.52-8.11,0.73c-3.65,1.95,1.52,8.1-6.33,8.05
	c-0.25-2.79-0.46-5.23-0.7-7.93c-2.96-0.23-5.71-0.45-9.48-0.74c-0.89-4.54-1.81-9.27-2.74-14.01c-3.35,0.05-6.69,0.11-10.04,0.16
	c0,0,0.2-0.16,0.2-0.16c1.03,8.43-0.15,9.41-10.04,8.29l0.2-0.16c0.58,7.75,0.61,9.98-10.04,8.28l0.26-0.18
	c-0.3,2.6,0.5,6.04-1.21,7.55c-1.76,1.56-5.96,1.26-8.45,1.66c-0.64,2.49-0.33,5.68-2.06,6.91c-1.98,1.42-5.78,1.1-8.52,1.5
	c0,2.63,0,4.9,0,7.18c9.5-0.34,9.87-0.03,10.46,7.91c2.91,0.45,6.74,0.13,8.22,1.52c1.75,1.64,1.45,4.76,2.02,7.11
	c2.82,0,5.64,0,8.45,0c-0.16-7.92,0.85-8.75,10.34-8.2c-0.18-3.52-2.03-8.31,4.85-8.51c7.24-0.21,5.85,4.76,5.64,8.5
	c9.4-0.55,10.06,0.01,10.5,8.21c2.86,0,5.7,0,8.53-0.01c0.08-7.99,0.91-8.67,10.89-8.25c-1.26-3.99-1.63-8.43,5-8.46
	c6.81-0.02,5.63,4.79,5.48,8.48c9.43-0.49,9.95-0.05,10.42,8.14c3.13,0.22,6.2,0.44,9.27,0.65C512,362.5,512,347.79,512,333.08z
	 M400.74,409.62c3.22,0,6.43,0,10.05,0c0.08-4.49-0.76-9.51,7.86-8.2c3.56,0.54,7.8-0.59,10.81,0.6c2.06,0.82,2.53,4.35,4.09,7.42
	c1.36,0,4.22,0,6.53,0c1.14-2.58,1.74-7.02,3.52-7.37c5.13-1.01,10.84-0.81,16.08-0.01c1.07,0.16,1.09,5.01,1.6,7.71
	c3.33,0,6.66,0,9.99,0c0.12-3.54-2.18-8.19,5.18-8.63c14.5-0.85,15.79-0.13,16.29,8.26c9.78,0.25,9.97,0.41,9.84,8.45
	c3.13,0,6.28,0,9.42,0c0-8.13,0-16.26,0-24.39c-15.58,0.14-31.15,0.37-46.73,0.39c-14.98,0.02-29.96-0.3-44.95-0.25
	c-14.9,0.05-29.79,0.46-44.69,0.56c-14.58,0.1-29.16,0.02-43.15,0.02c-0.75,2.74-1.4,5.1-2.05,7.46c10.96-0.59,10.95-0.59,11.56,7.9
	c0.01,0.16,0.25,0.31,0.39,0.46l-0.2-0.12c3.37-0.25,6.74-0.49,10.12-0.74l-0.1,0.08c-3.11-6.14-1.41-8.25,6.23-7.73
	c1.16,0.08,2.33,0.15,3.49,0.12c10.24-0.26,10.3-0.23,10.28,8.15c1.38-0.21,2.7-0.57,4.01-0.57c1.48,0,2.96,0.33,4.56,0.54
	c-0.52-8.06,0.02-8.51,9.17-8.1c1.17,0.05,2.34,0.04,3.51-0.03c8.75-0.59,10.09,0.86,7.52,8.15L400.74,409.62z M412.77,104.86
	c-4.03-0.14-8.07-0.27-12.1-0.41l0.29-0.22c2.54,7.17,1.18,8.62-7.62,8.16c-0.93-0.05-1.87-0.05-2.8-0.02
	c-9.98,0.33-10.24,0.13-9.82-7.86c-2.84,0-5.68,0-8.53,0c-0.05,8.12-0.05,8.11-10.26,7.89c-1.17-0.03-2.34,0.04-3.5,0.1
	c-7.75,0.44-9.43-1.62-6.23-7.68l0.09,0.08c-3.49-0.22-6.98-0.45-10.47-0.67c0.4,8.52,0.4,8.52-11.43,8.29l0.21-0.15
	c0.54,2.56,1.07,5.12,1.59,7.6c3.58,0.15,7.18,0.41,10.79,0.42c11.88,0.04,23.76-0.04,35.65-0.03c11.55,0,23.1,0.07,34.64,0.07
	c11.89,0,23.79-0.04,35.68-0.09c12.01-0.04,24.02-0.18,36.03-0.15c9.01,0.02,18.02,0.25,27.03,0.38c0-8.13,0-16.26,0-24.39
	c-3.13,0-6.27,0-9.39,0c0.04,7.99-0.22,8.2-9.52,8.47c-0.78,2.56-1.09,6.93-2.34,7.12c-5.54,0.84-11.48,1.05-16.97,0.19
	c-1.48-0.23-1.91-5.03-2.83-7.73l0.18,0.14c-3.48,0.19-6.97,0.38-10.45,0.56l0.08-0.05c3.15,5.93,1.3,8.26-6.08,7.67
	c-1.16-0.09-2.32-0.16-3.48-0.14c-10.42,0.15-10.53,0.07-10.3-7.9c-2.84,0-5.68,0-8.51,0c0.13,8.09,0.05,8.15-9.87,7.93
	c-1.39-0.03-2.84,0.32-4.17,0.11c-2.26-0.36-5.74-0.54-6.35-1.67c-0.88-1.62,0.35-4.02,0.68-6.09L412.77,104.86z M159.66,409.13
	c3.54,0.12,7.08,0.25,10.62,0.37l-0.17,0.15c-0.64-8.08,0.86-9.33,9.09-7.57l-0.12,0.07c0.44-2.7,0.87-5.41,1.37-8.5
	c-9.69,0-18.45,0-27.22,0c-14.97-0.01-29.94-0.03-44.92-0.02c-11.68,0-23.37,0.04-35.05,0.06c-12.03,0.02-24.05,0.1-36.07,0.06
	c-12.4-0.04-24.79-0.19-37.19-0.29c0,8.13,0,16.26,0,24.39c2.95,0,5.91,0,8.84,0c0.61-2.52,0.3-5.68,2.07-7.22
	c1.57-1.37,5.44-0.93,8.66-1.34c-0.41-3.83-1.54-8.26,6.07-8.11c15.27,0.29,15.27,0.26,15.11,8.61c3.55-0.25,7.09-0.51,10.64-0.76
	l-0.09,0.06c-0.27-2.06-1.28-4.34-0.53-6.1c0.43-1,3.73-1.3,5.8-1.61c1.32-0.2,2.76,0.26,4.15,0.25
	c10.43-0.13,10.43-0.14,10.34,7.93c2.67,0,5.35,0,7.71,0c1.05-2.57,1.57-7.08,3.28-7.41c5.17-1,11.08-1.23,16.18-0.14
	c4.48,0.96,2.84,4.88,1.72,7.79c0,0-0.28-0.22-0.28-0.22c3.19,0,6.39,0,9.53,0c0.68-7.86,0.69-7.72,15.4-8.37
	c8.4-0.37,6.02,4.9,6.68,8.64c1.8-0.19,3.16-0.43,4.53-0.45c1.32-0.01,2.65,0.21,4.02,0.33c-0.32-8.31-0.31-8.3,10.22-8.11
	c1.16,0.02,2.33-0.05,3.49-0.14c7.38-0.55,9.23,1.74,6.18,7.69L159.66,409.13z M180.1,112.52c-9.76,0.59-10.48-0.01-10.02-8.28
	c0,0,0.18,0.15,0.18,0.15c-3.34-0.04-6.68-0.08-10.02-0.13c-0.29,2.66-0.18,7.53-0.92,7.62c-5.52,0.67-11.33,0.91-16.78,0.09
	c-1.62-0.25-2.37-4.35-3.88-7.41c-1.4,0-4.28,0-6.23,0c-1.45,2.8-2.31,7.16-4.12,7.45c-5.44,0.87-11.34,0.56-16.87-0.25
	c-1.24-0.18-1.65-4.23-2.65-7.11c-2.4-0.1-5.74-0.25-9.07-0.4c2.74,6.97,1.18,8.65-7.45,8.14c-1.16-0.07-2.34-0.05-3.51,0.01
	c-8.99,0.45-9.56-0.02-9.11-7.81c-2.79,0-5.59,0-7.71,0c-1.19,2.61-1.87,7.07-3.6,7.36c-5.42,0.92-11.28,0.54-16.83-0.12
	c-0.67-0.08-0.52-4.93-0.75-7.57c-3.34,0-6.69-0.01-10.03-0.01c0.22,8.24,0.22,8.24-10.27,8.14c-0.47,0-0.93-0.03-1.4-0.01
	c-9.71,0.35-9.71,0.35-9.9-7.69c-9.45-0.16-10.11-0.7-9.77-8.51c-3.13,0-6.27,0-9.41,0c0,8.13,0,16.26,0,24.39
	c1.8-0.27,3.6-0.8,5.4-0.78c18.5,0.16,37.01,0.61,55.51,0.59c18.27-0.02,36.53-0.6,54.8-0.71c21.35-0.13,42.7-0.03,64.18-0.03
	c0-2.34,0-4.79,0-7.25L180.1,112.52z M50.54,211.21c0.1-2.77,0.19-5.53,0.29-8.3c-5.87-0.57-11.75-1.14-17.82-1.73
	c-0.33-3.1-0.59-5.52-0.88-8.21c-4.6,0-8.97,0-14.16,0c-0.29,2.24-0.61,4.63-0.99,7.51c-2.79,0.26-5.71,0.54-9.27,0.87
	c-0.14,1.95-0.04,3.84-0.49,5.64c-0.22,0.87-1.49,1.56-2.29,2.33c-0.74-0.81-1.7-1.53-2.17-2.43c-1.05-2.02-1.86-4.13-2.76-6.2
	c0,14.71,0,29.42,0,44.13c3.3-0.04,6.6-0.07,9.9-0.11l-0.17,0.18c-1.11-9.49,1.39-9.92,10.04-8.28l-0.27,0.22
	c0.39-9.94,0.39-9.94,11.9-8.46l-0.19,0.13c-0.22-2.66-0.43-5.32-0.65-7.98c3.39,0.04,6.77,0.09,10.16,0.13l-0.16,0.16
	c-0.21-1.13-0.32-2.27-0.64-3.37c-1.38-4.76,0.87-6.81,6.73-6.37c1.35,0.1,2.73-0.04,4.1-0.08L50.54,211.21z M19.78,277.41
	c-11.83,2.04-10.49-1.14-10.05-8.29l0.16,0.18c-3.3-0.03-6.6-0.06-9.9-0.09c0,14.71,0,29.42,0,44.13c1.38-2.73,2.76-5.45,5.07-10.02
	c1.33,3.67,2.25,6.21,3.41,9.43c2.2,0.18,5.11,0.41,8.46,0.68c0.36,2.47,0.71,4.86,1.1,7.56c4.81,0,9.32,0,14.12,0
	c0.2-2.5,0.39-4.75,0.65-7.97c5.96-0.62,11.97-1.25,17.99-1.89c-0.09-2.77-0.18-5.54-0.27-8.32l0.25,0.23
	c-11.22-0.33-11.22-0.33-11.45-8.16c-9.52-0.21-9.8-0.44-9.98-8.47c-9.58,0.3-9.7,0.18-9.84-9.22L19.78,277.41z M461.46,302.82
	c-0.08,2.77-0.17,5.53-0.25,8.3c5.85,0.63,11.7,1.26,17.72,1.9c0.34,2.94,0.62,5.36,0.93,8.02c4.62,0,8.96,0,13.75,0
	c0.41-2.54,0.79-4.94,1.23-7.62c3.08-0.22,6.01-0.43,9.3-0.67c0.15-2.07,0.06-3.99,0.54-5.81c0.22-0.86,1.52-1.52,2.34-2.27
	c0.73,0.81,1.68,1.54,2.16,2.45c1.07,2.03,1.9,4.14,2.83,6.22c0-14.71,0-29.42,0-44.13c-3.29,0.03-6.58,0.06-9.86,0.08l0.15-0.17
	c0.94,9.85-2.2,9.78-10.05,8.3l0.27-0.19c-0.66,9.48-0.68,9.49-10.05,9.14c-0.24,8.23-0.24,8.23-10.23,8.54
	c0.62,7.76,0.38,7.94-10.99,8.13L461.46,302.82z M492.23,236.61c7.17-1.62,11.12-1.84,10.04,8.29l-0.15-0.18
	c3.29,0.03,6.58,0.06,9.87,0.09c0-14.71,0-29.42,0-44.13c-0.92,1.48-1.89,2.94-2.75,4.45c-0.78,1.36-1.46,2.76-2.18,4.15
	c-0.87-1.48-1.89-2.91-2.56-4.45c-0.45-1.02-0.41-2.19-0.62-3.52c-3.04-0.22-5.77-0.42-9.06-0.67c-0.33-2.44-0.64-4.84-1.01-7.59
	c-4.59,0-9.12,0-13.95,0c-0.27,2.45-0.51,4.7-0.87,7.93c-5.79,0.62-11.78,1.27-17.78,1.91c0.08,2.77,0.16,5.53,0.24,8.3l-0.22-0.21
	c10.89,0.09,11.14,0.27,11.24,8.19c9.35,0.09,9.76,0.43,9.97,8.31c9.46,0,9.46,0,10.06,9.33L492.23,236.61z M512,70.62
	c-3.3,0.03-6.6,0.06-9.9,0.09l0.17-0.18c0,2.76-0.01,5.53-0.01,8.29l-0.17-0.18c3.3,0.04,6.6,0.08,9.91,0.11
	C512,76.04,512,73.33,512,70.62z M0,327.27c3.26-0.12,6.52-0.24,9.4-0.35c0-2.71,0-5.06,0-7.38c-3.26-0.14-6.33-0.27-9.4-0.4
	C0,321.85,0,324.56,0,327.27z M0,194.88c3.26-0.13,6.53-0.26,9.37-0.38c0-2.73,0-5.05,0-7.36c-3.21-0.14-6.29-0.27-9.37-0.4
	C0,189.46,0,192.17,0,194.88z M512,319.14c-3.23,0.14-6.47,0.28-9.54,0.41c0,2.65,0,5.08,0,7.32c3.44,0.15,6.49,0.27,9.54,0.4
	C512,324.56,512,321.85,512,319.14z M0,443.4c3.3-0.03,6.61-0.06,9.91-0.08c0,0-0.18,0.17-0.18,0.17c0-2.76,0-5.52,0-8.29
	c0,0,0.18,0.19,0.18,0.19c-3.31-0.04-6.61-0.08-9.92-0.12C0,437.98,0,440.69,0,443.4z M512,252.95c-3.31-0.02-6.62-0.05-9.93-0.07
	c0,2.76,0,5.52,0,8.28c3.31-0.02,6.62-0.05,9.92-0.07C512,258.37,512,255.66,512,252.95z M512,186.75
	c-3.28,0.14-6.57,0.27-9.49,0.39c0,2.69,0,5.05,0,7.35c3.26,0.13,6.37,0.26,9.49,0.39C512,192.17,512,189.46,512,186.75z
	 M9.93,252.88c-3.31,0.02-6.62,0.05-9.93,0.07c0,2.71,0,5.42,0,8.13c3.31,0.02,6.62,0.05,9.93,0.07
	C9.93,258.39,9.93,255.63,9.93,252.88z M9.74,78.82c0-2.77-0.01-5.53-0.01-8.3l0.19,0.19C6.61,70.69,3.31,70.66,0,70.62
	c0,2.71,0,5.42,0,8.13c3.31-0.04,6.62-0.07,9.92-0.11L9.74,78.82z M502.27,435.2c0,2.76,0,5.53,0.01,8.29l-0.17-0.18
	c3.3,0.03,6.6,0.06,9.9,0.09c0-2.71,0-5.42,0-8.13c-3.3,0.04-6.6,0.08-9.89,0.12L502.27,435.2z M60.39,236.62c6.3,0,12.6,0,18.85,0
	c0.82-6.64,0.82-6.64,8.03-6.09c0.23,2.29,0.47,4.68,0.75,7.48c3.04,0.2,5.96,0.39,9.39,0.62c0.26,2.54,0.5,4.94,0.78,7.68
	c3.31,0.29,6.44,0.57,9.89,0.88c0,2.62,0,4.87,0,6.33c3.61,1.46,6.55,2.65,9.49,3.84c-2.82,0.79-5.63,1.59-9.03,2.54
	c0.47,5.19-2.24,8.63-10.57,7.56c1.78,7.23-3.19,8.53-9.94,7.9c-0.19,2.88-0.36,5.32-0.51,7.67c-7.58,1.58-8.04,1.28-7.73-4.86
	c-6.46-0.25-12.92-0.51-19.39-0.76l0.22-0.24c0,2.78,0,5.56,0,8.45c5.64,0,10.87,0,16.54,0c0.28,3.48,0.53,6.69,0.8,10.13
	c3.22,0.33,6.15,0.62,9.21,0.93c0.41,2.63,0.79,5.04,1.19,7.54c3.33,0.35,6.23,0.65,9.18,0.96c0.3,2.74,0.54,5.01,0.81,7.48
	c3.21,0.3,6.14,0.57,9.3,0.86c0.33,2.64,0.63,5.04,0.94,7.52c3.21,0.23,5.94,0.42,9.35,0.66c0,16.33,0,32.49,0,49.37
	c20.41,0,40.13,0,59.99,0c0.3,2.98,0.53,5.24,0.79,7.72c3.12,0.29,6.04,0.55,9.18,0.84c0.32,2.69,0.6,5.1,0.89,7.56
	c3.37,0.27,6.28,0.51,9.27,0.75c0.16,2.74,0.3,5,0.45,7.59c3.3,0.15,6.22,0.28,9.27,0.41c0.32,2.81,0.59,5.22,0.88,7.77
	c1.56,0.07,2.71,0.22,3.84,0.16c5.75-0.31,10.96-0.52,8.5,6.66c-0.79,2.3,0.27,5.03,0.48,7.54c9.17-0.43,9.97,0.25,10.01,8.53
	c1.37-0.2,2.66-0.56,3.94-0.54c1.54,0.03,3.07,0.37,4.99,0.64c0-2.78,0-5.23,0-7.69l0.17,0.09c-10.93-0.5-10.93-0.5-10.32-14.08
	c0.04-0.9,0.17-1.8,0.32-3.33c-7.37,2.07-7.96-0.97-6.61-5.62c2.85-0.2,5.8-0.41,9.19-0.66c0.2-2.59,0.38-5.01,0.59-7.77
	c3.11,0,5.85,0,9.08,0c0.3-2.76,0.56-5.17,0.87-7.99c2.91-0.25,5.8-0.51,7.98-0.7c1.56-2.93,2.89-5.43,4.23-7.93
	c1.32,2.34,2.64,4.68,4.46,7.9c1.49,0.12,4.4,0.34,7.75,0.6c0.26,2.52,0.52,4.94,0.81,7.7c3.08,0.19,6,0.37,9.32,0.57
	c0.15,2.53,0.29,4.79,0.46,7.55c2.96,0.22,5.88,0.44,9.13,0.68c0,2.03,0,3.97,0,6.37c-2.44-0.22-4.32-0.39-6.11-0.55
	c0,4.35-0.03,8.3,0.01,12.25c0.03,3.31-2.26,5.41-5.85,4.73c-2.23-0.42-5.17-2.86-5.46-4.66c-0.63-3.78,0.28-7.73,0.56-11.59
	c-10.83-0.84-10.96-0.95-10.59-8.67c-3.01,0-6.02,0-8.9,0c-0.36,2.67-0.71,5.21-1.05,7.76l-0.27-0.2
	c10.8-0.05,10.75-0.05,10.91,8.75c0.05,2.57,0.46,5.13,0.7,7.66c9.22-0.07,9.64,0.29,10.04,8.45c3,0,5.99,0,8.21,0
	c0.68-2.83,0.33-6.02,2.02-7.18c2.04-1.4,5.82-1.09,8.56-1.48c0-4.4,0-8.62,0-13.42c4.39-0.22,8.63-0.44,12.93-0.65
	c0.18-2.83,0.32-5.09,0.47-7.53c3.3-0.25,6.23-0.46,9.26-0.69c0.31-2.75,0.58-5.16,0.85-7.64c3.25-0.16,5.99-0.29,9.15-0.44
	c0.22-2.62,0.41-5.04,0.63-7.69c3.3-0.27,6.22-0.52,9.27-0.77c0.3-2.68,0.57-5.11,0.91-8.16c20.11,0,39.83,0,60.17,0
	c0-16.8,0-32.95,0-49.17c3.38-0.15,6.12-0.28,9.13-0.42c0.31-2.72,0.59-5.13,0.88-7.69c3.27-0.25,6.19-0.48,9.21-0.71
	c0.31-2.8,0.57-5.21,0.84-7.71c3.43-0.29,6.34-0.54,9.29-0.78c0.3-2.84,0.55-5.25,0.81-7.71c3.54-0.26,6.46-0.47,9.54-0.7
	c0.31-3.77,0.57-7.09,0.84-10.32c6.17,0,11.33,0,16.57,0c0-3.05,0-5.68,0-8.31c0,0,0.22,0.22,0.22,0.22
	c-6.27,0.23-12.54,0.46-19.34,0.71c1.31,5.36-1.39,7.17-8.09,5.26c0-2.52,0-4.93,0-7.88c-6.99,0.72-12.97,0.32-9.98-7.87
	c-3.38-0.41-6.26-0.75-9.68-1.16c-0.37-2.09-0.76-4.3-1.17-6.66c-3.12-0.63-6.22-1.25-9.31-1.88c0.01-0.64,0.01-1.28,0.02-1.91
	c2.89-0.48,5.78-0.97,9.18-1.54c0.34-2.05,0.71-4.27,1.15-6.88c6.35-0.11,11.9-1.21,9.05-8.87c3.61-0.23,6.53-0.42,10.06-0.64
	c0.29-2.29,0.59-4.68,0.89-7.02c7.52-1.68,7.93-1.43,7.78,4.82c6.48,0.25,12.97,0.5,19.46,0.75l-0.22,0.24c0-2.79,0-5.57,0-8.47
	c-5.66,0-10.9,0-16.65,0c-0.29-3.54-0.57-6.89-0.85-10.27c-3.54-0.3-6.47-0.55-9.46-0.8c-0.33-2.88-0.6-5.29-0.86-7.6
	c-3.52-0.26-6.44-0.48-9.43-0.71c-0.22-2.84-0.39-5.11-0.59-7.64c-3.17-0.27-6.11-0.52-9.39-0.8c-0.25-2.62-0.47-5.03-0.71-7.52
	c-3.38-0.29-6.27-0.54-9.61-0.83c0-16.41,0-32.41,0-49.17c-20.26,0-40.03,0-59.84,0c-0.37-3.16-0.66-5.56-0.95-7.97
	c-3.41-0.3-6.31-0.56-9.13-0.8c-0.27-2.79-0.49-5.04-0.72-7.45c-3.33-0.26-6.24-0.48-9.18-0.7c-0.29-2.8-0.53-5.21-0.79-7.7
	c-3.29-0.14-6.03-0.25-9.2-0.38c-0.18-2.71-0.34-5.14-0.53-7.96c-3.47,0-6.53,0.31-9.43-0.14c-1.36-0.21-3.27-1.81-3.4-2.91
	c-0.43-3.62-0.16-7.3-0.16-10.51c-3.21-0.59-7.04-0.37-8.57-1.82c-1.69-1.6-1.26-4.72-1.72-7c-2.99,0-5.81,0-8.55,0
	c0,2.68,0,5.05,0,7.42c9.63-0.2,9.94,0.11,9.58,7.93c-0.14,2.98-0.02,5.96-0.02,8.97c7.67-0.57,7.68-0.56,6.33,5.97
	c-2.88,0.2-5.81,0.41-8.7,0.61c-0.31,2.86-0.56,5.27-0.81,7.63c-3.36,0.21-6.11,0.38-9.06,0.57c-0.33,2.71-0.63,5.11-0.93,7.59
	c-3.22,0.22-5.96,0.41-7.76,0.54c-1.67,3.06-3.04,5.56-4.41,8.07c-1.31-2.51-2.62-5.03-4.21-8.08c-2.04-0.14-4.96-0.35-7.95-0.56
	c-0.33-2.81-0.61-5.21-0.9-7.68c-3.3-0.16-6.03-0.29-8.93-0.42c-0.31-2.77-0.59-5.19-0.88-7.74c-3.35-0.21-6.29-0.4-9.1-0.58
	c-1.22-4.82-0.29-7.74,6.37-5.89c0-5.64,0-10.81,0-15.93c-3.38,0-6.26,0-8.95,0c0,4.54,0,8.77,0,13.62
	c-4.37,0.22-8.62,0.44-12.92,0.65c-0.18,2.81-0.32,5.07-0.49,7.6c-3.31,0.21-6.24,0.39-9.28,0.58c-0.29,2.77-0.54,5.19-0.8,7.71
	c-3.23,0.16-5.98,0.29-9.06,0.44c-0.33,2.69-0.62,5.09-0.93,7.62c-3.27,0.27-6.19,0.51-9.17,0.76c-0.31,2.85-0.58,5.26-0.89,8.19
	c-20.09,0-39.68,0-59.97,0c0,16.72,0,32.88,0,49.14c-3.47,0.18-6.22,0.33-9.29,0.49c-0.32,2.67-0.61,5.09-0.93,7.69
	c-3.23,0.23-6.17,0.43-9.36,0.66c-0.28,2.72-0.53,5.13-0.8,7.78c-3.29,0.25-6.21,0.47-9.35,0.71c-0.29,2.69-0.56,5.11-0.83,7.6
	c-3.41,0.31-6.33,0.58-9.34,0.86c-0.31,3.72-0.58,7.03-0.85,10.31c-6.19,0-11.35,0-16.42,0c0,3.09,0,5.7,0,8.31L60.39,236.62z
	 M231.18,193.95c2.99,0.47,6.73,0.21,8.74,1.62c1.73,1.22,1.48,4.35,2.15,6.81c9.59,0.52,9.98,0.83,9.31,8.35c2.89,0,5.76,0,8.65,0
	c0.4-8.06,0.67-8.28,9.62-8.06c0.69-2.46,0.52-5.6,2.33-7.18c1.56-1.37,5.39-0.98,8.28-1.37c-0.01-8.04,1.3-8.93,11.01-7.3
	c-0.34-5.19-0.67-10.39-1.02-15.85c-2.47-0.27-6.16,0.19-7.98-1.12c-1.78-1.28-1.66-4.36-2.54-7.2c-4.01-0.22-10.04,0.6-9.6-5.94
	c0.79-11.84,0.76-11.84,10.2-12.34c-0.39-7.29,0.77-8.22,10.34-7.99c-0.16-1.46-1.07-3.34-0.3-4.19c1.54-1.72,4.07-4.03,6.05-3.94
	c1.95,0.09,4.68,2.61,5.35,4.48c0.93,2.58,0.5,5.58,0.2,8.36c-0.55,5.17-4.89,5.15-10.17,4.15c0,5.38,0,10.51,0,15.85
	c2.82,0,5.53,0,8.25,0c0.42-7.99,0.67-8.2,10.03-8.32c0.25-1.99,0.09-4.09,0.85-5.93c1.03-2.5,8.67-3.41,9.26-1.18
	c1.23,4.64,1.48,9.65,0.7,14.34c-0.23,1.38-5.25,2.22-8.89,3.62c-0.29,1.23,0.04,4.4-1.72,5.92c-1.64,1.41-5.5,1.05-8.6,1.5
	c0,2.14,0,4.46,0,6.9c6.19,0,12.2,0,18.21,0c1.09-8.45,1.45-8.74,10.03-8.3c1.43-8.44,1.43-8.44,9.81-8.5
	c1.63-8.84,1.81-8.88,17.48-8.39c5.97,0.19,11.95,0.22,17.93,0.13c5.28-0.08,7.25,1.73,6.89,6.18c-0.54,6.73-0.78,13.51-0.46,20.25
	c0.39,8.06-0.24,8.73-10.32,7.37c1.64,8.01,0.1,9.51-8.8,8.61c-0.55,2.47-0.2,5.58-1.92,7.22c-1.42,1.37-5.26,1.03-8.52,1.52
	c0,4.63,0,9.71,0,15.01c2.89,0,5.62,0,8.35,0c-0.04-7.34,1.38-8.49,9.23-8.19c1.24-2.75,1.93-7.25,3.64-7.53
	c5.46-0.91,11.32-0.46,16.96,0.03c0.81,0.07,1.89,3.34,1.6,4.98c-0.23,1.33-2.07,2.93-3.67,3.5c-1.69,0.6-3.94,0.14-5.94,0.14
	c0.16,7.63-1.3,8.81-10.43,8.18c0.2,1.32,0.56,2.55,0.52,3.77c-0.03,1.07-0.49,2.14-0.88,3.68c6.58,0,12.67,0,18.35,0
	c1.01-2.74,1.43-7.29,3.01-7.58c5.3-0.97,11.04-0.71,16.53-0.25c1.18,0.1,2.76,2.96,2.8,4.57c0.03,1.32-1.65,3.16-3.18,3.86
	c-1.66,0.76-4.02,0.46-6.61,0.66c0.66,5.64-1.13,9.81-10.25,7.68c-0.41,4.23,1.59,9.37-7.29,8.64c-14.29-1.18-14.33-0.88-14.12-7.88
	c-9.62-0.49-10.61-1.3-9.94-8.57c-5.98,0-11.94,0-18.51,0c0.56,5.78-1.26,9.85-9.56,8.03c-1.45,8.83-1.5,8.88-11.45,8.44
	c1.26,5.55-0.58,9.12-8.66,7.91c-0.34,2.45-0.65,4.65-1.02,7.34c7.48-0.77,11.7,1.53,9.64,8.39c9.57-0.62,10.1-0.27,11.88,8.05
	c8.04-0.96,10.06,2.66,8.85,8.5l-0.17-0.15c6.2,0,12.4,0,18.6,0c-0.1-7.12,1.29-8.32,9.78-8.37c0.1-7.3,4.28-9.4,16.78-8.19
	c6.56,0.64,5.71,4.44,4.43,8.14c12.03,1.27,12.05,1.28,10.72,8.13c0.54,0.2,1.2,0.68,1.71,0.59c4.61-0.83,8.37,0,8.51,4.35
	c0.15,4.74-3.82,5.56-8.67,4.74c-0.9-0.15-1.87-0.12-2.8-0.1c-9.78,0.22-9.78,0.22-10.43-7.84c-5.9,0-11.84,0-18.24,0
	c0,2.2,0,4.5,0,6.81c9.35,0.02,10.52,1,9.81,8.67c1.8-0.09,4.06-0.78,5.13-0.14c2.12,1.28,4.73,3.21,4.95,5.05
	c0.16,1.35-2.93,3.88-5.02,4.27c-3.66,0.69-7.69,0.39-11.5,0.05c-6.18-0.55-4.91-4.43-4.54-7.77c-10.45-1.06-11.13-1.61-9.95-8.51
	c-2.89-0.13-5.74-0.26-8.97-0.4c0,5.4,0,10.49,0,15.6c8.95-0.65,10.63,0.74,9.95,7.98c10.5,0.4,10.95,0.85,9.28,9.05
	c9.91-1.51,10.55-0.83,10.31,7.31c-0.21,6.91,0.42,13.84,0.69,20.76c0.14,3.65-1.62,5.8-6.39,5.78c-9.74-0.04-19.49,0-29.23-0.06
	c-4.97-0.03-6.04-1.38-6.38-8.08c-7.42,0.62-11.4-1.92-9.68-8.51c-9.46,0.24-10.05-0.25-10.42-8.52c-6.03,0-12.07,0-18.45,0
	c0,2.4,0,4.73,0,7.09c9.27-0.1,10.75,1.09,10.08,7.21c3.32,1.28,8.48,2.02,8.97,3.7c1.24,4.22,0.69,8.88,0.08,13.3
	c-0.12,0.9-3.67,2.08-5.58,2.02c-1.52-0.05-3.52-1.56-4.3-2.84c-0.83-1.37-0.49-3.22-0.66-4.87c-10.1-1.07-10.1-1.07-9.89-8.75
	c-2.65,0-5.32,0-8.57,0c0,4.85,0,9.81,0,14.41c3.09,1,8.39,1.55,8.85,3.09c1.26,4.24,0.79,8.91,0.31,13.36
	c-0.11,0.97-3.2,2.51-4.76,2.39c-1.86-0.15-4.19-1.51-5.13-2.89c-0.98-1.44-0.54-3.53-0.72-5.35c-9.82-0.36-10.6-1-9.69-8.45
	c-4.7-0.19-10.86,0.98-10.61-5.49c0.47-12.24,0.51-12.24,10.08-12.62c0.21-7.66,1.06-8.35,10.05-8.09
	c0.36-5.34,0.72-10.69,1.07-16.03c-9.77,1.51-11.11,0.6-11.01-7.5c-9.67,0.05-10.25-0.41-10.09-7.96
	c-9.49-0.48-9.83-0.75-10.21-8.52c-2.67,0-5.36,0-8.05,0c-0.23,7.59-1.5,8.61-10.03,8.17c-0.28,7.99-0.95,8.53-10.36,8.25
	c0.32,8.02-1.41,9.23-10.82,7.56c0.31,5.22,0.63,10.44,0.94,15.68c9.85,0.68,10.5,1.22,9.62,8.52c4.79,0.25,10.98-0.79,10.37,5.87
	c-1.14,12.35-1.15,12.35-10.04,12.13c-0.01,7.86-0.91,8.61-10.19,8.08c0.1,1.46,0.9,3.28,0.14,4.19c-1.5,1.79-3.97,4.35-5.86,4.25
	c-2.04-0.1-4.91-2.65-5.55-4.55c-0.94-2.78-0.6-5.99-0.13-8.95c0.8-5.09,5.58-4.57,10.21-3.88c0-5.39,0-10.38,0-15.73
	c-2.78,0-5.61,0-8.47,0c-0.49,8.2-0.49,8.2-10.04,8.4c0,1.02,0.02,2.06,0,3.09c-0.08,3.46-2.17,5.53-6.42,5.19
	c-4.23-0.34-5.84-2.67-5.2-6.1c0.22-1.14,0.61-2.28,0.58-3.42c-0.19-8.18-0.22-8.18,9.23-8.76c-0.17-7.33,0.41-7.8,10.33-8.2
	c0-2.19,0-4.39,0-6.96c-5.95,0-12,0-18.06,0c-1.75,8.68-1.75,8.68-10.6,8.52c-0.3,7.7-0.73,8.07-10.14,8.54
	c0.42,7.26-0.5,7.85-9.56,7.74c-8.35-0.1-16.72,0.05-25.07,0.29c-5.46,0.16-7.26-1.78-6.93-6.19c0.5-6.74,0.8-13.53,0.49-20.27
	c-0.36-7.98,0.36-8.7,10.41-7.32c-2.01-7.95-0.86-9.09,8.73-8.65c0.67-8.37,1.64-9.16,10.43-8.16c0-5.1,0-10.16,0-15.55
	c-2.85,0-5.69,0-8.54,0c0.23,7.67-0.31,8.11-9.92,8.36c0,7.89-0.3,8.09-9.9,7.69c-1.61-0.07-3.26,0.08-4.85,0.33
	c-4.44,0.7-6.91-1.36-7.15-4.46c-0.25-3.27,2.33-5.27,6.67-5.01c1.09,0.07,2.16,0.27,3.29,0.42c0.3-8.25,0.74-8.61,10.37-8.89
	c0-2.2,0-4.4,0-6.95c-6.05,0-12.13,0-17.46,0c-1.43,2.95-2.16,7.24-3.9,7.54c-5.25,0.91-10.92,0.5-16.36,0.04
	c-1.07-0.09-2.57-2.72-2.51-4.14c0.06-1.4,1.48-3.24,2.97-4.01c1.61-0.82,3.98-0.63,6.54-0.94c0.05-5.36,1.38-10.14,10.73-7.31
	c0.98-3.9-1.24-9.54,6.74-9c14.29,0.96,14.28,1.06,14.19,8.14c10.41,0.51,11.07,1.02,10.38,8.39c6.39,0,12.76,0,19.13,0l-0.18,0.16
	c-0.95-7.38-0.95-7.38,9.01-8.73c0.6-7.77,1.95-8.74,10.79-7.58c0.52-2.31,0.23-5.17,1.8-6.81c1.41-1.47,4.86-1.6,8.26-2.56
	c0.07-1.3,0.2-3.59,0.36-6.34c-6.39,0.23-12.33-0.46-9.51-7.94c-10.83-0.14-10.88-0.17-11.26-8.17c-9.99-0.57-10.43-0.97-9.49-8.58
	l0.18,0.15c-6.22,0-12.43,0-18.65,0c-0.34,7.73-1.35,8.54-10.44,8.06c-0.46,3.49,1.64,8.5-5.88,8.58
	c-14.65,0.14-14.65,0.11-15.84-8.29c-7.07,0.71-11.33-1.3-9.7-8.2c-2.39-0.18-4.96,0.24-6.28-0.63c-1.84-1.21-3.78-3.39-3.75-5.14
	c0.02-1.37,2.76-3.57,4.65-3.87c3.82-0.6,8.34-1.06,11.7,0.11c2.93,1.02,4.67,4.36,6.93,6.68c-0.48,0.48-0.96,0.95-1.43,1.43
	c5.92,0,11.84,0,18.22,0c0-2.28,0-4.42,0-7.03c-6.5,0.24-12.47-0.61-9.65-8.24c-9.35-0.11-11.84-1.84-9.99-6.7
	c0.36-0.95,1.37-2.43,2.14-2.46c5.5-0.21,11.16-0.65,16.45,0.25c1.58,0.27,2.16,4.56,3.31,7.26c8.74,0.26,9.71,1.04,9.18,8.4
	c2.69,0,5.37,0,8.52,0c0-4.84,0-9.88,0-14.96c-2.75-0.42-6.5-0.15-8.45-1.56c-1.69-1.23-1.35-4.37-1.93-6.77
	c-9.84-0.25-10.64-1.04-8.67-9.04c-10.71,1.19-10.5,1.19-10.39-7.83c0.08-6.75-0.47-13.5-0.74-20.24c-0.13-3.33,1.48-5.71,5.78-5.78
	c10.12-0.15,20.25-0.25,30.35,0.01c6.29,0.16,5.86,4.32,5.59,7.97c9.63,0.62,10.24,1.13,9.95,8.33c2.78,0.43,6.37,0.16,8.17,1.51
	c1.8,1.35,1.83,4.32,2.85,7.2c5.3,0,11.45,0,17.91,0c0-2.19,0-4.37,0-6.61c-10.11-1.18-10.62-1.59-10.16-7.63
	c-3.32-1.2-8.61-1.89-9.08-3.52c-1.23-4.27-0.65-8.98-0.05-13.45c0.11-0.83,3.72-1.89,5.66-1.82c1.54,0.06,3.57,1.45,4.32,2.69
	c0.84,1.39,0.49,3.27,0.66,4.93c10.07,0.85,10.07,0.85,9.98,8.67c2.68,0,5.38,0,8.61,0c0-5.01,0-10.11,0-15.21
	c-9.56-0.08-9.54-0.08-9.47-8.7c0.01-1.14-0.42-2.27-0.62-3.41c-0.61-3.47,1.27-5.61,5.42-5.77c3.99-0.15,6.23,1.8,6.26,5.17
	c0.01,0.91-0.46,1.82-0.7,2.73c3.27,0.51,7.07,0.23,9.01,1.67c1.68,1.24,1.25,4.43,1.85,7.16c4.3-0.23,9.9-0.88,9.89,5.07
	c-0.02,12.64-0.15,12.64-10.18,12.86c-0.06,7.86-0.64,8.33-10,8.08c-0.29,5.36-0.59,10.73-0.88,16.09
	C230.28,185.19,232.17,186.48,231.18,193.95z M249.75,112.91c0.72,2.39,1.44,4.77,2.26,7.5c1.22-0.21,2.71-0.66,4.22-0.69
	c1.4-0.02,2.82,0.41,3.96,0.6c0.56-2.89,0.06-6.1,1.71-7.31c1.92-1.4,5.72-1.05,8.68-1.46c0-5.21,0-10.46,0-15.49
	c-3.43,0-6.25,0-9.39,0c0,3.6-0.46,6.87,0.1,10.02c0.93,5.22-1.3,7.21-7.59,6.39c-1.29-0.17-2.7,0.31-4.06,0.5L249.75,112.91z
	 M249.66,112.97c0.37-5.6,0.73-11.2,1.09-16.83c-10.01,0.03-10.01,0.03-10.87-8.47c-2.85,0-5.68,0-8.58,0c0,2.57,0,5.03,0,7.77
	c5.4-0.72,10.19-0.66,10.36,4.82c0.12,3.83-0.52,7.68-0.79,11.22c3.44,0.55,6.16,0.99,8.89,1.43
	C249.75,112.91,249.66,112.97,249.66,112.97z M200.96,38.3c-1.57-8.68-1.3-8.95,9.44-9.89c0-2.75,0-5.51,0-8.27
	c0,0,0.18,0.16,0.16,0.14c-2.93,0.6-5.85,1.22-9.26,1.94c1.96,6.55-2.55,8.55-10.42,7.62c0.45,3.32,0.83,6.08,1.2,8.84l-0.02-0.02
	c3.03-0.17,6.05-0.35,9.08-0.52L200.96,38.3z M191.23,95.07c-0.48-2.35-0.95-4.69-1.49-7.33c-2.62,0-5.4,0-8.19,0
	c-0.32,7.96-0.93,8.48-9.88,8.57c-0.46,2.7-0.93,5.39-1.4,8.09c0,0-0.18-0.15-0.18-0.15c3.34,0,6.68-0.01,10.02-0.01
	c0,0-0.28,0.22-0.28,0.22c0.13-0.95,0.53-1.93,0.36-2.85c-0.97-5.23,1.67-7.2,7.89-6.33c1.08,0.15,2.28-0.28,3.43-0.44L191.23,95.07
	z M170.28,409.51c0.39,2.71,0.78,5.43,1.18,8.14c9.34,0.33,9.82,0.74,9.99,8.62c2.79,0,5.6,0,8.69,0c0-2.42,0-4.78,0-7.92
	c-10.14,3.04-10.73-2.19-10.26-7.44c-3.6-0.46-6.68-0.86-9.77-1.25C170.11,409.66,170.28,409.51,170.28,409.51z M250.45,401.67
	c-3.02,0.18-6.03,0.35-9.87,0.57c0,5.59,0,11.23,0,16.87c0,0-0.17-0.09-0.17-0.09c3.24-0.48,6.47-0.96,9.76-1.45
	c0-5.32,0-10.71,0-16.11L250.45,401.67z M211.09,86.93c-10.18,1.94-12.06,0.39-10.02-8.27c0,0,0.21,0.16,0.21,0.16
	c-3.32,0-6.64,0.01-9.97,0.01l0.13-0.18c0,2.58,0,5.17,0,7.7c9.82,0.84,9.82,0.84,9.83,9.94c0,0-0.16-0.19-0.16-0.19
	c3.06-0.44,6.11-0.88,9.05-1.3c0.24-2.68,0.47-5.39,0.71-8.1L211.09,86.93z M60.4,269.12c6.37,0,12.75,0,19.68,0
	c0-2.77,0-5.45,0-8.13l0.19,0.16c-6.47,0-12.94,0-19.67,0c0,2.97,0,5.54,0,8.11L60.4,269.12z M431.92,261c0,2.58,0,5.16,0,8.12
	c6.72,0,13.2,0,19.68,0l-0.19,0.14c0-2.55,0-5.1,0-8.1c-6.78,0-13.22,0-19.66,0L431.92,261z M451.61,244.9c-6.3,0-12.61,0-19.67,0
	c0,2.72,0,5.43,0,8.14l-0.17-0.19c6.43,0,12.86,0,19.63,0c0-2.99,0-5.54,0-8.1L451.61,244.9z M80.08,253.03c0-2.56,0-5.12,0-8.12
	c-6.76,0-13.22,0-19.68,0c0,0,0.2-0.15,0.2-0.15c0,2.55,0,5.11,0,8.11c6.76,0,13.21,0,19.66,0L80.08,253.03z M441.59,28.7
	c0.64,0.17,1.29,0.52,1.92,0.5c8.9-0.31,9.69,0.58,7.92,9.06c3.35-0.07,6.69-0.14,10.04-0.22l-0.27,0.23c0-2.79,0-5.58,0-8.35
	c-9.67,0.14-10.11-0.23-10.42-8.41c-2.82,0-5.64,0-8.5,0c-0.17,2.51-0.33,4.9-0.49,7.29L441.59,28.7z M99.95,409.79
	c-2.84,0.31-5.68,0.61-8.68,0.93c-1.14,8.09-1.14,8.09-10.33,8.39c-0.23,2.72-0.45,5.43-0.68,8.15c0,0-0.2-0.18-0.2-0.18
	c3.06-0.42,6.12-0.85,9.7-1.35c-1.67-6.38,2.07-8.9,9.91-7.93c0-2.99,0-5.61,0-8.23L99.95,409.79z M99.94,54.29
	c-0.07,2.76-0.15,5.51-0.22,8.27c3.16-0.22,6.32-0.43,9.54-0.65c1.11-8.24,1.41-8.48,10.49-8.13c0.38-2.54,0.76-5.08,1.14-7.61
	c0,0,0.27,0.21,0.27,0.21c-3.39,0-6.78,0-10.17,0c0.44,8.3-0.28,8.78-11.31,8.1L99.94,54.29z M250.57,38.31
	c3.22-0.39,6.43-0.79,9.73-1.2c0.36-2.66,0.76-5.58,1.15-8.5l0.17,0.14c-3.49,0.47-6.98,0.95-10.27,1.39
	c-0.19,2.78-0.38,5.55-0.58,8.32C250.78,38.46,250.56,38.3,250.57,38.31z M250.26,435.21c3.83,0,7.66,0,11.49,0
	c0,0-0.2,0.16-0.2,0.16c-0.59-2.7-1.18-5.41-1.75-8.04c-2.91,0-5.79,0-7.98,0c-0.51,3-0.93,5.53-1.36,8.05L250.26,435.21z
	 M130.72,38.04c3.35,0,6.7,0,10.04,0.01l-0.23,0.23c-0.16-2.75-0.32-5.5-0.5-8.49c-2.85,0-5.74,0-9.04,0c0,2.85,0,5.67,0,8.49
	L130.72,38.04z M179.91,443.33c3.28-0.21,6.56-0.41,9.84-0.62c0.48-2.45,0.97-4.98,1.47-7.51c0,0,0.29,0.22,0.29,0.22
	c-3.41,0-6.82,0-9.73,0c-0.62,3-1.14,5.53-1.66,8.06C180.11,443.48,179.91,443.33,179.91,443.33z M310.76,38.05
	c3.34,0,6.69-0.01,10.03-0.01c0,0-0.27,0.22-0.27,0.22c0-2.81,0-5.62,0-8.55c-3.31,0-6.17,0-8.88,0c-0.24,3.05-0.45,5.8-0.67,8.55
	C310.97,38.25,310.76,38.05,310.76,38.05z M371.24,38.04c3.35,0,6.7,0,10.04,0l-0.26,0.24c0-2.8,0-5.59,0-8.49
	c-3.35,0-6.19,0-9.07,0c-0.16,2.94-0.32,5.71-0.47,8.49L371.24,38.04z M431.73,38.04c3.35,0.07,6.7,0.14,10.04,0.21
	c-0.06-3.18-0.12-6.37-0.18-9.55c0,0,0.2,0.1,0.2,0.1c-3.08,0.4-6.16,0.81-9.8,1.29c0,2.54,0,5.36,0,8.18
	C431.99,38.27,431.73,38.04,431.73,38.04z M249.97,79.01c0.69,2.6,1.39,5.19,2.08,7.79c2.69,0.01,5.38,0.01,8.18,0.01
	c0-2.67,0-5.13,0-7.63c-3.82,0-7.15,0-10.47,0L249.97,79.01z M311.7,410.78c-0.24,2.36-0.48,4.7-0.71,7.04l-0.23-0.1
	c3.33,0.01,6.66,0.02,10,0.03l-0.17,0.08c0.06-2.73,0.12-5.46,0.18-8.19C317.7,410.02,314.64,410.41,311.7,410.78z M480.55,46.38
	c-3.16,0-6.35,0-9.53,0l0.27-0.22c0,2.76,0,5.52-0.01,8.28l-0.26-0.19c3.85,0.06,7.71,0.12,11.56,0.18
	C481.92,51.77,481.24,49.11,480.55,46.38z M180.11,104.23c0,2.76-0.01,5.52-0.01,8.29c0,0-0.22-0.14-0.22-0.14
	c3.46-0.27,6.91-0.55,10.24-0.81c0-2.4,0-4.59,0-7.12c-3.55,0-6.92,0-10.29,0L180.11,104.23z M322.13,402.42
	c-0.55,2.64-1.04,4.99-1.53,7.35c3.22,0,6.44,0,10,0c0-3.05,0-5.65,0-8.26C327.57,401.84,324.55,402.16,322.13,402.42z M50.55,38.04
	c3.35,0,6.69,0,10.04,0c0,0-0.21,0.19-0.21,0.19c-0.26-2.73-0.52-5.47-0.81-8.54c-2.85,0.11-5.69,0.21-8.75,0.33
	c0,2.95,0,5.61,0,8.26L50.55,38.04z M320.78,38.04c0.41,2.36,0.82,4.71,1.27,7.3c2.55,0.25,5.56,0.53,8.56,0.82
	c0,0-0.28,0.2-0.28,0.2c0-2.67,0-5.34,0-8.11c-3.54,0-6.68,0-9.82,0L320.78,38.04z M412.07,62.58c0-2.77,0-5.53,0-8.3l0.29,0.2
	c-3.9,0-7.79,0.01-11.69,0.01l0.28-0.21c0,2.76,0,5.53-0.01,8.29c0,0-0.26-0.18-0.26-0.18c3.9,0,7.8,0,11.7-0.01L412.07,62.58z
	 M290.51,29.88c-3.15,0-5.98,0-8.82,0c0,2.65,0,5.01,0,7.42c3.11,0,5.9,0,8.82,0C290.51,34.78,290.51,32.34,290.51,29.88z
	 M180.11,70.54c0.52,2.53,1.04,5.05,1.67,8.11c2.9,0,6.28,0,9.66,0c0,0-0.13,0.18-0.13,0.18c-0.53-2.52-1.06-5.04-1.59-7.52
	c-3.26-0.2-6.56-0.4-9.87-0.6L180.11,70.54z M192.09,38.68c-3.58-0.21-7.16-0.42-10.89-0.64c0,2.88,0,5.24,0,7.49
	c3.19,0,6.09,0,7.79,0c1.25-2.78,2.17-4.82,3.09-6.87C192.08,38.66,192.09,38.68,192.09,38.68z M200.54,419.64c0-3.07,0-6.14,0-9.16
	c-3.66,0-6.29,0-9.06,0c0,2.51,0,4.9,0,6.73c3.41,0.84,6.32,1.55,9.23,2.27L200.54,419.64z M240.93,20.29
	c0.16,2.86,0.31,5.71,0.46,8.44c3.22,0,6.05,0,8.73,0c0-2.59,0-4.8,0-6.6c-3.44-0.6-6.42-1.13-9.41-1.65L240.93,20.29z
	 M119.92,410.49c-3.2,0-5.99,0-8.84,0c0,2.49,0,4.84,0,7.4c3.07,0,5.76,0,8.84,0C119.92,415.08,119.92,412.75,119.92,410.49z
	 M50.55,46.32c0-2.76,0-5.52,0-8.28c0,0,0.27,0.24,0.27,0.24c-3.19,0-6.37,0-9.83,0c-0.19,2.58-0.37,4.94-0.54,7.19
	c3.71,0.24,7.01,0.45,10.32,0.67L50.55,46.32z M441.57,203.09c0-2.77,0.01-5.53,0.01-8.3c0,0,0.21,0.17,0.21,0.17
	c-3.35,0-6.7,0-10.05,0l0.25-0.17c0,2.54,0,5.09,0,8.08c3.62,0,6.71,0,9.8,0L441.57,203.09z M70.43,203.09
	c-3.35-0.06-6.7-0.12-10.05-0.18c0.07,2.76,0.14,5.53,0.21,8.29l-0.17-0.2c3.07,0,6.15,0,9.13,0c0.22-3,0.41-5.55,0.6-8.1
	L70.43,203.09z M451.41,211.21c0.07-2.76,0.14-5.52,0.21-8.28c-3.35,0.05-6.7,0.11-10.06,0.16c0,0,0.22-0.22,0.22-0.22
	c0.19,2.71,0.38,5.42,0.58,8.13c3.39,0,6.32,0,9.24,0L451.41,211.21z M170.07,459.74c0-2.76,0-5.53,0-8.29c0,0,0.15,0.18,0.15,0.18
	c-3.34,0.01-6.69,0.02-10.03,0.03l0.24-0.21c0,2.77,0,5.53,0,8.3l-0.23-0.21c3.34,0.01,6.67,0.01,10.01,0.02L170.07,459.74z
	 M111.06,459.74c0-2.76,0-5.53,0-8.29l0.3,0.2c-3.9,0-7.79,0-11.69,0l0.27-0.2c0,2.76,0,5.53,0,8.29l-0.26-0.19
	c3.91,0.01,7.81,0.01,11.72,0.02L111.06,459.74z M230.78,443.32c0,2.76,0,5.53,0,8.29l-0.21-0.17c3.05-0.14,6.09-0.27,9.83-0.44
	c0-2.4,0-5.04,0-7.68l0.15,0.18c-3.34,0.01-6.67,0.02-10.01,0.02L230.78,443.32z M150.6,443.32c0.21,2.54,0.42,5.08,0.64,7.66
	c3.06,0.15,6.13,0.31,9.2,0.46c0,0-0.24,0.21-0.24,0.21c0-2.67,0-5.33,0-8.12c-3.76,0-6.8,0-9.83,0L150.6,443.32z M451.6,236.63
	c0,2.76,0,5.52,0,8.28c0,0-0.21-0.15-0.21-0.15c3.23-0.2,6.45-0.4,9.68-0.61c0-2.49,0-4.96,0-7.28c-3.51,0-6.6,0-9.7,0L451.6,236.63
	z M492.23,244.91c0-2.76,0-5.53,0-8.29c0,0,0.28,0.21,0.28,0.21c-3.32,0-6.65,0-10.26,0c0.19,2.91,0.35,5.24,0.47,7.21
	c3.6,0.25,6.67,0.46,9.75,0.67C492.48,244.7,492.23,244.91,492.23,244.91z M80.27,194.96c-3.35,0-6.7-0.01-10.05-0.01l0.19-0.16
	c0,2.77,0.01,5.53,0.01,8.3c0,0-0.27-0.19-0.27-0.19c3.13,0,6.25,0,9.27,0c0.23-3.03,0.42-5.57,0.61-8.11L80.27,194.96z
	 M230.78,62.41c0,2.76,0,5.53,0,8.29c0,0-0.22-0.2-0.22-0.2c3.3,0.02,6.6,0.04,9.9,0.05c0,0-0.19,0.16-0.2,0.16
	c0-2.63,0-5.26,0-7.65c-3.63-0.17-6.66-0.32-9.69-0.46C230.57,62.6,230.78,62.41,230.78,62.41z M210.9,70.54c3.35,0,6.69,0,10.04,0
	l-0.2,0.16c0-2.76,0-5.53,0-8.29c0,0,0.22,0.21,0.22,0.21c-3.21,0.14-6.41,0.27-9.82,0.42c0,2.65,0,5.16,0,7.66L210.9,70.54z
	 M80.08,260.99c3.26,0,6.52,0,10.02,0c0-2.71,0-5.22,0-7.96c-3.55,0-6.79,0-10.02,0c0,0,0.18-0.16,0.18-0.16c0,2.76,0,5.53,0,8.29
	L80.08,260.99z M431.94,253.05c-3.12,0-6.23,0-9.81,0c-0.2,2.54-0.4,4.9-0.61,7.54c3.53,0.14,6.97,0.27,10.4,0.41
	c0,0-0.17,0.16-0.17,0.16c0.01-2.77,0.01-5.54,0.02-8.3L431.94,253.05z M220.94,435.2c-0.06,2.76-0.12,5.52-0.19,8.28
	c3.34-0.05,6.69-0.11,10.03-0.16c0,0-0.23,0.21-0.23,0.21c-0.16-2.71-0.32-5.43-0.47-8.13c-3.46,0-6.4,0-9.35,0L220.94,435.2z
	 M140.76,435.2c0.14,2.4,0.27,4.79,0.42,7.42c2.98,0.22,6.2,0.46,9.42,0.7c0,0-0.23,0.21-0.23,0.21c-0.17-2.65-0.33-5.29-0.51-8.14
	c-3.19,0-6.25,0-9.31,0C140.55,435.39,140.76,435.2,140.76,435.2z M9.73,70.53c3.34,0.05,6.68,0.11,10.01,0.16
	c-0.06-2.76-0.12-5.52-0.18-8.28c0,0,0.16,0.18,0.16,0.18c-3.05,0.17-6.11,0.34-9.05,0.51c-0.26,2.58-0.51,5.1-0.76,7.62L9.73,70.53
	z M90.11,186.84c-3.35,0-6.7-0.01-10.04-0.01c0,0,0.2-0.16,0.2-0.16c0,2.77,0.01,5.53,0.01,8.3c0,0-0.24-0.17-0.24-0.17
	c3.23-0.19,6.47-0.38,9.81-0.58c0-2.68,0-5.1,0-7.53L90.11,186.84z M120.89,46.16c3.01-0.23,6.02-0.46,8.94-0.69
	c0.29-2.47,0.59-4.95,0.88-7.43c0,0,0.27,0.23,0.27,0.23c-3.15,0-6.3,0-9.82,0c0,2.9,0,5.5,0,8.1
	C121.16,46.37,120.89,46.16,120.89,46.16z M240.62,46.3c3.05-0.36,6.09-0.73,9.51-1.15c0.13-1.99,0.29-4.42,0.44-6.85
	c-0.01-0.01,0.21,0.16,0.2,0.15c-3.12-0.13-6.24-0.26-9.34-0.39c-0.21,3.05-0.39,5.73-0.58,8.41
	C240.85,46.48,240.62,46.3,240.62,46.3z M231,12.19c-0.28-2.39-0.57-4.76-0.88-7.17c-2.98,0-5.95,0-8.56,0
	c-0.35,2.57-0.66,4.91-0.98,7.25l-0.18-0.18c3.58-0.02,7.15-0.04,10.73-0.06C231.13,12.04,230.98,12.21,231,12.19z M271.71,46.08
	c-0.6-2.51-1.22-5.01-1.87-7.66c-2.47,0-5.31,0-8.1,0c0,2.61,0,4.84,0,7.06c3.57,0.15,6.87,0.29,10.17,0.43
	C271.91,45.91,271.7,46.09,271.71,46.08z M492.23,277.42c0-2.77,0.01-5.53,0.01-8.3c0,0,0.23,0.18,0.23,0.18
	c-3.28,0.3-6.56,0.6-8.9,0.81c-1.18,2.45-2.18,4.51-3.18,6.58l-0.05-0.05c4.06,0.2,8.11,0.39,12.17,0.59L492.23,277.42z
	 M230.78,70.7c-3.35,0-6.69,0-10.04,0c0,0,0.2-0.16,0.2-0.16c0,2.76,0,5.53,0,8.29c0,0-0.2-0.2-0.2-0.2c3.22,0,6.44,0,9.82,0
	c0-3.03,0-5.58,0-8.13C230.56,70.5,230.78,70.7,230.78,70.7z M291.06,78.83c0.07-2.77,0.13-5.53,0.2-8.3
	c-3.35,0.06-6.69,0.11-10.04,0.17c0,0,0.25-0.19,0.25-0.19c0,2.69,0,5.38,0,8.11c3.68,0,6.74,0,9.8,0L291.06,78.83z M191.22,435.2
	c3.36,0.06,6.73,0.11,10.09,0.17c-0.09-2.76-0.17-5.53-0.26-8.29c0,0,0.26,0.23,0.26,0.23c-3.27,0-6.54,0-9.8,0c0,3,0,5.56,0,8.12
	L191.22,435.2z M330.38,112.51c0.05-2.76,0.11-5.53,0.16-8.29c-3.32,0.06-6.65,0.12-9.97,0.18c0,0,0.22-0.14,0.22-0.14
	c0.41,2.51,0.82,5.02,1.2,7.31c2.94,0.27,5.77,0.53,8.6,0.79L330.38,112.51z M281.78,54.1c-0.11,2.82-0.21,5.65-0.32,8.47
	l-0.23-0.16c3.35,0.06,6.7,0.11,10.05,0.17c-0.07-2.77-0.14-5.53-0.21-8.3l0.22,0.19c-3.25-0.07-6.49-0.14-9.74-0.21L281.78,54.1z
	 M261.46,28.61c3.05,0,6.09,0,8.58,0c0.48-2.99,0.89-5.54,1.3-8.09c0,0,0.19,0.15,0.19,0.15c-3.25,0.43-6.49,0.87-9.91,1.33
	c0,2.23,0,4.49,0,6.75C261.63,28.75,261.46,28.61,261.46,28.61z M220.73,62.41c3.35,0,6.7,0,10.04,0c0,0-0.21,0.19-0.21,0.19
	c0.02-2.73,0.03-5.46,0.05-8.19c0,0,0.22,0.19,0.22,0.19c-3.49,0.07-6.97,0.15-10.46,0.22c0,0,0.19-0.18,0.17-0.17
	c0.12,2.66,0.26,5.31,0.4,7.96C220.95,62.61,220.73,62.41,220.73,62.41z M70.44,310.94c0,2.77-0.01,5.53-0.01,8.3
	c0,0-0.2-0.17-0.2-0.17c3.35,0,6.7,0,10.05-0.01c0,0-0.26,0.17-0.26,0.17c-0.17-2.54-0.35-5.09-0.53-7.68
	c-3.12-0.14-6.18-0.28-9.23-0.42L70.44,310.94z M431.73,319.06c3.35,0,6.7,0.01,10.05,0.01c0,0-0.2,0.16-0.2,0.16
	c0-2.77-0.01-5.53-0.01-8.3l0.21,0.21c-3.08,0-6.16,0-9.79,0c0,2.98,0,5.54,0,8.1L431.73,319.06z M320.57,104.41
	c0.09-2.67,0.18-5.33,0.27-8l0.15,0.16c-3.41-0.09-6.83-0.18-10.24-0.28l0.22-0.1c0.28,2.43,0.56,4.86,0.83,7.12
	c3.07,0.33,6.04,0.64,9,0.96L320.57,104.41z M169.9,54.25c-3.23,0.08-6.47,0.16-9.7,0.24l0.25-0.2c-0.07,2.77-0.13,5.53-0.2,8.3
	c3.35-0.06,6.69-0.11,10.04-0.17l-0.26,0.18c-0.11-2.83-0.23-5.65-0.34-8.48C169.69,54.11,169.9,54.25,169.9,54.25z M80.27,319.06
	c0,2.77-0.01,5.53-0.01,8.3c0,0-0.2-0.17-0.2-0.17c3.35,0,6.7-0.01,10.04-0.01l-0.24,0.15c0-2.55,0-5.1,0-7.64
	c-3.69-0.17-6.77-0.32-9.86-0.46L80.27,319.06z M201.26,96.3c-3.35-0.41-6.69-0.82-10.04-1.23c0,0,0.28-0.23,0.28-0.23
	c0,2.94,0,5.87,0,8.63c3.22,0,6.01,0,8.33,0c0.47-2.73,0.87-5.04,1.27-7.35L201.26,96.3z M421.9,327.19c3.35,0,6.7,0.01,10.05,0.01
	l-0.2,0.16c0-2.77-0.01-5.53-0.01-8.3c0,0,0.27,0.18,0.27,0.18c-3.28,0.19-6.57,0.38-9.85,0.56c0,2.69,0,5.11,0,7.53L421.9,327.19z
	 M159.74,409.17c-2.88,0.63-5.76,1.25-8.59,1.86c0,2.15,0,4.47,0,6.79c3.15,0,6,0,9.1,0c-0.21-3.11-0.4-5.9-0.59-8.68
	C159.66,409.13,159.73,409.16,159.74,409.17z M310.75,96.29c0.05-3.18,0.11-6.35,0.16-9.53c-3.33,0.06-6.66,0.12-9.99,0.18
	l0.23-0.24c0.18,2.74,0.37,5.47,0.55,8.09c3.15,0.48,6.21,0.94,9.27,1.4L310.75,96.29z M179.23,402.07
	c1.01,2.46,1.99,4.95,2.94,7.39c2.45,0,5.13,0,7.87,0c0-2.61,0-4.95,0-7.3c-3.9,0-7.43,0-10.97,0
	C179.08,402.16,179.19,402.09,179.23,402.07z M150.61,46.16c0.21,2.53,0.42,5.05,0.64,7.65c3.06,0.16,6.13,0.31,9.2,0.47
	c0,0-0.25,0.2-0.25,0.2c0-2.67,0-5.34,0-8.13c-3.67,0-6.74,0-9.8,0L150.61,46.16z M330.62,46.16c0.54,2.5,1.08,4.99,1.63,7.53
	c3.16,0.2,6.42,0.4,9.67,0.6c0,0-0.2,0.15-0.2,0.15c-0.48-2.55-0.96-5.09-1.52-8.08c-3.08,0-6.47,0-9.86,0L330.62,46.16z
	 M210.79,46.53c0.27,2.53,0.56,5.05,0.78,7.02c3.28,0.41,6.12,0.76,8.98,1.1c0.01-0.01-0.17,0.17-0.16,0.16
	c0.01-2.75,0.01-5.49,0.01-8.54c-3.49,0.15-6.62,0.29-9.75,0.43C210.64,46.69,210.8,46.51,210.79,46.53z M291.07,54.28
	c3.1-0.14,6.21-0.28,9.84-0.45c0-2.53,0-5.1,0-7.67l0.21,0.2c-3.21,0-6.41,0-9.38,0c-0.17,3.09-0.31,5.6-0.45,8.11L291.07,54.28z
	 M391.11,46.16c0.29,2.5,0.58,5,0.87,7.55c2.95,0.19,5.96,0.38,8.97,0.57c0,0-0.28,0.21-0.28,0.21c0-2.67,0-5.34,0-8.13
	c-3.66,0-6.76,0-9.85,0L391.11,46.16z M170.07,451.45c3.16-0.14,6.31-0.27,9.84-0.43c0-2.49,0-5.09,0-7.69c0,0,0.2,0.15,0.2,0.15
	c-3.03,0.12-6.06,0.24-8.52,0.33c-0.5,2.88-0.93,5.34-1.36,7.81L170.07,451.45z M230.61,54.4c3.26-0.26,6.53-0.53,9.52-0.76
	c0.17-2.52,0.34-4.92,0.49-7.34c-0.01,0,0.23,0.18,0.22,0.17c-3.26,0-6.51,0-9.56,0c-0.17,3.04-0.31,5.58-0.46,8.12
	C230.83,54.6,230.61,54.41,230.61,54.4z M99.94,335.31c0,2.77,0,5.53,0.01,8.3c0,0-0.27-0.2-0.27-0.2c3.15,0,6.3,0,9.74,0
	c0-2.78,0-5.09,0-7.14c-3.54-0.27-6.63-0.51-9.73-0.75L99.94,335.31z M351.56,54.29c3.07-0.17,6.15-0.34,9.22-0.52
	c0.21-2.54,0.41-5.07,0.62-7.61l0.23,0.2c-3.25,0-6.5,0-9.82,0c0,2.99,0,5.55,0,8.11L351.56,54.29z M90.11,46.16
	c0.28,2.5,0.57,5.01,0.85,7.57c2.95,0.18,5.96,0.37,8.98,0.56c0,0-0.26,0.18-0.26,0.18c0-2.68,0-5.35,0-8.1c-3.64,0-6.72,0-9.81,0
	L90.11,46.16z M412.07,54.28c2.81-0.16,5.61-0.31,8.72-0.48c0.34-2.38,0.72-5.01,1.1-7.64c0,0,0.26,0.22,0.26,0.22
	c-3.21,0-6.41,0-9.79,0c0,2.87,0,5.49,0,8.11L412.07,54.28z M90.11,327.18c0,2.77,0,5.53,0,8.3l-0.21-0.17c3.35,0,6.7,0,10.05,0
	c0,0-0.25,0.21-0.25,0.21c0-2.56,0-5.12,0-7.42c-3.62-0.28-6.72-0.52-9.81-0.76L90.11,327.18z M29.4,54.29
	c3.85,0,7.69,0.01,11.54,0.01c0,0-0.19,0.15-0.19,0.15c-0.6-2.67-1.2-5.34-1.77-7.93c-2.91,0-5.53,0-7.79,0
	c-0.57,2.86-1.08,5.39-1.58,7.92L29.4,54.29z M40.94,54.3c0,2.56,0,5.11,0,7.58c3.23,0.23,6.55,0.46,9.87,0.69
	c-0.08-2.76-0.17-5.53-0.25-8.29c0,0,0.27,0.22,0.27,0.22c-3.36-0.01-6.72-0.03-10.08-0.04L40.94,54.3z M461.46,38.04
	c-0.07,2.77-0.14,5.54-0.21,8.31c3.35-0.06,6.69-0.13,10.04-0.19c0,0-0.27,0.22-0.27,0.22c0-2.64,0-5.28,0-8.11
	c-3.4,0-6.61,0-9.83,0L461.46,38.04z M441.57,310.94c3.35,0.06,6.71,0.12,10.06,0.18c-0.07-2.77-0.15-5.53-0.22-8.3
	c0,0,0.19,0.21,0.19,0.21c-3.09,0-6.19,0-9.22,0c-0.23,2.99-0.42,5.56-0.61,8.12L441.57,310.94z M301.56,20.12
	c-0.43-2.3-0.86-4.6-1.27-6.77c-3.09-0.23-6.15-0.46-9.21-0.69c0,0,0.22-0.19,0.22-0.19c0.18,2.73,0.37,5.46,0.57,8.47
	c3.52-0.33,6.65-0.63,9.78-0.93C301.66,20.02,301.56,20.12,301.56,20.12z M141.18,427.65c2.89-0.63,5.78-1.27,8.8-1.93
	c0-2.02,0-4.34,0-6.81c-2.91,0-5.74,0-8.68,0c0,3.02,0,5.95,0,8.87L141.18,427.65z M281.2,12.36c3.37,0.04,6.74,0.07,10.11,0.11
	c0,0-0.22,0.19-0.23,0.2c-0.22-2.52-0.44-5.04-0.68-7.67c-2.99,0-5.94,0-9.03,0c0,2.72,0,5.12,0,7.52L281.2,12.36z M300.91,427.08
	c3.35,0,6.69,0,10.04-0.01c0,0-0.21,0.18-0.21,0.18c0-3.18,0.01-6.36,0.01-9.53c0,0,0.23,0.1,0.23,0.1
	c-3.04,0.49-6.08,0.98-9.19,1.48c-0.22,2.61-0.44,5.3-0.66,7.99L300.91,427.08z M60.59,302.82c-0.06,2.76-0.13,5.52-0.19,8.29
	c3.35-0.06,6.69-0.11,10.04-0.17c0,0-0.18,0.2-0.18,0.2c-0.28-2.66-0.55-5.31-0.85-8.13c-3.14,0-6.06,0-8.97,0L60.59,302.82z
	 M300.92,86.94c0.07-2.76,0.13-5.52,0.2-8.29c-3.35,0.06-6.7,0.12-10.05,0.18c0,0,0.21-0.21,0.21-0.21c0.16,2.7,0.33,5.39,0.49,8.08
	c3.23,0,6.3,0,9.37,0L300.92,86.94z M251.58,62c3.27,0,6.05,0,8.62,0c0-2.72,0-5.05,0-7.25c-3.18,0-5.87,0-9.03,0
	C251.34,57.61,251.47,59.9,251.58,62z M361.4,46.16c3.03-0.24,6.06-0.47,9.24-0.72c0.19-2.39,0.4-4.89,0.6-7.4
	c0,0,0.24,0.23,0.24,0.23c-3.24,0-6.49,0-9.85,0c0,2.97,0,5.53,0,8.09C361.63,46.36,361.4,46.16,361.4,46.16z M220.94,78.82
	c-3.35,0-6.69,0.01-10.04,0.01l0.21-0.18c-0.01,2.76-0.01,5.52-0.02,8.28c0,0-0.22-0.23-0.22-0.23c3.06,0,6.12,0,9.27,0
	c0.2-2.73,0.4-5.41,0.6-8.08L220.94,78.82z M80.27,427.26c-3.54,0.21-7.09,0.41-10.63,0.62l0.09-0.08c0.17,2.52,0.35,5.05,0.52,7.57
	c3.34-0.06,6.69-0.11,10.03-0.17l-0.25,0.2c0.01-2.78,0.03-5.55,0.04-8.33L80.27,427.26z M109.62,434.5c0-2.59,0-4.79,0-7.1
	c-3.2,0-6.03,0-8.78,0c0,2.51,0,4.66,0,7.1C104.16,434.5,106.91,434.5,109.62,434.5z M169.77,427.2c-3.2,0-5.89,0-8.64,0
	c0,2.69,0,5.15,0,7.33c3.1,0,5.72,0,9.09,0C170.07,431.96,169.92,429.6,169.77,427.2z M211.09,427.09
	c-0.06,2.76-0.11,5.51-0.17,8.27c3.34-0.05,6.67-0.1,10.01-0.16c0,0-0.21,0.2-0.21,0.2c-0.21-2.72-0.42-5.44-0.62-8.13
	c-3.26,0-6.22,0-9.18,0L211.09,427.09z M291.06,435.2c3.35,0,6.7,0,10.04,0.01l-0.19,0.16c0-2.76,0-5.52,0-8.28
	c0,0,0.22,0.22,0.22,0.22c-3.2,0-6.4,0-9.83,0c0,2.99,0,5.54,0,8.09L291.06,435.2z M70.96,28.2c-0.16,3.36-0.33,6.72-0.49,10.09
	l-0.25-0.24c3.35,0,6.7-0.01,10.04-0.01c0,0-0.24,0.21-0.24,0.21c-0.15-2.77-0.3-5.54-0.41-7.57c-3.34-0.9-6.04-1.64-8.75-2.37
	L70.96,28.2z M272.07,71.06c-3.36,0-6.71,0-10.33,0c0,2.57,0,4.95,0,7.47c3.05,0,5.75,0,8.18,0c0.69-2.7,1.32-5.16,1.95-7.63
	L272.07,71.06z M221.38,29.94c0,2.64,0,4.97,0,7.35c3.01,0,5.82,0,8.84,0c0-2.39,0-4.74,0-7.35
	C226.91,29.94,224.06,29.94,221.38,29.94z M99.93,170.42c0,2.77-0.01,5.53-0.01,8.3l-0.24-0.19c3.29-0.33,6.59-0.65,9.83-0.98
	c0-2.29,0-4.34,0-6.93c-3.45,0-6.65,0-9.85,0L99.93,170.42z M19.77,269.11c0,2.77,0.01,5.53,0.01,8.3c0,0-0.27-0.21-0.27-0.21
	c3.18,0,6.35,0,9.69,0c0-2.64,0-4.99,0-6.96c-3.55-0.34-6.61-0.63-9.66-0.92C19.54,269.32,19.77,269.11,19.77,269.11z M140.76,38.05
	c0,2.38,0,4.76,0,7.21c3.45,0.32,6.65,0.61,9.85,0.91c0,0-0.21,0.2-0.21,0.2c-0.17-2.68-0.34-5.36-0.52-8.09c-3.18,0-6.26,0-9.35,0
	L140.76,38.05z M490.97,54.83c-2.83-0.18-5.7-0.36-8.56-0.54c0,2.55,0,5.1,0,7.61c3.4,0.23,6.71,0.45,10.02,0.67
	C491.93,59.95,491.44,57.34,490.97,54.83z M201.07,78.67c3.35,0,6.7-0.01,10.04-0.01l-0.21,0.18c0-2.77,0-5.53,0-8.3
	c0,0,0.24,0.16,0.24,0.16c-3.26,0.23-6.52,0.46-9.86,0.7c0,2.6,0,5.01,0,7.43C201.28,78.83,201.07,78.67,201.07,78.67z M80.28,435.2
	c0.21,2.52,0.43,5.05,0.64,7.56c3.08,0.19,6.14,0.37,9.19,0.56l-0.26,0.2c0-2.68,0-5.35,0-8.12c-3.64,0-6.73,0-9.83,0L80.28,435.2z
	 M120.88,443.32c3.01-0.22,6.01-0.45,8.9-0.66c0.32-2.5,0.63-4.98,0.94-7.46c0,0,0.26,0.21,0.26,0.21c-3.19,0-6.38,0-9.83,0
	c0,2.84,0,5.47,0,8.1L120.88,443.32z M431.73,194.97c0-2.77,0-5.54,0-8.3l0.2,0.16c-3.34,0-6.69,0.01-10.03,0.01l0.27-0.16
	c0,2.57,0,5.14,0,7.52c3.64,0.22,6.73,0.41,9.81,0.59L431.73,194.97z M492.23,70.54c3.35,0,6.69,0,10.04-0.01
	c0,0-0.17,0.18-0.17,0.18c-0.32-2.65-0.64-5.3-0.92-7.56c-3.27-0.27-6.11-0.51-8.95-0.74c0.08,2.76,0.16,5.52,0.25,8.28
	L492.23,70.54z M261.75,435.21c0,2.42,0,4.85,0,7.4c3.33,0.24,6.59,0.48,9.84,0.72l-0.2,0.15c-0.45-2.54-0.9-5.07-1.43-8.11
	c-2.51,0-5.46,0-8.41,0L261.75,435.21z M60.59,211.2c-3.35,0-6.7,0-10.05,0c0,0,0.22-0.21,0.22-0.21c0,2.63,0,5.26,0,8
	c3.28,0,6.17,0,8.47,0c0.43-2.89,0.81-5.44,1.19-7.99C60.42,211,60.59,211.2,60.59,211.2z M40.74,220.64c0,2.22,0,4.44,0,6.77
	c3.43,0,6.09,0,8.82,0c0-2.58,0-4.87,0-7.51c-3.31,0.34-6.15,0.62-8.98,0.91C40.58,220.81,40.73,220.65,40.74,220.64z
	 M461.62,219.07c0.29,2.73,0.57,5.46,0.87,8.33c2.88,0,5.53,0,8.42,0c0-2.42,0-4.6,0-6.65c-3.38-0.52-6.45-1-9.52-1.48
	C461.39,219.26,461.61,219.07,461.62,219.07z M220.6,12.29c-2.97,0.39-5.96,0.77-8.99,1.15c-0.34,2.19-0.71,4.51-1.05,6.84
	c0.02,0.02-0.16-0.14-0.15-0.13c3.27,0.26,6.52,0.5,9.99,0.76c0-3.35,0-6.08,0-8.81C220.41,12.1,220.58,12.27,220.6,12.29z
	 M271.6,443.33c0,2.52,0,5.04,0,7.64c3.37,0.16,6.61,0.32,9.84,0.47l-0.21,0.17c0-2.76,0-5.53,0-8.29c0,0,0.24,0.21,0.24,0.21
	c-3.36-0.02-6.72-0.03-10.08-0.05L271.6,443.33z M271.86,70.88c3.2-0.13,6.41-0.26,9.62-0.38c0,0-0.25,0.19-0.25,0.19
	c0-2.76,0-5.53,0-8.29c0,0,0.23,0.16,0.23,0.16c-3.31,0.17-6.61,0.35-10.1,0.53c0.25,2.77,0.48,5.37,0.71,7.96
	C272.07,71.06,271.87,70.9,271.86,70.88z M90.11,443.32c0.31,2.51,0.61,5.02,0.93,7.64c2.84,0.15,5.87,0.32,8.91,0.49
	c0,0-0.27,0.2-0.27,0.2c0-2.67,0-5.34,0-8.12c-3.63,0-6.73,0-9.82,0L90.11,443.32z M170.28,62.41c0.37,2.57,0.73,5.13,1.12,7.8
	c2.84,0.11,5.78,0.22,8.71,0.33c0,0-0.26,0.18-0.26,0.18c0-2.6,0-5.19,0-7.72c-3.53-0.15-6.68-0.28-9.83-0.41L170.28,62.41z
	 M19.52,251.99c0-2.4,0-4.82,0-7.23l0.26,0.15c-3.35,0-6.7-0.01-10.05-0.01c0,0,0.17-0.18,0.17-0.18c-0.05,2.77-0.1,5.54-0.14,8.31
	C12.96,252.68,16.17,252.34,19.52,251.99z M240.7,20.48c-0.22-2.39-0.42-4.78-0.61-6.91c-3.09-0.48-6.09-0.94-9.1-1.38
	c-0.02,0.02,0.14-0.16,0.13-0.14c-0.01,2.87-0.01,5.72-0.01,8.8c3.63-0.21,6.72-0.38,9.82-0.56
	C240.93,20.29,240.71,20.48,240.7,20.48z M60.4,244.9c0-2.76,0-5.52,0-8.28c0,0,0.24,0.23,0.24,0.23c-3.29,0-6.57,0-9.69,0
	c0,2.74,0,5.22,0,7.33c3.57,0.21,6.61,0.4,9.65,0.58C60.6,244.76,60.4,244.9,60.4,244.9z M60.58,38.05c0,2.76,0,5.52,0,8.28
	l-0.2-0.17c3.04-0.22,6.07-0.45,9.21-0.68c0.2-2.41,0.42-4.93,0.63-7.44c0,0,0.25,0.24,0.25,0.24c-3.37-0.02-6.73-0.03-10.1-0.05
	L60.58,38.05z M111.06,451.45c2.83-0.14,5.66-0.29,8.61-0.44c0.39-2.43,0.8-5.06,1.22-7.69c0,0,0.26,0.19,0.26,0.19
	c-3.33,0-6.66,0-10.36,0c0.21,2.99,0.39,5.56,0.58,8.13C111.36,451.64,111.06,451.45,111.06,451.45z M19.77,236.61
	c0,2.76,0,5.53,0.01,8.29c0,0-0.26-0.15-0.26-0.15c3.27-0.29,6.54-0.58,9.75-0.87c0-2.34,0-4.55,0-7.05c-3.44,0-6.6,0-9.76,0
	L19.77,236.61z M281.54,54.27c-0.43-2.52-0.84-5.05-1.26-7.6c-2.77-0.19-5.67-0.39-8.57-0.59c-0.01,0.01,0.2-0.18,0.19-0.17
	c-0.01,2.67-0.01,5.33-0.01,8.19c3.35,0,6.62,0,9.89,0C281.78,54.1,281.55,54.27,281.54,54.27z M502.28,244.9
	c-3.35,0-6.7,0-10.05,0.01c0,0,0.25-0.2,0.25-0.2c0,2.58,0,5.15,0,7.33c3.69,0.37,6.73,0.68,9.77,0.98
	c-0.04-2.77-0.08-5.53-0.13-8.3L502.28,244.9z M80.27,38.04c0.25,2.48,0.5,4.96,0.74,7.37c3.05,0.25,6.08,0.5,9.1,0.75
	c0,0-0.24,0.2-0.24,0.2c0-2.72,0-5.44,0-8.12c-3.7,0-6.77,0-9.84,0L80.27,38.04z M169.7,54.11c3.46,0.01,6.91,0.01,10.1,0.01
	c0-3.1,0-5.44,0-7.6c-3.16,0-5.84,0-8.07,0c-0.66,2.81-1.24,5.27-1.82,7.73C169.9,54.25,169.69,54.11,169.7,54.11z M31.4,228.37
	c-0.27,2.5-0.54,4.99-0.81,7.58c3.41-0.13,6.02-0.23,8.68-0.34c0-2.51,0-4.7,0-7.12c-2.97,0-5.51,0-8.06,0
	C31.22,228.5,31.41,228.37,31.4,228.37z M9.73,269.12c3.35,0,6.7-0.01,10.04-0.01c0,0-0.23,0.21-0.23,0.21c0-2.58,0-5.17,0-7.36
	c-3.71-0.36-6.75-0.66-9.79-0.95c0.05,2.77,0.09,5.53,0.14,8.3L9.73,269.12z M461.46,211.2c-3.35,0-6.7,0-10.05,0.01
	c0,0,0.19-0.21,0.19-0.21c0.34,2.67,0.68,5.33,1.03,8.07c3.12,0,6.05,0,8.98,0c0,0-0.23,0.19-0.23,0.2
	c-0.05-2.76-0.09-5.52-0.14-8.27L461.46,211.2z M281.23,443.32c3.35,0,6.69,0,10.04,0l-0.2,0.17c0-2.76-0.01-5.53-0.01-8.29
	c0,0,0.25,0.19,0.25,0.19c-3.25,0-6.5,0-9.84,0c0,3.06,0,5.6,0,8.14L281.23,443.32z M240.41,443.32c3.07-0.22,6.15-0.43,9.85-0.69
	c0-2.25,0-4.84,0-7.42c0,0,0.21,0.18,0.21,0.18c-3.08,0-6.17,0-8.69,0c-0.47,3.1-0.84,5.61-1.22,8.12
	C240.56,443.51,240.41,443.32,240.41,443.32z M492.47,261.98c0,2.47,0,4.89,0,7.31c0,0-0.23-0.18-0.23-0.18c3.35,0,6.69,0,10.04,0
	c0,0-0.15,0.17-0.15,0.17c0.04-2.76,0.08-5.52,0.12-8.29C499.04,261.32,495.82,261.65,492.47,261.98z M421.9,186.84
	c0-2.77,0-5.53,0-8.3c0,0,0.26,0.18,0.26,0.18c-3.31,0.13-6.61,0.27-9.73,0.39c0,2.61,0,4.92,0,6.98c3.54,0.21,6.64,0.4,9.73,0.58
	L421.9,186.84z M99.93,178.71c-3.34,0-6.69,0-10.03,0c0,0,0.21-0.17,0.21-0.17c0,2.77,0.01,5.53,0.01,8.3c0,0-0.27-0.16-0.27-0.16
	c3.29-0.24,6.58-0.49,9.85-0.73c0-2.59,0-5,0-7.42L99.93,178.71z M201.16,38.14c0,2.52,0,5.05,0,6.92c3.76,0.58,6.69,1.03,9.63,1.47
	c0.01-0.01-0.15,0.17-0.14,0.16c-0.14-2.73-0.29-5.46-0.45-8.38c-3.06,0-6.15,0-9.24,0C200.96,38.3,201.15,38.14,201.16,38.14z
	 M249.77,79.17c0.2-2.73,0.39-5.45,0.56-7.82c-3.83-0.24-6.95-0.44-10.07-0.65c0,0,0.2-0.16,0.2-0.16c0.45,2.66,0.9,5.33,1.32,7.8
	c2.82,0.23,5.5,0.45,8.19,0.66C249.97,79.01,249.76,79.18,249.77,79.17z M60.4,277.4c0-2.76,0-5.52,0-8.27c0,0,0.19,0.14,0.19,0.14
	c-3.23,0.19-6.45,0.38-9.74,0.57c0,2.5,0,5,0,7.33c3.53,0,6.64,0,9.76,0L60.4,277.4z M451.61,269.12c0,2.76,0,5.52,0,8.28
	c0,0-0.22-0.22-0.22-0.22c3.26,0,6.52,0,9.64,0c0-2.74,0-5.22,0-7.33c-3.53-0.22-6.57-0.41-9.61-0.6L451.61,269.12z M300.91,46.16
	c3.02-0.27,6.05-0.54,9.84-0.88c0-2.17,0-4.71,0-7.24c0,0,0.22,0.21,0.22,0.21c-3.13,0-6.25,0-9.28,0
	c-0.21,2.95-0.39,5.53-0.57,8.11L300.91,46.16z M50.56,54.28c3.03-0.2,6.06-0.39,9.09-0.58c0.25-2.51,0.49-5.03,0.73-7.54
	c0,0,0.2,0.17,0.2,0.17c-3.34,0-6.69,0-10.03,0c0,0,0.22-0.18,0.22-0.18c0.02,2.79,0.04,5.57,0.06,8.36L50.56,54.28z M480.4,276.69
	c-2.49,0.68-4.99,1.34-7.73,2.07c0,1.95,0,4.25,0,6.49c2.95,0,5.38,0,8.52,0c-0.31-3.09-0.58-5.86-0.85-8.62
	C480.34,276.63,480.39,276.68,480.4,276.69z M341.92,54.29c0.24,2.93,0.47,5.85,0.71,8.78l-0.05-0.06c3.07-0.15,6.14-0.3,9.2-0.45
	c-0.07-2.76-0.15-5.52-0.22-8.28c0,0,0.24,0.18,0.24,0.18c-3.36-0.01-6.72-0.02-10.08-0.02L341.92,54.29z M49.57,293.69
	c0-2.54,0-4.82,0-7.29c-3.09,0.13-5.7,0.23-8.55,0.35c0,2.27,0,4.28,0,6.94C44.22,293.69,46.87,293.69,49.57,293.69z M141.29,427.76
	c-3.75,0.06-7.48,0.13-11.22,0.2l0.09-0.09c0.27,2.51,0.55,5.02,0.82,7.53c0,0-0.26-0.21-0.26-0.21c3.35,0,6.69,0,10.04,0
	c0,0-0.21,0.19-0.21,0.19c0.21-2.58,0.42-5.16,0.63-7.74C141.18,427.65,141.3,427.78,141.29,427.76z M50.54,302.82
	c3.35,0,6.7,0,10.05,0c0,0-0.16,0.18-0.16,0.18c-0.41-2.68-0.81-5.36-1.23-8.09c-2.79,0-5.45,0-8.41,0c0,2.86,0,5.5,0,8.14
	L50.54,302.82z M200.72,419.46c0.21,2.6,0.4,5.22,0.59,7.84c0,0-0.26-0.23-0.26-0.23c3.35,0,6.69,0.01,10.04,0.01
	c0,0-0.17,0.18-0.17,0.18c-0.31-2.72-0.61-5.44-0.97-8.61c-3.22,0.33-6.32,0.66-9.42,0.98C200.54,419.64,200.7,419.48,200.72,419.46
	z M130.09,427.94c0.02-2.94,0.02-5.85,0.02-8.84c-3.1,0-5.97,0-8.88,0c0,2.55,0,4.75,0,6.18c3.4,0.99,6.16,1.79,8.93,2.6
	C130.16,427.88,130.07,427.97,130.09,427.94z M381.28,38.04c0.28,2.46,0.57,4.91,0.85,7.34c3.01,0.26,6,0.52,8.98,0.79
	c0,0-0.29,0.21-0.29,0.21c0-2.7,0-5.4,0-8.09c-3.58,0-6.69,0-9.8,0L381.28,38.04z M421.91,335.48c0-2.77-0.01-5.53-0.01-8.3
	c0,0,0.25,0.15,0.25,0.15c-3.3,0.26-6.59,0.52-9.87,0.77c0,2.35,0,4.54,0,7.19c3.48,0,6.69,0,9.89,0L421.91,335.48z M451.41,302.82
	c3.35,0,6.7,0,10.05,0.01c0,0-0.22,0.22-0.22,0.21c-0.16-2.76-0.31-5.53-0.46-8.04c-3.18,0-5.83,0-8.2,0
	c-0.35,2.93-0.66,5.48-0.97,8.03L451.41,302.82z M421.89,46.16c3.02-0.27,6.04-0.53,9.08-0.8c0.25-2.37,0.5-4.85,0.76-7.32
	c0,0,0.26,0.23,0.26,0.23c-3.28,0-6.55,0-9.83,0c0,2.98,0,5.55,0,8.11L421.89,46.16z M191.53,61.99c3.29,0,6.11,0,8.7,0
	c0-2.73,0-5.03,0-7.24c-3.06,0-5.74,0-8.7,0C191.53,57.47,191.53,59.83,191.53,61.99z M19.57,62.41c3.34,0.06,6.68,0.11,10.02,0.17
	c-0.06-2.76-0.12-5.52-0.19-8.29c0,0,0.2,0.16,0.2,0.16c-3.04,0.14-6.07,0.28-8.85,0.41c-0.36,2.71-0.69,5.22-1.03,7.74L19.57,62.41
	z M281.38,12.52c-3.23,0.32-6.47,0.64-9.85,0.98c0,2.34,0,4.76,0,7.17c0,0-0.19-0.15-0.19-0.15c3.04,0,6.08,0,9.03,0
	c0.28-2.83,0.55-5.5,0.82-8.16C281.2,12.36,281.38,12.52,281.38,12.52z M70.86,28.32c-0.56-2.25-1.11-4.51-1.66-6.77
	c-2.82,0-5.62,0-8.38,0c0,2.58,0,4.81,0,7.65c3.54-0.35,6.84-0.67,10.14-1C70.96,28.2,70.87,28.3,70.86,28.32z M470.92,293.41
	c0-2.35,0-4.39,0-6.79c-3.03,0-5.86,0-8.72,0c0,2.44,0,4.6,0,7.21C465.52,293.67,468.16,293.54,470.92,293.41z M301.65,20.04
	c-0.02,2.91-0.02,5.8-0.02,8.62c3.28,0,6.09,0,8.87,0c0-2.6,0-4.8,0-6.53c-3.25-0.73-6.09-1.36-8.94-2
	C301.56,20.12,301.66,20.02,301.65,20.04z M402.24,177.85c2.97,0,5.57,0,8.59,0c-0.13-2.38-0.26-4.72-0.4-7.13c-3,0-5.46,0-8.19,0
	C402.24,173.24,402.24,175.56,402.24,177.85z M481.28,235.55c-0.26-2.51-0.49-4.66-0.72-6.81c-2.97,0-5.44,0-8.09,0
	c0,2.39,0,4.57,0,7.14C475.79,235.75,478.39,235.66,481.28,235.55z M39.2,278.31c-2.98,0-5.72,0-8.62,0
	c0.22,2.56,0.4,4.71,0.58,6.82c2.85,0,5.29,0,8.05,0C39.2,282.67,39.2,280.49,39.2,278.31z M410.6,336.06c-2.98,0-5.58,0-8.31,0
	c0,2.59,0,4.91,0,7.22c2.89,0,5.36,0,8.31,0C410.6,340.51,410.6,338.28,410.6,336.06z M70.43,484.1c-9.91,2.24-11.89,0.56-9.82-8.35
	c-3.35,0.08-6.71,0.15-10.06,0.23l0.26-0.22c0,2.64,0,5.28,0,7.88c9.02,0.73,9.02,0.73,10.59,8.92c2.9,0,5.67,0,8.81,0
	c0-3.07,0-5.87,0-8.68L70.43,484.1z M381.09,427.09c3.04-0.42,6.08-0.83,9.65-1.32c-0.93-5.46,1.01-9.36,10-7.51
	c0-3.16,0-5.9,0-8.64c0,0,0.23,0.13,0.23,0.13c-3.02,0.32-6.04,0.63-9.05,0.94c0.52,7.75,0.05,8.14-9.88,8.41
	c-0.24,2.74-0.48,5.47-0.71,8.2L381.09,427.09z M492.44,451.61c-3.31,0.13-6.63,0.26-9.94,0.39c0,8.41-0.79,8.93-11.45,7.59
	c0.08,2.76,0.16,5.52,0.24,8.28l-0.29-0.22c3.35,0,6.71,0,10.02,0c-0.01-8.09,0.36-8.37,10.08-8.6c0.38-2.56,0.75-5.08,1.13-7.6
	L492.44,451.61z M261.48,485.5c0.03-3.23,0.06-6.46,0.08-9.69l0.17,0.16c-3.82,0-7.65,0-11.47,0c0,0,0.18-0.16,0.18-0.16
	c0.11,3.33,0.22,6.66,0.32,9.99c0,0-0.16-0.18-0.15-0.16c3.68-0.08,7.34-0.18,11.01-0.28C261.63,485.36,261.48,485.5,261.48,485.5z
	 M40.72,467.86c0.1-2.76,0.21-5.52,0.31-8.29c-3.87,0.05-7.75,0.11-11.62,0.16c0,0,0.19-0.15,0.19-0.15c0.5,2.55,1,5.09,1.58,8.05
	c2.98,0,6.41,0,9.85,0L40.72,467.86z M240.67,493.48c3.04-0.47,6.08-0.93,9.38-1.44c0.17-1.89,0.37-4.14,0.56-6.41
	c-0.01-0.01,0.15,0.16,0.14,0.15c-3.16-0.35-6.31-0.69-9.34-1.02c-0.2,3.45-0.35,6.17-0.51,8.9L240.67,493.48z M191.22,475.99
	c-0.5-2.52-0.99-5.04-1.47-7.43c-3.27-0.24-6.56-0.47-9.84-0.71c0,0,0.21-0.17,0.21-0.17c0.54,2.71,1.09,5.42,1.62,8.09
	c3.34,0,6.55,0,9.77,0L191.22,475.99z M261.63,485.35c0,2.39,0,4.77,0,7.12c3.45,0,6.24,0,8.8,0c0-2.75,0-5.07,0-7.67
	c-3.27,0.26-6.11,0.48-8.96,0.71C261.48,485.5,261.63,485.36,261.63,485.35z M120.89,467.87c-0.43-2.37-0.86-4.74-1.36-7.52
	c-2.42-0.17-5.45-0.39-8.47-0.6c0,0,0.35-0.17,0.35-0.17c-0.16,2.66-0.32,5.32-0.48,8.08c3.88,0,7.06,0,10.23,0
	C121.16,467.65,120.89,467.87,120.89,467.87z M320.75,417.75c0.01,3.16,0.01,6.32,0.02,9.48l-0.19-0.14
	c3.28-0.38,6.56-0.75,10.21-1.17c-0.13-2.27-0.26-4.61-0.36-6.41c-3.72-0.63-6.79-1.16-9.85-1.68L320.75,417.75z M342.36,410
	c-3.52,0.23-7.03,0.46-10.48,0.69c0,2.46,0,4.68,0,7.08c3.19,0,6.06,0,8.14,0c0.8-2.92,1.48-5.4,2.16-7.88
	C342.17,409.89,342.38,410.01,342.36,410z M140.76,475.98c-3.35,0-6.69,0-10.04,0l0.26-0.23c0,2.77,0,5.55,0,8.14
	c3.5,0,6.35,0,9.02,0c0.2-2.95,0.38-5.53,0.56-8.11L140.76,475.98z M412.07,459.74c0.08-2.75,0.15-5.5,0.23-8.26
	c-3.88-0.01-7.76-0.02-11.63-0.03c0.1,2.76,0.19,5.52,0.29,8.28l-0.28-0.21c3.9,0,7.8,0,11.7,0L412.07,459.74z M201.8,483.4
	c-0.25-2.53-0.5-5.07-0.75-7.6c0,0,0.2,0.18,0.2,0.18c-3.34,0-6.69,0.01-10.03,0.01c0,0,0.29-0.22,0.29-0.22c0,2.72,0,5.45,0,8.68
	c3.76-0.39,7.04-0.73,10.33-1.07C201.84,483.38,201.8,483.4,201.8,483.4z M311.03,475.75c0.2,2.72,0.41,5.45,0.62,8.29
	c2.8,0,5.7,0,9.22,0c-0.34-3.13-0.64-5.93-0.94-8.72l0.09,0.08c-3.06,0.18-6.13,0.35-9.19,0.53
	C310.83,475.93,311.03,475.75,311.03,475.75z M451.61,484.1c-3.35,0-6.69,0-10.04,0l0.25-0.25c0.16,2.9,0.32,5.8,0.48,8.61
	c3.19,0,5.99,0,9.06,0c0-3.02,0-5.8,0-8.59L451.61,484.1z M320.41,459.23c0-2.7,0-5.03,0-7.2c-3.25,0-6.06,0-8.77,0
	c0,2.48,0,4.8,0,7.2C314.71,459.23,317.7,459.23,320.41,459.23z M291.27,451.61c-3.35,0-6.69,0-10.04,0.01l0.21-0.17
	c0,2.77-0.01,5.53-0.01,8.3l-0.17-0.19c3.37-0.04,6.74-0.08,10.11-0.12l-0.21,0.18c-0.03-2.72-0.07-5.45-0.1-8.17L291.27,451.61z
	 M230.57,459.74c0-2.77,0-5.53,0-8.3l0.21,0.17c-3.35-0.06-6.7-0.11-10.04-0.17c0.07,2.77,0.14,5.53,0.2,8.3c0,0-0.2-0.19-0.2-0.19
	c3.34,0,6.67,0.01,10.01,0.01L230.57,459.74z M29.41,459.73c0.06-2.76,0.11-5.52,0.17-8.29c-3.34,0.05-6.67,0.11-10.01,0.16
	c0,0,0.21-0.16,0.21-0.16c0.33,2.67,0.66,5.33,1,8.13c3.03,0,5.92,0,8.81,0L29.41,459.73z M351.56,451.44
	c3.07-0.16,6.15-0.32,9.23-0.48c0.21-2.55,0.41-5.1,0.61-7.64c0,0,0.22,0.2,0.22,0.2c-3.2,0.12-6.4,0.23-9.8,0.35
	c0,2.7,0,5.22,0,7.74L351.56,451.44z M342.46,451.05c-0.76-2.37-1.52-4.73-2.36-7.31c-2.34,0-5.21,0-8.3,0c0,2.46,0,4.82,0,7.26
	c3.71,0,7.24,0,10.77,0C342.57,450.99,342.45,451.06,342.46,451.05z M301.11,443.49c-3.35,0-6.69,0-10.04,0l0.2-0.17
	c0,2.76,0,5.52,0,8.28l-0.21-0.16c3.2-0.14,6.4-0.28,9.82-0.42c0-2.67,0-5.18,0-7.68L301.11,443.49z M19.57,451.61
	c0.06-2.76,0.12-5.52,0.18-8.28c-3.34,0.05-6.67,0.1-10.01,0.16c0,0,0.18-0.17,0.18-0.17c0.25,2.52,0.51,5.04,0.77,7.64
	c2.94,0.16,6.02,0.33,9.1,0.5C19.78,451.45,19.57,451.61,19.57,451.61z M361.4,443.32c3.07-0.2,6.13-0.41,9.31-0.62
	c0.17-2.44,0.35-4.97,0.53-7.5c0,0,0.21,0.2,0.21,0.2c-3.23,0-6.46,0-9.84,0c0,3.07,0,5.6,0,8.12L361.4,443.32z M320.06,435.8
	c0.76,2.36,1.52,4.72,2.25,6.95c2.64,0,5.43,0,8.17,0c0-2.56,0-4.77,0-7.47c-3.7,0.19-7.09,0.37-10.49,0.55
	C319.99,435.84,320.07,435.8,320.06,435.8z M160.45,459.74c-3.05,0.18-6.11,0.37-9.19,0.55c-0.22,2.52-0.44,5.04-0.66,7.57
	l-0.21-0.2c3.13,0,6.27,0,9.82,0c0-2.95,0-5.54,0-8.13L160.45,459.74z M220.94,459.74c-3.01,0.16-6.03,0.32-9.84,0.52
	c0,2.31,0,4.95,0,7.6l-0.18-0.19c3.21,0,6.42,0,9.22,0c0.24-3.16,0.42-5.64,0.6-8.12L220.94,459.74z M291.36,459.44
	c0,2.69,0,5.38,0,7.97c3.73,0,6.84,0,9.94,0l-0.2,0.19c-0.25-2.5-0.5-4.99-0.73-7.22c-3.21-0.26-6.22-0.51-9.22-0.76
	C291.15,459.61,291.36,459.43,291.36,459.44z M50.55,475.98c0.07-2.77,0.14-5.54,0.21-8.32c-3.35,0.07-6.69,0.13-10.04,0.2
	c0,0,0.3-0.22,0.3-0.22c0,2.57,0,5.14,0,8.13c3.55,0,6.67,0,9.79,0C50.81,475.77,50.55,475.98,50.55,475.98z M352.28,409.16
	c-0.17,2.93-0.33,5.84-0.5,8.93c3.64-0.13,6.48-0.24,8.94-0.33c0-2.8,0-5.1,0-6.71c-3.16-0.67-5.84-1.25-8.53-1.82
	C352.19,409.23,352.29,409.15,352.28,409.16z M130.73,475.98c-0.33-2.46-0.65-4.92-0.98-7.39c-2.89-0.24-5.87-0.48-8.86-0.73
	c0,0,0.27-0.22,0.27-0.22c0,2.61,0,5.22,0,8.11c3.53,0,6.68,0,9.82,0L130.73,475.98z M150.61,467.86c-3.05,0.24-6.11,0.48-9.41,0.74
	c-0.14,2.32-0.29,4.85-0.44,7.38c0,0-0.2-0.19-0.2-0.19c3.2,0,6.41,0,9.84,0c0-3.04,0-5.59,0-8.13L150.61,467.86z M371.25,475.98
	c-0.15-2.36-0.31-4.73-0.48-7.34c-2.99-0.25-6.18-0.51-9.37-0.78l0.26-0.2c0,2.71,0,5.42,0,8.12c3.64,0,6.72,0,9.8,0L371.25,475.98z
	 M201.84,483.39c-0.25,2.97-0.49,5.94-0.75,9.11c3.37,0,6.2,0,9.15,0c0-2.63,0-5.05,0-6.54c-3.35-1.01-5.89-1.78-8.43-2.55
	C201.8,483.4,201.84,483.38,201.84,483.39z M301.51,493.79c2.94-0.57,5.86-1.15,9-1.77c0-2.1,0-4.48,0-7.04c-3.13,0-5.97,0-8.87,0
	c0,3.09,0,6.01,0,8.93C301.65,493.91,301.49,493.77,301.51,493.79z M220.78,501.62c0.26,2.51,0.53,5.02,0.78,7.42
	c3.05,0,5.98,0,8.98,0c0-2.8,0-5.2,0-7.6c0,0,0.2,0.16,0.2,0.16c-3.38,0.07-6.77,0.13-10.15,0.19L220.78,501.62z M291.72,502.02
	c-3.54-0.09-7.09-0.17-10.63-0.26l0.19-0.17c0.16,2.57,0.31,5.15,0.45,7.45c3.31,0,6.14,0,8.56,0c0.46-2.53,0.88-4.85,1.3-7.16
	C291.58,501.88,291.72,502.02,291.72,502.02z M240.9,493.66c-3.26-0.01-6.52-0.01-9.37-0.01c-0.29,2.89-0.54,5.42-0.79,7.95
	c0,0-0.2-0.16-0.2-0.17c3.21-0.29,6.43-0.58,9.56-0.86c0.19-2.36,0.39-4.73,0.58-7.09C240.67,493.48,240.91,493.67,240.9,493.66z
	 M461.46,475.98c-3.34-0.07-6.69-0.13-10.03-0.2c0.06,2.77,0.12,5.55,0.19,8.32c0,0-0.25-0.24-0.25-0.24c3.23,0,6.45,0,9.85,0
	c0-2.96,0-5.54,0-8.12L461.46,475.98z M441.57,484.1c0.07-2.77,0.14-5.53,0.21-8.3c-3.35,0.06-6.7,0.12-10.06,0.19l0.26-0.23
	c0,2.65,0,5.3,0,8.1c3.51,0,6.68,0,9.84,0L441.57,484.1z M381.28,475.99c-3.34,0-6.69,0-10.03-0.01c0,0,0.21-0.19,0.21-0.19
	c0.17,2.72,0.35,5.44,0.52,8.11c3.13,0,5.98,0,9.05,0c0-2.92,0-5.53,0-8.13L381.28,475.99z M230.12,476.78c-3.27,0-6.08,0-8.79,0
	c0,2.59,0,4.81,0,7.24c2.86,0,5.57,0,8.79,0C230.12,481.32,230.12,478.97,230.12,476.78z M471.29,467.86
	c-3.35-0.06-6.7-0.11-10.05-0.17c0.07,2.76,0.15,5.52,0.22,8.29c0,0-0.25-0.23-0.25-0.23c3.26,0,6.53,0,9.78,0c0-3.02,0-5.56,0-8.1
	L471.29,467.86z M319.94,475.33c3.39,0.23,6.76,0.45,10.52,0.69c0-2.89,0-5.26,0-7.6c-3.24,0-6.07,0-7.98,0
	c-0.93,2.64-1.7,4.81-2.47,6.99C320.01,475.4,319.93,475.31,319.94,475.33z M271.6,467.86c-3.08,0.25-6.16,0.5-9.87,0.79
	c0,2.2,0,4.76,0,7.32c0,0-0.17-0.16-0.17-0.16c3.02,0,6.04,0,8.42,0c0.55-3.17,0.98-5.64,1.41-8.11
	C271.4,467.7,271.6,467.86,271.6,467.86z M250.26,475.97c0-2.4,0-4.81,0-7.31c-3.35-0.27-6.6-0.54-9.85-0.8c0,0,0.23-0.19,0.23-0.19
	c0.34,2.66,0.69,5.32,1.05,8.14c2.92,0,5.83,0,8.74,0L250.26,475.97z M320.77,427.23c-3.34,0.01-6.69,0.02-10.03,0.03
	c0,0,0.21-0.18,0.21-0.18c0,2.76,0,5.53,0,8.29l-0.21-0.18c3.11,0.21,6.21,0.42,9.32,0.61c0.01-0.01-0.07,0.03-0.07,0.03
	c0.2-2.92,0.39-5.83,0.59-8.74C320.58,427.09,320.77,427.23,320.77,427.23z M341.96,434.59c3.25,0,6.16,0,8.81,0
	c0-2.69,0-4.98,0-7.34c-3.15,0-5.83,0-8.81,0C341.96,429.79,341.96,432.14,341.96,434.59z M421.89,467.87
	c-0.31-2.49-0.63-4.97-0.95-7.5c-2.89-0.2-5.88-0.41-8.87-0.62c0,0,0.3-0.21,0.3-0.21c0,2.62,0,5.24,0,8.11c3.35,0,6.57,0,9.79,0
	C422.15,467.65,421.89,467.87,421.89,467.87z M400.95,459.74c-3.01,0.19-6.02,0.38-8.98,0.57c-0.29,2.53-0.57,5.04-0.86,7.56
	l-0.26-0.22c3.19,0,6.38,0,9.81,0c0-2.86,0-5.49,0-8.12L400.95,459.74z M342.31,460.02c-3.48,0.01-6.98,0.01-10.34,0.01
	c0,2.86,0,5.07,0,7.48c3.09,0,5.79,0,8.21,0c0.66-2.7,1.28-5.19,1.89-7.68C342.07,459.83,342.3,460.01,342.31,460.02z
	 M179.92,467.85c0-2.44,0-4.89,0-7.52c-3.29-0.2-6.57-0.4-9.85-0.6c0,0,0.15-0.18,0.15-0.18c0.43,2.63,0.86,5.27,1.33,8.13
	c2.82,0,5.69,0,8.56,0L179.92,467.85z M351.56,459.74c0-2.77,0-5.53,0-8.3c0,0,0.26,0.17,0.26,0.17c-3.12-0.19-6.23-0.39-9.36-0.57
	c-0.01,0.01,0.11-0.06,0.1-0.05c-0.09,3.02-0.16,6.03-0.25,9.03c-0.01-0.01-0.24-0.19-0.25-0.2c3.24-0.1,6.49-0.19,9.75-0.28
	L351.56,459.74z M310.95,435.37c-3.35,0-6.69,0-10.04,0l0.19-0.16c0,2.76,0,5.53,0,8.29c0,0-0.23-0.15-0.23-0.15
	c3.25-0.26,6.51-0.51,9.86-0.78c0-2.57,0-4.97,0-7.37L310.95,435.37z M502.27,443.49c-3.33-0.06-6.66-0.11-9.99-0.17
	c0.05,2.76,0.1,5.52,0.16,8.29c0,0-0.22-0.16-0.22-0.16c3.05-0.17,6.09-0.35,8.98-0.51c0.31-2.6,0.61-5.11,0.91-7.63L502.27,443.49z
	 M281.09,501.75c-0.24-2.72-0.49-5.43-0.75-8.26c-2.89,0-5.75,0-8.61,0c0,2.61,0,4.96,0,6.85c3.5,0.46,6.52,0.85,9.54,1.24
	C281.27,501.59,281.09,501.76,281.09,501.75z M220.59,501.79c-0.14-2.72-0.29-5.44-0.45-8.34c-2.91,0-5.76,0-8.76,0
	c0,2.53,0,4.88,0,7.08c3.35,0.39,6.37,0.74,9.39,1.09C220.78,501.62,220.59,501.8,220.59,501.79z M99.95,459.74
	c-3.02,0.2-6.04,0.4-8.99,0.59c-0.28,2.52-0.56,5.03-0.85,7.54l-0.25-0.23c3.26,0,6.51,0,9.82,0c0-3.04,0-5.57,0-8.09L99.95,459.74z
	 M240.41,467.86c0-2.49,0-4.99,0-7.5c-3.46-0.22-6.65-0.42-9.84-0.62c0,0,0.18-0.18,0.18-0.18c0.27,2.69,0.53,5.38,0.8,8.11
	c3.2,0,6.15,0,9.09,0L240.41,467.86z M281.43,459.74c-3.22,0.19-6.43,0.38-9.83,0.58c0,2.5,0,5.02,0,7.54c0,0-0.2-0.16-0.2-0.16
	c3.1,0,6.19,0,8.88,0c0.37-3.08,0.68-5.61,0.98-8.15C281.26,459.55,281.43,459.74,281.43,459.74z M361.4,467.86
	c-0.23-2.53-0.45-5.05-0.68-7.59c-3.01-0.18-6.08-0.35-9.15-0.53c0,0,0.24-0.2,0.24-0.2c0,2.66,0,5.33,0,8.12c3.71,0,6.78,0,9.85,0
	L361.4,467.86z M371.24,435.2c3.34,0.06,6.68,0.12,10.02,0.18c-0.06-2.76-0.12-5.53-0.18-8.29c0,0,0.23,0.21,0.23,0.21
	c-3.56,0.19-7.12,0.39-10.68,0.58l0.06-0.04c0.25,2.52,0.51,5.05,0.76,7.57L371.24,435.2z M90.12,467.86
	c-3.04,0.21-6.07,0.43-9.11,0.64c-0.24,2.49-0.49,4.99-0.73,7.48l-0.23-0.21c3.25,0,6.51,0,9.83,0c0-2.97,0-5.55,0-8.13
	L90.12,467.86z M211.09,467.86c-3.01,0.23-6.03,0.47-9.84,0.76c0,2.1,0,4.73,0,7.36c0,0-0.2-0.18-0.2-0.18c3.11,0,6.23,0,9,0
	c0.32-3.01,0.59-5.57,0.87-8.13L211.09,467.86z M301.29,467.41c-0.01,2.74-0.01,5.48-0.01,8.33c3.59,0,6.67,0,9.75,0
	c0,0-0.21,0.18-0.21,0.18c-0.17-2.51-0.34-5.02-0.47-7.07c-3.35-0.46-6.3-0.87-9.25-1.27C301.1,467.59,301.3,467.4,301.29,467.41z
	 M391.12,467.87c-3.02,0.22-6.04,0.45-9.05,0.67c-0.26,2.47-0.53,4.96-0.79,7.45c0,0-0.25-0.22-0.25-0.22c3.25,0,6.5,0,9.83,0
	c0-2.94,0-5.53,0-8.12L391.12,467.87z M431.73,475.99c-0.28-2.45-0.55-4.9-0.83-7.34c-3-0.26-6.01-0.52-9.01-0.78l0.27-0.22
	c0,2.73,0,5.46,0,8.11c3.62,0,6.73,0,9.83,0L431.73,475.99z M370.64,427.87c0.01-2.95,0.01-5.9,0.01-8.8c-3.01,0-5.9,0-8.72,0
	c0,2.59,0,4.81,0,6.48c3.14,0.82,5.95,1.55,8.76,2.29C370.7,427.83,370.64,427.87,370.64,427.87z M281.74,476.81
	c0,2.4,0,4.74,0,7.12c3.23,0,6.08,0,8.73,0c0-2.45,0-4.6,0-7.12C287.79,476.81,284.83,476.81,281.74,476.81z M80.27,475.98
	c-3.35-0.06-6.69-0.11-10.04-0.17c0.06,2.76,0.13,5.52,0.19,8.28c0,0-0.22-0.21-0.22-0.21c3.16,0,6.32,0,9.83,0
	c0-2.84,0-5.48,0-8.12L80.27,475.98z M291.56,501.86c2.91-0.49,5.83-0.96,8.73-1.42c0.39-2.11,0.82-4.37,1.22-6.65
	c-0.02-0.02,0.13,0.12,0.12,0.11c-3.32-0.23-6.62-0.45-9.91-0.67c0,3.28,0,6.03,0,8.79C291.72,502.02,291.58,501.88,291.56,501.86z
	 M381.28,86.77c0.25,2.56,0.51,5.12,0.8,8.11c6.43-0.22,12.47,0.54,9.42,8.2c3.43,0.42,6.45,0.78,9.46,1.15c0,0-0.29,0.22-0.29,0.22
	c0-2.74,0-5.47,0-8.18c-9.43-0.01-9.43-0.01-10.22-8.2c-3.21-0.39-6.28-0.77-9.35-1.14L381.28,86.77z M410.93,79.45
	c-3.1,0-5.89,0-8.93,0c0,2.41,0,4.74,0,7.31c2.84,0,5.54,0,8.93,0C410.93,84.11,410.93,81.76,410.93,79.45z M492.22,78.83
	c0-2.76,0-5.53,0.01-8.29c0,0,0.24,0.16,0.24,0.16c-3.31,0.2-6.61,0.4-10.21,0.62c0,2.28,0,4.61,0,7.3c3.51,0,6.88,0,10.24,0
	C492.51,78.61,492.22,78.83,492.22,78.83z M461.45,62.58c-3.05,0.18-6.09,0.36-9.14,0.54c-0.23,2.53-0.47,5.05-0.7,7.58l-0.23-0.21
	c3.15,0,6.29,0,9.82,0c0-2.89,0-5.49,0-8.09L461.45,62.58z M451.61,70.7c-3.02,0.23-6.04,0.46-9.21,0.7
	c-0.21,2.45-0.42,4.94-0.63,7.42l-0.21-0.2c3.21,0,6.43,0,9.82,0c0-3.1,0-5.62,0-8.13L451.61,70.7z M470.95,104.22
	c3.28-0.33,6.55-0.66,10.26-1.03c-0.12-2.21-0.25-4.55-0.38-6.88c-3.26,0-5.91,0-7.99,0c-0.63,2.96-1.17,5.51-1.71,8.06
	C471.13,104.36,470.94,104.22,470.95,104.22z M412.66,104.77c2.85-0.63,5.71-1.24,8.41-1.82c0-2.22,0-4.37,0-6.75
	c-3.01,0-5.87,0-9.18,0c0.31,3.06,0.6,5.86,0.88,8.66C412.77,104.86,412.68,104.79,412.66,104.77z M491.38,94.96
	c0-2.69,0-4.95,0-7.27c-3.14,0-5.92,0-8.96,0c0,2.47,0,4.66,0,7.27C485.9,94.96,488.72,94.96,491.38,94.96z M462.25,79.51
	c0,2.73,0,5.01,0,7.3c3.15,0,5.86,0,8.81,0c0-2.54,0-4.92,0-7.3C467.79,79.51,464.86,79.51,462.25,79.51z M421.9,70.7
	c-0.36-2.49-0.72-4.98-1.09-7.6c-2.74-0.16-5.74-0.34-8.74-0.52c0,0,0.32-0.19,0.32-0.19c0,2.67,0,5.34,0,8.1c3.55,0,6.67,0,9.79,0
	L421.9,70.7z M400.95,62.58c-2.83,0.15-5.67,0.29-8.81,0.45c-0.32,2.4-0.67,5.04-1.02,7.68c0,0-0.27-0.22-0.27-0.22
	c3.29,0,6.58,0,9.85,0c0-3,0-5.54,0-8.09C400.69,62.4,400.95,62.58,400.95,62.58z M502.26,78.82c-3.35,0-6.69,0-10.04,0.01
	c0,0,0.28-0.21,0.28-0.21c0,2.73,0,5.47,0,8.35c3.37-0.13,6.18-0.24,8.58-0.34c0.38-2.99,0.69-5.49,1.01-7.98L502.26,78.82z
	 M441.77,78.82c-3.35,0-6.7,0-10.04,0l0.25-0.2c-0.21,2.58-0.41,5.15-0.62,7.73l-0.11-0.13c3.71-0.02,7.42-0.03,11.14-0.05
	c0,0-0.07,0.05-0.07,0.05c-0.25-2.53-0.5-5.06-0.74-7.6C441.57,78.63,441.77,78.82,441.77,78.82z M471.29,54.45
	c-3.34-0.05-6.68-0.09-10.01-0.14c0.06,2.76,0.12,5.52,0.18,8.27c0,0-0.25-0.18-0.25-0.18c3.09,0.2,6.18,0.4,9.26,0.59
	c0,0-0.08,0.07-0.08,0.07c0.21-2.94,0.43-5.87,0.64-8.81L471.29,54.45z M391.12,70.71c-3.04,0.21-6.07,0.42-9.12,0.63
	c-0.24,2.5-0.48,4.99-0.72,7.49l-0.23-0.2c3.26,0,6.52,0,9.79,0c0-3.06,0-5.6,0-8.14L391.12,70.71z M431.73,78.83
	c-0.25-2.49-0.5-4.99-0.76-7.49c-3.03-0.22-6.05-0.43-9.08-0.64c0,0,0.28-0.21,0.28-0.21c0,2.69,0,5.39,0,8.13c3.62,0,6.71,0,9.8,0
	L431.73,78.83z M460.68,104.92c0.17-2.9,0.33-5.8,0.49-8.73c-3.44,0-6.11,0-8.96,0c0,2.6,0,5.03,0,6.59
	c3.3,0.81,5.92,1.45,8.53,2.09C460.75,104.88,460.67,104.93,460.68,104.92z M381.28,78.83c-3.34-0.06-6.69-0.12-10.03-0.19
	c-0.18,2.53-0.36,5.05-0.54,7.58c0,0-0.08-0.06-0.08-0.06c3.55,0.2,7.09,0.41,10.64,0.61c0,0-0.18,0.16-0.18,0.16
	c-0.01-2.77-0.03-5.54-0.05-8.31L381.28,78.83z M442.37,86.18c-0.01,2.94-0.01,5.88-0.01,8.84c2.92,0,5.81,0,8.68,0
	c0-2.52,0-4.72,0-6.58c-3.03-0.77-5.88-1.49-8.73-2.21C442.31,86.22,442.38,86.17,442.37,86.18z M431.37,86.37
	c-3.04,0.71-6.1,1.4-9.02,2.06c0,2.15,0,4.31,0,6.48c3.28,0,6.1,0,8.89,0c0-3.17,0-5.93,0-8.7
	C431.24,86.22,431.35,86.35,431.37,86.37z M470.49,62.98c0.81,2.35,1.6,4.71,2.44,7.24c2.41,0,5.23,0,7.9,0c0-2.67,0-5.01,0-7.16
	c-3.78,0-7.11,0-10.44,0C470.39,63.07,470.47,63,470.49,62.98z M451.41,319.23c3.14,0.11,6.27,0.23,9.41,0.34c0,0-0.12,0.1-0.12,0.1
	c0.25-2.91,0.5-5.82,0.75-8.73c-3.34,0-6.69,0-10.03,0.01C451.42,313.71,451.42,316.47,451.41,319.23z M460.84,319.56
	c0.55,2.45,1.08,4.91,1.61,7.34c2.76,0,5.64,0,8.6,0c0-2.53,0-5.01,0-7.23c-3.73,0-7.04,0-10.35,0
	C460.7,319.67,460.82,319.57,460.84,319.56z M460.85,194.51l0.22,0.16c-3.22,0.04-6.44,0.09-9.66,0.13
	c0.01,2.76,0.01,5.52,0.02,8.27c3.34,0.01,6.68,0.02,10.02,0.02C461.25,200.23,461.05,197.37,460.85,194.51z M460.86,194.52
	c3.5,0.01,6.99,0.01,10.14,0.01c0-2.81,0-5.13,0-7.34c-3.31,0-6.3,0-8.54,0c-0.53,2.83-0.96,5.16-1.4,7.49
	C461.07,194.67,460.85,194.51,460.86,194.52z M51.3,319.62c-3.53,0.01-7.06,0.01-10.61,0.01c0,2.51,0,4.88,0,7.24
	c3.42,0,6.46,0,8.59,0c0.71-2.81,1.28-5.09,1.85-7.38C51.13,319.49,51.29,319.61,51.3,319.62z M51.3,319.62
	c-0.01-0.01-0.17-0.13-0.19-0.14c3.15-0.09,6.31-0.17,9.48-0.25c-0.01-2.76-0.01-5.52-0.02-8.28c-3.34-0.01-6.69-0.01-10.03-0.02
	C50.8,313.83,51.06,316.72,51.3,319.62z M51.28,194.42c-0.63-2.42-1.26-4.83-1.93-7.34c-2.77,0-5.79,0-8.72,0c0,2.67,0,5.01,0,7.28
	c3.67,0,7.21,0,10.75,0C51.38,194.36,51.26,194.43,51.28,194.42z M60.59,194.8c-3.1-0.13-6.2-0.26-9.32-0.39
	c-0.01,0.01,0.11-0.06,0.1-0.06c-0.28,2.91-0.55,5.82-0.82,8.73c3.34,0,6.68-0.01,10.02-0.01C60.58,200.32,60.59,197.56,60.59,194.8
	z M490.97,419.35c-3.4-0.54-6.74-1.08-10.07-1.62c0.62,2.7,1.24,5.4,1.86,8.11c3.09,0.45,6.38,0.93,9.67,1.42
	C491.93,424.56,491.44,421.86,490.97,419.35z M481.14,410.84c-3.91-0.47-6.99-0.85-10.07-1.22c0.53,2.68,1.05,5.36,1.63,8.3
	c2.64,0,5.54,0,8.44,0C481.14,415.38,481.14,412.83,481.14,410.84z M502.27,435.2c0,0-0.16,0.19-0.16,0.19
	c-0.37-2.68-0.73-5.36-1.14-8.32c-2.88,0-5.82,0-8.75,0c0.01,2.76,0.02,5.52,0.04,8.29C495.59,435.31,498.93,435.25,502.27,435.2z
	 M31.24,410.77c-0.64,2.53-1.21,4.82-1.79,7.11c3.31,0,6.62,0,9.56,0c0.68-2.9,1.31-5.57,1.94-8.25
	C37.52,410.04,34.08,410.44,31.24,410.77z M20.92,419.43c-0.46,2.68-0.9,5.25-1.34,7.82c3.26-0.51,6.52-1.03,10-1.58
	c0-2.6,0-5.25,0-7.89C26.52,418.36,23.45,418.94,20.92,419.43z M10.8,427.08c-0.34,3.2-0.61,5.76-0.88,8.31c0,0-0.18-0.19-0.18-0.19
	c3.34,0.05,6.67,0.11,10.01,0.16c0.01-2.76,0.03-5.53,0.04-8.29C16.67,427.08,13.55,427.08,10.8,427.08z M31.08,103.11
	c3.4,0.44,6.64,0.87,9.87,1.29c-0.68-2.69-1.36-5.38-2.09-8.26c-3.06,0-6.24,0-9.41,0C30.02,98.6,30.6,101.06,31.08,103.11z
	 M20.92,94.57c2.99,0.58,5.83,1.13,8.67,1.68c0-2.89,0-5.77,0-8.05c-3.98-0.57-6.99-1-10-1.43C20.05,89.48,20.51,92.19,20.92,94.57z
	 M9.74,78.82c0,0,0.18-0.18,0.18-0.18c0.28,2.69,0.56,5.38,0.86,8.3c3.12,0,6.06,0,8.99,0c-0.01-2.77-0.02-5.53-0.03-8.3
	C16.42,78.71,13.08,78.77,9.74,78.82z M401.99,427.21c0,2.52,0,4.84,0,7.33c3.16,0,6.09,0,9,0c0-2.54,0-4.73,0-7.33
	C407.67,427.21,405.01,427.21,401.99,427.21z M442.31,419.27c-0.22,2.45-0.46,5.21-0.71,7.96c3.07-0.45,6.14-0.9,9.35-1.37
	c0.2-2.56,0.42-5.34,0.64-8.12C448.55,418.25,445.52,418.75,442.31,419.27z M421.08,410.53c-2.95,0-5.72,0-8.78,0
	c0,2.39,0,4.76,0,7.36c2.9,0,5.53,0,8.78,0C421.08,415.31,421.08,413.01,421.08,410.53z M431.46,427.51
	c-0.01-2.86-0.01-5.72-0.01-8.45c-3.65,0-6.44,0-9.2,0c0,2.58,0,4.78,0,6.58c3.4,0.6,6.42,1.14,9.43,1.67
	C431.68,427.31,431.47,427.5,431.46,427.51z M400.95,443.88c-3.88-0.21-6.95-0.38-10.02-0.55c0.44,2.63,0.88,5.26,1.26,7.49
	c3.11,0.28,5.93,0.53,8.76,0.78C400.95,448.94,400.95,446.27,400.95,443.88z M412.07,443.9c0,2.63,0,5.16,0,7.7
	c3.01-0.25,6.02-0.51,8.83-0.74c0.4-2.55,0.79-5.04,1.18-7.53C418.82,443.52,415.55,443.7,412.07,443.9z M421.91,435.6
	c0,2.64,0,5.26,0,7.87c3.03-0.28,6.06-0.56,9.03-0.84c0.32-2.42,0.66-4.92,0.99-7.43C428.77,435.33,425.62,435.46,421.91,435.6z
	 M390.66,435.59c-3.27-0.13-6.42-0.26-9.57-0.39c0.33,2.51,0.66,5.02,0.98,7.44c2.97,0.28,6,0.56,9.04,0.84
	C390.96,440.88,390.81,438.28,390.66,435.59z M441.77,427.09c-3.44,0.14-6.88,0.29-10.31,0.42c0.01-0.01,0.23-0.2,0.23-0.21
	c0.02,2.68,0.04,5.37,0.05,8.05c3.34,0,6.68,0,10.02,0C441.76,432.6,441.76,429.84,441.77,427.09z M452.54,410.76
	c-0.4,2.53-0.76,4.84-1.12,7.14c3.16,0,6.32,0,9.44,0c0.21-3,0.4-5.64,0.58-8.27C458.28,410.04,455.11,410.44,452.54,410.76z
	 M460.87,443.9c-3.26-0.2-6.35-0.38-9.45-0.57c0.32,2.52,0.65,5.04,0.97,7.58c2.93,0.23,5.99,0.46,9.06,0.7
	C461.25,449.03,461.06,446.45,460.87,443.9z M492.42,435.2c-3.32,0.12-6.64,0.25-10.02,0.38c0,2.74,0,5.32,0,7.9
	c3.34,0,6.69,0.01,10.03,0.01C492.43,440.72,492.42,437.96,492.42,435.2z M450.83,435.56c-3.14-0.12-6.19-0.24-9.25-0.35
	c0.27,2.49,0.55,4.98,0.82,7.4c3.15,0.3,6.18,0.59,9.21,0.88C451.35,440.84,451.09,438.2,450.83,435.56z M471.28,459.74
	c0-2.76,0-5.52,0-8.29c-3.34,0-6.68,0-10.02,0c0,2.76,0,5.52,0,8.27C464.6,459.73,467.94,459.73,471.28,459.74z M470.97,427.29
	c-3.17,0-6.02,0-8.77,0c0,2.67,0,4.99,0,7.26c2.97,0,5.62,0,8.77,0C470.97,432.01,470.97,429.81,470.97,427.29z M472.71,443.84
	c-0.56,2.7-1.1,5.23-1.63,7.77c3.26-0.24,6.52-0.48,9.56-0.71c0.65-2.55,1.29-5.06,1.94-7.56
	C479.18,443.51,475.78,443.68,472.71,443.84z M340.1,96.32c-2.76,0-5.6,0-7.61,0c-0.79,3.03-1.44,5.55-2.1,8.08
	c3.85,0,7.71-0.01,11.56-0.01C341.34,101.71,340.72,99.02,340.1,96.32z M320.83,96.4c3.23-0.65,6.46-1.29,9.87-1.97
	c-0.12-2.24-0.25-4.44-0.37-6.63c-3.23,0-6.05,0-8.51,0c-0.31,3.21-0.57,5.99-0.84,8.77C320.99,96.57,320.84,96.41,320.83,96.4z
	 M352.06,70.16c3.3,0.19,6.42,0.36,9.54,0.54c-0.32-2.52-0.64-5.04-0.96-7.55c-2.98-0.24-6.02-0.48-9.06-0.73
	C351.73,65,351.9,67.58,352.06,70.16z M301.1,70.69c-0.23-2.56-0.47-5.12-0.69-7.61c-3.21-0.23-6.28-0.45-9.35-0.67
	c0,2.76,0.01,5.53,0.01,8.29C294.41,70.7,297.76,70.69,301.1,70.69z M310.34,71.44c-3.28-0.31-6.35-0.6-9.42-0.9
	c0,2.76,0,5.52-0.01,8.28c3.35,0,6.69,0,10.04,0C310.74,76.29,310.53,73.75,310.34,71.44z M362.14,78.45
	c3.2,0.13,6.25,0.25,9.3,0.37c-0.29-2.52-0.59-5.05-0.87-7.45c-3.08-0.28-6.12-0.55-9.16-0.82
	C361.65,73.19,361.9,75.84,362.14,78.45z M352.18,104.81c2.86-0.57,5.73-1.13,8.58-1.68c0-2.12,0-4.44,0-6.88c-2.86,0-5.71,0-9.04,0
	c0.2,3.08,0.38,5.86,0.57,8.64C352.28,104.9,352.19,104.82,352.18,104.81z M342.18,86.82c3.14,0,5.8,0,8.58,0c0-2.62,0-5.03,0-7.36
	c-2.98,0-5.61,0-9.03,0C341.88,82.05,342.03,84.39,342.18,86.82z M320.93,86.93c-0.39-3.2-0.73-6-1.07-8.8l0.06,0.07
	c-3.06,0.15-6.11,0.31-9.17,0.46c0.01,2.76,0.01,5.51,0.02,8.27C313.97,86.93,317.18,86.93,320.93,86.93z M370.73,86.24
	c-2.94,0.73-5.89,1.44-8.77,2.14c0,2.14,0,4.46,0,6.79c3.21,0,6.03,0,8.68,0c0-3.18,0-6.09,0-9
	C370.64,86.16,370.71,86.22,370.73,86.24z M311.65,54.75c0,2.64,0,5.06,0,7.25c3.21,0,6.03,0,8.77,0c0-2.37,0-4.57,0-7.25
	C317.32,54.75,314.49,54.75,311.65,54.75z M342.62,63.07c-3.51-0.01-7.01-0.01-10.8-0.01c0,2.46,0,4.82,0,7.21c3.15,0,6.01,0,8.1,0
	c0.98-2.67,1.82-4.96,2.66-7.25C342.58,63.02,342.63,63.07,342.62,63.07z M319.87,78.14c3.57,0.19,7.14,0.36,10.55,0.53
	c0-2.87,0-5.23,0-7.45c-3.28,0-6.07,0-7.88,0c-1.01,2.69-1.81,4.83-2.62,6.98C319.92,78.2,319.86,78.13,319.87,78.14z M51.38,409.04
	c-0.22,2.92-0.43,5.83-0.65,8.92c3.53,0,6.21,0,8.97,0c0-2.62,0-5.04,0-6.71c-3.23-0.83-5.81-1.5-8.4-2.17
	C51.3,409.08,51.39,409.03,51.38,409.04z M50.56,443.89c0,2.67,0,5.19,0,7.72c3.06-0.23,6.12-0.46,9.04-0.68
	c0.33-2.55,0.66-5.08,0.98-7.6C57.36,443.51,54.13,443.69,50.56,443.89z M49.78,434.61c0-2.54,0-4.87,0-7.2c-3.25,0-6.11,0-9.02,0
	c0,2.5,0,4.58,0,7.2C43.98,434.61,46.84,434.61,49.78,434.61z M60.99,435.6c-0.2,2.7-0.4,5.29-0.59,7.89
	c3.06-0.27,6.12-0.54,9.22-0.82c0.26-2.39,0.53-4.93,0.81-7.46C67.3,435.33,64.17,435.47,60.99,435.6z M29.6,435.21
	c-3.66,0-6.83,0-10.01,0c-0.01,2.76-0.02,5.52-0.02,8.28c3.34,0,6.69-0.01,10.03-0.01C29.6,440.88,29.6,438.28,29.6,435.21z
	 M69.65,427.86c0.02-2.94,0.02-5.87,0.02-8.81c-3.21,0-6.05,0-8.85,0c0,2.6,0,4.8,0,6.52c3.21,0.8,6.06,1.51,8.91,2.22
	C69.72,427.8,69.64,427.88,69.65,427.86z M50.75,451.46c-3.31,0.22-6.63,0.44-10.02,0.66c0,2.5,0,5.06,0,7.62
	c3.34,0,6.68,0,10.02-0.01C50.75,456.97,50.75,454.21,50.75,451.46z M39.31,450.87c0-2.4,0-4.76,0-7.1
	c-3.53-0.15-6.71-0.29-9.89-0.43c-0.01,2.75-0.01,5.5-0.02,8.26C32.7,451.36,36,451.12,39.31,450.87z M130.31,86.39
	c-2.94,0.6-5.86,1.21-9.27,1.92c1.86,6.57-2.23,9.02-9.93,7.91c0,2.83,0,5.18,0,7.28c3.31,0,6.11,0,8.9,0
	c-0.68-7.41-0.68-7.41,10.17-8.93c0-2.77,0-5.54,0-8.31C130.18,86.26,130.33,86.41,130.31,86.39z M100.9,86.97
	c3.28-0.12,6.12-0.22,8.86-0.32c0-2.61,0-4.81,0-7.19c-3,0-5.75,0-8.86,0C100.9,82.17,100.9,84.44,100.9,86.97z M89.55,78.45
	c0.19-2.72,0.37-5.31,0.55-7.91c-3.04,0.27-6.09,0.54-9.08,0.81c-0.31,2.46-0.62,4.96-0.93,7.46C83.22,78.7,86.35,78.58,89.55,78.45
	z M151.25,63.1c-0.3,2.66-0.57,5.13-0.84,7.59c3.11-0.17,6.22-0.33,9.47-0.5c0.19-2.62,0.37-5.2,0.56-7.78
	C157.27,62.65,154.1,62.89,151.25,63.1z M141.2,71.43c-0.22,2.63-0.43,5.01-0.63,7.4c3.12-0.14,6.24-0.29,9.18-0.42
	c0.29-2.74,0.57-5.3,0.84-7.86C147.36,70.85,144.13,71.15,141.2,71.43z M140,54.86c-3.06,0-6.03,0-8.74,0c0,2.72,0,5.02,0,7.13
	c2.97,0,5.61,0,8.74,0C140,59.53,140,57.21,140,54.86z M99.48,96.13c-3.23,0-6.39,0-9.55,0c0.41,2.51,0.81,5.03,1.13,6.99
	c3.22,0.46,6.05,0.87,8.88,1.27C99.79,101.76,99.64,99.14,99.48,96.13z M151.35,103.34c3.09,0.36,6.08,0.7,9.08,1.05
	c-0.21-2.75-0.42-5.5-0.63-8.27c-3.44,0-6.41,0-9.38,0C150.74,98.6,151.06,101.07,151.35,103.34z M121.61,70.15
	c-0.72-2.38-1.44-4.76-2.16-7.15c-2.6,0-5.42,0-8.31,0c0,2.6,0,4.95,0,7.54c3.8-0.17,7.2-0.32,10.6-0.47L121.61,70.15z M99.94,70.12
	c0-2.64,0-5.17,0-7.71c-3.04,0.24-6.07,0.48-8.94,0.7c-0.36,2.54-0.72,5.06-1.08,7.57C93.17,70.51,96.41,70.32,99.94,70.12z
	 M121.73,70.08c-0.3,2.81-0.59,5.62-0.91,8.78c4.12-0.27,7.4-0.49,10.67-0.7c0,0-0.1,0.07-0.09,0.06c-0.65-2.34-1.32-4.66-1.91-6.73
	c-2.56-0.43-5.22-0.88-7.89-1.34C121.61,70.15,121.74,70.07,121.73,70.08z M70.23,86.94c3.35,0,6.69,0,10.04,0
	c0-2.76-0.01-5.51-0.01-8.27c-3.34-0.01-6.68-0.01-10.03-0.02C70.23,81.42,70.23,84.18,70.23,86.94z M131.4,78.22
	c-0.01,0.01,0.09-0.06,0.08-0.05c-0.4,2.74-0.8,5.48-1.17,8.23c0.02,0.01-0.13-0.13-0.12-0.11c3.53,0.23,7.04,0.44,10.56,0.66
	c0-2.76,0-5.51,0-8.27C137.64,78.52,134.53,78.36,131.4,78.22z M89.58,88.37c-3.43-0.58-6.47-1.09-9.51-1.6
	c0.34,2.68,0.68,5.36,1.01,7.97c2.92,0.49,5.96,1.01,9,1.52C89.91,93.52,89.73,90.77,89.58,88.37z M141.28,94.56
	c3.46,0.64,6.38,1.18,9.3,1.72c-0.24-2.78-0.48-5.55-0.71-8.26c-3.1-0.41-6.19-0.82-9.29-1.23
	C140.84,89.63,141.09,92.47,141.28,94.56z M50.57,96.12c0,3.1,0,5.68,0,8.27c3.14-0.44,6.28-0.88,8.81-1.23
	c0.43-2.52,0.82-4.78,1.21-7.04C57.34,96.12,54.09,96.12,50.57,96.12z M61.11,78.4c3.28,0.15,6.3,0.29,9.32,0.43
	c-0.3-2.51-0.59-5.01-0.88-7.46c-3.06-0.28-6.11-0.55-9.15-0.82C60.64,73.19,60.88,75.83,61.11,78.4z M41.12,86.69
	c3.26,0,5.96,0,8.62,0c0-2.68,0-5.02,0-7.23c-3.05,0-5.7,0-9.18,0C40.77,82.15,40.95,84.51,41.12,86.69z M60.96,88.05
	c-0.18,2.7-0.36,5.46-0.54,8.22c3.04-0.5,6.07-0.99,9.15-1.49c0.27-2.56,0.56-5.28,0.85-8C67.25,87.21,64.07,87.63,60.96,88.05z
	 M39.52,70.21c0-2.52,0-4.87,0-7.07c-3.55-0.26-6.83-0.49-10.11-0.73c0,2.75,0.01,5.51,0.01,8.26
	C32.75,70.53,36.08,70.37,39.52,70.21z M50.56,70.16c3.94,0.21,6.99,0.38,10.03,0.54c-0.35-2.51-0.7-5.02-1.05-7.53
	c-2.91-0.24-5.95-0.5-8.98-0.75C50.56,65.08,50.56,67.75,50.56,70.16z M19.59,78.81c3.3-0.14,6.59-0.28,10.01-0.42
	c0-2.73,0-5.29,0-7.85c-3.34,0-6.67,0-10.01,0C19.59,73.3,19.59,76.06,19.59,78.81z M161.04,79.48c0,2.46,0,4.8,0,7.29
	c3.01,0,5.87,0,8.92,0c0-2.42,0-4.63,0-7.29C166.76,79.48,163.97,79.48,161.04,79.48z M271.4,244.9c-2.2-7.37-1.03-10.36,10.01-8.27
	l-0.17,0.14c-1.48-9.05,0.04-10.3,10.01-8.27l-0.17,0.24c0-8.48,0-16.96,0-25.18c-3.91,0-6.71,0-9.52,0
	c0.51,7.75-0.11,8.28-9.85,8.48c-0.19,7.96-0.7,8.38-10.13,8.22c0,8.06,0,16.12,0,23.9c3.79,0.22,6.91,0.41,10.04,0.59L271.4,244.9z
	 M240.62,269.12c1.74,8.03,0,9.46-10.05,8.28l0.2-0.17c1.6,8.56-0.59,10.76-10.03,8.29l0.2-0.24c0,8.47,0,16.94,0,25.14
	c3.82,0,6.64,0,9.43,0c-0.18-6.97-1.16-8.83,9.75-8.25c0.29-8.2,0.29-8.2,10.07-8.69c0-3.98,0-7.95,0-11.93c0-3.97,0-7.93,0-11.72
	c-3.6-0.19-6.7-0.35-9.81-0.51L240.62,269.12z M220.74,228.5c9.68-2.12,11.2-0.87,10.03,8.29l-0.19-0.16
	c8.65-1.72,12.34-0.86,10.03,8.28l-0.23-0.17c3.29-0.19,6.57-0.39,9.82-0.58c0-4.1,0-8.1,0-12.11c0-3.97,0-7.95,0-11.93
	c-9.21,0.46-10.05-0.25-10.03-7.95c-3.03-0.49-6.98-0.19-8.68-1.66c-1.71-1.48-1.17-4.72-1.57-6.91c-3.01,0-5.81,0-8.96,0
	c0,8.43,0,16.8,0,25.17L220.74,228.5z M291.26,285.51c-9.9,2.05-11.79,0.49-10.02-8.3l0.18,0.18c-10.43,1.7-12.7-0.18-10.01-8.28
	l0.25,0.18c-3.3,0.14-6.6,0.28-9.92,0.42c0,4.36,0,8.36,0,12.36c0,3.93,0,7.86,0,11.79c9.03-0.44,9.88,0.27,10,8.22
	c9.19-0.35,9.99,0.31,10.06,8.36c3,0,5.96,0,9.25,0c0-8.54,0-16.85,0-25.15L291.26,285.51z M291.26,228.51
	c1.27,9.22-0.89,8.2-10.01,8.27c0,0,0.17-0.14,0.17-0.14c0.61,8.36,0.04,8.84-10.01,8.27c0,0,0.22-0.14,0.22-0.14
	c0,2.7,0,5.4,0,7.79c9.87,0,19.49,0,29.13,0c-1.06-7.59-0.31-8.23,9.48-8.51c0.46-2.44-0.06-5.65,1.59-6.9
	c1.91-1.43,5.74-1.12,8.81-1.57c0-2.23,0-4.46,0-6.83c-10.02,0-19.78,0-29.54,0L291.26,228.51z M271.41,269.11
	c9.86-0.67,11.03,0.3,10.01,8.28l-0.18-0.18c9.15,0.73,11.45-0.2,10.02,8.3c0,0-0.2-0.23-0.2-0.23c9.78,0,19.57,0,29.82,0
	c-0.17-1.22-0.39-2.31-0.46-3.41c-0.08-1.25-0.02-2.5-0.02-3.78c-8.95,0.39-9.55-0.12-10.62-8.68c-8.29,1.77-9.65-2.46-9.12-7.93
	c-9.95,0-19.38,0-29,0c0,2.64,0,5.23,0,7.81L271.41,269.11z M240.61,244.9c-10.13,0.57-10.9-0.06-10.03-8.28l0.19,0.16
	c-10.51,0.15-11.29-0.5-10.03-8.29c0,0,0.23,0.25,0.23,0.25c-9.97,0-19.93,0-30.01,0c0.17,2.61,0.33,4.99,0.49,7.38
	c8.96-0.84,10.07,0.1,10.05,8.05c8.61-0.59,9.31,0.01,9.89,8.38c9.77,0,19.54,0,29,0c0-2.75,0-5.29,0-7.84L240.61,244.9z
	 M220.74,285.52c-1.63-6.83-0.43-8.85,10.03-8.29c0,0-0.2,0.17-0.2,0.17c-0.55-7.88,0.73-8.94,10.05-8.28c0,0-0.23,0.19-0.23,0.19
	c0-2.59,0-5.18,0-7.84c-10.18,0-19.7,0-29.22,0c-0.35,8.36-0.35,8.36-9.97,8.54c0.51,6.82,0.13,7.16-9.94,8.66c0,2.2,0,4.42,0,6.62
	c10.07,0,19.88,0,29.68,0L220.74,285.52z M170.28,186.84c0-8.11,0-16.22,0-24.5c-10.35,0-19.7,0-29.7,0c0,8.38,0,16.44,0,24.49
	C150.48,186.83,160.38,186.83,170.28,186.84z M155.69,178.99c-2.26-0.21-4.17-3.01-6.23-4.68c2.1-1.67,3.97-4.29,6.39-4.7
	c1.75-0.3,4.24,2.32,8.02,4.62C160.15,176.53,157.73,179.18,155.69,178.99z M140.57,327.19c0,8.13,0,16.26,0,24.49
	c10.53,0,19.85,0,29.7,0c0-8.37,0-16.43,0-24.49C160.37,327.19,150.47,327.19,140.57,327.19z M149.94,339.41
	c0.33-1.73,3.72-3.98,6.11-4.32c3.84-0.55,5.8,2.33,5.07,5.07c-0.51,1.92-3.08,3.46-6.06,6.55
	C152.51,343.32,149.61,341.16,149.94,339.41z M371.42,186.82c0-8.16,0-16.33,0-24.41c-10.45,0-19.95,0-29.69,0
	c0,8.5,0,16.46,0,24.41C351.63,186.82,361.53,186.82,371.42,186.82z M362.05,174.4c-0.25,1.77-3.62,4.22-5.94,4.48
	c-1.65,0.18-5.27-2.72-5.36-4.35c-0.1-1.9,2.67-3.91,5.51-7.54C359.24,170.57,362.3,172.64,362.05,174.4z M341.74,327.2
	c0,8.11,0,16.21,0,24.48c10.35,0,19.68,0,29.69,0c0-8.41,0-16.44,0-24.48C361.53,327.2,351.64,327.2,341.74,327.2z M361.93,339.84
	c-0.47,1.86-3.73,4.16-6.09,4.43c-1.53,0.18-5-2.88-5.08-4.57c-0.08-1.82,2.78-3.72,4.36-5.59c0.95,0,1.89,0,2.84,0
	C359.41,336.04,362.33,338.23,361.93,339.84z M340.31,319.72c-9.43-0.04-9.45-0.06-10.17-8.28c-3.19-0.16-6.37-0.33-9.54-0.49
	c0.47,2.54,0.94,5.09,1.41,7.63c9.29-0.17,10.03,0.43,9.9,8.15c3.32,0.2,6.67,0.4,10.01,0.61
	C341.39,324.81,340.85,322.28,340.31,319.72z M341.89,285.39c-3.27,0.44-6.54,0.88-10.03,1.34c0,2.35,0,4.82,0,7.06
	c3.3,0,6.08,0,8.49,0c0.5-3.12,0.93-5.84,1.37-8.56C341.72,285.24,341.89,285.39,341.89,285.39z M340.74,227.64c0-2.59,0-4.89,0-7.4
	c-3.15,0-6.1,0-8.97,0c0,2.58,0,4.76,0,7.4C335.13,227.64,337.93,227.64,340.74,227.64z M191.54,302.73
	c-0.72-2.64-1.44-5.28-2.15-7.86c-2.72,0-5.4,0-8.1,0c0,2.61,0,4.94,0,7.2c3.77,0.18,7.11,0.33,10.44,0.49
	C191.73,302.55,191.53,302.74,191.54,302.73z M170.13,228.65c3.23-0.5,6.47-0.99,9.68-1.48c0-2.36,0-4.7,0-6.9
	c-3.29,0-6.07,0-8.41,0c-0.4,3.14-0.75,5.84-1.1,8.54C170.31,228.8,170.13,228.65,170.13,228.65z M181.74,311.36
	c-0.65,2.82-1.23,5.34-1.82,7.85c3.3-0.25,6.59-0.51,9.82-0.76c0.55-2.46,1.1-4.98,1.66-7.5
	C188.03,311.1,184.65,311.24,181.74,311.36z M170.35,285.21c0.35,2.74,0.7,5.47,1.09,8.43c2.78,0,5.62,0,8.42,0
	c0-2.59,0-4.81,0-6.66c-3.51-0.59-6.59-1.11-9.68-1.63C170.18,285.36,170.35,285.21,170.35,285.21z M191.62,211.33
	c-3.49,0.27-6.98,0.53-10.61,0.81c0.14,2.53,0.27,4.84,0.39,6.96c3.21,0,5.89,0,8.08,0c0.7-2.9,1.31-5.42,1.92-7.93
	C191.41,211.16,191.62,211.33,191.62,211.33z M330.61,202.56c0-2.69,0-5.22,0-7.76c-2.95,0.26-5.91,0.53-8.64,0.77
	c-0.47,2.56-0.93,5.03-1.38,7.51C323.88,202.91,327.18,202.74,330.61,202.56z M301.9,202.58c3.23,0.18,6.13,0.34,9.03,0.5
	c-0.21-2.62-0.43-5.24-0.62-7.52c-3.42-0.27-6.41-0.51-9.4-0.75C301.25,197.48,301.59,200.15,301.9,202.58z M320.45,211.3
	c0.59,2.5,1.2,4.98,1.87,7.72c2.32,0,5.17,0,8.16,0c0-2.54,0-4.73,0-6.9c-3.6-0.23-6.91-0.44-10.22-0.66
	C320.26,211.47,320.46,211.3,320.45,211.3z M210.02,202.53c0.37-2.69,0.72-5.21,1.07-7.72c-3.28,0.25-6.55,0.51-10.03,0.78
	c0,2.58,0,5.04,0,7.5C204.13,202.9,207.2,202.71,210.02,202.53z M181.77,202.65c3.28,0.14,6.46,0.28,9.64,0.42
	c-0.57-2.53-1.15-5.05-1.72-7.57c-3.17-0.22-6.46-0.46-9.76-0.69C180.55,197.46,181.17,200.11,181.77,202.65z M340.26,194.32
	c0.59-2.7,1.12-5.16,1.66-7.63c-3.32,0.2-6.64,0.4-9.6,0.58c-0.66,2.65-1.28,5.17-1.9,7.68
	C333.86,194.73,337.31,194.51,340.26,194.32z M291.79,194.37c3.26,0.21,6.29,0.4,9.31,0.59c-0.25-2.65-0.5-5.29-0.73-7.68
	c-3.28-0.21-6.28-0.4-9.29-0.59C291.33,189.33,291.57,191.98,291.79,194.37z M220.12,194.34c0.26-2.55,0.53-5.1,0.8-7.66
	c-3.1,0.19-6.2,0.38-9.38,0.58c-0.21,2.57-0.42,5.13-0.64,7.69C213.98,194.75,217.06,194.55,220.12,194.34z M320.64,302.87
	c3.25-0.37,6.51-0.75,9.8-1.13c0-2.2,0-4.4,0-6.77c-3.15,0-5.97,0-8.36,0c-0.45,2.95-0.85,5.51-1.24,8.07
	C320.84,303.03,320.64,302.87,320.64,302.87z M209.99,311.52c-3.15-0.21-6.04-0.4-8.94-0.59c0.2,2.65,0.39,5.3,0.56,7.5
	c3.51,0.29,6.5,0.54,9.49,0.79C210.72,316.55,210.33,313.88,209.99,311.52z M301.81,311.48c-0.32,2.77-0.61,5.26-0.9,7.74
	c3.26-0.26,6.52-0.53,9.43-0.76c0.21-2.68,0.4-5.1,0.59-7.51C307.76,311.13,304.58,311.32,301.81,311.48z M220.02,319.73
	c-2.98-0.22-6.05-0.44-9.12-0.66c0.19,2.65,0.39,5.3,0.56,7.67c3.44,0.22,6.44,0.41,9.45,0.6
	C220.62,324.81,220.32,322.27,220.02,319.73z M291.79,319.69c-0.25,2.68-0.47,5.16-0.7,7.65c3.09-0.2,6.18-0.4,9.28-0.59
	c0.25-2.54,0.49-5.11,0.74-7.68C297.89,319.28,294.67,319.49,291.79,319.69z M171.39,319.73c-0.46,2.68-0.88,5.15-1.3,7.62
	c3.28-0.23,6.57-0.46,10.03-0.71c0-2.67,0-5.12,0-7.57C177.09,319.29,174.06,319.52,171.39,319.73z M199.74,303.14
	c-2.74-0.14-5.47-0.28-8.21-0.41c-0.01,0.01,0.2-0.18,0.19-0.17c-0.17,2.85-0.33,5.69-0.49,8.53c3.34,0,6.68,0.01,10.02,0.01
	C200.75,308.44,200.24,305.78,199.74,303.14z M171.54,194.27c2.95,0.24,5.76,0.46,8.57,0.69c0-2.59,0-5.19,0-7.71
	c-3.7-0.21-6.86-0.39-10.03-0.56C170.58,189.28,171.08,191.88,171.54,194.27z M251.07,260.93c3.12-0.13,5.95-0.25,8.84-0.37
	c0-2.52,0-4.86,0-7.02c-2.99,0-5.6,0-8.84,0C251.07,255.92,251.07,258.26,251.07,260.93z M311.89,210.85
	c2.82,0.15,5.69,0.31,8.56,0.45c0.01-0.01-0.2,0.17-0.19,0.16c0.18-2.85,0.34-5.69,0.51-8.54c-3.34,0-6.68,0-10.02,0.01
	C311.14,205.58,311.52,208.23,311.89,210.85z M191.62,211.33c-0.01,0-0.22-0.17-0.22-0.17c2.93,0,5.86,0,8.21,0
	c0.63-3.19,1.13-5.7,1.63-8.22c-3.34,0-6.67,0-10.01,0.01C191.37,205.74,191.5,208.54,191.62,211.33z M320.64,302.87
	c0,0,0.2,0.16,0.2,0.16c-3.11,0-6.21,0-8.77,0c-0.49,3.02-0.89,5.53-1.29,8.05c3.33,0,6.67,0,10,0.01
	C320.73,308.35,320.68,305.61,320.64,302.87z M451.62,38.05c-3.35,0-6.7,0-10.04,0c0.26,2.52,0.52,5.04,0.75,7.32
	c3.25,0.34,6.27,0.65,9.28,0.96C451.61,43.56,451.61,40.81,451.62,38.05z M451.42,46.17c0.34,2.51,0.68,5.02,1.02,7.55
	c2.92,0.23,5.96,0.48,9.01,0.72c0-2.76,0-5.52,0-8.28C458.11,46.17,454.76,46.17,451.42,46.17z M79.62,61.97c0-2.77,0-5.08,0-7.13
	c-3.24,0-6.07,0-8.77,0c0,2.51,0,4.84,0,7.13C74,61.97,76.96,61.97,79.62,61.97z M260.41,452.07c-3.26,0-6.26,0-9.01,0
	c0,2.71,0,5,0,7.22c3.28,0,6.14,0,9.01,0C260.41,456.69,260.41,454.36,260.41,452.07z M211.46,450.94c3.27,0.23,6.37,0.45,9.47,0.66
	c0-2.76,0-5.52,0-8.28c-3.34,0-6.69,0-10.03,0C211.09,445.9,211.28,448.48,211.46,450.94z M191.55,452c0,2.72,0,5.09,0,7.17
	c3.37,0,6.16,0,8.69,0c0-2.58,0-4.75,0-7.17C196.91,452,194.06,452,191.55,452z M201.52,442.45c3.46,0.37,6.51,0.7,9.57,1.03
	c0-2.76,0-5.52,0-8.28c-3.34,0-6.69,0-10.03,0C201.22,437.76,201.38,440.32,201.52,442.45z M380.64,54.78c-3.3,0-6.12,0-8.63,0
	c0,2.68,0,5.01,0,7.24c2.99,0,5.81,0,8.63,0C380.64,59.46,380.64,57.01,380.64,54.78z M441.03,54.82c-3.09,0-5.88,0-8.75,0
	c0,2.43,0,4.75,0,7.19c2.9,0,5.71,0,8.75,0C441.03,59.39,441.03,57.05,441.03,54.82z M131.3,452.01c0,2.53,0,4.98,0,7.2
	c3.3,0,6.08,0,8.68,0c0-2.44,0-4.65,0-7.2C137.37,452.01,134.39,452.01,131.3,452.01z M79.63,452c-3.02,0-6.01,0-8.71,0
	c0,2.67,0,5,0,7.16c2.92,0,5.53,0,8.71,0C79.63,456.76,79.63,454.43,79.63,452z M70.42,475.98c-0.29-2.5-0.58-5-0.86-7.44
	c-3.06-0.28-6.11-0.56-9.16-0.84c-0.01,2.76-0.01,5.52-0.02,8.28C63.73,475.98,67.08,475.98,70.42,475.98z M60.58,467.85
	c-0.35-2.5-0.7-5.01-1.04-7.4c-2.96-0.29-5.97-0.58-8.97-0.87c0,2.76-0.01,5.52-0.01,8.28C53.9,467.86,57.24,467.85,60.58,467.85z
	 M461.45,459.58c-3.04,0.25-6.09,0.51-8.99,0.75c-0.34,2.5-0.69,5.02-1.03,7.53c3.35,0,6.69,0,10.04,0
	C461.45,465.1,461.45,462.34,461.45,459.58z M371.93,459.19c3.06,0,6.02,0,8.74,0c0-2.76,0-5.06,0-7.15c-2.99,0-5.65,0-8.74,0
	C371.93,454.21,371.93,456.67,371.93,459.19z M441.11,452.03c-3.13,0-6.11,0-8.74,0c0,2.72,0,5.03,0,7.15c2.91,0,5.54,0,8.74,0
	C441.11,456.78,441.11,454.44,441.11,452.03z M442.4,468.69c-0.29,2.56-0.56,4.93-0.83,7.29c3.35,0,6.69,0,10.04,0
	c0-2.76,0-5.52,0-8.28C448.39,468.04,445.18,468.39,442.4,468.69z"/>
</svg>
