<?xml version="1.0" encoding="utf-8"?>
<!-- Generator: Adobe Illustrator 26.0.2, SVG Export Plug-In . SVG Version: 6.00 Build 0)  -->
<svg version="1.1" id="Layer_1" xmlns="http://www.w3.org/2000/svg" xmlns:xlink="http://www.w3.org/1999/xlink" x="0px" y="0px"
	 viewBox="0 0 32 32" style="enable-background:new 0 0 32 32;" xml:space="preserve">
<style type="text/css">
	.st0{fill:#FFFFFF;stroke:#000000;stroke-miterlimit:10;}
</style>
<path class="st0" d="M10.5,1.4c-0.7,0-6.8,0-6.8,0L16,10.7l11.2-8.9h-7.4c0,0-3.7,4.6-3.9,4.7C15.9,6.5,10.5,1.4,10.5,1.4z"/>
<path class="st0" d="M10.5,10.5c-0.7,0-6.3,0-6.8,0s11.4,7.8,11.8,8.3c0.4,0.4,12.8-7.6,12.8-7.6s-7.7,0.3-8.4,0.3s-4.1,3.5-4.4,3.8
	S10.5,10.5,10.5,10.5z"/>
<path class="st0" d="M8.1,18.8c-1.3,0.1-6.6,0.4-6.6,0.4S13.5,29.3,14.2,30c0.7,0.7,16.5-9.7,16.8-10.1c0.3-0.3-10.1,0-10.7,0
	c-0.7,0-5.4,6.7-5.7,6.7S8.1,18.8,8.1,18.8z"/>
</svg>
