<?xml version="1.0" encoding="utf-8"?>
<!-- Generator: Adobe Illustrator 26.0.2, SVG Export Plug-In . SVG Version: 6.00 Build 0)  -->
<svg version="1.1" xmlns="http://www.w3.org/2000/svg" xmlns:xlink="http://www.w3.org/1999/xlink" x="0px" y="0px"
	 viewBox="0 0 502.3 470.7" style="enable-background:new 0 0 502.3 470.7;" xml:space="preserve">
<g id="Layer_1">
	<path d="M-3025,295.7c-2.2,0.2-4.4,0.4-7,0.6c0,17.8,0,35.5,0,53.7c2,0.2,4,0.3,6.2,0.5c0,2,0,3.7,0,5.8c-2,0.2-3.9,0.4-6.3,0.6
		c0,15.4,0,30.7,0,46.6c-2.3,0.1-4.1,0.2-6.4,0.3c0-15.8,0-31.2,0-46.9c-2.5-0.2-4.4-0.4-6.7-0.6c-0.1-1.9-0.2-3.5-0.3-5.6
		c2.2-0.2,4.2-0.4,6.6-0.6c0-17.8,0-35.5,0-53.7c-2.3-0.2-4.7-0.4-7-0.6l0.2,0.2c0.2-1.8,0.3-3.7,0.5-5.8c2.1-0.2,4-0.4,6.5-0.7
		c0-13.2,0-26.4,0-39.9c2.2-0.1,3.8-0.2,6.2-0.4c0,13.6,0,26.9,0,40.4c2.5,0.2,4.3,0.3,6.5,0.5c0.3,2,0.5,4,0.8,5.9
		C-3025.2,295.9-3025,295.7-3025,295.7z M-2803.1,295.8c2.2,0.2,4.3,0.4,6.8,0.6c0,18,0,35.8,0,53.6c-2.3,0.3-4.3,0.5-6.2,0.8
		c0,2.1,0,3.9,0,5.7c2.2,0.2,4,0.3,6.4,0.5c0,15.6,0,31,0,46.6c2.3,0,4.1,0,6.5,0c0-15.7,0-31.1,0-46.5c2.4-0.2,4.3-0.4,6.3-0.6
		c0-2,0-3.8,0-5.7c-2.2-0.2-4.2-0.4-6.1-0.6c0-18.2,0-36,0-53.7c2.3-0.2,4.1-0.4,6.1-0.6c0-2,0-3.8,0-5.6c-2.3-0.3-4.2-0.5-6.5-0.8
		c0-13.4,0-26.4,0-39.8c-2.2,0-3.9,0-6.3,0c0,13.5,0,26.7,0,39.9c-2.5,0.3-4.5,0.5-6.8,0.7c0,2.1,0,4,0,5.8L-2803.1,295.8z
		 M-2977.9,154.7c0,2,0,4,0,6.2c2.3,0.2,4.3,0.5,6.8,0.8c0,13.4,0,26.6,0,39.8c2.4,0,4.1,0,6.3,0c0-13.4,0-26.5,0-39.7
		c2.3-0.3,4.3-0.6,6.2-0.8c0-2.1,0-3.9,0-5.7c-2.2-0.2-4-0.3-6-0.5c0-18,0-35.8,0-53.7c2.3-0.2,4.2-0.5,6.1-0.6c0-2.2,0-3.9,0-5.8
		c-2.2-0.1-4-0.2-6.4-0.3c0-15.6,0-31,0-46.6c-2.3,0-4.1,0-6.4,0c0,15.7,0,31.1,0,46.5c-2.6,0.3-4.5,0.5-6.7,0.8
		c0.1,2.1,0.2,3.8,0.3,5.6c2.2,0.2,4.2,0.4,6.3,0.6c0,18.1,0,35.9,0,54c-2.5,0-4.5,0-6.6,0L-2977.9,154.7z M-2856,160.7
		c2.3,0.2,4.1,0.4,6.2,0.6c0,13.3,0,26.4,0,39.8c2,0,3.7,0,5.9,0c0-14.2,0-28,0-41c2.3,0.3,4.2,0.6,6.3,0.9c0-2.3,0-3.9,0-5.6
		c-2.4-0.2-4.3-0.4-6.4-0.5c0-18.6,0-37,0-55c2.4,0,4.4,0,6.8,0c-0.2-2-0.3-3.6-0.5-5.3c-2.4-0.1-4.2-0.2-6.6-0.3
		c0-15.6,0-31,0-46.6c-2.1,0-3.7,0-5.8,0c0,15.8,0,31.2,0,46.6c-2.3,0.2-4.1,0.3-6.2,0.4c0,1.9,0,3.5,0,5.2c2.2,0.3,4.2,0.5,6,0.7
		c0,18.4,0,36.3,0,54.3c-2.1,0.1-3.8,0.3-6.3,0.4C-2856.2,157.5-2856.1,159.1-2856,160.7z M-3086.3,154.9c0-18.1,0-36.1,0-54.1
		c2.4-0.3,4.3-0.6,6.4-0.8c0-1.8,0-3.2,0-4.9c-2.2-0.3-4.1-0.5-6.7-0.9c0-15.5,0-30.9,0-46.5c-2.1,0-3.6,0-5.7,0
		c0.7,11.2-1.1,22.2,0.8,32.1c-0.4,5.3-0.8,9.8-1.1,14.5c-2,0.2-4,0.5-6.2,0.8c0.1,2,0.2,3.6,0.4,5.1c2.4,0.2,4.2,0.4,5.5,0.5
		c2.9,4.4-2.2,10.1,3.1,13.7c-0.2,0.1-0.7,0.1-0.7,0.3c-0.6,1.6-1.5,3.2-1.6,4.8c-0.1,11.9-0.1,23.7-0.1,35.6
		c-2.4,0.2-4.2,0.3-6.3,0.5c0,1.8,0,3.4,0,5.2c2.2,0.2,4.2,0.4,6.3,0.7c0,12.3-0.1,24.4,0.1,36.5c0,1.3,1.7,2.5,2.6,3.8
		c1-1.2,2.7-2.2,2.9-3.5c0.4-2.6,0.1-5.4,0.1-8.2c0-9.5,0-19,0-28.4c2.7-0.4,4.7-0.7,6.6-0.9c0-1.8,0-3.3,0-5
		C-3082.2,155.3-3084.2,155.1-3086.3,154.9z M-2911.2,356.7c2.5-0.2,4.3-0.4,6.3-0.6c0-1.9,0-3.5,0-5.2c-2.3-0.2-4.2-0.4-6.3-0.6
		c0-18.3,0-36.2,0-54.2c2.4-0.2,4.3-0.5,6.7-0.7c-0.1-1.9-0.2-3.5-0.4-5c-2.3-0.3-4.1-0.5-6.5-0.8c0-13.2,0-26.2,0-39.6
		c-2.2-0.1-3.8-0.2-5.9-0.3c0,13.6,0,26.8,0,40c-2.4,0.3-4.4,0.5-6.6,0.8c0.2,2,0.3,3.6,0.4,5c2.4,0.3,4.2,0.5,6.1,0.7
		c0,18.2,0,36.1,0,54.1c-2.2,0.2-4,0.3-6.1,0.5c0,1.8,0,3.4,0,5.3c2.2,0.2,4.1,0.3,6.6,0.5c0,15.7,0,31.2,0,46.7c1.9,0,3.2,0,5.6,0
		C-2911.2,387.6-2911.2,372.2-2911.2,356.7z M-2997.9,188.1c2.4,0.2,4.3,0.4,6.2,0.5c0.2,2.2,0.3,4,0.4,6.1c2.2,0.2,4.2,0.3,6.2,0.5
		c0.2,2.2,0.4,4.2,0.6,6.3c2.1,0,3.8,0,5.8,0c0-13.3,0-26.3,0-39.5c-2.3-0.2-4.2-0.4-6.2-0.6c-0.3-2.3-0.5-4.2-0.7-6.3
		c-2.1-0.2-4-0.3-5.8-0.5c-0.3-2.2-0.6-4.1-0.8-6.2c-2,0-3.7,0-5.7,0C-2997.9,162.1-2997.9,175.1-2997.9,188.1z M-2802.9,296
		c-2,0.2-4,0.5-6.2,0.7c-0.3,2.1-0.5,4.1-0.8,6.2c-2.1,0.2-4,0.4-6.2,0.6c-0.1,2.2-0.3,4.2-0.4,6.2c-2.3,0.2-4.3,0.4-6.3,0.5
		c0,13.4,0,26.4,0,39.5c2.1,0,3.9,0,5.9,0c0.2-2.3,0.4-4.2,0.6-6.3c2.1-0.2,4.1-0.4,6.1-0.6c0.2-2.3,0.5-4.2,0.7-6.1
		c2.3-0.2,4.3-0.4,6.6-0.6c0-13.8,0-27.1,0-40.4C-2803.1,295.8-2802.9,296-2802.9,296z M-2978.1,154.8c0-13.3,0-26.6,0-39.9
		c-3-0.4-5-0.6-6.9-0.8c-0.2-2.3-0.3-4.1-0.5-6.1c-2.1-0.3-4.1-0.5-6-0.8c-0.2-2.1-0.4-3.9-0.7-5.8c-2.2,0-4.1,0-5.8,0
		c0,13.4,0,26.3,0,39.3c2.2,0.2,4.1,0.4,6.1,0.6c0.2,2.1,0.4,4.1,0.7,6c2.2,0.3,4.2,0.5,6,0.7c0.3,2.3,0.5,4.3,0.8,6.5
		c2.4,0,4.4,0,6.4,0C-2977.9,154.7-2978.1,154.8-2978.1,154.8z M-2823.1,297.9c0,5.4,0.7,5.9,6.4,4c0.2-1.8,0.3-3.6,0.5-5.6
		c2.1-0.1,3.9-0.2,6-0.4c0.2-2.2,0.4-4.2,0.6-6.2c2.2-0.3,4.2-0.5,6.2-0.7c0-13.3,0-26.3,0-39.4c-2.2,0-3.9,0-5.7,0
		c-0.3,2.4-0.6,4.3-0.8,6.2c-2.2,0.2-4,0.3-6.1,0.5c-0.1,2.2-0.3,4.2-0.4,6.3c-2.2,0.1-4.2,0.3-6.6,0.4
		C-2823.1,274.8-2823.1,286.4-2823.1,297.9z M-2769,303.6c-2.3-0.3-4.6-0.5-7-0.8c-0.3-2.2-0.5-4.2-0.8-6.5
		c-2.1,0.1-3.8,0.2-5.6,0.3c0,13.6,0,26.6,0,39.6c2.3,0.2,4.2,0.4,6.1,0.5c0.2,2.3,0.4,4.3,0.5,6.2c2.5,0.3,4.5,0.5,6.3,0.7
		c0.2,2.2,0.3,4.1,0.5,6.2c2,0,3.8,0,5.8,0c0-13.3,0-26.3,0-39.6c-2.2-0.2-4.1-0.3-6.4-0.5c0.1-2.2,0.3-4.2,0.4-6.2L-2769,303.6z
		 M-2769.1,303.5c1.9-0.4,3.9-0.7,6.1-1.1c0-13.2,0-26.2,0-39.4c-2.2-0.2-4.2-0.4-6.1-0.5c-0.2-2.3-0.5-4.2-0.7-6.1
		c-2.4-0.3-4.3-0.5-6.2-0.7c-0.2-2.2-0.4-4-0.5-6.1c-2,0-3.8,0-5.8,0c0,13.3,0,26.3,0,39.4c2.2,0.3,4.2,0.5,6.1,0.7
		c0.3,2.3,0.5,4.2,0.8,6.2c2.2,0.2,4,0.3,6.1,0.5c0.1,2.6,0.3,4.9,0.4,7.3C-2769,303.6-2769.1,303.5-2769.1,303.5z M-3011.9,303.2
		c2-0.2,4-0.5,6.2-0.7c0-13.2,0-26.2,0-39.5c-2.1-0.1-4.1-0.3-6.1-0.4c-0.2-2.2-0.4-4.2-0.6-6.2c-2.3-0.2-4.2-0.4-6.1-0.6
		c-0.3-2.3-0.5-4.2-0.8-6.5c-2.1,0.1-3.9,0.2-5.5,0.3c0,13.6,0,26.6,0,39.6c2.4,0.3,4.3,0.5,6.2,0.7c0.2,2.2,0.4,4,0.5,6
		c2.2,0.3,4.1,0.5,6.4,0.9c0,2.4,0,4.6,0,6.8L-3011.9,303.2z M-3011.7,303.4c-2.3-0.1-4.6-0.3-6.8-0.4c-0.3-2.4-0.5-4.3-0.8-6.1
		c-2.3-0.4-4.1-0.6-5.9-0.9c0,0,0.1-0.2,0.1-0.1c0,13.4,0,26.9,0,40.5c2.2,0.2,4.2,0.3,6.4,0.5c0.2,2.1,0.4,4.1,0.5,6.2
		c2.1,0.2,4,0.4,6,0.6c0.3,2.2,0.5,4.2,0.7,6.1c2.1,0,3.9,0,5.7,0c0-13.4,0-26.5,0-39.5c-2.3-0.2-4.3-0.3-6.2-0.5c0-2.4,0-4.5,0-6.5
		C-3011.9,303.2-3011.7,303.4-3011.7,303.4z M-2951.8,154.9c0.2-2.2,0.5-4.3,0.7-6.8c2-0.2,4-0.5,6.1-0.7c0.3-2.1,0.5-4.1,0.8-5.9
		c2.1-0.3,4-0.5,5.8-0.8c0-13.3,0-26.3,0-39.6c-2.2,0.1-3.9,0.2-5.6,0.3c-0.3,2.4-0.5,4.2-0.7,6c-2.2,0.3-4.2,0.5-6.2,0.8
		c-0.2,2.3-0.4,4.3-0.5,6.2c-2.2,0.2-4.1,0.3-6.1,0.5c0,13.3,0,26.3,0,39.6c2.1,0.1,4,0.2,5.8,0.4L-2951.8,154.9z M-3045.7,296
		c-2,0.3-4,0.5-6.1,0.8c-0.2,2.2-0.4,4.1-0.7,6.2c-2.2,0.2-4.1,0.4-6.3,0.6c-0.2,2.2-0.3,4.2-0.5,6.1c-2.3,0.3-4.2,0.5-6,0.7
		c0,13.4,0,26.4,0,39.8c2.2-0.1,4-0.2,5.8-0.3c0.2-2.3,0.3-4.2,0.5-6.2c2.1-0.2,4.1-0.5,6.1-0.7c0.2-2.2,0.3-4.1,0.5-6.1
		c2.3-0.2,4.3-0.4,6.4-0.5c0-13.7,0-27.1,0-40.5C-3045.9,295.8-3045.7,296-3045.7,296z M-2951.7,154.8c0.2,2.2,0.4,4.5,0.6,6.7
		c-2.6,0.2-4.4,0.4-6.4,0.5c0,13.2,0,26.2,0,39.5c2.1,0,3.8,0,5.8,0c0.2-2.2,0.4-4.2,0.5-6.2c2.3-0.3,4.3-0.5,6.4-0.8
		c0.1-2.1,0.2-3.9,0.3-5.9c2.1-0.2,4.1-0.3,6.1-0.5c0-13.4,0-26.4,0-39.4c-2.1,0-3.9,0-5.8,0c-0.1,2.1-0.3,4-0.4,6.3
		c-2.6,0-4.9,0-7.3,0C-2951.8,154.9-2951.7,154.8-2951.7,154.8z M-3059,296.4c2.1-0.2,4.1-0.5,6.1-0.7c0.3-2.2,0.5-4.1,0.7-6.1
		c2.2-0.2,4.1-0.4,6.1-0.6c0-13.3,0-26.4,0-39.6c-2.1,0-3.7,0-5.6,0c-0.2,2.2-0.4,4.1-0.6,6.3c-2.2,0.2-4.1,0.4-6.3,0.5
		c-0.2,2.3-0.3,4.3-0.5,6.2c-2.2,0.2-4.1,0.4-6,0.6c0,13.5,0,26.4,0,39.6c2.1,0,3.7,0,5.8,0C-3059.2,300.2-3059.1,298.4-3059,296.4z
		 M-3112.8,188.4c0.3,2.2,0.6,4.1,0.9,6c2.3,0.2,4.1,0.3,5.9,0.5c0.2,2.3,0.4,4.2,0.6,6.6c2-0.1,3.5-0.2,5.1-0.4c0-13.3,0-26,0-38.9
		c-2.2-0.3-4.2-0.5-6.1-0.7c-0.2-2.3-0.4-4.2-0.6-6.3c-2.3-0.2-4.2-0.3-6.1-0.4c-0.3-2.1-0.5-4-0.8-6.1c-1.8,0-3.3,0-5.1,0
		c0,12.9,0,25.6,0,38.8C-3116.7,187.9-3114.8,188.2-3112.8,188.4z M-2943.7,302.4c2-0.1,3.6-0.2,5.2-0.3c0.2-2.3,0.4-4.1,0.5-6
		c2.3-0.2,4.3-0.4,6.3-0.5c0.2-2.3,0.4-4.3,0.5-6.3c2-0.2,3.9-0.4,6.3-0.6c0-2.5,0-4.8,0-7.2c0-9.4,0.1-18.7-0.1-28.1
		c0-1.3-1.7-2.6-2.6-3.9c-1,1.2-2.3,2.3-3,3.6c-0.4,0.7-0.1,1.9-0.1,2.9c-2.4,0.3-4.3,0.5-6.2,0.8c-0.2,2.2-0.4,4.1-0.6,6
		c-2.1,0.2-3.9,0.5-6.2,0.8C-2943.7,276.6-2943.7,289.3-2943.7,302.4z M-3118.5,140.5c1.7,0.2,3.7,0.5,5.7,0.8c0.2,2,0.5,3.9,0.7,6
		c2.2,0.2,4,0.4,5.9,0.6c0.2,2.2,0.4,4.2,0.7,6.6c1.9-0.1,3.5-0.2,5-0.2c0-13.4,0-26.2,0-39c-2.3-0.2-4.1-0.4-5.9-0.6
		c-0.3-2.3-0.5-4.3-0.7-6.3c-2.3-0.2-4.2-0.4-6.1-0.6c-0.2-2.2-0.4-4-0.6-6c-1.8,0-3.3,0-4.7,0
		C-3118.5,114.8-3118.5,127.5-3118.5,140.5z M-2863.7,114.5c-0.3-2.1-0.6-4.1-0.9-6.3c-2.2-0.2-4.1-0.4-6-0.5
		c-0.2-2.2-0.3-4.2-0.5-6.4c-2,0.1-3.5,0.3-5.2,0.4c0,13.1,0,25.9,0,38.9c2.3,0.2,4.3,0.3,6.2,0.5c0.2,2.2,0.5,4.1,0.7,6.5
		c2.3,0,4.2,0,6.5,0c0,2.4,0,4.4,0,6.8c1.9-0.1,3.5-0.2,5.3-0.3c0-13.1,0-25.8,0-38.9C-2860,114.9-2861.8,114.7-2863.7,114.5z
		 M-2876.3,149c0,13,0,25.6,0,38.6c2.2,0.3,4.2,0.5,6.2,0.7c0.2,2,0.5,3.9,0.7,6c3,0.2,5.8,0.4,7.6,0.6c-0.5,1.9-1,3.9-1.9,7.1
		c3.3-0.9,6.3,1,6.4-3.2c0.1-12.1,0-24.1,0-36.4c-2.5-0.3-4.5-0.5-6.8-0.7c1-5.4-1.4-7.4-6.4-6.7c-0.2-2.1-0.3-3.8-0.5-5.9
		C-2872.8,149-2874.5,149-2876.3,149z M-2829.1,108.4c-0.3,2.3-0.6,4.2-0.8,6.1c-2.2,0.3-4,0.5-6,0.7c0,13.1,0,25.9,0,39.2
		c2-0.1,3.6-0.2,5.2-0.3c0.2-2.4,0.4-4.2,0.6-6.2c2.2-0.3,4.2-0.6,6.3-0.9c0.2-2.1,0.3-3.9,0.4-5.8c2.2-0.2,4.2-0.5,6.2-0.7
		c0-13.1,0-25.9,0-39.2c-1.9,0.1-3.5,0.3-5.1,0.4c-0.2,2.2-0.4,3.9-0.6,5.9C-2825.2,107.9-2827.2,108.2-2829.1,108.4z M-2937.7,310
		c-2.2,0.3-4,0.5-6.3,0.8c0,12.2-0.1,24.3,0.1,36.3c0,0.9,1.8,2.2,2.9,2.4c0.7,0.1,2.2-1.2,2.6-2.1c0.5-1.1,0.3-2.6,0.4-4.1
		c2.2-0.2,4.1-0.3,6.9-0.5c-0.5-2.4-0.9-4.4-1.3-6.3c1.6-0.1,4.2-0.3,7.3-0.5c0-13,0-25.9,0-38.7c-1.9,0-3.5,0-5.2,0
		c-0.2,2.3-0.5,4.3-0.7,6.1c-2,0.2-3.7,0.3-5.8,0.5C-2937.2,306.2-2937.4,308.1-2937.7,310z M-3074.1,147.8c1.9-0.2,4.6-0.4,7.4-0.6
		c0.3-2.2,0.6-4.1,0.9-6.3c5.2,0.9,7.2-0.8,6.2-6.1c-0.5-2.9,0.1-6.1,0.1-9.1c0-7.9,0-15.9,0-23.9c-2.3,0-3.9,0-5.6,0
		c-0.2,2.2-0.3,4.1-0.5,5.9c-2.2,0.2-4.2,0.4-6.3,0.6c-0.2,2.3-0.3,4.2-0.5,6.2c-2.1,0.2-4.1,0.5-6.2,0.7c0,13.1,0,25.8,0,38.8
		c1.8,0,3.4,0,5.9,0C-3073.2,151.6-3073.6,149.7-3074.1,147.8z M-2817.3,187.7c0-13.3,0-25.9,0-38.8c-1.8,0-3.3,0-4.9,0
		c-0.3,2.2-0.6,4.1-0.8,6c-2.2,0.2-4.2,0.4-6.2,0.6c-0.2,3-0.4,5.6-0.5,7.4c-2.1-0.4-3.9-0.7-6.5-1.2c0,2.4,0,4,0,5.7
		c0,9.7,0.2,19.4,0,29.1c-0.1,4.9,0.1,5.4,5.4,4.3c0.3-1.9,0.6-3.9,0.8-5.8c2.2-0.2,4-0.4,6.1-0.6c0.2-2,0.4-3.8,0.6-6
		C-2821.1,188.1-2819.1,187.9-2817.3,187.7z M-2884.6,263.5c-2.3-0.3-4.3-0.6-6.1-0.8c-0.3-2.2-0.5-4.2-0.8-6.1
		c-2.3-0.2-4.1-0.4-5.9-0.6c-0.3-2.2-0.5-4.2-0.8-6.3c-1.8,0-3.2,0-4.9,0c0,13.2,0,26.1,0,39c2.3,0.3,4.1,0.5,5.9,0.6
		c0.2,2.3,0.4,4.3,0.5,6.4c2.3,0,4.3,0,6.4,0c0.1,2.2,0.3,4.2,0.4,6.4c1.8,0,3.2,0,5.1,0C-2884.6,289-2884.6,276.3-2884.6,263.5z
		 M-3066.6,194.2c0.2-2.3,0.4-4.3,0.6-6.5c5.4,1.4,7.5-0.4,6.3-5.7c-0.1-0.6,0.1-1.4,0.1-2c0-10.3,0-20.7,0-31.1c-2.1,0-3.7,0-5.5,0
		c-0.2,2.1-0.4,4-0.5,5.7c-6.9,0.9-8,2.2-5.5,7.1c-2.4,0.2-4.7,0.3-7.4,0.5c0,13.1,0,25.9,0,38.7c6.2,2.1,5.1-2.5,5.6-5.9
		C-3070.5,194.7-3068.5,194.5-3066.6,194.2z M-2891,310.3c-0.2-2.4-0.3-4.5-0.4-6.7c-2.4-0.2-4.2-0.3-6-0.5
		c-0.2-2.2-0.4-4.2-0.7-6.6c-2,0.2-3.6,0.5-5,0.6c0,13.2,0,25.9,0,38.6c2.6,0.2,4.7,0.4,6.5,0.5c0,2.3,0,4.2,0,6.4c2,0,3.6,0,5.4,0
		c0.3-1.6,0.5-3,0.8-4.5c0.2,3.7,0.5,7.4,0.7,11c4,1.1,5.8,0.3,5.6-4c-0.3-4.9-0.5-9.8,0-14.7c0.5-5.2-0.3-8.6-5-7.5
		c5.6,0,6.2-1,4.4-12.8C-2887.1,310.3-2889.1,310.3-2891,310.3z M-2917.7,148c0.2,2.2,0.3,4.2,0.5,6.2c2.2,0,4.1,0,5.9,0
		c0-11.2,0-21.9,0-32.7c-2.2,0-4,0-5.9,0c-0.1,2.3-0.3,4.3-0.4,6.2c-2.3,0.3-4.3,0.5-6.2,0.7c-0.1,2.2-0.3,4-0.4,6
		c-2.2,0.2-4.1,0.3-6.2,0.5c0,2.2,0,4.1,0,6c2.3,0.2,4.3,0.3,6.3,0.5c0.1,2.2,0.2,4,0.3,6.1C-2921.4,147.7-2919.6,147.9-2917.7,148z
		 M-2978.6,256.5c-2.2,0-4.1,0-6.1,0c-0.1,2.2-0.2,4.1-0.3,6c-2.1,0.2-4.1,0.3-6.3,0.5c-0.2,2.2-0.3,4.2-0.5,6.2
		c-2.3,0.2-4.2,0.4-6.2,0.6c0,2.1,0,3.9,0,5.6c2.4,0.3,4.3,0.5,6.2,0.8c0.2,2.4,0.4,4.3,0.6,6.2c2.4,0.1,4.2,0.3,6.1,0.4
		c0.2,2.2,0.4,4.2,0.6,6.3c2,0,3.7,0,5.9,0C-2978.6,277.9-2978.6,267.3-2978.6,256.5z M-3085.9,262.6c-0.2-2.3-0.3-4.3-0.5-6.2
		c-2.1,0-3.9,0-5.8,0c0,11.1,0,21.8,0,32.6c2.2,0,4,0,5.9,0c0.1-2.3,0.2-4.2,0.4-6c2.4-0.3,4.3-0.5,6.2-0.7c0.3-2.4,0.5-4.3,0.7-6.2
		c2.2-0.2,4.1-0.4,6.1-0.5c0-2,0-3.8,0-5.8c-2.2-0.2-4.2-0.3-6.3-0.5c-0.1-2.2-0.2-4-0.4-6.3C-3082.1,262.8-3084,262.7-3085.9,262.6
		z M-2890.6,174.8c-0.2-2.4-0.4-4.3-0.6-6.2c-2.4-0.2-4.2-0.3-6-0.5c-0.2-2.1-0.3-4-0.4-6c-2.2,0-4.1,0-6,0c0,11.1,0,21.7,0,32.6
		c2.1,0,3.9,0,5.8,0c0.3-2.2,0.6-4.1,0.8-6c2.1-0.3,4-0.5,5.9-0.7c0.2-2.2,0.4-4.2,0.6-6.1c2.3-0.3,4.2-0.5,6.3-0.7c0-2,0-3.6,0-5.6
		C-2886.8,175.2-2888.7,175-2890.6,174.8z M-3024.9,120.8c0,11.2,0,22.3,0,33.4c2.2,0,4,0,5.8,0c0.3-2.4,0.5-4.3,0.7-6.2
		c2.2-0.2,4.1-0.4,6.1-0.6c0.3-2.2,0.5-4.1,0.7-6.1c2.1-0.2,3.9-0.3,5.9-0.4c0-2.2,0-4.1,0-6.3c-2.2,0-4,0-6,0
		c-0.2-2.3-0.3-4.2-0.4-6.4c-2.3-0.2-4.3-0.3-6.3-0.5c-0.3-2.3-0.5-4.3-0.7-6.4c-2.1-0.1-4-0.3-5.8-0.4L-3024.9,120.8z
		 M-2782.3,154.3c2.1,0,3.8,0,5.7,0c0.2-2.2,0.4-4.2,0.6-6.1c2.3-0.3,4.2-0.6,6.3-0.9c0.2-2.1,0.3-3.9,0.5-5.9
		c2.1-0.2,3.9-0.4,5.9-0.5c0-2.1,0-4,0-6c-2.2-0.1-4-0.3-5.9-0.4c-0.2-2.2-0.5-4.2-0.7-6.1c-2.3-0.3-4.3-0.5-6.2-0.7
		c-0.3-2.3-0.5-4.2-0.7-6.2c-2,0-3.7,0-5.6,0C-2782.3,132.7-2782.3,143.4-2782.3,154.3z M-2830.4,275.6c0-2,0-3.8,0-5.9
		c-2.2-0.1-4.1-0.3-6.1-0.4c-0.3-2.4-0.5-4.3-0.8-6.3c-2.3-0.2-4.3-0.4-6.2-0.5c-0.1-2.2-0.3-4-0.4-6.1c-2,0-3.8,0-5.8,0
		c0,11,0,21.8,0,32.7c2.1,0,3.9,0,5.8,0c0.2-2.3,0.5-4.2,0.7-6.1c2.3-0.2,4.2-0.4,6.2-0.6c0.2-2.3,0.3-4.2,0.5-6.3
		C-2834.2,275.8-2832.4,275.7-2830.4,275.6z M-2863.8,323.3c0.3,2.2,0.5,4.2,0.8,6.5c2.1-0.1,3.8-0.2,5.5-0.3c0-11.4,0-22.1,0-33.2
		c-2.1,0.1-3.7,0.2-5.6,0.3c-0.2,2.3-0.5,4.3-0.7,6.3c-2.2,0.2-4.1,0.4-6.1,0.6c-0.3,2.3-0.5,4.2-0.8,6.2c-2.2,0.1-4,0.3-5.9,0.4
		c0,2.1,0,3.9,0,5.9c2.2,0.3,4.1,0.5,6.1,0.8c0.1,2,0.2,3.7,0.4,5.8C-2867.7,322.9-2865.7,323.1-2863.8,323.3z M-2790.1,194.5
		c0-11,0-21.8,0-32.4c-2.2,0-3.9,0-5.7,0c-0.2,2.2-0.3,4.1-0.5,6c-2.2,0.2-4.2,0.4-6.3,0.6c-0.2,2.2-0.3,4.2-0.4,6.2
		c-2.3,0.2-4.3,0.5-6.5,0.7c0.1,2.2,0.2,3.9,0.4,5.6c2.4,0.2,4.2,0.4,6,0.6c0.2,2.2,0.4,4.2,0.7,6.2c2.2,0.3,4.2,0.5,6.3,0.7
		c0.1,2,0.3,3.7,0.4,5.8C-2793.9,194.5-2792.1,194.5-2790.1,194.5z M-3032.6,162c-2.1,0-3.9,0-5.7,0c-0.2,2.3-0.4,4.2-0.6,6.1
		c-2.2,0.2-4.2,0.4-6.2,0.5c-0.3,2.4-0.5,4.3-0.7,6.2c-2.2,0.2-4,0.4-5.9,0.5c0,2.1,0,3.8,0,5.8c2.1,0.2,3.9,0.3,6,0.5
		c0.2,2.1,0.4,4.1,0.6,6.3c2.2,0.2,4.1,0.4,6.2,0.6c0.3,2.2,0.6,4.1,0.8,6.1c2,0,3.7,0,5.6,0C-3032.6,183.7-3032.6,172.9-3032.6,162
		z M-2970.8,329.8c2.1-0.1,3.8-0.2,5.7-0.3c0.2-2.2,0.4-4.2,0.5-6.2c2.2-0.3,4.1-0.5,6.2-0.8c0.2-2.2,0.4-4,0.5-5.8
		c2.2-0.2,4.2-0.5,6.5-0.7c-0.1-2.1-0.2-3.9-0.3-5.8c-2.4-0.2-4.4-0.5-6.4-0.7c-0.1-2.1-0.3-4-0.4-6c-2.1-0.2-4.1-0.5-6-0.7
		c-0.3-2.2-0.5-4.2-0.8-6.3c-2,0-3.6,0-5.5,0C-2970.8,308-2970.8,318.8-2970.8,329.8z M-3100.2,296.3c-2.1,0.1-3.8,0.3-5.6,0.4
		c-0.2,2.3-0.4,4.2-0.5,6.2c-2.2,0.3-4.2,0.5-6.2,0.7c-0.2,2.3-0.3,4.3-0.4,6.2c-2.3,0.1-4.3,0.2-6.5,0.4c0.1,2.4,0.2,4.2,0.3,6
		c2.4,0.1,4.2,0.3,6.1,0.4c0.2,2.1,0.4,4.1,0.6,6.1c2.2,0.2,4.2,0.5,6.1,0.7c0.3,2.3,0.5,4.2,0.8,6.2c2,0,3.7,0,5.4,0
		C-3100.2,318.4-3100.2,307.5-3100.2,296.3z M-2776.1,188.3c2.1-0.2,3.9-0.3,6-0.4c0.2-2.2,0.4-4.1,0.7-6.2c2-0.3,3.9-0.5,6.3-0.8
		c-0.1-1.9-0.2-3.4-0.3-5.1c-2.3-0.2-4.1-0.3-6-0.5c-0.2-2.2-0.4-4.2-0.6-6.2c-2.3-0.2-4.3-0.4-6.1-0.6c-0.3-2.3-0.6-4.2-0.9-6.4
		c-1.9,0.1-3.3,0.2-5,0.4c0,10.8,0,21.2,0,32c1.8,0,3.4,0,5.2,0C-2776.6,192.1-2776.3,190.2-2776.1,188.3z M-3032.8,124.1
		c0-1.1-2.8-2.2-5.2-3.9c-0.3,3.9-0.5,5.9-0.7,7.9c-2.2,0.2-4.1,0.4-6.2,0.6c-0.3,2.2-0.5,4.2-0.8,6.2c-2,0.2-3.8,0.4-5.9,0.6
		c0,1.8,0,3.4,0,5.1c2.3,0.2,4.2,0.4,6.1,0.5c0.2,2.2,0.3,4.2,0.5,6.2c2.3,0.1,4.2,0.2,6.2,0.4c0.2,2.2,0.4,4.2,0.7,6.4
		c1.8,0,3.2,0,5.5,0C-3032.6,143.7-3032.4,133.9-3032.8,124.1z M-3024.7,194.3c1.9,0,3.5,0,5.2,0c0.2-2.2,0.4-4.2,0.6-6
		c2.3-0.2,4.3-0.5,6.4-0.7c0.2-2.3,0.3-4.2,0.5-6.2c2.2-0.2,4-0.4,5.9-0.5c0-1.9,0-3.5,0-5.1c-2.3-0.3-4.2-0.5-6-0.7
		c-0.2-2.2-0.3-4-0.5-5.8c-2.4-0.4-4.4-0.6-6.3-0.9c-0.2-2.1-0.4-3.9-0.6-6c-1.7,0-3.2,0-5.2,0
		C-3024.7,173.1-3024.7,183.6-3024.7,194.3z M-2790,149.8c0-5.1,0-10.2-0.1-15.3c-0.1-2.5-0.5-4.9-0.6-7.4c-0.1-1.7,0.8-4,0-5
		c-0.8-0.9-3.2-0.4-5.2-0.5c0,2.7,0,4.7,0,6.6c-2.3,0.1-4.3,0.2-6.4,0.3c-0.2,2.4-0.4,4.4-0.6,6.2c-6.8,0.7-6.8,0.7-5.5,5.9
		c1.8,0.1,3.6,0.3,5.5,0.5c0.2,2.1,0.4,4,0.7,6.1c2.2,0.3,4.2,0.5,6.2,0.7c0.2,2.1,0.4,4,0.6,6.1
		C-2790,154.4-2789.9,154.4-2790,149.8z M-2849.4,329.2c2,0,3.5,0,5.1,0c0.3-2.3,0.6-4.3,0.8-6.1c2.3-0.3,4.3-0.5,6.4-0.8
		c0-2.2,0-4.1,0-6c2.2-0.2,4.2-0.3,6.6-0.5c-0.1-1.9-0.2-3.5-0.3-5.2c-2.2-0.2-4.1-0.3-6-0.5c-0.2-2.2-0.4-4.3-0.7-6.4
		c-2.4-0.2-4.4-0.4-6.3-0.5c-0.2-2.3-0.3-4.3-0.5-6.5c-2,0.1-3.5,0.2-5.2,0.3C-2849.4,307.9-2849.4,318.5-2849.4,329.2z
		 M-2983.9,330.6c2.3-1.4,5.1-2.3,5.2-3.3c0.3-10,0.2-19.9,0.2-30.2c-2.2,0-3.8,0-5.5,0c-0.2,2.2-0.3,4.2-0.5,6.1
		c-2.3,0.2-4.2,0.4-6.3,0.6c-0.3,2.3-0.6,4.2-0.8,6.2c-0.3-0.3-0.6-0.5-0.9-0.8c-1.7,1.3-3.4,2.6-5.2,3.9c2,1.5,3.9,3,6.5,4.9
		c0.1,0.8,0.2,2.6,0.4,4.6c2.6,0.1,5,0.2,7,0.4C-2983.9,325.1-2983.9,327.1-2983.9,330.6z M-2869.9,269.5c-2.2,0.2-4.2,0.3-6.4,0.5
		c0,1.8,0,3.4,0,5.2c2.2,0.3,4.1,0.5,6,0.7c0.4,2.3,0.7,4.3,1,6.2c2.2,0.2,4,0.4,5.9,0.5c0.2,2.1,0.3,3.9,0.5,5.9c1.9,0,3.5,0,5.2,0
		c0-10.9,0-21.3,0-32c-1.9,0-3.5,0-5.3,0c-0.2,2.3-0.3,4.3-0.5,6.2c-2.1,0.2-4,0.3-6.4,0.5C-2869.9,265.7-2869.9,267.6-2869.9,269.5
		z M-3092,327.9c0.6,1.2,3,1.4,4.9,2.2c0.4-3.1,0.7-5.1,0.9-7c2.2-0.3,4.2-0.6,6.2-0.9c0.2-2.2,0.3-4,0.4-5.9
		c2.2-0.2,4.2-0.4,6.3-0.6c0-2,0-3.6,0-5.6c-2.6,0-4.9,0-6.8,0c0-2.4,0-4.3,0-6.5c-2.4-0.1-4.4-0.3-6.4-0.4
		c-0.1-2.3-0.2-4.3-0.3-6.6c-2.1,0.1-3.7,0.2-5.9,0.4c1.4,8.9-0.8,17.6,1.4,27C-3091.5,324.7-3092.7,326.8-3092,327.9z
		 M-2991.1,86.9c0,2.3,0,4.6,0,6.7c4.4,0,8.4,0,12.4,0c0-15.7,0-30.9,0-46.2c-2.1,0-3.9,0-6.2,0c0,13.4,0,26.6,0,40.2
		c-2.4-0.2-4.4-0.4-6.4-0.6L-2991.1,86.9z M-2970.7,288.7c1.9,0,3.5,0,5.2,0c0.2-2.2,0.4-4.2,0.6-6.1c2.1-0.2,4-0.4,5.9-0.6
		c0.3-2.2,0.6-4.2,0.9-6.1c2.3-0.3,4.2-0.5,6.4-0.8c-0.1-1.8-0.2-3.3-0.2-5c-2.3-0.3-4.4-0.5-6.4-0.8c-0.2-2.2-0.4-4-0.5-5.9
		c-2.2-0.2-4-0.4-6-0.5c-0.2-2.1-0.3-4.1-0.5-6.3c-1.7-0.1-3.1-0.2-5.2-0.3C-2970.7,267.4-2970.7,277.9-2970.7,288.7z
		 M-2884.5,138.2c0.9-5-4.2-2.1-6.4-3.9c-0.2-1.7-0.4-3.7-0.6-5.7c-2.2-0.3-4.2-0.5-6.3-0.7c0-1.1,0.3-2.1-0.1-2.8
		c-0.8-1.3-1.9-2.5-2.9-3.7c-1,1.2-2.3,2.3-2.8,3.7c-0.5,1.4-0.1,3-0.1,4.5c0,8.1,0,16.2,0,24.1c7.3,1.9,5.7-2.9,5.6-6.2
		c2.3-0.1,4.3-0.2,6.6-0.4c0.2-2.1,0.4-3.9,0.5-4.6C-2888.1,140.8-2884.7,139.7-2884.5,138.2z M-3106,282.7c0.2,2.1,0.3,3.9,0.5,5.9
		c1.9,0,3.5,0,5.2,0c0-10.8,0-21.3,0-31.9c-1.9,0-3.5,0-5.2,0c-0.2,2.3-0.4,4.2-0.6,6.1c-2.2,0.3-4.2,0.5-6.1,0.7
		c-0.2,2.3-0.4,4.1-0.5,5.9c-2.3,0.2-4.2,0.5-6.6,0.7c0.1,1.9,0.3,3.5,0.4,5c2.5,0.4,4.4,0.6,6.3,0.9c0.2,2.1,0.3,3.8,0.5,6
		C-3109.8,282.3-3107.9,282.5-3106,282.7z M-2924.1,180.5c0.2,2.1,0.4,4.8,0.6,7.6c2.3,0,4.2,0,6,0c0.2,2.3,0.4,4.2,0.6,6.4
		c1.8,0,3.2,0,5.1,0c0-10.8,0-21.4,0-32.2c-1.9,0-3.3,0-4.9,0c-0.3,2.2-0.5,4.2-0.7,6.2c-2.1,0.2-4.1,0.4-6.1,0.6
		c-0.2,2.2-0.4,4.2-0.6,6.1c-2.3,0.2-4.3,0.4-6.4,0.5c0,1.9,0,3.3,0,5.8C-2928,181.1-2926,180.8-2924.1,180.5z M-2957.5,93.7
		c4.3,0,8.3,0,12.5,0c0-2.1,0-3.9,0-5.9c-2.2-0.2-4.2-0.4-6.6-0.7c0-13.3,0-26.4,0-39.8c-2.2,0-3.8,0-5.9,0
		C-2957.5,63.1-2957.5,78.3-2957.5,93.7z M-2769,222.6c-2.3-0.1-4.7-0.2-7.2-0.3c-0.2-4.6-0.4-8.8-0.6-13.2c-2,0.1-3.5,0.2-5.2,0.3
		c0,8.6,0,16.8,0,25.8c7.4,0,14.5-0.1,21.6,0.1c4.3,0.1,4.9-1.8,3.7-5.8c-4.2,0-8.3,0-13,0c0.2-2.7,0.4-4.8,0.6-7L-2769,222.6z
		 M-2978.5,213.8c0.2-4.3-1.4-5.5-5.9-4c0,4.1,0,8.3,0,12.4c-2.5,0.3-4.5,0.5-6.7,0.7c-0.2,2.2-0.3,4.2-0.5,6.7c-4.4,0-8.6,0-13.2,0
		c0.2,2.1,0.3,3.7,0.4,5.5c8.6,0,16.7,0,25.8,0C-2978.6,227.6-2978.7,220.7-2978.5,213.8z M-2851,222.8c-2.5-0.2-4.4-0.3-6.8-0.5
		c0-4.6,0-8.7,0-13.2c-1.9,0.1-3.4,0.2-5,0.3c0,8.7,0,17.1,0,25.5c8.7,0,16.9,0,25.3,0c0-1.9,0-3.5,0-5.5c-4.4,0-8.5,0-12.7,0
		C-2850.5,226.7-2850.8,224.8-2851,222.8z M-2769.2,363.7c-0.1-2-0.2-4-0.4-6.2c-4.4,0-8.6,0-12.6,0c0,15.6,0,30.9,0,46.5
		c2.2-0.1,3.9-0.2,6.1-0.4c0-13.5,0-26.6,0-40.1c2.7,0,4.9,0,7.1,0L-2769.2,363.7z M-3059.8,235c0-8.7,0-17.1,0-25.8
		c-2,0.2-3.6,0.3-5.5,0.4c0,4.5,0,8.5,0,12.6c-2.5,0.3-4.5,0.5-6.6,0.7c-0.2,2.3-0.4,4.1-0.6,6.6c-4.3,0-8.5,0-12.8,0
		c0,2.1,0,3.6,0,5.5C-3076.5,235-3068.2,235-3059.8,235z M-3012,363.7c0-2,0-4,0-6c-4.7,0-8.8,0-12.9,0c0,15.6,0,30.7,0,45.9
		c2.1,0,3.8,0,6.1,0c0-13.4,0-26.4,0-40c2.7,0,4.8,0,7,0L-3012,363.7z M-3059,363.6c2.2,0,4.3,0,7.1,0c0,13.7,0,26.9,0,40.4
		c2.3-0.1,4-0.2,5.8-0.3c0-15.5,0-30.8,0-46.2c-4.3,0-8.3,0-12.8,0c0,2.3,0,4.3,0,6.3L-3059,363.6z M-2816.2,363.7
		c2.1,0,4.2,0,6.8,0c0,13.7,0,26.7,0,39.9c2.2,0,4,0,5.9,0c0-15.5,0-30.8,0-46c-4.4,0-8.4,0-12.5,0c0,2.3,0,4.3,0,6.3L-2816.2,363.7
		z M-3042.9,235c7.7,0.4,15.5,0.2,23.5,0.2c0-9,0-17.2,0-25.8c-1.9,0-3.5,0-5.6,0c0,4.4,0,8.6,0,12.8c-2.3,0.2-4.1,0.4-6.1,0.6
		c-0.3,2.2-0.5,4.2-0.9,6.6c-4.4,0-8.6,0-14.4,0C-3044.8,232.1-3043.9,235-3042.9,235z M-3113,229.5c-4.3,0-8.5,0-14.4,0
		c1.7,2.7,2.6,5.5,3.7,5.5c7.7,0.4,15.5,0.2,23.4,0.2c0-9,0-17.2,0-25.7c-1.9,0-3.5,0-5.6,0c0,4.5,0,8.6,0,12.8
		c-2.2,0.2-3.9,0.3-6,0.4C-3112.2,224.8-3112.6,226.9-3113,229.5z M-2903.4,232.5c0,0.9,2.1,2.5,3.2,2.6c6.8,0.2,13.6,0.1,20.4,0
		c0.6,0,1.2-0.4,2-0.7c-0.1-1.6-0.3-3-0.4-5.2c-4.4,0-8.5,0-12.6,0c-0.3-2.5-0.5-4.3-0.7-6.3c-2.2-0.3-4.2-0.6-6.1-0.8
		c-0.7-13-0.7-13-6-12.3C-2903.5,217.3-2903.6,224.9-2903.4,232.5z M-2925,402c0.1-11.5,0.1-23.1,0.2-34.7
		c0.1-10.6,0.1-10.6-10.6-9.7c-0.5,0-0.9,0.4-1.8,0.7c0.1,1.5,0.2,3.1,0.3,4.7c2.4,0.2,4.2,0.3,6.6,0.5c0,13.4,0,26.6,0,40.1
		c2-0.1,3.5-0.2,4.8-0.3C-2925.3,402.6-2925,402.3-2925,402z M-2822.4,234.8c8.6,0,17,0,25.6,0c-0.1-2-0.2-3.4-0.4-5.5
		c-4.4,0-8.6,0-12.6,0c-0.4-2.6-0.7-4.6-1-6.4c-2.4-0.2-4.3-0.4-6.6-0.6c0-4.5,0-8.6,0-12.8c-1.9,0-3.2,0-5,0
		C-2822.4,218.2-2822.4,226.5-2822.4,234.8z M-2857.7,47.7c-1.9,0-3.5,0-6.1,0c0.9,2.6,1.6,4.5,2.3,6.7c-2.2,1.3-2.2,1.3-1.6,21.9
		c0,1.5,1.1,3,1.2,3.2c-0.7,3.2-1.3,5.6-1.9,8.4c-1.7,0-3.7,0-5.9,0c0,1.9,0,3.5,0,5.4c4.1,0,7.9,0,12,0
		C-2857.7,77.7-2857.7,62.8-2857.7,47.7z M-3100.3,47.8c-1.9,0-3.5,0-5.4,0c0,13.5,0,26.7,0,39.9c-2.5,0.2-4.4,0.3-6.3,0.5
		c0,1.8,0,3.4,0,5.2c4,0,7.7,0,11.7,0C-3100.3,77.9-3100.3,62.9-3100.3,47.8z M-2830.5,52c0.1-4.3-1.4-5.5-5.5-4.1
		c-0.1,1-0.3,2-0.3,3c0,2.5-0.1,5.1,0.1,7.6c0.1,2.7-0.4,5.9,0.8,7.8c1.7,2.6-1.4,2.8-1.2,5c0.8,7.1,0.3,14.4,0.3,21.9
		c4.6,0,8.5,0,12.8,0c-0.2-2-0.3-3.4-0.5-5c-2.2-0.3-4-0.5-6.5-0.8C-2830.6,75.4-2830.7,63.7-2830.5,52z M-2891.1,362.8
		c-0.1-1.9-0.2-3.3-0.4-5.3c-2.7,0-5,0.2-7.4,0c-3.5-0.3-5,0.8-4.7,4.5c0.3,3.5,0,7.1,0,10.7c0,10.2,0,20.3,0,30.7
		c2.2,0,3.7,0,5.2,0c0-13.3,0-26.4,0-39.7C-2895.6,363.4-2893.5,363.1-2891.1,362.8z M-3073.2,51.2c0-1.3-1.7-2.5-2.6-3.8
		c-1,1.2-2.7,2.4-2.8,3.7c-0.2,9.2-0.1,18.4-0.1,27.5c0,4.8,0,9.7,0,14.7c4.6,0,8.3,0,12.4,0c-0.1-1.9-0.2-3.5-0.2-5.1
		c-2.2-0.2-3.9-0.3-6.5-0.6C-3073.1,75.3-3073,63.2-3073.2,51.2z M-2816,363.8c-2.2,0-4.4,0-6.8,0c0,13.5,0,26.5,0,39.8
		c2.1,0,3.9,0,6.2,0c0-1.9,0-3.6,0-5.3c0.2-11.5,0.3-23.1,0.5-34.7C-2816.2,363.7-2816,363.8-2816,363.8z M-2991.2,87
		c-0.2-2.7-0.5-5.3-0.5-8c-0.1-10.5,0-21,0-31.6c-2.4,0-4.2,0-6.2,0c0,13.3,0,26.3,0,39.5c2.5,0,4.7,0,6.9,0
		C-2991.1,86.9-2991.2,87-2991.2,87z M-3058.9,363.7c-2.1,0-4.3,0-6.5,0c0,13.7,0,26.7,0,39.8c2.1,0,3.9,0,6.3,0c0-13.5,0-26.8,0-40
		C-3059,363.6-3058.9,363.7-3058.9,363.7z M-3011.8,363.5c0,13.4,0,26.7,0,40.4c2.6-0.1,4.2-0.2,6.2-0.3c0-13.3,0-26.3,0-39.6
		c-2.3-0.1-4.3-0.2-6.3-0.4C-3012,363.7-3011.8,363.5-3011.8,363.5z M-2769.1,363.5c0,13.4,0,26.7,0,40.4c2.5-0.1,4.2-0.2,5.8-0.3
		c0-13.6,0-26.6,0-39.6c-2.3-0.1-4.2-0.3-6-0.4C-2769.2,363.7-2769.1,363.5-2769.1,363.5z M-2938.4,47.1c-2.1,0.1-3.9,0.2-5.6,0.2
		c0,13.5,0,26.5,0,39.6c2,0,3.6,0,5.6,0C-2938.4,73.4-2938.4,60.4-2938.4,47.1z M-3119.2,84.2c0.1,4.5,3.2,2.5,5.4,2.2
		c0-13.1,0-25.8,0-38.7c-1.8,0-3.2,0-5.5,0C-3119.3,60.1-3119.4,72.1-3119.2,84.2z M-2871.1,47.7c-1.9,0-3.4,0-5.2,0
		c0,13.2,0,26,0,39c1.8,0,3.3,0,5.2,0C-2871.1,73.4-2871.1,60.7-2871.1,47.7z M-2943.7,364.3c0,13.2,0,26.1,0,39c1.9,0,3.3,0,5.1,0
		c0-13,0-25.7,0-39.2C-2940.5,364.2-2942.1,364.3-2943.7,364.3z M-2889.7,364.5c0,12.8,0,25.6,0,38.7c1.8,0,3.4,0,5.5,0
		c0-12.3,0.1-24.4-0.2-36.4c0-1.2-2.6-2.4-4-3.6C-2888.9,363.7-2889.3,364.1-2889.7,364.5z M-3059.4,51.8c0.1-4.4-1.6-5.3-5.5-3.8
		c0,13,0,25.8,0,38.8c1.8,0,3.1,0,5.4,0C-3059.5,74.8-3059.6,63.3-3059.4,51.8z M-2822.5,84.4c0,0.8,2,2.3,2.9,2.2
		c1-0.1,2.4-1.8,2.4-2.9c0.3-4.1,0.1-8.1,0.1-12.2c0-7.9,0-15.9,0-24c-2.1,0-3.5,0-5.6,0C-2822.6,60.1-2822.7,72.3-2822.5,84.4z
		 M-2837.3,221.7c0-4.3,0-8.2,0-12.5c-4.4,0-8.4,0-12.4,0c0,4.4,0,8.4,0,12.5C-2845.4,221.7-2841.4,221.7-2837.3,221.7z
		 M-3072.9,221.7c0-4.3,0-8.3,0-12.8c-4.3,0.2-8.2,0.4-12.5,0.6c0,4.3,0,8.1,0,12.3C-3081.3,221.7-3077.1,221.7-3072.9,221.7z
		 M-2769.2,222.5c4.3-0.3,8.6-0.6,12.8-0.8c0-4.3,0-8.1,0-12.3c-4.4,0-8.3,0-12.6,0c0,4.6,0,8.9,0,13.3
		C-2769,222.6-2769.2,222.5-2769.2,222.5z M-2944.9,221.7c0-4.3,0-8.3,0-12.4c-4.2,0-8.2,0-12.5,0c0,4.3,0,8.1,0,12.4
		C-2953,221.7-2949.1,221.7-2944.9,221.7z M-3004.5,221.6c4.4,0,8.4,0,12.3,0c0-4.4,0-8.4,0-12.3c-4.2,0-8,0-12.3,0
		C-3004.5,214-3004.5,217.9-3004.5,221.6z M-3045,209.3c0,4.4,0,8.3,0,12.4c4.3,0,8.3,0,12.5,0c0-4.2,0-8.1,0-12.4
		C-3036.9,209.3-3040.7,209.3-3045,209.3z M-3113.6,221.4c0-4.5,0-8.3,0-12c-4.2,0-8,0-12.1,0c-0.3,4.3-0.5,8.1-0.7,12
		C-3121.4,221.4-3117.3,221.4-3113.6,221.4z M-2809.1,221.7c4.4,0,8.2,0,12.6,0c-0.2-4.3-0.4-8.3-0.6-12.5c-4.3,0-8,0-12,0
		C-2809.1,213.7-2809.1,217.8-2809.1,221.7z M-2957.3,241.7c4.5,0,8.4,0,12.4,0c0-4.3,0-8.2,0-12.3c-4.3,0-8.3,0-13,0
		C-2957.6,233.7-2957.5,237.5-2957.3,241.7z M-2925,221.7c1.7-12.2-1-14.8-12.4-12c0,3.8,0,7.7,0,12
		C-2933,221.7-2929,221.7-2925,221.7z M-2890,221.7c4.3,0,8.3,0,12.8,0c-0.2-4.3-0.5-8.2-0.7-12.5c-4.2,0-7.9,0-12.1,0
		C-2890,213.5-2890,217.5-2890,221.7z M-2937.2,241.6c4.2,0,8,0,12.2,0c0-4.3,0-8.1,0-12.2c-4,0-8,0-12.2,0
		C-2937.2,233.7-2937.2,237.6-2937.2,241.6z M-2856.4,342.9c2.1,0,4,0,5.9,0c0.1-12.9,0.5-13.9-5.9-11.7
		C-2856.4,335.2-2856.4,339-2856.4,342.9z M-3098.8,343.3c2.1-0.1,3.8-0.2,5.6-0.4c0-4.3,0-8.3,0-12.6c-1.9-0.1-3.5-0.2-5.6-0.3
		C-3098.8,334.9-3098.8,339-3098.8,343.3z M-2972.1,330.7c-2,0-3.6,0-5.6,0c0,4.3,0,8.3,0,12.3c2,0,3.7,0,5.6,0
		C-2972.1,338.6-2972.1,334.7-2972.1,330.7z M-3025.1,121c-0.2-3.3-0.2-6.7-0.7-10c-0.2-1.1-1.5-2.7-2.4-2.9c-1-0.1-3,1.2-3.1,2
		c-0.4,3.4-0.1,6.9-0.1,10.3c2.9,0.2,4.7,0.3,6.6,0.4C-3024.9,120.8-3025.1,121-3025.1,121z M-2904.6,112.8c0.5-4.7-1.4-5.8-5.4-4.2
		c0,4.1,0,7.9,0,11.9c1.8,0,3.3,0,5.4,0C-2904.6,117.5-2904.8,115.1-2904.6,112.8z M-2783.5,110.7c-0.1-1-1.8-2.5-2.7-2.5
		c-1,0-2.6,1.6-2.7,2.6c-0.4,3.1-0.1,6.3-0.1,9.6c2,0,3.5,0,5.6,0C-2783.4,116.7-2783.1,113.6-2783.5,110.7z M-2870.3,391.1
		c0.1,2.4,0.2,4.1,0.3,6.2c2.3-0.1,4.1-0.2,6-0.3c0-2.1,0-3.7,0-6.2C-2866.3,390.9-2868.2,391-2870.3,391.1z M-2870.5,377
		c0.1,2.1,0.3,4.2,0.4,6.5c2.2,0,3.9,0,5.8,0c0-2.1,0-4,0-6c-2.4-0.1-4.4-0.2-6.4-0.3C-2870.7,377.2-2870.5,377-2870.5,377z
		 M-2984.8,343.8c0.1,2.3,0.2,4.1,0.3,6c2.2,0,3.9,0,5.9,0c0-2.1,0-3.9,0-6.3C-2981,343.6-2982.7,343.7-2984.8,343.8z
		 M-2850.2,397.6c0-2.1,0-4.2,0-6.5c-2.5,0-4.3,0-6.2,0c0,2.2,0,4.1,0,6.3c2.3,0,4.4,0,6.4,0L-2850.2,397.6z M-3106.1,377.2
		c-2.1,0.1-4.3,0.2-6.4,0.3c0,2.4,0,4.1,0,6.3c2.2-0.1,3.9-0.2,6.2-0.4c0-2.4,0-4.5,0-6.5L-3106.1,377.2z M-3092.2,350.1
		c2.2-0.1,3.9-0.2,5.7-0.3c0-2.3,0-4,0-6c-2-0.1-3.6-0.2-5.7-0.3C-3092.2,346-3092.2,347.9-3092.2,350.1z M-2964.8,397.4
		c2-0.1,4-0.2,6.3-0.3c0-2.1,0-4.1,0-6.4c-2.2,0.1-4,0.2-6.1,0.4c0,2.5,0,4.5,0,6.5L-2964.8,397.4z M-2964.6,376.9
		c0,2.1,0,4.2,0,6.6c2.4,0,4.1,0,6.1,0c0-2.1,0-4,0-6.1c-2.3-0.1-4.3-0.2-6.3-0.3L-2964.6,376.9z M-3106.3,397.6c0-2.1,0-4.2,0-6.5
		c-2.5,0-4.2,0-6.1,0c0,2.2,0,4,0,6.4c2.3,0,4.3,0,6.3,0L-3106.3,397.6z M-2856.5,377.5c0,2.1,0,3.9,0,6.2c2.2-0.1,4.1-0.2,6-0.3
		c0-2.2,0-3.8,0-5.9C-2852.9,377.5-2854.6,377.5-2856.5,377.5z M-3079.5,384.1c0,2.1,0,4.2,0,6.3l-0.2-0.2c2.1,0,4.3,0,6.7,0
		c0-2.1,0-3.8,0-5.9c-2.4,0-4.6,0-6.7,0L-3079.5,384.1z M-2991.1,384.7c-2.2-0.2-4.4-0.5-6.9-0.7c0,2.5,0,4.2,0,6.4
		c2.5-0.2,4.6-0.3,6.8-0.5l-0.1,0.1c0.1-1.8,0.2-3.7,0.2-5.5C-2991.1,384.6-2991.1,384.7-2991.1,384.7z M-3079.5,390.4
		c-2.1,0-4.2,0-6.3,0l0.2-0.2c0,2.1,0,4.3,0,6.7c2,0,3.8,0,5.9,0c0-2.4,0-4.6,0-6.8L-3079.5,390.4z M-2991.2,390c0,2.3,0,4.6,0,7.3
		c2.3-0.1,4-0.2,6.1-0.3c-0.1-2.3-0.2-4.1-0.3-5.7c-2.3-0.5-4.1-0.8-5.9-1.2C-2991.4,390.1-2991.2,390-2991.2,390z M-3079.7,377
		c-1.9,0.2-3.8,0.4-5.8,0.6c0,2.4,0,4.6,0,6.7l-0.2-0.2c2.1,0,4.2,0,6.3,0l-0.2,0.2c-0.1-2.5-0.2-5-0.2-7.5
		C-3079.9,376.9-3079.7,377-3079.7,377z M-2991.3,376.8c-0.3-2-0.7-3.9-1-5.8c-2,0-3.8,0-5.7,0c0,2.1,0,3.8,0,6
		c2.5-0.1,4.7-0.2,6.8-0.4C-2991.2,376.7-2991.3,376.8-2991.3,376.8z M-3079.8,376.9c2.2,0,4.4,0,6.9,0c0-2.1,0-3.8,0-5.8
		c-2.1,0-4,0-5.8,0c-0.3,2.3-0.6,4.1-0.9,5.9C-3079.7,377-3079.9,376.9-3079.8,376.9z M-2863.2,350.7c-2.3,0-4.5,0-6.7,0
		c0,2.2,0,4,0,6.1c2.2-0.1,3.9-0.3,5.7-0.4c0.3-2.2,0.6-4,0.9-5.9L-2863.2,350.7z M-2863.4,350.6c2-0.3,3.9-0.6,5.9-0.9
		c0-2,0-3.8,0-5.7c-2.1,0-3.8,0-5.8,0c0,2.5,0,4.7,0,6.8C-2863.2,350.7-2863.4,350.6-2863.4,350.6z M-2965.1,350.5
		c0-2.1,0-4.3,0-6.7c-2.1,0-3.9,0-5.7,0c0,2.2,0,4.1,0,6c2.2,0.2,4.1,0.4,5.9,0.5L-2965.1,350.5z M-2836.9,390.3
		c-2,0.3-3.9,0.6-6,0.9c0,2,0,3.8,0,5.7c2.1,0,3.8,0,5.9,0c0-2.5,0-4.6,0-6.8L-2836.9,390.3z M-3106.1,350.4c2-0.2,3.9-0.4,6.1-0.6
		c0-2,0-3.8,0-5.9c-2,0-3.8,0-5.9,0c0,2.4,0,4.5,0,6.7L-3106.1,350.4z M-3079.7,363.5c2.1,0,4.3,0,6.7,0c0-2.3,0-4,0-6
		c-2.1,0-3.9,0-5.9,0c-0.2,2.2-0.5,4.2-0.7,6.2L-3079.7,363.5z M-2850,350.4c2-0.2,3.9-0.4,6-0.6c0-2,0-3.8,0-5.7c-2.1,0-4,0-5.9,0
		c0,2.5,0,4.5,0,6.5L-2850,350.4z M-2977.9,376.9c0,2.1,0,4.2,0,6.5c2.2,0,3.9,0,5.7,0c0-2.2,0-4,0-6c-2.3-0.1-4.1-0.2-5.9-0.3
		L-2977.9,376.9z M-2985.7,384.7c0.5,1.9,1,3.7,1.6,5.8c2-0.1,3.7-0.2,5.5-0.3c0-2.2,0-3.8,0-6.1
		C-2981.2,384.3-2983.4,384.5-2985.7,384.7L-2985.7,384.7z M-3092.9,377.1c-2,0.2-3.9,0.4-6.1,0.6c0,2,0,3.8,0,5.7c2.1,0,4,0,5.9,0
		c0-2.4,0-4.4,0-6.4C-3093.1,376.9-3092.9,377.1-3092.9,377.1z M-2978.1,377.1c-0.2-2-0.4-4-0.6-6.2c-2,0-3.8,0-5.7,0
		c0,2.1,0,3.9,0,6c2.5,0,4.5,0,6.5,0C-2977.9,376.9-2978.1,377.1-2978.1,377.1z M-2978.1,397.5c2-0.1,3.9-0.3,6.1-0.5
		c0-2.1,0-3.9,0-5.8c-2.1,0-4,0-5.9,0c0,2.4,0,4.4,0,6.4C-2977.9,397.6-2978.1,397.5-2978.1,397.5z M-2992.1,357.5c-2.1,0-4,0-6.3,0
		c0.1,2.1,0.2,3.9,0.3,5.8c2.2,0,4,0,6,0C-2992.1,361.2-2992.1,359.5-2992.1,357.5z M-2870.6,363.8c0.2,2,0.4,3.9,0.6,6.1
		c2,0,3.8,0,5.7,0c0-2.1,0-4,0-6c-2.5,0-4.5,0-6.5,0C-2870.7,364-2870.6,363.8-2870.6,363.8z M-3093.1,397.7c0-2.1,0-4.3,0-6.6
		c-2.1,0-3.9,0-5.7,0c0,2.1,0,4,0,6c2.2,0.2,4.1,0.4,5.9,0.5L-3093.1,397.7z M-2977.9,397.6c-2.2,0-4.3,0-6.6,0c0,2.2,0,4,0,6
		c2.1,0,3.9,0,5.9,0c0.2-2.2,0.4-4.2,0.6-6.2C-2978.1,397.5-2977.9,397.6-2977.9,397.6z M-2836.8,377.1c-2,0.1-4,0.3-6.2,0.4
		c0,2,0,3.8,0,5.8c2.1,0,4,0,6,0c0-2.4,0-4.4,0-6.4L-2836.8,377.1z M-3085.7,390.4c0-2.1,0-4.2,0-6.3l0.2,0.2c-2.3,0-4.5,0-6.8,0
		c0,2.3,0,4,0,5.9c2.5,0,4.6,0,6.8,0L-3085.7,390.4z M-3106.1,363.9c-2.1,0-4.3,0-6.5,0c0,2.3,0,4.1,0,6c2.1,0,3.8,0,5.9,0
		c0.1-2.2,0.3-4.2,0.4-6.2L-3106.1,363.9z M-3092.9,363.5c2.1,0,4.2,0,6.4,0c0-2.5,0-4.3,0-6c-2.1,0-3.9,0-6.2,0c0,2.3,0,4.2,0,6.2
		L-3092.9,363.5z M-2836.8,363.5c2.1,0,4.2,0,6.4,0c0-2.5,0-4.2,0-6.1c-2.1,0-3.8,0-5.9,0c-0.1,2.3-0.2,4.3-0.3,6.2L-2836.8,363.5z
		 M-2964.7,363.7c0.1,2,0.2,4,0.3,6c2.3,0,4.2,0,6.4,0c-0.2-2.2-0.3-3.9-0.5-5.8c-2.4,0-4.4,0-6.4,0L-2964.7,363.7z M-2978.3,363.7
		c0-2,0-4,0-6.2c-2.4,0-4.3,0-6.2,0c0,2.1,0,3.9,0,6c2.3,0,4.3,0,6.4,0L-2978.3,363.7z M-3093.1,376.9c2.1,0,4.3,0,6.7,0
		c0-2.2,0-4,0-6c-2.1,0-3.9,0-5.9,0c-0.2,2.2-0.4,4.2-0.6,6.2C-3092.9,377.1-3093.1,376.9-3093.1,376.9z M-2837,377
		c2.1,0,4.2,0,6.6,0c0-2.3,0-4.1,0-6c-2.1,0-3.8,0-5.8,0c-0.2,2.2-0.4,4.2-0.5,6.2C-2836.8,377.1-2837,377-2837,377z M-2850,363.9
		c-2.1,0-4.2,0-6.4,0c0,2.3,0,4.1,0,6c2.1,0,3.9,0,6.2,0c0-2.2,0-4.2,0-6.2L-2850,363.9z M-2964.9,350.4c0.2,2,0.4,4,0.6,6.1
		c2.1,0,3.8,0,5.9,0c0-2,0-3.8,0-5.9c-2.3,0-4.5,0-6.7,0C-2965.1,350.5-2964.9,350.4-2964.9,350.4z M-2837.1,390.2
		c2.1,0,4.3,0,6.6,0c0-2,0-3.8,0-5.7c-2.1,0-3.9,0-5.9,0c-0.2,2.2-0.4,4-0.6,5.8C-2836.9,390.3-2837.1,390.2-2837.1,390.2z
		 M-2985.7,384.7c0.2-2.4,0.4-4.7,0.5-7c-2.6-0.4-4.3-0.6-6.1-0.9c0,0,0.1-0.1,0.1-0.1c0,2.7,0.1,5.4,0.1,8.1c0,0-0.1-0.1-0.1-0.1
		C-2989.3,384.6-2987.5,384.7-2985.7,384.7C-2985.7,384.7-2985.7,384.7-2985.7,384.7z M-2850.2,363.7c2.1-0.2,4.2-0.3,6.6-0.5
		c-0.1-2.3-0.2-4-0.3-6c-2.2,0.1-4,0.2-6.1,0.3c0,2.4,0,4.4,0,6.4C-2850,363.9-2850.2,363.7-2850.2,363.7z M-3093,397.5
		c0.2,2,0.4,4,0.7,6.4c2.1-0.1,4-0.2,5.8-0.3c0-2.3,0-4,0-6c-2.4,0-4.5,0-6.7,0C-3093.1,397.7-3093,397.5-3093,397.5z
		 M-2849.8,350.5c-2.1,0-4.2,0-6.6,0c0,2.2,0,3.9,0,5.7c2.2,0,4,0,5.9,0c0.2-2.3,0.4-4.1,0.6-5.9
		C-2850,350.4-2849.8,350.5-2849.8,350.5z M-3105.9,350.5c-2.1,0-4.3,0-6.6,0c0,2.2,0,4,0,6c2,0,3.8,0,5.8,0
		c0.2-2.2,0.4-4.1,0.6-6.1C-3106.1,350.4-3105.9,350.5-3105.9,350.5z M-2876.9,384.5c0.1,2.2,0.2,4,0.3,5.9c2.3-0.1,4.1-0.2,5.8-0.3
		c0-2.2,0-3.8,0-5.6C-2873,384.5-2874.8,384.5-2876.9,384.5z M-2951.8,390.1c0-2.1,0-3.8,0-5.7c-2.1,0-3.8,0-5.8,0
		c0,1.9,0,3.5,0,5.7C-2955.4,390.1-2953.6,390.1-2951.8,390.1z M-2965.3,384.1c-2.2,0.1-3.9,0.2-6,0.3c0.1,2.3,0.2,4.1,0.3,5.8
		c2.2,0,3.8,0,5.6,0C-2965.3,387.8-2965.3,386.1-2965.3,384.1z M-3012.6,94.9c-1.9,0-3.5,0-5.5,0c0.1,2,0.2,3.6,0.3,5.2
		c2,0,3.4,0,5.2,0C-3012.6,98.2-3012.6,96.6-3012.6,94.9z M-2863.2,390.1c2.2,0,4,0,5.7,0c0-2.1,0-3.9,0-5.8c-2,0-3.6,0-6,0
		C-2863.4,386.6-2863.3,388.4-2863.2,390.1z M-2844,384.4c-2.1,0-3.8,0-5.7,0c0,2.1,0,3.8,0,5.8c2,0,3.6,0,5.7,0
		C-2844,388-2844,386.3-2844,384.4z M-3019.5,74.6c-1.9,0-3.5,0-5.5,0c0.1,2,0.2,3.5,0.3,5.2c1.3,0.1,2.2,0.2,3,0.2
		c0.6,0,1.3-0.2,2.2-0.4C-3019.5,77.9-3019.5,76.3-3019.5,74.6z M-3093.6,350.7c-1.7,0-3.4,0-5.4,0c0,1.9,0,3.6,0,5.5
		C-3092.5,357.1-3092.3,356.9-3093.6,350.7z M-3079.8,350.3c-2.3,0.1-4,0.2-6.1,0.3c0.1,2.3,0.2,4.1,0.3,6c2.2-0.1,3.8-0.2,6.1-0.3
		C-3079.6,354.1-3079.7,352.4-3079.8,350.3z M-2985.5,356.4c0-2.1,0-3.8,0-5.6c-2.1,0-3.9,0-5.8,0c0,2,0,3.6,0,5.6
		C-2989,356.4-2987.3,356.4-2985.5,356.4z M-2977.6,356.4c1.9,0,3.6,0,5.6,0c0-2,0-3.8,0-5.8c-1.9,0-3.5,0-5.6,0
		C-2977.6,352.5-2977.6,354.3-2977.6,356.4z M-3033.6,101.9c-0.5-0.6-3.2-0.7-3.6-0.1c-0.9,1.2-0.9,3.1-1.5,5.3
		c2.5-0.1,4.1-0.2,6.3-0.3C-3032.8,104.8-3032.7,103-3033.6,101.9z M-2891.5,94.9c-2,0-3.6,0-5.6,0c0.2,2,0.3,3.6,0.5,5.3
		c1.8,0,3.1,0,5,0C-2891.5,98.1-2891.5,96.5-2891.5,94.9z M-2904.9,94.5c-1.9,0.1-3.5,0.2-5.5,0.4c0.1,2,0.2,3.6,0.3,5.2
		c1.9,0,3.3,0,5.1,0C-2904.9,98-2904.9,96.4-2904.9,94.5z M-3019.5,101.4c-2,0.1-3.5,0.2-5.1,0.2c0,1.9,0,3.5,0,5.3
		c1.8,0,3.3,0,5.5,0C-3019.3,104.8-3019.4,103.2-3019.5,101.4z M-2842.9,356.4c2.1,0,3.8,0,5.7,0c0-2.1,0-3.8,0-5.8
		c-1.9,0-3.6,0-5.7,0C-2842.9,352.8-2842.9,354.5-2842.9,356.4z M-2985.6,364.1c-1.9,0-3.7,0-5.6,0c0,2,0,3.8,0,5.8
		c1.9,0,3.6,0,5.6,0C-2985.6,368.1-2985.6,366.2-2985.6,364.1z M-3032.5,66.2c-0.2-2-0.3-3.6-0.4-5.5c-2.1,0.2-3.7,0.3-5.2,0.5
		c0,1.9,0,3.4,0,5C-3036.2,66.2-3034.5,66.2-3032.5,66.2z M-3106.1,397.4c0.1,2,0.2,4,0.3,6.2c2.1,0,3.8,0,5.8,0c0-2,0-3.8,0-6
		c-2.3,0-4.3,0-6.2,0C-3106.3,397.6-3106.1,397.4-3106.1,397.4z M-2964.6,397.6c-2.1,0-4.2,0-6.6,0c0.1,2.5,0.2,4.3,0.3,6.4
		c2.3-0.1,4.1-0.3,6.1-0.4c0-2.5,0-4.3,0-6.2C-2964.8,397.4-2964.6,397.6-2964.6,397.6z M-2857.5,397.5c-2.1,0.1-3.9,0.2-5.6,0.2
		c0,2.2,0,4,0,5.9c2,0,3.6,0,5.6,0C-2857.5,401.4-2857.5,399.7-2857.5,397.5z M-3113.5,357.5c-2,0-3.8,0-5.7,0c0,2.1,0,3.8,0,5.8
		c1.9,0,3.5,0,5.7,0C-3113.5,361.2-3113.5,359.5-3113.5,357.5z M-3106.2,363.7c2-0.2,4-0.3,6.2-0.5c0-2.1,0-3.9,0-5.7
		c-2.1,0-3.8,0-6,0c0,2.4,0,4.4,0,6.4C-3106.1,363.9-3106.2,363.7-3106.2,363.7z M-2850.1,397.4c0,2,0,4,0,6.2c2.4,0,4.1,0,6.1,0
		c0-2,0-3.8,0-6c-2.3,0-4.3,0-6.2,0C-2850.2,397.6-2850.1,397.4-2850.1,397.4z M-2896.6,67.9c0,1.9,0,3.4,0,5.2c1.9,0,3.5,0,5.2,0
		c0-1.9,0-3.3,0-5.4C-2893.4,67.8-2894.9,67.8-2896.6,67.9z M-2904.4,73.1c-0.2-2-0.3-3.6-0.5-5.5c-2.1,0.2-3.6,0.3-5.4,0.4
		c0.1,1.9,0.2,3.4,0.3,5.1C-2908.1,73.1-2906.4,73.1-2904.4,73.1z M-2964.9,363.9c0-2.1,0-4.3,0-6.8c-2.5,0.1-4.3,0.2-6.3,0.4
		c0.1,2.3,0.3,4.1,0.4,5.9c2.4,0.1,4.3,0.2,6.2,0.4C-2964.7,363.7-2964.9,363.9-2964.9,363.9z M-2957.5,363.2c2.3,0,4,0,5.6,0
		c0-2.2,0-3.9,0-5.8c-2.1,0-3.7,0-6,0C-2957.7,359.7-2957.6,361.5-2957.5,363.2z M-2918.3,73.2c0-1.9,0-3.5,0-5.5
		c-2,0.1-3.6,0.2-5.2,0.3c0,2,0,3.4,0,5.2C-2921.6,73.2-2920,73.2-2918.3,73.2z M-2910,201.7c2.1-0.3,3.7-0.5,5.5-0.7
		c-0.1-1.9-0.2-3.4-0.4-5.1c-1.8,0-3.3,0-5.5,0C-2910.2,198.1-2910.1,199.7-2910,201.7z M-2870.7,364c0-2.1,0-4.3,0-6.4
		c-2.4,0-4.1,0-6.2,0c0.1,2.2,0.2,4,0.3,5.8c2.4,0.2,4.2,0.3,6.1,0.4C-2870.6,363.8-2870.7,364-2870.7,364z M-2863.1,357.6
		c0,2.1,0,3.9,0,5.6c2.1,0,3.9,0,5.8,0c0-2,0-3.6,0-5.6C-2859.6,357.6-2861.3,357.6-2863.1,357.6z M-3051.5,66.2c2,0,3.6,0,5.5,0
		c-0.1-1.9-0.2-3.4-0.3-5.2c-1.9,0-3.3,0-5.5,0C-3051.7,63.1-3051.6,64.6-3051.5,66.2z M-3105.7,390.1c2.1,0,3.8,0,5.6,0
		c0-2.1,0-3.8,0-5.8c-2,0-3.6,0-5.6,0C-3105.7,386.6-3105.7,388.3-3105.7,390.1z M-2917.9,86.5c-0.1-1.9-0.2-3.5-0.4-5.1
		c-2,0-3.4,0-5.2,0c-0.1,1.7-0.2,3.2-0.3,5.1C-2921.8,86.5-2920.1,86.5-2917.9,86.5z M-2763.1,66.2c-0.2-2-0.3-3.6-0.4-5.5
		c-2,0.2-3.6,0.3-5.2,0.4c0,1.9,0,3.4,0,5.5C-2766.5,66.5-2764.9,66.4-2763.1,66.2z M-2910.4,81.5c0.2,2.1,0.3,3.6,0.4,5.5
		c2.1-0.2,3.6-0.3,5.5-0.4c-0.1-1.9-0.2-3.4-0.3-5.6C-2907,81.2-2908.6,81.3-2910.4,81.5z M-3092.7,363.7c-2,0.1-4,0.2-6.2,0.3
		c0,2.1,0,3.8,0,5.8c2,0,3.8,0,6.1,0c0-2.3,0-4.3,0-6.3C-3092.9,363.5-3092.7,363.7-3092.7,363.7z M-3079.5,363.7
		c-2,0.1-3.9,0.3-6,0.4c0,2.1,0,3.9,0,5.7c2.1,0,3.8,0,5.8,0c0-2.3,0-4.3,0-6.3L-3079.5,363.7z M-2782,61.2c0,1.8,0,3.3,0,5.1
		c1.9,0,3.5,0,5.3,0c0-1.8,0-3.2,0-5.1C-2778.5,61.2-2780.2,61.2-2782,61.2z M-2790.2,61.1c-1.8,0-3.4,0-5.3,0c0,1.8,0,3.4,0,5.2
		c1.8,0,3.4,0,5.6,0C-2790,64.2-2790.1,62.8-2790.2,61.1z M-3119.2,390.5c2.3-0.1,4.1-0.2,6.1-0.4c-0.1-2.3-0.2-4-0.4-5.8
		c-2.1,0-3.8,0-6.1,0C-3119.4,386.7-3119.3,388.4-3119.2,390.5z M-2978.1,363.5c0,2,0,4,0,6.3c2.2,0,4,0,5.9,0c0-2.1,0-4,0-6.1
		c-2.3,0-4.2,0-6.1,0L-2978.1,363.5z M-2891.5,81c-2,0.2-3.5,0.3-5,0.4c0,1.9,0,3.5,0,5.3c1.8,0,3.3,0,5.5,0
		C-2891.3,84.5-2891.4,82.9-2891.5,81z M-3019.5,66.3c0-1.8,0-3.4,0-5.2c-1.9,0-3.5,0-5.3,0c0,1.8,0,3.3,0,5.2
		C-3022.7,66.3-3021.2,66.3-3019.5,66.3z M-2891.5,59.4c1.4-5-0.8-5.9-5.2-4.7C-2897.7,59.9-2895.6,60.9-2891.5,59.4z
		 M-2972.3,295.6c0-1.9,0-3.5,0-5.2c-1.9,0-3.4,0-5.2,0c0,1.9,0,3.5,0,5.2C-2975.7,295.6-2974.1,295.6-2972.3,295.6z M-3098.9,290.7
		c0.1,1.6,0.2,3.2,0.3,4.9c1.9,0,3.4,0,5.1,0C-3092.3,290.2-3094.4,289.3-3098.9,290.7z M-2836.7,363.7c-2,0.1-4,0.2-6.2,0.3
		c0,2.1,0,3.8,0,5.8c2,0,3.8,0,6.1,0c0-2.3,0-4.3,0-6.3C-2836.8,363.5-2836.7,363.7-2836.7,363.7z M-2923.4,100.4
		c2.1-0.1,3.6-0.3,5.2-0.4c0-1.9,0-3.4,0-5.2c-1.8,0-3.4,0-5.6,0C-2923.7,96.9-2923.6,98.5-2923.4,100.4z M-2802.3,86.6
		c2,0,3.5,0,5.1,0c0-1.9,0-3.5,0-5.3c-1.8,0-3.2,0-5.5,0C-2802.5,83.5-2802.4,85.1-2802.3,86.6z M-2924.8,66.2
		c-0.1-2-0.3-3.6-0.4-5.5c-2,0.2-3.6,0.3-5.2,0.4c0,1.9,0,3.3,0,5.5C-2928.3,66.5-2926.7,66.4-2924.8,66.2z M-3093.4,240.6
		c0.5-0.3,0.5-2.9-0.1-3.2c-1.3-0.9-3.1-1.1-5.2-1.6c-0.1,2.3-0.2,3.8-0.4,6.7C-3096.6,241.6-3094.8,241.4-3093.4,240.6z
		 M-2829.2,236.4c0,2,0,3.4,0,5c2,0,3.7,0,5.6,0c-0.1-1.9-0.2-3.4-0.3-5.5C-2826.1,236.1-2827.7,236.2-2829.2,236.4z M-3119.6,370.9
		c0.1,2.4,0.2,4.1,0.4,5.8c2.2,0,3.8,0,5.7,0c0-2,0-3.7,0-6.1C-3115.8,370.7-3117.6,370.8-3119.6,370.9z M-3106.3,377c2,0,4,0,6.2,0
		c0-2.2,0-4,0-5.9c-2.1,0-4,0-6.1,0c0,2.3,0,4.2,0,6C-3106.1,377.2-3106.3,377-3106.3,377z M-2782.3,47.7c0.1,2,0.2,3.6,0.3,5.5
		c2.1-0.2,3.7-0.3,5.5-0.4c-0.1-2-0.2-3.5-0.3-5.1C-2778.7,47.7-2780.3,47.7-2782.3,47.7z M-2795.4,52.8c1.9,0,3.5,0,5.1,0
		c0.4-5.4,0.4-5.4-5.1-5.2C-2795.4,49.5-2795.4,51.1-2795.4,52.8z M-2904.5,241.4c-0.1-1.9-0.2-3.4-0.2-5c-2,0-3.7,0-5.4,0
		c0,1.9,0,3.4,0,5.5C-2907.9,241.7-2906.3,241.6-2904.5,241.4z M-3025,47.6c0.1,2,0.2,3.6,0.3,5.5c2-0.1,3.6-0.2,5.3-0.3
		c0-1.9,0-3.3,0-5.6C-3021.5,47.4-3023.1,47.5-3025,47.6z M-2964.8,377.1c-0.1-2-0.2-4-0.3-6.2c-2.1,0-3.8,0-5.8,0c0,2,0,3.8,0,6
		c2.3,0,4.3,0,6.3,0C-2964.6,376.9-2964.8,377.1-2964.8,377.1z M-2957.4,371c0,2.1,0,3.8,0,5.6c2.1,0,3.8,0,5.8,0c0-2,0-3.6,0-5.6
		C-2953.9,371-2955.6,371-2957.4,371z M-2870.7,377.2c0-2,0-4,0-6.2c-2.2,0-3.9,0-5.8,0c0,2.1,0,4,0,6c2.3,0,4.1,0,6,0
		C-2870.5,377-2870.7,377.2-2870.7,377.2z M-2863.1,376.7c2.1,0,3.8,0,5.7,0c0-2.1,0-3.9,0-5.8c-1.9,0-3.6,0-5.7,0
		C-2863.1,373.1-2863.1,374.8-2863.1,376.7z M-2849.7,376.7c2.1,0,3.9,0,5.6,0c0-2.1,0-3.9,0-5.8c-1.2-0.1-2-0.2-2.8-0.2
		s-1.6,0.1-2.8,0.2C-2849.7,373.2-2849.7,374.9-2849.7,376.7z M-3038.4,48.2c0.1,1.5,0.2,3.1,0.3,4.8c1.9,0,3.4,0,5.1,0
		C-3032.4,46.9-3032.6,46.8-3038.4,48.2z M-2977.6,241.5c1.9,0,3.4,0,5.2,0c0-1.9,0-3.4,0-5.2c-1.9,0-3.4,0-5.2,0
		C-2977.6,238.1-2977.6,239.7-2977.6,241.5z M-3017.7,236.5c0,1.7,0,3.3,0,5.1c1.8,0,3.2,0,5.1,0
		C-3011.6,236.6-3013.1,235.1-3017.7,236.5z M-3058.4,241.5c1.9,0,3.5,0,5.5,0c-0.1-1.9-0.2-3.5-0.3-5.2c-2,0-3.4,0-5.6,0
		C-3058.6,238.3-3058.5,239.8-3058.4,241.5z M-3010.5,66.5c2-0.2,5.1,1.1,4.6-2.9c-0.1-1-2-1.8-3-2.8c-1.1,1.4-2.2,2.8-3.3,4.2
		C-3011.6,65.6-3011.1,66-3010.5,66.5z M-2795.5,101.7c0,1.9,0,3.4,0,5.2c1.8,0,3.4,0,5.3,0c0-1.8,0-3.2,0-5.4
		C-2792.3,101.5-2793.9,101.6-2795.5,101.7z M-2884.5,65c0.5-0.4,0.2-2.9-0.3-3.2c-1.5-0.7-3.2-0.7-5.3-1c0.1,2.3,0.2,3.8,0.3,6.7
		C-2887.4,66.4-2885.6,66-2884.5,65z M-2804.8,61.2c-0.4-0.6-2.9-0.5-3.2,0c-0.8,1.4-0.9,3.2-1.4,5.2c2.3,0,3.8,0,6.6,0
		C-2803.6,64.1-2803.9,62.4-2804.8,61.2z M-2910,155.7c0,1.6,0,3.2,0,5c1.8,0,3.3,0,5,0C-2903.8,155.7-2905.4,154.2-2910,155.7z
		 M-2783.4,86.1c-0.1-1.5-0.2-3.1-0.3-4.8c-1.9,0-3.4,0-4.8,0C-2789.6,87.1-2789.4,87.4-2783.4,86.1z M-3017.8,67.9
		c0,1.8,0,3.4,0,5.2c4.4,0.9,6.6,0,4.9-5.2C-3014.6,67.9-3016,67.9-3017.8,67.9z M-2797.1,73c0-1.7,0-3.2,0-5.2
		c-1.7-0.1-3.1-0.1-4.9-0.2C-2803.5,72.8-2801.7,74.1-2797.1,73z M-3029.9,60.7c1.4-1.2,2.8-2.3,4.2-3.5c-1-1-2-2-2.9-3
		c-1.2,1.3-2.4,2.6-3.7,3.9C-3031.5,59-3030.7,59.8-3029.9,60.7z M-2788.1,73c0.5,0.7,3.3,0.7,3.7,0.1c0.8-1.3,0.8-3.2,1.3-5.2
		c-2.2,0-3.7,0-6.1,0C-2788.9,70.1-2789,71.9-2788.1,73z M-3017.8,86.5c5.3,1.4,6.1-0.8,5-5.1c-1.6,0-3.1,0-5.3,0
		C-3017.9,83.4-3017.9,85-3017.8,86.5z M-2782.1,74.9c0,1.6,0,3,0,4.8c1.8,0,3.4,0,5.2,0C-2775.7,74.1-2778.1,73.5-2782.1,74.9z
		 M-2924.8,79.2c-0.1-1.6-0.2-3.2-0.3-4.8c-2.8-0.2-5.9-1.2-5.3,2.7c0.2,1.4,2.6,2.4,4,3.6C-2926,80.3-2925.4,79.7-2924.8,79.2z
		 M-3039.8,100c0-1.9,0-3.5,0-5.3c-1.8,0-3.3,0-5.1,0c-0.1,1.8-0.2,3.4-0.3,5.3C-3043.2,100-3041.6,100-3039.8,100z M-3032.8,74.5
		c-1.8,0-3.4,0-5.2,0c0,1.9,0,3.5,0,5.2c1.8,0,3.3,0,5.2,0C-3032.8,77.8-3032.8,76.3-3032.8,74.5z M-2776.8,105.7
		c0.5-0.4,0.4-3-0.1-3.2c-1.4-0.8-3.2-0.8-5.2-1.2c0,2.3,0,3.7,0,6.6C-2779.8,107-2778,106.7-2776.8,105.7z M-2796.8,99.9
		c-0.2-2-0.3-3.6-0.4-5c-4.8-1.3-6.1,0.5-5,5C-2800.3,99.9-2798.7,99.9-2796.8,99.9z M-2898.1,60.8c-1.9,0.1-3.5,0.2-5.1,0.2
		c0,2,0,3.6,0,5.3c1.1,0.1,1.9,0.2,2.8,0.2c0.7,0,1.3-0.1,2.4-0.2C-2898.1,64.4-2898.1,62.8-2898.1,60.8z M-2783.4,59.2
		c-0.1-1.5-0.3-3.1-0.4-4.7c-1.9,0-3.3,0-4.8,0C-2789.5,60.2-2789.2,60.5-2783.4,59.2z M-2788.8,94.8c0,1.9,0,3.5,0,5.5
		c1.9-0.1,3.5-0.2,5.2-0.3c0-2,0-3.4,0-5.2C-2785.5,94.8-2787.1,94.8-2788.8,94.8z M-3038.1,89.1c-0.6,0.5-0.4,3.3,0.2,3.7
		c1.4,0.8,3.3,0.7,5.4,1c-0.1-2.2-0.2-3.7-0.3-6.2C-3035.1,88.1-3037,88.2-3038.1,89.1z M-3046.3,74.5c-1.9,0-3.5,0-5.5,0
		c0.1,1.8,0.2,3.6,0.3,5.5c2-0.1,3.5-0.2,5.6-0.3C-3046,77.7-3046.1,76.2-3046.3,74.5z M-2775.5,94.9c0.2,2.1,0.3,3.7,0.4,5.5
		c2-0.1,3.5-0.2,5.1-0.3c0-1.8,0-3.2,0-5.6C-2771.9,94.7-2773.5,94.7-2775.5,94.9z M-3005.8,77c0-0.8-0.2-1.6-0.3-2.3
		c-5.9-0.9-6-0.7-4.5,5.2c1.4-0.1,2.9-0.2,4.5-0.3C-3006,78.7-3005.8,77.9-3005.8,77z M-2972.4,254.7c0-1.6,0-3.2,0-5
		c-1.8,0-3.3,0-5.1,0C-2978.6,254.8-2976.8,256.2-2972.4,254.7z M-3026.5,195.7c-1.6,0.1-3.2,0.2-4.8,0.3c0,1.9,0,3.4,0,5.1
		C-3025.8,202.3-3025,200.1-3026.5,195.7z M-2903.2,53.2c2-0.1,3.6-0.2,5-0.2c1.3-4.8-0.2-6.5-5.3-5.1
		C-2903.4,49.7-2903.3,51.3-2903.2,53.2z M-2903.5,75.2c0.1,1.4,0.2,2.9,0.3,4.6c1.9,0,3.5,0,5.1,0
		C-2897.6,73.8-2897.9,73.5-2903.5,75.2z M-2889.7,79.8c1.9,0,3.4,0,5.2,0c0-1.8,0-3.4,0-5.2c-1.8-0.1-3.2-0.2-5.5-0.3
		C-2889.9,76.5-2889.8,78.1-2889.7,79.8z M-2805.8,74.2c-1.1,0.9-3.1,1.6-3.3,2.6c-0.6,3.9,2.2,3.3,6.8,2.7
		C-2803.8,77.4-2804.8,75.8-2805.8,74.2z M-2790.2,74.5c-1.9,0-3.5,0-5.3,0c0,1.7,0,3.3,0,5.2c1.8,0,3.4,0,5.3,0
		C-2790.2,77.9-2790.2,76.4-2790.2,74.5z M-2770.1,86.6c0-1.9,0-3.5,0-5.5c-2,0.1-3.5,0.2-5.4,0.3c0.1,2,0.2,3.4,0.3,5.6
		C-2773.1,86.8-2771.7,86.7-2770.1,86.6z M-2768.5,80c1.9-0.1,3.5-0.2,5.5-0.3c-0.1-2-0.2-3.5-0.3-5.3c-1.9,0-3.4,0-5.2,0
		C-2768.5,76.5-2768.5,78.1-2768.5,80z M-3031.1,81.3c0,2,0,3.7,0,5.7c1.9-0.1,3.4-0.2,5.1-0.3c0-1.8,0-3.4,0-5.6
		C-3028,81.1-3029.5,81.2-3031.1,81.3z M-2775.4,55c0.1,1.6,0.2,3.1,0.3,4.7c0.5,0.4,1,0.7,1.5,1.1c1.3-1.3,2.6-2.5,3.9-3.8
		c-1.4-1.2-2.8-2.3-4.1-3.5C-2774.4,54-2774.9,54.5-2775.4,55z M-2916.8,74.6c0,1.8,0,3.3,0,5.2c1.8,0,3.2,0,5,0
		C-2910.6,74.8-2912.3,73.4-2916.8,74.6z M-2769.9,67.9c-1.8,0-3.4,0-5,0c-1.2,4.2-0.3,6.4,5,5.2
		C-2769.9,71.4-2769.9,69.8-2769.9,67.9z M-2856,295.5c1.8,0,3.4,0,5.1,0c0-1.9,0-3.5,0-5.2c-1.8,0-3.3,0-5.4,0
		C-2856.2,292.3-2856.1,293.8-2856,295.5z M-3039.7,59.7c0-1.8,0-3.4,0-5.1c-1.9,0-3.5,0-5.2,0c0,1.8,0,3.3,0,5.1
		C-3043.1,59.7-3041.5,59.7-3039.7,59.7z M-2923.5,59.9c2-0.1,3.6-0.2,5.2-0.3c0-2,0-3.5,0-5.2c-1.9,0-3.5,0-5.2,0
		C-2923.5,56.4-2923.5,58-2923.5,59.9z M-3012.6,54.6c-1.9,0-3.5,0-5.5,0c0.1,1.9,0.2,3.5,0.3,5.1c2,0,3.5,0,5.2,0
		C-3012.6,57.9-3012.6,56.3-3012.6,54.6z M-2788.7,241.8c1.7-0.1,3.3-0.2,5.1-0.3c0-1.9,0-3.4,0-5.1
		C-2789,235.1-2789.8,237.3-2788.7,241.8z M-2904.8,58.3c0.5-0.4,0.3-3-0.2-3.2c-1.5-0.6-3.3-0.6-5.2-0.9c0,2.2,0,3.6,0,6.5
		C-2907.7,59.7-2906,59.3-2904.8,58.3z M-3031.5,68c0.1,1.9,0.2,3.5,0.3,5.2c1.9,0,3.4,0,5.2,0c0.1-1.7,0.1-3.2,0.2-5.2
		C-3027.9,68-3029.5,68-3031.5,68z M-3025.8,100.1c-0.1-2-0.2-3.6-0.2-5.4c-1.9,0-3.4,0-5.2,0c0,1.8,0,3.4,0,5.7
		C-3029.2,100.2-3027.6,100.2-3025.8,100.1z M-2781.2,93.3c0.6,0.6,3.3,0.6,3.6,0c0.8-1.3,0.7-3.2,1-5c-2.2,0-3.7,0-6.3,0
		C-2782.2,90.4-2782.1,92.3-2781.2,93.3z M-2912,101.4c-1.6,0.1-3.2,0.1-4.9,0.2c0,1.9,0,3.4,0,5.2
		C-2911.6,108-2910.5,106-2912,101.4z M-2788.8,160.9c1.9-0.1,3.6-0.2,5.2-0.3c0-1.9,0-3.4,0-5.2c-1.7-0.1-3.2-0.1-5.2-0.2
		C-2788.8,157.4-2788.8,159-2788.8,160.9z M-3024.7,89.4c-0.5,0.4-0.4,2.9,0.1,3.2c1.4,0.7,3.2,0.8,5.2,1.2c0-2.2,0-3.7,0-6.6
		C-3021.7,88.1-3023.5,88.4-3024.7,89.4z M-2926.3,87.2c-1.4,1.1-2.9,2.2-4.3,3.4c0.9,1.1,1.9,2.1,2.8,3.1c1.3-1.3,2.5-2.6,3.8-3.8
		C-2924.8,89-2925.5,88.1-2926.3,87.2z M-3026.1,155.1c-1.9,0.1-3.5,0.2-5.4,0.3c0.2,2.1,0.3,3.7,0.4,5.4c1.8,0,3.2,0,5,0
		C-3026.1,158.8-3026.1,157.2-3026.1,155.1z M-2788.8,201.5c2-0.1,3.6-0.2,5.2-0.2c0-2,0-3.5,0-5.2c-1.9,0-3.5,0-5.4,0
		C-2789,197.8-2788.9,199.5-2788.8,201.5z M-2911.8,66.3c0-1.9,0-3.5,0-5.2c-1.8,0-3.3,0-5,0c0,1.8,0,3.5,0,5.2
		C-2915.1,66.3-2913.5,66.3-2911.8,66.3z M-2802.2,59.9c1.9-0.1,3.5-0.2,5.3-0.4c-0.1-1.9-0.2-3.4-0.2-5.1c-1.7-0.1-3.2-0.2-5.1-0.2
		C-2802.2,56.2-2802.2,57.9-2802.2,59.9z M-3044.8,73.4c5.6-0.2,5.6-0.2,4.7-5.5c-1.4,0-2.9,0-5.1,0
		C-3045,70-3044.9,71.7-3044.8,73.4z M-2795.8,88.4c0.2,1.9,0.3,3.3,0.4,4.7c4.9,1.6,6.2-0.1,5-4.7
		C-2792.1,88.4-2793.8,88.4-2795.8,88.4z M-2853.1,255.1c1-0.1,1.7-1.8,2.6-2.8c-1.4-1.1-2.9-2.3-4.3-3.4
		C-2856.4,252.9-2857,255.7-2853.1,255.1z M-3040,81.1c-1.8,0.1-3.3,0.2-5.1,0.2c0.1,2,0.2,3.5,0.4,5.2
		C-3039.2,87.7-3038.9,85.2-3040,81.1z M-3051.5,93.3c1.9,0,3.5,0,5.3,0c0-1.8,0-3.3,0-5.1c-1.8,0-3.4,0-5.3,0
		C-3051.5,90.1-3051.5,91.7-3051.5,93.3z M-3006.1,88.2c-5.1-1-6.2,1-4.8,5.2c1.7,0,3.1,0,5.4,0C-3005.8,91.3-3006,89.7-3006.1,88.2
		z M-2902,94.5c1.4-1.2,2.8-2.4,4.2-3.6c-1-1-2-2-3-3c-1.2,1.3-2.4,2.7-3.7,4.1C-2903.6,92.8-2902.8,93.6-2902,94.5z M-2912.9,47.6
		c-0.4-0.5-2.9-0.3-3.2,0.2c-0.7,1.4-0.7,3.2-1.1,5.1c2.2,0,3.6,0,6.4,0C-2911.6,50.6-2911.9,48.8-2912.9,47.6z M-2864.8,236
		c-1.7,0.1-3.2,0.2-5,0.3c0.1,2,0.2,3.4,0.2,5.2C-2864.2,242.5-2863.6,240.3-2864.8,236z M-2898.2,101.4c-1.9,0.1-3.5,0.2-5.4,0.3
		c0.1,2,0.2,3.4,0.4,5.1c1.8,0,3.2,0,5,0C-2898.2,105-2898.2,103.4-2898.2,101.4z M-2763.3,92.1c0.5-0.4,0.3-2.9-0.2-3.2
		c-1.5-0.7-3.3-0.7-5.2-1c-0.1,1.6-0.2,2.4-0.1,3.2c0,0.6,0.1,1.3,0.3,3.2C-2766.3,93.4-2764.6,93.1-2763.3,92.1z M-2803.4,92.9
		c-0.1-1.5-0.2-3.1-0.2-4.7c-1.9,0-3.4,0-4.8,0C-2809.6,93.7-2809.1,94.1-2803.4,92.9z M-3097.5,254.9c0.5,0.6,2.9,0.3,3.6-0.4
		c0.7-0.7,1-3.2,0.5-3.5c-1.3-0.9-3.1-1-6.2-1.9C-3098.7,252-3098.5,253.8-3097.5,254.9z M-2884.4,91.1c-0.3-1.2-1.7-2.2-2.6-3.2
		c-1,1-2.4,1.9-2.8,3.1c-0.2,0.8,1.2,2,2.5,3.9C-2885.9,93-2884.3,91.9-2884.4,91.1z M-2916.1,93.2c0.4,0.6,3.2,0.7,3.6,0.1
		c0.9-1.2,0.9-3.1,1.4-5.1c-2.3-0.1-3.7-0.2-6.1-0.3C-2916.8,90.3-2916.9,92.1-2916.1,93.2z"/>
	
		<image style="overflow:visible;" width="477" height="600" xlink:href="../../../../Tatreez/pattern_examples.jpeg"  transform="matrix(1 0 0 1 -3051.3538 -693.5356)">
	</image>
</g>
<g id="Layer_2">
	<path d="M-2495.9,2.9c-3.1-11.9,18.4-18.7,18.4-18.7s33.7,34.6,73.6,50.8c0,0,15.3-22.1,30.7-40.1s24.5-8,33.7-8
		c9.2,0,18.4,13.9,0,29.8c-18.4,15.9-49.1,43.8-50.5,55C-2390,71.8-2492.8,14.8-2495.9,2.9z M-2480.6,62.6c-33.7,2,0,0,0,16.6
		s12.3,19.2,39.9,37.8c27.6,18.6,36.8,21.2,50.7,11c13.9-10.2,47.4-17.6,61.1-33.6s1.6-25.8-16.8-31.8c-18.4-6,0,0-44.3,31.8
		C-2390,94.3-2446.8,60.6-2480.6,62.6z M-2412.5,183.5c0,0-25.1-21.4-37.4-37.9c-12.3-16.5-42.9-29.3-67.5-28.3
		c-24.5,1,0,10.9,0,28.6s30.7,18.1,55.2,67.3s58.3,38.3,72.2,39.9c13.9,1.6,22.9-29.4,47.4-61.7s61.3-65.2,55.2-74.5
		c-6.1-9.3-24.5,3.3-41.5,16.9s-22.9,20.2-41.3,55.7L-2412.5,183.5z M-2443.8,279.5l-70.5-66.2c0,0-30.7-25.4-33.7-8
		c-3.1,17.4,0,24.4,19.8,50.8c19.8,26.4,50.8,41.2,78.4,74.4c27.6,33.2,59.9,26.2,59.9,26.2s19.8-23.6,29-26.9s79.7-84.3,113.5-96.1
		c33.7-11.8,3.1-38,0-50.3c-3.1-12.4-21.5,4.4-39.2,22.3s-37.5,29.9-59,50.3S-2443.8,279.5-2443.8,279.5z M-2390.4,418.7
		c63.2-41.7,103.8-80,103.8-80l54.9-45.5c0,0,39.5-29.4,30.3-35.5c-9.2-6.1-30.3-8.5-30.3-8.5l-91.2,70l-67,59.1l-59.9-17.8
		l-46.3-53.1l-70.2-49.9c0,0,3.1,10.1,0,22c-3.1,11.9,70.9,73.6,70.9,73.6L-2390.4,418.7z M-2462.2,396.1c0,0-98.1-78.9-119.6-87
		s-18.4,2.2-18.4,20.8c0,18.6,9.2,19.2,33.6,30.6s46.1,30.4,70.3,42.9s92.3,71,112.9,67c20.6-4,54.4-19.9,54.4-19.9l128.8-105.5
		l15.6-37.6c0,0-23.1-2.1-47.3,11.8c-24.2,13.9-31,47.7-31,47.7s-52.1,39.9-120.5,83.6L-2462.2,396.1z M-2407.5-15.8h-33.2
		l31.4,466.4h26L-2407.5-15.8z"/>
</g>
<g id="Layer_3">
	<path d="M-1872,42l45-42l46.2,8.2l-91.2,75.8l-83.7-56.1c0,0,34.6-23,42.9-28L-1872,42z M-1990.4,70.3
		c-9.9,10.6-39.6,37.9-39.6,37.9l140.2,66.8c0,0,160-82.8,156.7-88.5s-34.6-23.1-34.6-23.1l-113.8,64.7L-1990.4,70.3z
		 M-2053.1,137.1c-4.9,6.4-36.3,41-36.3,41l188.1,110.5l234.3-113.6l-46.2-37.9l-174.9,92.3L-2053.1,137.1z M-1881.5,347.3
		l-194.7-125.9l-44.5,35.3l239.2,143.8l250.7-128l-36.3-51.1L-1881.5,347.3z M-1881.5,418.7l-198-89.5l-41.2,37.4l239.2,104.1
		l250.7-103.7c0,0-8.2-23.9-13.2-33L-1881.5,418.7z"/>
</g>
<g id="Layer_4">
	<path d="M-1350.2,238.9l190.5-127.7l36.3,53.1l-226.8,161.2l-226.9-161.2c0,0,41.2-55.1,46.2-64.1L-1350.2,238.9z M-1387.4,0
		c-11.5,14.8-70.9,57.1-70.9,57.1l118.3,91.8l129.2-91.8L-1263.7,0l-80,59.8L-1387.4,0z M-1344.9,366.8L-1550.7,252
		c0,0-41.2,63.1-45.3,70.7c-4.1,7.7,245.7,147.9,245.7,147.9l256.5-141.5c0,0-23.1-47.1-29.7-56.6L-1344.9,366.8z"/>
</g>
<g id="Layer_5">
	<path d="M-808,127c0,0,106.1-123.7,112.7-115.5c6.6,8.2,92.4,49,92.4,49l-216.1,182l-184.8-145.3c0,0,112.2-74.1,127-85.6L-808,127
		z M-980.8,212.8c-24.7,28-75.9,98.1-75.9,98.1l219.4,139.7c0,0,270.6-183.3,265.6-189.9c-4.9-6.6-52.8-69.3-52.8-69.3l-209.5,134.1
		L-980.8,212.8z"/>
</g>
<g id="Layer_6">
	<path d="M-264.9,460.5h-37.2V-14.6h74.4L-264.9,460.5z M-289,212.8l146.7-201.7l72.3,72.9l-232.1,277.3l-162-277.3
		c0,0,89.8-63.7,102.9-72.9L-289,212.8z"/>
</g>
<g id="Layer_7">
	<path d="M349,2.5c10.8,11.4,43.3,49.3,46.3,52.3s-134.7,99.2-137.1,101c-2.4,1.8-126.2-94.4-128.7-95.6
		c-2.4-1.2,61.9-53.5,63.7-53.5c1.8,0,66,82.4,68.2,84.2C263.6,92.7,349,2.5,349,2.5z"/>
	<path d="M429.5,109.5c-10.8,7.2-181.7,120.8-183.7,121.4c-2,0.6-183.6-137.7-183.6-137.7S14.7,160,12.9,162.1
		c-1.8,2.1,226.6,169.8,229,170.4c2.4,0.6,238.1-164.1,238.7-165.9C481.2,164.8,429.5,109.5,429.5,109.5z"/>
	<path d="M47.2,244.2c11.4,8.4,194.6,111.2,198.6,113c4,1.8,218-89.6,221.6-90.2c3.6-0.6,21,61.9,21.6,65.5s-232.6,122.9-242.3,128
		C237.1,465.8,11.7,322.7,7.5,320C3.4,317.2,47.2,244.2,47.2,244.2z"/>
</g>
</svg>
