<?xml version="1.0" encoding="utf-8"?>
<!-- Generator: Adobe Illustrator 26.0.1, SVG Export Plug-In . SVG Version: 6.00 Build 0)  -->
<svg version="1.1" id="Layer_1" xmlns="http://www.w3.org/2000/svg" xmlns:xlink="http://www.w3.org/1999/xlink" x="0px" y="0px"
	 viewBox="0 0 1024 1024" style="enable-background:new 0 0 1024 1024;" xml:space="preserve">
<path d="M95.91,270.08c4.96,0.41,9.92,0.81,14.91,1.22c0.19,15.43,1.82,17.09,16.65,15.98c-0.41,7.23-1.9,16.42,8.73,16.44
	c10.8,0.02,9.27-9.02,8.43-16.33c16.46,0.23,16.54,0.14,17.31-16.31c4.55,0,9.1,0,13.68,0c0.12,15.28,1.83,17,17.04,16.15
	c-1.01,7.69-2.17,16.96,9.11,16.41c9.89-0.48,9.07-8.62,7.31-15.88c5.29-0.77,11.68,0.13,14.54-2.64c2.81-2.72,2.03-9.15,2.84-13.99
	c4.17,0,8.72,0,13.29,0c1.14,16.02,2.16,17.06,16.22,16.15c0.93,15.85,2.53,17.43,16.88,15.57c-0.18,2.6-0.53,5-0.45,7.38
	c0.08,2.45,0.56,4.9,0.88,7.42c-16.05,0.3-16.05,0.3-16.9,18.33c0,0,0.44-0.38,0.44-0.38c-13.01-3.17-16.96-0.8-16.23,9.65
	c0.15,2.17,0.05,4.35,0.06,6.53l0.34-0.33c-16.87-2.78-17.46,0.09-16.16,16.15l0.32-0.32c-16.21-2.03-18.09-0.15-16.16,16.16
	l0.31-0.31c-5.38,0.1-10.75,0.21-16.13,0.31c-1.5-9.24-3-18.49-4.46-27.52c-5.95-0.4-10.36-0.69-15.19-1.01
	c-0.5-5.46-0.95-10.44-1.41-15.42c-1.41-0.31-2.82-0.62-4.22-0.92c-1.74,5.23-3.48,10.45-5.43,16.31
	c-3.92,0.41-8.62,0.91-13.52,1.43c-0.55,5.33-1.04,10.01-1.5,14.5c-21.44,2.3-21.44,2.3-24.84-14.76c-4.54-0.47-9.23-0.96-13.2-1.38
	c-1.66-5.91-3.08-10.97-5.2-18.51c-3.83,9.22-6.05,14.59-8.28,19.96C95.91,327.45,95.91,298.76,95.91,270.08z M256.82,673.36
	c-13.34,3.42-17.63,1.73-16.18-16.19l0.35,0.34c-15.53,2.77-17.6,0.7-16.17-16.17c0,0,0.32,0.33,0.32,0.33
	c-15.71,2.28-18.08-0.09-16.16-16.17l0.32,0.33c-5.38-0.1-10.77-0.21-16.15-0.31c-1.5,8.91-2.99,17.81-4.59,27.36
	c-5.03,0.4-9.73,0.76-13.26,1.04c-2.43,5.93-4.47,10.9-6.51,15.88c-2.18-4.94-4.36-9.88-6.98-15.81c-3-0.28-7.42-0.68-12.8-1.18
	c-0.45-4.71-0.9-9.39-1.42-14.8c-7.5,0-14.79,0-22.61,0c-0.61,4.99-1.19,9.7-1.8,14.72c-5.23,0.6-9.95,1.14-14.56,1.67
	c-0.39,1.79-0.53,2.9-0.87,3.96c-1.2,3.79-2.47,7.55-3.71,11.33c-1.26-3.7-2.27-7.52-3.86-11.07c-0.96-2.14-2.81-3.87-4.26-5.79
	c0,28.69,0,57.37,0,86.06c4.94-0.44,9.89-0.87,14.65-1.3c0.82-4.61,0.14-10.96,2.97-13.8c2.77-2.78,9.13-1.99,14.61-2.87
	c-1.49-6.67-3.15-14.46,6.59-15.47c12.91-1.34,9.68,9.58,10.67,16.69c14.2-1.79,15.62-0.39,16.65,16.38
	c2.48-0.47,4.87-1.25,7.27-1.3c2.3-0.04,4.61,0.67,5.87,0.88c1.13-5.71,0.55-11.9,3.25-14.16c3.21-2.69,9.25-2,15.01-2.93
	c-2.79-7.22-3.44-14.82,6.61-15.65c12.95-1.08,8.91,10.05,9.7,15.38c5.77,1.26,11.91,0.81,14.17,3.56c2.65,3.21,1.92,9.2,2.56,13.37
	c4.82,0,9.37,0,13.52,0c0.75-4.83-0.07-11.07,2.59-13.56c2.96-2.77,9.12-2.11,14.49-3.06c-4.01-14.33,4.38-17.02,16.26-15.54
	c-0.32-5.65-0.58-10.22-0.84-14.79c-14.83,1.01-15.25,0.53-16.12-17.74L256.82,673.36z M775.19,351.45
	c15.83-3.07,17.34-0.12,16.15,16.16l-0.33-0.32c18.52-2.76,17.22,1.99,16.18,16.19l-0.33-0.33c5.38,0.11,10.77,0.21,16.15,0.32
	c1.29-8.9,2.59-17.8,3.97-27.28c5.56-0.49,10.25-0.9,14.14-1.25c2.16-5.62,4.08-10.62,6-15.62c2.16,4.48,4.32,8.97,7.4,15.36
	c2.25,0.3,6.9,0.91,12.4,1.64c0.51,4.59,1.02,9.29,1.61,14.67c7.21,0,14.17,0,22.14,0c0.56-4.52,1.14-9.17,1.82-14.71
	c4.65-0.51,9.34-1.01,14.96-1.62c0.25-3.17,0.1-6.5,0.9-9.6c0.53-2.06,2.39-3.79,3.65-5.67c1.27,1.87,2.8,3.61,3.74,5.63
	c1.69,3.62,3.02,7.4,4.5,11.11c0-28.69,0-57.37,0-86.06c-5.25,0.43-10.5,0.87-15.74,1.3c1.29,14.67-0.81,16.79-16.48,15.79
	c1.07,7.46,2.4,16.65-8.49,16.53c-10.89-0.11-8.44-9.92-8.83-15.52c-5.47-1.13-11.61-0.62-13.92-3.35
	c-2.77-3.28-2.28-9.32-3.11-13.68c-4.83,0-9.39,0-13.94,0c1.12,15.03-0.34,16.5-12.04,16.35c-4.77,6.7-7.68,15.07-11.7,15.64
	c-11.89,1.66-9.95-8.83-9.86-16.4c-14.54,1.74-16.79-0.52-16.2-15.55c-4.86,0-9.7,0-13.88,0c-0.83,5-0.06,11.23-2.75,13.74
	c-2.98,2.76-9.13,2.11-13.89,2.94c0.11,15.02-0.73,15.83-16.5,15.76c0,4.81,0,9.61,0,15.99c17.57-7.36,16.26,5.24,16.82,15.29
	c15.6-1.23,15.95-0.29,15.86,16.91L775.19,351.45z M920.23,652.83c-2.25,5.33-4.51,10.66-8.24,19.49
	c-2.28-7.02-3.89-11.99-5.85-18.04c-3.62-0.45-8.35-1.03-13.64-1.68c-0.48-4.56-0.94-8.95-1.51-14.34c-7.35,0-14.56,0-22.53,0
	c-0.45,4.6-0.9,9.29-1.39,14.37c-4.86,0.53-9.25,1.01-13.06,1.43c-5.87,3.8,2.45,15.79-10.2,15.69c-0.4-5.45-0.74-10.2-1.13-15.47
	c-4.77-0.45-9.19-0.87-15.27-1.45c-1.43-8.85-2.92-18.09-4.41-27.32c-5.39,0.11-10.77,0.21-16.16,0.32c0,0,0.32-0.31,0.32-0.31
	c1.67,16.44-0.25,18.35-16.16,16.16l0.32-0.32c0.94,15.1,0.99,19.47-16.16,16.16l0.42-0.35c-0.49,5.06,0.8,11.77-1.95,14.73
	c-2.84,3.05-9.6,2.45-13.61,3.24c-1.03,4.86-0.53,11.07-3.32,13.48c-3.19,2.76-9.31,2.15-13.71,2.92c0,5.14,0,9.56,0,13.99
	c15.29-0.65,15.89-0.06,16.84,15.43c4.68,0.88,10.86,0.26,13.23,2.97c2.81,3.2,2.34,9.28,3.25,13.87c4.54,0,9.08,0,13.6,0
	c-0.25-15.44,1.38-17.07,16.65-16c-0.28-6.87-3.27-16.22,7.81-16.6c11.66-0.4,9.42,9.28,9.08,16.58c15.13-1.07,16.2,0.01,16.91,16
	c4.6,0,9.17,0,13.74-0.01c0.12-15.57,1.47-16.92,17.54-16.09c-2.02-7.78-2.62-16.45,8.05-16.5c10.96-0.05,9.07,9.35,8.82,16.55
	c15.18-0.95,16.02-0.1,16.78,15.87c5.04,0.43,9.98,0.85,14.92,1.27C920.23,710.2,920.23,681.51,920.23,652.83z M741.1,802.1
	c5.18,0,10.36,0,16.19,0c0.13-8.76-1.23-18.55,12.66-15.99c5.73,1.06,12.55-1.16,17.4,1.18c3.31,1.6,4.08,8.49,6.59,14.46
	c2.19,0,6.79,0,10.51,0c1.84-5.03,2.8-13.69,5.67-14.37c8.26-1.97,17.45-1.58,25.89-0.02c1.72,0.32,1.76,9.78,2.57,15.03
	c5.36,0,10.72,0,16.09,0c0.19-6.91-3.5-15.98,8.35-16.82c23.34-1.66,25.42-0.26,26.23,16.11c15.74,0.49,16.06,0.8,15.84,16.48
	c5.05,0,10.11,0,15.17,0c0-15.85,0-31.71,0-47.56c-25.08,0.27-50.16,0.72-75.24,0.75c-24.12,0.04-48.24-0.58-72.36-0.48
	c-23.98,0.1-47.97,0.89-71.95,1.1c-23.47,0.2-46.95,0.04-69.47,0.04c-1.21,5.34-2.25,9.95-3.3,14.55
	c17.64-1.15,17.64-1.14,18.6,15.41c0.02,0.31,0.41,0.6,0.62,0.9l-0.33-0.23c5.43-0.48,10.86-0.96,16.29-1.45l-0.16,0.16
	c-5.01-11.98-2.27-16.09,10.03-15.08c1.87,0.15,3.75,0.29,5.63,0.23c16.49-0.51,16.58-0.45,16.56,15.89
	c2.22-0.41,4.34-1.11,6.46-1.11c2.39,0.01,4.77,0.65,7.34,1.05c-0.84-15.73,0.04-16.59,14.77-15.8c1.88,0.1,3.78,0.09,5.65-0.07
	c14.09-1.14,16.25,1.68,12.11,15.9L741.1,802.1z M760.48,207.75c-6.5-0.26-12.99-0.53-19.49-0.79l0.46-0.44
	c4.09,13.97,1.9,16.82-12.27,15.92c-1.5-0.1-3.01-0.1-4.51-0.03c-16.06,0.65-16.48,0.26-15.81-15.33c-4.57,0-9.14,0-13.73,0
	c-0.09,15.84-0.09,15.83-16.51,15.38c-1.88-0.05-3.76,0.07-5.64,0.2c-12.48,0.85-15.17-3.15-10.04-14.98l0.15,0.15
	c-5.62-0.44-11.24-0.87-16.86-1.31c0.65,16.62,0.65,16.62-18.4,16.16l0.34-0.28c0.86,4.99,1.72,9.99,2.56,14.82
	c5.76,0.28,11.56,0.79,17.36,0.81c19.13,0.07,38.26-0.07,57.39-0.06c18.59,0.01,37.18,0.13,55.78,0.13c19.15,0,38.3-0.08,57.45-0.17
	c19.34-0.09,38.67-0.36,58.01-0.3c14.51,0.04,29.01,0.48,43.52,0.74c0-15.85,0-31.71,0-47.56c-5.05,0-10.09,0-15.11,0
	c0.07,15.57-0.35,15.99-15.33,16.52c-1.25,4.98-1.76,13.51-3.78,13.88c-8.92,1.65-18.48,2.05-27.33,0.37
	c-2.39-0.45-3.08-9.81-4.55-15.08l0.29,0.28c-5.61,0.37-11.22,0.73-16.83,1.1l0.13-0.1c5.07,11.57,2.09,16.11-9.79,14.96
	c-1.86-0.18-3.74-0.31-5.61-0.28c-16.77,0.29-16.95,0.13-16.58-15.41c-4.58,0-9.14,0-13.69,0c0.21,15.78,0.08,15.89-15.9,15.47
	c-2.24-0.06-4.56,0.63-6.71,0.22c-3.64-0.7-9.23-1.06-10.23-3.26c-1.42-3.15,0.56-7.84,1.09-11.87L760.48,207.75z M352.97,801.16
	c5.7,0.24,11.4,0.48,17.09,0.72l-0.28,0.3c-1.03-15.76,1.39-18.2,14.63-14.76l-0.19,0.13c0.7-5.28,1.41-10.55,2.21-16.58
	c-15.6,0-29.71,0.01-43.82,0c-24.11-0.01-48.21-0.06-72.32-0.05c-18.81,0.01-37.62,0.08-56.44,0.12
	c-19.36,0.05-38.72,0.2-58.08,0.12c-19.96-0.08-39.92-0.37-59.88-0.57c0,15.85,0,31.71,0,47.56c4.76,0,9.51,0,14.23,0
	c0.98-4.92,0.49-11.08,3.33-14.08c2.53-2.66,8.76-1.82,13.94-2.61c-0.66-7.47-2.48-16.1,9.78-15.82
	c24.58,0.56,24.59,0.5,24.33,16.79c5.71-0.49,11.42-0.99,17.12-1.48l-0.14,0.11c-0.44-4.02-2.07-8.46-0.85-11.89
	c0.69-1.94,6-2.54,9.34-3.15c2.12-0.39,4.45,0.52,6.68,0.48c16.8-0.25,16.8-0.28,16.64,15.46c4.3,0,8.62,0,12.41,0
	c1.7-5.02,2.54-13.81,5.28-14.46c8.33-1.95,17.83-2.4,26.05-0.27c7.21,1.88,4.57,9.51,2.78,15.2c0,0-0.44-0.43-0.44-0.43
	c5.14,0,10.28,0,15.35,0c1.1-15.33,1.11-15.06,24.8-16.33c13.53-0.72,9.7,9.56,10.75,16.86c2.89-0.37,5.09-0.85,7.29-0.87
	c2.13-0.03,4.26,0.41,6.47,0.65c-0.51-16.2-0.51-16.19,16.45-15.82c1.87,0.04,3.75-0.11,5.61-0.27c11.88-1.08,14.86,3.39,9.96,14.99
	L352.97,801.16z M385.88,222.68c-15.71,1.15-16.87-0.01-16.13-16.14c0,0,0.29,0.3,0.29,0.3c-5.38-0.08-10.76-0.16-16.13-0.25
	c-0.46,5.18-0.29,14.68-1.48,14.85c-8.89,1.3-18.25,1.78-27.02,0.17c-2.6-0.48-3.82-8.48-6.24-14.45c-2.26,0-6.88,0-10.02,0
	c-2.33,5.46-3.71,13.97-6.64,14.54c-8.76,1.7-18.26,1.08-27.15-0.48c-1.99-0.35-2.65-8.24-4.27-13.87
	c-3.87-0.2-9.24-0.49-14.61-0.77c4.41,13.59,1.9,16.88-11.99,15.87c-1.87-0.14-3.77-0.09-5.64,0.02
	c-14.47,0.88-15.39-0.04-14.66-15.23c-4.48,0-9,0-12.42,0c-1.91,5.08-3.02,13.78-5.79,14.35c-8.73,1.79-18.16,1.05-27.1-0.24
	c-1.09-0.16-0.83-9.62-1.2-14.77c-5.38-0.01-10.77-0.02-16.15-0.02c0.36,16.07,0.36,16.07-16.54,15.88
	c-0.75-0.01-1.5-0.05-2.25-0.02c-15.64,0.68-15.64,0.68-15.94-15c-15.22-0.31-16.27-1.37-15.73-16.61c-5.05,0-10.1,0-15.15,0
	c0,15.85,0,31.71,0,47.56c2.9-0.53,5.8-1.55,8.69-1.52c29.79,0.32,59.58,1.19,89.37,1.15c29.41-0.04,58.81-1.17,88.22-1.39
	c34.37-0.26,68.75-0.06,103.34-0.06c0-4.57,0-9.35,0-14.13L385.88,222.68z M177.28,415.15c0.15-5.39,0.31-10.79,0.46-16.18
	c-9.46-1.11-18.91-2.22-28.69-3.37c-0.53-6.05-0.95-10.77-1.41-16.01c-7.4,0-14.44,0-22.79,0c-0.47,4.38-0.98,9.04-1.59,14.65
	c-4.5,0.51-9.19,1.04-14.93,1.7c-0.22,3.81-0.06,7.5-0.79,10.99c-0.36,1.7-2.41,3.04-3.69,4.54c-1.19-1.57-2.74-2.99-3.49-4.75
	c-1.69-3.94-2.99-8.05-4.45-12.08c0,28.69,0,57.37,0,86.06c5.31-0.07,10.62-0.14,15.93-0.21l-0.27,0.36
	c-1.78-18.51,2.24-19.35,16.17-16.15l-0.43,0.42c0.62-19.39,0.62-19.39,19.16-16.5l-0.31,0.25c-0.35-5.19-0.69-10.38-1.04-15.57
	c5.45,0.09,10.91,0.17,16.36,0.26l-0.25,0.31c-0.33-2.19-0.51-4.43-1.02-6.58c-2.22-9.28,1.4-13.29,10.83-12.41
	c2.18,0.2,4.4-0.08,6.6-0.15L177.28,415.15z M127.76,544.26c-19.04,3.98-16.88-2.23-16.19-16.16l0.26,0.35
	c-5.31-0.06-10.62-0.12-15.93-0.18c0,28.69,0,57.37,0,86.06c2.22-5.32,4.44-10.63,8.16-19.55c2.14,7.16,3.62,12.12,5.49,18.39
	c3.54,0.35,8.22,0.8,13.63,1.33c0.58,4.81,1.14,9.47,1.78,14.74c7.74,0,15.01,0,22.74,0c0.33-4.87,0.63-9.26,1.05-15.54
	c9.59-1.22,19.28-2.45,28.97-3.68c-0.15-5.41-0.29-10.81-0.44-16.22l0.4,0.45c-18.07-0.64-18.07-0.64-18.43-15.92
	c-15.32-0.4-15.77-0.86-16.07-16.52c-15.42,0.59-15.62,0.36-15.85-17.98L127.76,544.26z M838.86,593.82
	c-0.13,5.4-0.27,10.79-0.4,16.19c9.42,1.23,18.84,2.45,28.53,3.71c0.55,5.74,1,10.45,1.5,15.64c7.44,0,14.43,0,22.13,0
	c0.66-4.96,1.28-9.63,1.97-14.86c4.96-0.43,9.68-0.85,14.97-1.31c0.25-4.05,0.1-7.79,0.86-11.34c0.36-1.67,2.45-2.97,3.76-4.44
	c1.18,1.58,2.71,3.01,3.47,4.77c1.72,3.96,3.06,8.08,4.56,12.13c0-28.69,0-57.37,0-86.06c-5.29,0.06-10.59,0.11-15.88,0.17
	l0.23-0.34c1.51,19.21-3.54,19.08-16.18,16.18l0.44-0.38c-1.06,18.48-1.09,18.51-16.17,17.83c-0.38,16.06-0.38,16.06-16.47,16.66
	c1,15.14,0.61,15.49-17.69,15.86L838.86,593.82z M888.41,464.7c11.54-3.15,17.91-3.58,16.17,16.16l-0.24-0.34
	c5.3,0.06,10.6,0.12,15.89,0.18c0-28.69,0-57.37,0-86.06c-1.48,2.89-3.04,5.74-4.43,8.67c-1.26,2.65-2.34,5.39-3.5,8.09
	c-1.4-2.88-3.04-5.68-4.12-8.67c-0.72-2-0.65-4.28-1-6.87c-4.9-0.44-9.29-0.83-14.59-1.3c-0.52-4.76-1.04-9.44-1.63-14.79
	c-7.39,0-14.68,0-22.46,0c-0.43,4.77-0.83,9.16-1.4,15.47c-9.32,1.21-18.97,2.47-28.63,3.73c0.13,5.4,0.26,10.79,0.39,16.19
	l-0.35-0.41c17.53,0.17,17.93,0.52,18.09,15.97c15.05,0.17,15.71,0.83,16.05,16.21c15.24,0,15.24,0,16.2,18.2L888.41,464.7z
	 M920.23,140.98c-5.31,0.06-10.63,0.12-15.94,0.18l0.28-0.36c0,5.39-0.01,10.78-0.01,16.17l-0.27-0.36
	c5.32,0.07,10.63,0.15,15.95,0.22C920.23,151.55,920.23,146.27,920.23,140.98z M95.91,641.5c5.25-0.24,10.5-0.48,15.13-0.69
	c0-5.29,0-9.87,0-14.4c-5.25-0.27-10.19-0.52-15.13-0.77C95.91,630.93,95.91,636.22,95.91,641.5z M95.91,383.31
	c5.26-0.26,10.51-0.51,15.08-0.74c0-5.32,0-9.85,0-14.35c-5.16-0.26-10.12-0.52-15.08-0.77C95.91,372.75,95.91,378.03,95.91,383.31z
	 M920.23,625.65c-5.2,0.27-10.41,0.55-15.36,0.8c0,5.18,0,9.92,0,14.27c5.54,0.28,10.45,0.53,15.36,0.78
	C920.23,636.22,920.23,630.93,920.23,625.65z M95.91,867.98c5.32-0.05,10.64-0.11,15.96-0.16c0,0-0.28,0.34-0.28,0.34
	c0-5.39,0-10.77,0-16.16c0,0,0.29,0.36,0.29,0.36c-5.32-0.08-10.65-0.16-15.97-0.23C95.91,857.41,95.91,862.7,95.91,867.98z
	 M920.23,496.55c-5.33-0.05-10.66-0.1-15.99-0.14c0,5.38,0,10.76,0.01,16.14c5.33-0.05,10.65-0.1,15.98-0.14
	C920.23,507.12,920.23,501.84,920.23,496.55z M920.23,367.46c-5.29,0.26-10.57,0.53-15.27,0.76c0,5.24,0,9.85,0,14.33
	c5.25,0.26,10.26,0.51,15.27,0.76C920.23,378.03,920.23,372.75,920.23,367.46z M111.9,496.41c-5.33,0.05-10.66,0.09-15.99,0.14
	c0,5.28,0,10.57,0,15.85c5.33,0.05,10.66,0.09,15.99,0.14C111.9,507.17,111.9,501.79,111.9,496.41z M111.59,156.98
	c0-5.39-0.01-10.79-0.01-16.18l0.3,0.37c-5.32-0.06-10.65-0.12-15.97-0.18c0,5.28,0,10.57,0,15.85c5.33-0.07,10.65-0.14,15.98-0.22
	L111.59,156.98z M904.56,851.99c0,5.39,0.01,10.78,0.01,16.17l-0.27-0.36c5.31,0.06,10.62,0.12,15.93,0.17c0-5.28,0-10.57,0-15.85
	c-5.31,0.08-10.62,0.16-15.93,0.24L904.56,851.99z M193.14,464.72c10.14,0,20.29,0,30.34,0c1.32-12.95,1.32-12.95,12.92-11.88
	c0.37,4.47,0.76,9.13,1.21,14.58c4.9,0.39,9.59,0.77,15.12,1.21c0.41,4.96,0.81,9.64,1.25,14.98c5.34,0.58,10.36,1.12,15.93,1.72
	c0,5.12,0,9.49,0,12.34c5.82,2.85,10.55,5.17,15.28,7.49c-4.53,1.55-9.07,3.09-14.53,4.96c0.76,10.12-3.6,16.83-17.01,14.74
	c2.86,14.1-5.14,16.63-16.01,15.41c-0.31,5.61-0.57,10.37-0.83,14.95c-12.21,3.09-12.95,2.5-12.44-9.49
	c-10.4-0.49-20.81-0.99-31.21-1.48l0.36-0.46c0,5.42,0,10.85,0,16.48c9.08,0,17.5,0,26.63,0c0.44,6.79,0.85,13.05,1.29,19.75
	c5.19,0.64,9.9,1.21,14.83,1.81c0.67,5.13,1.28,9.84,1.91,14.71c5.36,0.68,10.02,1.26,14.78,1.87c0.48,5.35,0.87,9.77,1.3,14.59
	c5.17,0.58,9.89,1.1,14.98,1.67c0.53,5.15,1.02,9.83,1.52,14.67c5.17,0.45,9.57,0.82,15.05,1.3c0,31.86,0,63.37,0,96.29
	c32.85,0,64.6,0,96.59,0c0.49,5.81,0.86,10.22,1.27,15.06c5.02,0.56,9.73,1.08,14.77,1.64c0.51,5.25,0.97,9.95,1.44,14.75
	c5.43,0.53,10.11,0.99,14.93,1.47c0.26,5.34,0.48,9.75,0.73,14.81c5.32,0.29,10.02,0.54,14.92,0.81c0.51,5.48,0.95,10.18,1.41,15.15
	c2.51,0.14,4.36,0.44,6.18,0.32c9.25-0.6,17.65-1.01,13.69,13c-1.27,4.48,0.43,9.8,0.77,14.71c14.76-0.83,16.06,0.48,16.12,16.63
	c2.21-0.39,4.28-1.09,6.34-1.05c2.48,0.05,4.94,0.73,8.03,1.24c0-5.41,0-10.2,0-14.99l0.27,0.17c-17.6-0.98-17.6-0.98-16.61-27.46
	c0.07-1.76,0.28-3.51,0.52-6.5c-11.87,4.04-12.82-1.89-10.64-10.96c4.59-0.4,9.33-0.81,14.8-1.28c0.32-5.05,0.61-9.76,0.95-15.16
	c5.01,0,9.42,0,14.62,0c0.48-5.38,0.91-10.08,1.41-15.59c4.68-0.5,9.34-0.99,12.85-1.36c2.52-5.72,4.66-10.59,6.8-15.46
	c2.13,4.56,4.25,9.12,7.18,15.41c2.4,0.23,7.08,0.67,12.48,1.18c0.43,4.91,0.83,9.63,1.3,15.02c4.96,0.37,9.65,0.72,15,1.12
	c0.25,4.94,0.47,9.35,0.74,14.72c4.77,0.43,9.46,0.86,14.7,1.33c0,3.95,0,7.74,0,12.42c-3.93-0.43-6.96-0.75-9.83-1.07
	c0,8.48-0.05,16.18,0.02,23.88c0.05,6.46-3.64,10.55-9.42,9.22c-3.58-0.82-8.32-5.59-8.8-9.09c-1.01-7.37,0.45-15.08,0.89-22.61
	c-17.44-1.64-17.65-1.85-17.06-16.91c-4.85,0-9.7,0-14.33,0c-0.58,5.2-1.14,10.17-1.69,15.14l-0.44-0.4
	c17.39-0.09,17.31-0.09,17.56,17.07c0.07,5.01,0.74,10.01,1.13,14.94c14.84-0.13,15.51,0.57,16.17,16.48c4.82,0,9.64,0,13.22,0
	c1.1-5.51,0.54-11.74,3.26-14c3.29-2.74,9.37-2.12,13.78-2.88c0-8.59,0-16.81,0-26.16c7.06-0.43,13.9-0.85,20.82-1.27
	c0.28-5.52,0.51-9.92,0.75-14.69c5.32-0.48,10.02-0.91,14.9-1.35c0.5-5.36,0.93-10.06,1.38-14.91c5.23-0.31,9.64-0.56,14.74-0.86
	c0.35-5.12,0.67-9.83,1.02-15c5.31-0.53,10.01-1.01,14.93-1.5c0.48-5.22,0.91-9.96,1.46-15.91c32.37,0,64.13,0,96.88,0
	c0-32.77,0-64.25,0-95.89c5.44-0.3,9.86-0.55,14.69-0.81c0.5-5.3,0.94-10,1.42-14.99c5.26-0.49,9.97-0.93,14.83-1.38
	c0.49-5.46,0.92-10.16,1.36-15.04c5.53-0.56,10.21-1.04,14.95-1.53c0.48-5.54,0.89-10.23,1.31-15.03c5.7-0.5,10.4-0.92,15.36-1.36
	c0.49-7.36,0.93-13.82,1.35-20.13c9.94,0,18.25,0,26.68,0c0-5.96,0-11.08,0-16.2c0,0,0.36,0.42,0.36,0.42
	c-10.1,0.45-20.19,0.9-31.13,1.39c2.1,10.44-2.24,13.99-13.02,10.26c0-4.91,0-9.61,0-15.37c-11.26,1.4-20.88,0.62-16.07-15.34
	c-5.45-0.79-10.08-1.47-15.59-2.27c-0.59-4.07-1.22-8.39-1.89-12.99c-5.03-1.23-10.01-2.45-15-3.66c0.01-1.24,0.02-2.49,0.03-3.73
	c4.66-0.94,9.31-1.89,14.77-3c0.55-4,1.14-8.32,1.84-13.43c10.22-0.21,19.16-2.35,14.57-17.3c5.81-0.45,10.51-0.81,16.19-1.25
	c0.46-4.46,0.95-9.13,1.43-13.7c12.11-3.28,12.76-2.79,12.52,9.4c10.44,0.49,20.88,0.98,31.33,1.47l-0.35,0.47
	c0-5.43,0-10.87,0-16.53c-9.11,0-17.54,0-26.81,0c-0.47-6.91-0.92-13.43-1.37-20.03c-5.71-0.59-10.41-1.07-15.22-1.57
	c-0.52-5.61-0.96-10.31-1.38-14.82c-5.67-0.52-10.37-0.94-15.18-1.38c-0.35-5.53-0.63-9.97-0.95-14.9
	c-5.11-0.52-9.84-1.01-15.12-1.55c-0.4-5.11-0.76-9.8-1.14-14.66c-5.44-0.57-10.1-1.06-15.48-1.63c0-31.99,0-63.2,0-95.88
	c-32.62,0-64.46,0-96.34,0c-0.6-6.16-1.06-10.85-1.52-15.55c-5.49-0.59-10.16-1.08-14.71-1.57c-0.43-5.44-0.79-9.83-1.16-14.52
	c-5.37-0.5-10.05-0.93-14.78-1.37c-0.46-5.46-0.86-10.16-1.27-15.01c-5.29-0.27-9.7-0.49-14.82-0.74
	c-0.29-5.29-0.55-10.02-0.86-15.53c-5.58,0-10.52,0.61-15.18-0.27c-2.19-0.41-5.27-3.53-5.48-5.67c-0.69-7.07-0.26-14.24-0.26-20.49
	c-5.17-1.15-11.34-0.73-13.79-3.54c-2.72-3.12-2.03-9.2-2.77-13.65c-4.81,0-9.36,0-13.76,0c0,5.22,0,9.86,0,14.48
	c15.5-0.39,16,0.21,15.43,15.47c-0.22,5.8-0.04,11.62-0.04,17.49c12.35-1.11,12.36-1.09,10.2,11.63c-4.64,0.39-9.36,0.79-14,1.19
	c-0.49,5.57-0.91,10.28-1.31,14.87c-5.41,0.41-9.84,0.74-14.59,1.1c-0.53,5.28-1.01,9.97-1.5,14.8c-5.18,0.43-9.59,0.8-12.49,1.05
	c-2.7,5.97-4.9,10.85-7.11,15.73c-2.11-4.9-4.21-9.8-6.77-15.76c-3.28-0.28-7.98-0.69-12.81-1.1c-0.53-5.48-0.98-10.17-1.44-14.97
	c-5.32-0.31-9.71-0.56-14.38-0.83c-0.51-5.4-0.95-10.12-1.42-15.09c-5.39-0.41-10.13-0.78-14.66-1.12
	c-1.96-9.4-0.47-15.1,10.25-11.49c0-10.99,0-21.08,0-31.06c-5.44,0-10.08,0-14.41,0c0,8.86,0,17.1,0,26.55
	c-7.04,0.43-13.87,0.85-20.81,1.28c-0.29,5.49-0.52,9.89-0.78,14.81c-5.34,0.4-10.04,0.76-14.94,1.13
	c-0.46,5.41-0.87,10.12-1.29,15.03c-5.21,0.31-9.63,0.57-14.58,0.86c-0.53,5.24-1,9.93-1.5,14.86c-5.26,0.53-9.96,1-14.77,1.49
	c-0.5,5.55-0.93,10.27-1.44,15.98c-32.35,0-63.88,0-96.56,0c0,32.6,0,64.13,0,95.82c-5.59,0.36-10.01,0.64-14.96,0.96
	c-0.52,5.21-0.99,9.93-1.49,15c-5.2,0.44-9.94,0.85-15.07,1.29c-0.45,5.3-0.85,10-1.29,15.18c-5.3,0.49-10.01,0.92-15.05,1.38
	c-0.47,5.25-0.9,9.96-1.34,14.82c-5.49,0.61-10.18,1.13-15.04,1.67c-0.49,7.25-0.93,13.72-1.37,20.11c-9.97,0-18.27,0-26.44,0
	c0,6.02,0,11.11,0,16.2L193.14,464.72z M468.11,381.5c4.81,0.91,10.84,0.41,14.07,3.17c2.78,2.38,2.38,8.49,3.46,13.28
	c15.44,1.01,16.06,1.62,14.99,16.29c4.65,0,9.27,0,13.93,0c0.64-15.72,1.08-16.16,15.49-15.71c1.11-4.8,0.83-10.91,3.75-14.01
	c2.52-2.67,8.68-1.9,13.34-2.68c-0.02-15.67,2.09-17.42,17.73-14.23c-0.54-10.13-1.08-20.26-1.65-30.91
	c-3.98-0.53-9.91,0.37-12.85-2.18c-2.86-2.49-2.67-8.51-4.09-14.04c-6.45-0.43-16.16,1.17-15.46-11.58
	c1.27-23.09,1.22-23.09,16.43-24.07c-0.62-14.21,1.23-16.04,16.64-15.59c-0.25-2.85-1.72-6.52-0.49-8.18
	c2.48-3.35,6.56-7.86,9.75-7.68c3.14,0.17,7.53,5.08,8.62,8.74c1.49,5.03,0.81,10.87,0.33,16.3c-0.89,10.08-7.87,10.05-16.37,8.1
	c0,10.48,0,20.49,0,30.9c4.54,0,8.91,0,13.28,0c0.67-15.57,1.08-15.99,16.14-16.23c0.41-3.87,0.14-7.98,1.36-11.57
	c1.66-4.87,13.96-6.65,14.91-2.31c1.99,9.05,2.38,18.82,1.13,27.98c-0.37,2.69-8.45,4.32-14.31,7.05
	c-0.47,2.41,0.06,8.59-2.77,11.54c-2.64,2.75-8.86,2.05-13.84,2.93c0,4.17,0,8.69,0,13.45c9.97,0,19.64,0,29.31,0
	c1.76-16.48,2.33-17.05,16.14-16.18c2.3-16.45,2.3-16.45,15.79-16.57c2.62-17.23,2.91-17.32,28.14-16.37
	c9.61,0.36,19.25,0.43,28.86,0.26c8.51-0.15,11.67,3.38,11.1,12.06c-0.86,13.13-1.26,26.35-0.74,39.49
	c0.62,15.72-0.39,17.02-16.61,14.37c2.63,15.62,0.16,18.54-14.17,16.79c-0.88,4.83-0.33,10.88-3.08,14.09
	c-2.29,2.67-8.47,2.01-13.71,2.96c0,9.03,0,18.94,0,29.27c4.65,0,9.04,0,13.45,0c-0.06-14.32,2.22-16.56,14.87-15.97
	c2-5.37,3.1-14.13,5.87-14.69c8.79-1.78,18.23-0.9,27.31,0.06c1.3,0.14,3.04,6.51,2.58,9.71c-0.37,2.59-3.33,5.71-5.9,6.82
	c-2.71,1.18-6.34,0.26-9.56,0.26c0.25,14.88-2.09,17.18-16.79,15.96c0.32,2.57,0.89,4.97,0.84,7.36c-0.04,2.09-0.79,4.17-1.41,7.18
	c10.59,0,20.4,0,29.54,0c1.62-5.35,2.31-14.22,4.85-14.78c8.53-1.9,17.77-1.38,26.61-0.49c1.9,0.19,4.45,5.78,4.5,8.92
	c0.04,2.57-2.65,6.17-5.12,7.53c-2.67,1.48-6.48,0.9-10.65,1.29c1.06,11.01-1.81,19.13-16.5,14.99
	c-0.66,8.26,2.57,18.28-11.74,16.85c-23.01-2.31-23.07-1.71-22.73-15.36c-15.49-0.95-17.08-2.54-16-16.72c-9.63,0-19.22,0-29.81,0
	c0.9,11.28-2.03,19.21-15.39,15.65c-2.33,17.23-2.42,17.31-18.44,16.45c2.03,10.83-0.94,17.78-13.94,15.42
	c-0.55,4.78-1.04,9.07-1.64,14.32c12.04-1.51,18.83,2.98,15.52,16.35c15.41-1.22,16.25-0.52,19.12,15.71
	c12.95-1.88,16.2,5.19,14.24,16.58l-0.27-0.29c9.98,0,19.97,0,29.95,0c-0.17-13.89,2.07-16.22,15.75-16.32
	c0.17-14.24,6.88-18.34,27.01-15.97c10.57,1.24,9.19,8.65,7.13,15.87c19.36,2.47,19.4,2.5,17.25,15.86
	c0.87,0.39,1.94,1.33,2.76,1.15c7.42-1.63,13.48-0.01,13.69,8.48c0.24,9.25-6.14,10.84-13.96,9.25c-1.46-0.3-3.01-0.23-4.51-0.19
	c-15.74,0.43-15.74,0.44-16.79-15.29c-9.5,0-19.06,0-29.37,0c0,4.29,0,8.77,0,13.29c15.06,0.04,16.94,1.95,15.79,16.9
	c2.89-0.18,6.53-1.53,8.27-0.26c3.42,2.5,7.62,6.26,7.97,9.84c0.25,2.63-4.72,7.57-8.08,8.34c-5.89,1.34-12.38,0.77-18.52,0.1
	c-9.95-1.08-7.91-8.64-7.31-15.16c-16.82-2.07-17.91-3.14-16.02-16.59c-4.65-0.25-9.24-0.5-14.45-0.79c0,10.53,0,20.46,0,30.43
	c14.41-1.27,17.11,1.44,16.02,15.55c16.9,0.79,17.64,1.66,14.95,17.66c15.96-2.95,16.99-1.62,16.59,14.26
	c-0.34,13.48,0.67,26.99,1.12,40.48c0.23,7.13-2.61,11.31-10.29,11.27c-15.69-0.08-31.37,0-47.06-0.12
	c-8-0.06-9.72-2.69-10.28-15.75c-11.95,1.21-18.36-3.75-15.58-16.6c-15.24,0.47-16.18-0.48-16.77-16.61c-9.7,0-19.43,0-29.71,0
	c0,4.69,0,9.23,0,13.82c14.92-0.2,17.31,2.12,16.23,14.06c5.34,2.49,13.65,3.95,14.44,7.22c1.99,8.22,1.11,17.32,0.13,25.93
	c-0.2,1.76-5.91,4.06-8.99,3.94c-2.45-0.09-5.67-3.04-6.93-5.54c-1.34-2.67-0.79-6.29-1.06-9.49c-16.27-2.08-16.27-2.08-15.93-17.06
	c-4.27,0-8.57,0-13.79,0c0,9.46,0,19.13,0,28.1c4.97,1.95,13.51,3.02,14.25,6.02c2.03,8.26,1.27,17.37,0.5,26.05
	c-0.17,1.9-5.16,4.9-7.66,4.65c-3-0.29-6.75-2.94-8.26-5.64c-1.57-2.8-0.87-6.89-1.16-10.43c-15.81-0.69-17.07-1.95-15.59-16.47
	c-7.56-0.36-17.49,1.91-17.09-10.72c0.76-23.87,0.81-23.87,16.23-24.62c0.34-14.95,1.71-16.29,16.19-15.78
	c0.58-10.42,1.15-20.85,1.73-31.27c-15.73,2.95-17.88,1.18-17.73-14.62c-15.56,0.09-16.5-0.81-16.24-15.51
	c-15.27-0.93-15.82-1.47-16.44-16.62c-4.3,0-8.63,0-12.96,0c-0.37,14.81-2.41,16.8-16.14,15.94c-0.45,15.59-1.53,16.63-16.67,16.08
	c0.52,15.63-2.28,18-17.42,14.74c0.51,10.18,1.01,20.36,1.52,30.58c15.85,1.33,16.9,2.39,15.48,16.62
	c7.71,0.49,17.68-1.54,16.69,11.44c-1.84,24.09-1.85,24.09-16.16,23.66c-0.01,15.33-1.46,16.8-16.41,15.76
	c0.16,2.85,1.46,6.39,0.22,8.18c-2.41,3.5-6.39,8.47-9.44,8.29c-3.28-0.2-7.9-5.16-8.94-8.88c-1.52-5.43-0.96-11.68-0.21-17.45
	c1.29-9.93,8.98-8.9,16.44-7.56c0-10.52,0-20.24,0-30.69c-4.48,0-9.03,0-13.64,0c-0.79,15.98-0.79,15.98-16.17,16.39
	c0,1.99,0.03,4.01-0.01,6.03c-0.13,6.76-3.49,10.79-10.34,10.13c-6.82-0.66-9.41-5.22-8.36-11.89c0.35-2.22,0.98-4.46,0.94-6.67
	c-0.31-15.96-0.35-15.96,14.86-17.09c-0.27-14.3,0.66-15.21,16.63-16c0-4.26,0-8.56,0-13.58c-9.59,0-19.32,0-29.08,0
	c-2.82,16.93-2.82,16.93-17.06,16.61c-0.48,15.03-1.17,15.73-16.32,16.65c0.67,14.16-0.8,15.32-15.4,15.1
	c-13.45-0.2-26.92,0.09-40.36,0.56c-8.79,0.31-11.68-3.48-11.15-12.07c0.81-13.15,1.29-26.38,0.79-39.53
	c-0.58-15.56,0.58-16.97,16.75-14.27c-3.24-15.5-1.38-17.73,14.05-16.87c1.08-16.33,2.64-17.87,16.79-15.92c0-9.94,0-19.81,0-30.32
	c-4.59,0-9.16,0-13.74,0c0.37,14.96-0.5,15.82-15.97,16.3c-0.01,15.38-0.48,15.77-15.93,14.99c-2.59-0.13-5.25,0.16-7.81,0.65
	c-7.15,1.36-11.13-2.64-11.51-8.69c-0.4-6.38,3.75-10.27,10.73-9.77c1.75,0.13,3.48,0.53,5.3,0.83
	c0.49-16.09,1.19-16.78,16.69-17.35c0-4.29,0-8.58,0-13.55c-9.74,0-19.53,0-28.11,0c-2.3,5.75-3.47,14.12-6.29,14.71
	c-8.45,1.78-17.58,0.97-26.34,0.07c-1.72-0.18-4.13-5.31-4.03-8.07c0.1-2.74,2.38-6.32,4.78-7.81c2.59-1.61,6.42-1.22,10.53-1.83
	c0.08-10.45,2.22-19.77,17.28-14.26c1.58-7.6-1.99-18.6,10.85-17.55c23.01,1.88,23,2.07,22.85,15.87c16.76,0.99,17.82,2,16.72,16.37
	c10.29,0,20.54,0,30.8,0l-0.29,0.31c-1.53-14.4-1.53-14.4,14.5-17.03c0.97-15.15,3.14-17.04,17.37-14.79
	c0.84-4.51,0.37-10.08,2.9-13.27c2.27-2.86,7.83-3.12,13.3-4.99c0.12-2.53,0.33-6.99,0.58-12.37c-10.29,0.45-19.85-0.89-15.31-15.48
	c-17.44-0.27-17.51-0.33-18.13-15.93c-16.09-1.12-16.79-1.89-15.28-16.74l0.28,0.3c-10.01,0-20.02,0-30.03,0
	c-0.55,15.08-2.17,16.66-16.81,15.73c-0.73,6.81,2.65,16.59-9.47,16.73c-23.59,0.27-23.59,0.22-25.5-16.16
	c-11.38,1.38-18.23-2.54-15.61-16c-3.86-0.36-7.98,0.46-10.11-1.23c-2.97-2.36-6.08-6.62-6.04-10.03c0.03-2.66,4.44-6.97,7.48-7.55
	c6.15-1.18,13.42-2.07,18.84,0.22c4.71,1.98,7.52,8.5,11.16,13.02c-0.77,0.93-1.54,1.86-2.31,2.79c9.53,0,19.06,0,29.34,0
	c0-4.45,0-8.62,0-13.71c-10.46,0.47-20.08-1.19-15.54-16.07c-15.05-0.22-19.06-3.59-16.09-13.07c0.58-1.85,2.2-4.74,3.44-4.8
	c8.86-0.4,17.96-1.26,26.48,0.48c2.55,0.52,3.49,8.88,5.34,14.15c14.07,0.5,15.63,2.03,14.78,16.38c4.33,0,8.65,0,13.72,0
	c0-9.43,0-19.26,0-29.17c-4.43-0.83-10.46-0.29-13.6-3.05c-2.72-2.39-2.17-8.52-3.11-13.2c-15.84-0.48-17.13-2.03-13.95-17.62
	c-17.24,2.32-16.91,2.32-16.73-15.27c0.13-13.15-0.76-26.32-1.19-39.48c-0.22-6.5,2.38-11.14,9.3-11.26
	c16.29-0.29,32.6-0.49,48.87,0.02c10.12,0.32,9.44,8.42,9,15.54c15.51,1.21,16.49,2.21,16.03,16.25c4.48,0.85,10.25,0.31,13.15,2.94
	c2.9,2.63,2.94,8.43,4.59,14.03c8.53,0,18.44,0,28.84,0c0-4.27,0-8.52,0-12.89c-16.27-2.31-17.09-3.1-16.35-14.88
	c-5.34-2.34-13.86-3.68-14.62-6.87c-1.98-8.33-1.05-17.52-0.08-26.23c0.18-1.61,5.99-3.69,9.11-3.54c2.48,0.12,5.74,2.83,6.95,5.25
	c1.36,2.7,0.79,6.37,1.06,9.61c16.22,1.66,16.22,1.66,16.07,16.92c4.32,0,8.66,0,13.87,0c0-9.77,0-19.72,0-29.67
	c-15.39-0.15-15.35-0.15-15.24-16.96c0.01-2.22-0.67-4.43-1-6.65c-0.99-6.76,2.05-10.95,8.72-11.25c6.42-0.3,10.03,3.52,10.09,10.08
	c0.02,1.77-0.74,3.55-1.14,5.32c5.27,1,11.38,0.45,14.5,3.25c2.71,2.43,2.02,8.64,2.98,13.97c6.93-0.44,15.94-1.71,15.92,9.88
	c-0.04,24.66-0.23,24.66-16.39,25.07c-0.1,15.32-1.03,16.24-16.1,15.75c-0.47,10.46-0.95,20.92-1.42,31.39
	C466.66,364.42,469.7,366.93,468.11,381.5z M498.02,223.46c1.16,4.66,2.32,9.31,3.65,14.63c1.96-0.42,4.37-1.3,6.79-1.34
	c2.26-0.04,4.54,0.8,6.38,1.16c0.9-5.64,0.1-11.9,2.75-14.26c3.09-2.74,9.21-2.06,13.97-2.85c0-10.16,0-20.4,0-30.2
	c-5.52,0-10.06,0-15.11,0c0,7.01-0.74,13.4,0.17,19.55c1.5,10.18-2.09,14.06-12.22,12.46c-2.07-0.33-4.35,0.61-6.53,0.97
	L498.02,223.46z M497.87,223.56c0.59-10.93,1.17-21.85,1.75-32.83c-16.11,0.05-16.11,0.05-17.5-16.51c-4.59,0-9.15,0-13.81,0
	c0,5,0,9.81,0,15.16c8.69-1.4,16.41-1.29,16.68,9.4c0.19,7.47-0.83,14.97-1.27,21.89c5.54,1.08,9.92,1.93,14.31,2.78
	C498.02,223.46,497.86,223.57,497.87,223.56z M419.45,77.94c-2.52-16.92-2.1-17.46,15.2-19.28c0-5.37,0-10.75,0-16.13
	c0,0,0.29,0.3,0.26,0.27c-4.72,1.17-9.42,2.38-14.9,3.78c3.15,12.78-4.1,16.68-16.77,14.86c0.73,6.47,1.33,11.86,1.94,17.25
	l-0.03-0.05c4.87-0.34,9.74-0.68,14.61-1.02L419.45,77.94z M403.78,188.65c-0.77-4.57-1.53-9.15-2.39-14.3c-4.21,0-8.7,0-13.19,0
	c-0.52,15.53-1.5,16.53-15.9,16.71c-0.75,5.26-1.5,10.52-2.25,15.78c0,0-0.29-0.3-0.29-0.3c5.38-0.01,10.76-0.01,16.14-0.02
	c0,0-0.45,0.42-0.45,0.42c0.21-1.85,0.85-3.77,0.57-5.55c-1.56-10.19,2.69-14.04,12.7-12.34c1.74,0.3,3.67-0.54,5.52-0.85
	L403.78,188.65z M370.06,801.89c0.63,5.29,1.26,10.58,1.89,15.88c15.03,0.65,15.81,1.44,16.09,16.81c4.49,0,9.02,0,13.99,0
	c0-4.73,0-9.31,0-15.44c-16.33,5.93-17.28-4.28-16.53-14.52c-5.79-0.9-10.76-1.67-15.73-2.44
	C369.79,802.18,370.06,801.88,370.06,801.89z M499.14,786.61c-4.85,0.34-9.71,0.68-15.88,1.12c0,10.9,0,21.9,0,32.89
	c0,0-0.27-0.17-0.27-0.17c5.21-0.94,10.42-1.87,15.72-2.82c0-10.37,0-20.89,0-31.42L499.14,786.61z M435.77,172.79
	c-16.39,3.79-19.42,0.77-16.14-16.12c0,0,0.34,0.31,0.34,0.31c-5.35,0.01-10.7,0.02-16.05,0.02l0.2-0.36c0,5.04,0,10.08,0,15.02
	c15.81,1.64,15.81,1.64,15.82,19.39c0,0-0.26-0.37-0.26-0.37c4.92-0.86,9.84-1.71,14.58-2.53c0.38-5.23,0.76-10.52,1.15-15.81
	L435.77,172.79z M193.15,528.1c10.26,0,20.53,0,31.68,0c0-5.41,0-10.63,0-15.86l0.3,0.32c-10.42,0-20.83,0-31.67,0
	c0,5.79,0,10.8,0,15.81L193.15,528.1z M791.31,512.26c0,5.03,0,10.07,0,15.84c10.82,0,21.25,0,31.69,0l-0.31,0.27
	c0-4.98,0-9.95,0-15.8c-10.92,0-21.28,0-31.65,0L791.31,512.26z M823,480.87c-10.15,0-20.3,0-31.67,0c0,5.3,0,10.59,0,15.88
	l-0.27-0.38c10.35,0,20.7,0,31.6,0c0-5.84,0-10.81,0-15.79L823,480.87z M224.83,496.71c0-5,0-9.99,0-15.84c-10.89,0-21.29,0-31.69,0
	c0,0,0.33-0.28,0.33-0.28c0,4.98,0,9.96,0,15.81c10.88,0,21.27,0,31.66,0L224.83,496.71z M806.87,59.22
	c1.03,0.34,2.07,1.01,3.09,0.97c14.33-0.6,15.6,1.14,12.75,17.68c5.39-0.14,10.77-0.28,16.16-0.42l-0.43,0.45
	c0-5.44,0-10.88,0-16.29c-15.57,0.27-16.27-0.45-16.77-16.4c-4.54,0-9.08,0-13.69,0c-0.27,4.9-0.53,9.55-0.78,14.21L806.87,59.22z
	 M256.84,802.44c-4.57,0.6-9.15,1.19-13.97,1.82c-1.84,15.77-1.84,15.77-16.63,16.35c-0.36,5.3-0.73,10.6-1.09,15.89
	c0,0-0.32-0.35-0.32-0.35c4.92-0.83,9.85-1.66,15.61-2.63c-2.69-12.44,3.34-17.36,15.96-15.47c0-5.83,0-10.94,0-16.04L256.84,802.44
	z M256.82,109.12c-0.12,5.38-0.24,10.76-0.36,16.13c5.09-0.42,10.17-0.85,15.35-1.28c1.78-16.07,2.27-16.54,16.89-15.86
	c0.61-4.96,1.22-9.9,1.83-14.85c0,0,0.44,0.41,0.44,0.41c-5.46,0-10.91,0-16.37,0c0.72,16.18-0.44,17.13-18.21,15.8L256.82,109.12z
	 M499.33,77.96c5.18-0.76,10.35-1.54,15.67-2.34c0.58-5.19,1.22-10.88,1.86-16.58l0.27,0.28c-5.62,0.92-11.24,1.85-16.53,2.72
	c-0.31,5.43-0.62,10.83-0.93,16.23C499.67,78.26,499.32,77.94,499.33,77.96z M498.83,852.01c6.17,0,12.34-0.01,18.5-0.01
	c0,0-0.31,0.32-0.31,0.32c-0.95-5.27-1.9-10.55-2.82-15.67c-4.69,0-9.32,0-12.84,0c-0.82,5.84-1.5,10.78-2.19,15.71L498.83,852.01z
	 M306.36,77.43c5.39,0,10.78,0.01,16.17,0.01l-0.37,0.44c-0.26-5.36-0.52-10.72-0.8-16.56c-4.59,0-9.24,0-14.56,0
	c0,5.55,0,11.05,0,16.55L306.36,77.43z M385.57,867.84c5.28-0.4,10.56-0.8,15.84-1.2c0.77-4.77,1.57-9.71,2.36-14.65
	c0,0,0.46,0.44,0.46,0.44c-5.49,0-10.98,0-15.67,0c-1,5.84-1.84,10.78-2.68,15.72C385.89,868.14,385.57,867.84,385.57,867.84z
	 M596.23,77.45c5.38-0.01,10.76-0.01,16.15-0.02c0,0-0.43,0.42-0.43,0.42c0-5.48,0-10.96,0-16.67c-5.33,0-9.93,0-14.29,0
	c-0.38,5.95-0.73,11.31-1.07,16.67C596.58,77.85,596.23,77.45,596.23,77.45z M693.61,77.44c5.39,0,10.78,0,16.17-0.01l-0.42,0.46
	c0-5.45,0-10.9,0-16.57c-5.4,0-9.97,0-14.6,0c-0.26,5.73-0.51,11.14-0.76,16.55L693.61,77.44z M791,77.43
	c5.39,0.14,10.78,0.27,16.17,0.41c-0.1-6.21-0.2-12.42-0.3-18.62c0,0,0.32,0.2,0.32,0.2c-4.96,0.79-9.92,1.58-15.78,2.51
	c0,4.95,0,10.46,0,15.96C791.41,77.89,791,77.43,791,77.43z M498.36,157.35c1.12,5.06,2.23,10.13,3.35,15.2
	c4.34,0.01,8.67,0.01,13.18,0.01c0-5.21,0-10,0-14.89c-6.16,0-11.51,0-16.86,0L498.36,157.35z M597.75,804.36
	c-0.38,4.6-0.77,9.17-1.15,13.73l-0.37-0.2c5.36,0.02,10.73,0.04,16.09,0.06l-0.27,0.15c0.1-5.32,0.2-10.65,0.3-15.97
	C607.42,802.89,602.48,803.64,597.75,804.36z M869.6,93.7c-5.09,0-10.22,0-15.35,0l0.44-0.43c0,5.38-0.01,10.77-0.01,16.15
	l-0.41-0.36c6.21,0.12,12.41,0.23,18.62,0.35C871.81,104.22,870.72,99.02,869.6,93.7z M385.89,206.52c0,5.39-0.01,10.77-0.01,16.16
	c0,0-0.35-0.27-0.35-0.27c5.57-0.54,11.13-1.07,16.48-1.59c0-4.67,0-8.94,0-13.88c-5.71,0-11.14,0-16.57,0L385.89,206.52z
	 M614.54,788.07c-0.88,5.14-1.67,9.74-2.46,14.34c5.19,0,10.37,0,16.1,0c0-5.94,0-11.03,0-16.11
	C623.31,786.93,618.44,787.56,614.54,788.07z M177.29,77.44c5.39,0,10.77,0,16.16,0c0,0-0.34,0.37-0.34,0.37
	c-0.42-5.33-0.83-10.66-1.3-16.66c-4.58,0.21-9.17,0.41-14.09,0.64c0,5.75,0,10.93,0,16.11L177.29,77.44z M612.37,77.43
	c0.66,4.6,1.32,9.19,2.05,14.24c4.11,0.48,8.95,1.04,13.79,1.6c0,0-0.45,0.4-0.45,0.4c0-5.2,0-10.41,0-15.82
	c-5.69,0-10.75,0-15.81,0L612.37,77.43z M759.34,125.3c0-5.39,0-10.79,0-16.18l0.47,0.4c-6.27,0.01-12.54,0.01-18.81,0.02l0.45-0.42
	c0,5.39-0.01,10.78-0.01,16.17c0,0-0.42-0.35-0.42-0.35c6.28,0,12.55-0.01,18.83-0.01L759.34,125.3z M563.63,61.52
	c-5.08,0-9.62,0-14.21,0c0,5.17,0,9.77,0,14.47c5,0,9.5,0,14.21,0C563.63,71.08,563.63,66.32,563.63,61.52z M385.89,140.82
	c0.84,4.93,1.67,9.86,2.69,15.82c4.67,0,10.11,0,15.55,0c0,0-0.2,0.36-0.21,0.36c-0.86-4.91-1.71-9.83-2.56-14.66
	c-5.25-0.39-10.57-0.78-15.89-1.17L385.89,140.82z M405.18,78.69c-5.77-0.42-11.53-0.83-17.53-1.25c0,5.63,0,10.21,0,14.6
	c5.13,0,9.81,0,12.54,0c2.01-5.42,3.49-9.4,4.97-13.39C405.15,78.65,405.18,78.69,405.18,78.69z M418.78,821.64
	c0-5.99,0-11.98,0-17.86c-5.89,0-10.13,0-14.59,0c0,4.9,0,9.56,0,13.13c5.49,1.63,10.17,3.03,14.86,4.42L418.78,821.64z
	 M483.81,42.82c0.25,5.57,0.5,11.14,0.74,16.45c5.19,0,9.74,0,14.06,0c0-5.05,0-9.37,0-12.87c-5.54-1.18-10.34-2.2-15.15-3.22
	L483.81,42.82z M288.97,803.81c-5.16,0-9.64,0-14.24,0c0,4.85,0,9.44,0,14.43c4.95,0,9.27,0,14.24,0
	C288.97,812.76,288.97,808.2,288.97,803.81z M177.3,93.59c0-5.38,0-10.77-0.01-16.15c0,0,0.43,0.46,0.43,0.46
	c-5.13,0-10.26,0-15.82,0c-0.31,5.02-0.6,9.63-0.87,14.03c5.97,0.47,11.29,0.88,16.62,1.3L177.3,93.59z M806.84,399.33
	c0.01-5.4,0.01-10.79,0.02-16.19c0,0,0.33,0.33,0.33,0.33c-5.4,0-10.79,0.01-16.19,0.01l0.41-0.33c0,4.96,0,9.92,0,15.75
	c5.82,0,10.8,0,15.78,0L806.84,399.33z M209.3,399.32c-5.39-0.12-10.79-0.23-16.18-0.35c0.11,5.39,0.22,10.78,0.33,16.17l-0.27-0.39
	c4.95,0,9.9,0,14.7,0c0.36-5.86,0.67-10.83,0.97-15.8L209.3,399.32z M822.69,415.15c0.11-5.38,0.23-10.76,0.34-16.14
	c-5.4,0.11-10.79,0.21-16.19,0.32c0,0,0.35-0.44,0.35-0.44c0.31,5.29,0.62,10.58,0.93,15.85c5.46,0,10.17,0,14.88,0L822.69,415.15z
	 M369.73,899.84c0-5.39,0-10.78,0-16.17c0,0,0.25,0.35,0.25,0.35c-5.38,0.02-10.76,0.04-16.15,0.05l0.39-0.41
	c0,5.39,0,10.79,0.01,16.18l-0.37-0.4c5.37,0.01,10.75,0.03,16.12,0.04L369.73,899.84z M274.72,899.84c0-5.39,0-10.78,0-16.17
	l0.49,0.38c-6.27,0-12.54,0-18.82,0l0.43-0.39c0,5.39,0,10.78,0,16.17l-0.42-0.38c6.29,0.01,12.58,0.03,18.87,0.04L274.72,899.84z
	 M467.46,867.83c0,5.39,0,10.78,0,16.16l-0.33-0.33c4.91-0.27,9.81-0.53,15.83-0.86c0-4.67,0-9.82,0-14.97l0.24,0.35
	c-5.37,0.02-10.74,0.03-16.12,0.05L467.46,867.83z M338.38,867.83c0.34,4.96,0.68,9.91,1.03,14.94c4.93,0.3,9.87,0.6,14.81,0.9
	c0,0-0.39,0.41-0.39,0.41c0-5.2,0-10.39,0-15.84c-6.06,0-10.94,0-15.82,0L338.38,867.83z M823,464.72c0,5.38,0,10.76,0.01,16.15
	c0,0-0.34-0.29-0.34-0.29c5.19-0.39,10.39-0.79,15.59-1.2c0.01-4.85,0.01-9.68,0.01-14.19c-5.64,0-10.63,0-15.62,0L823,464.72z
	 M888.4,480.87c0-5.39,0-10.78,0.01-16.17c0,0,0.45,0.41,0.45,0.41c-5.35,0-10.7,0-16.51,0c0.31,5.67,0.56,10.21,0.76,14.06
	c5.79,0.48,10.75,0.9,15.7,1.31C888.81,480.48,888.4,480.87,888.4,480.87z M225.15,383.47c-5.39-0.01-10.78-0.01-16.17-0.02
	l0.31-0.31c0.01,5.39,0.02,10.79,0.02,16.18c0,0-0.44-0.37-0.44-0.37c5.03,0,10.07,0,14.92,0c0.37-5.91,0.67-10.86,0.98-15.81
	L225.15,383.47z M467.46,124.97c0,5.39,0,10.78,0,16.17c0,0-0.35-0.4-0.35-0.4c5.31,0.03,10.62,0.07,15.93,0.1
	c0,0-0.31,0.3-0.32,0.31c-0.01-5.13-0.01-10.25-0.01-14.91c-5.85-0.34-10.72-0.62-15.59-0.9
	C467.13,125.33,467.46,124.97,467.46,124.97z M435.46,140.81c5.39,0,10.77,0,16.16,0l-0.32,0.32c0-5.39-0.01-10.78-0.01-16.17
	c0,0,0.35,0.4,0.35,0.4c-5.16,0.27-10.32,0.53-15.8,0.81c0,5.16,0,10.05,0,14.95L435.46,140.81z M224.83,512.24
	c5.25,0,10.5,0,16.14,0c0-5.29,0-10.18,0-15.53c-5.71,0-10.92,0-16.14,0c0,0,0.3-0.31,0.3-0.31c0,5.39,0,10.78,0,16.16
	L224.83,512.24z M791.33,496.75c-5.02,0-10.04,0-15.79,0c-0.33,4.95-0.64,9.55-0.98,14.71c5.69,0.27,11.22,0.53,16.75,0.8
	c0,0-0.28,0.31-0.28,0.31c0.01-5.4,0.02-10.8,0.03-16.19L791.33,496.75z M451.62,851.99c-0.1,5.39-0.2,10.77-0.3,16.16
	c5.38-0.1,10.77-0.21,16.15-0.31c0,0-0.37,0.4-0.37,0.4c-0.25-5.29-0.51-10.59-0.76-15.85c-5.57,0-10.31,0-15.05,0L451.62,851.99z
	 M322.53,851.99c0.22,4.67,0.44,9.34,0.68,14.48c4.79,0.43,9.98,0.89,15.17,1.36c0,0-0.37,0.41-0.37,0.41
	c-0.27-5.16-0.53-10.32-0.82-15.87c-5.13,0-10.06,0-14.99,0C322.2,852.37,322.53,851.99,322.53,851.99z M111.58,140.8
	c5.37,0.11,10.75,0.21,16.12,0.32c-0.1-5.38-0.19-10.77-0.29-16.15c0,0,0.26,0.35,0.26,0.35c-4.92,0.34-9.83,0.67-14.58,0.99
	c-0.41,5.03-0.82,9.94-1.22,14.86L111.58,140.8z M240.99,367.63c-5.39-0.01-10.78-0.02-16.17-0.03c0,0,0.32-0.32,0.32-0.32
	c0,5.39,0.01,10.79,0.01,16.18c0,0-0.38-0.33-0.38-0.33c5.2-0.37,10.41-0.75,15.79-1.13c0-5.22,0-9.96,0-14.69L240.99,367.63z
	 M290.54,93.27c4.85-0.45,9.69-0.9,14.4-1.34c0.47-4.82,0.95-9.66,1.42-14.49c0,0,0.43,0.44,0.43,0.44c-5.08,0-10.15,0-15.82,0
	c0,5.65,0,10.73,0,15.8C290.98,93.68,290.54,93.27,290.54,93.27z M483.32,93.55c4.91-0.71,9.81-1.43,15.31-2.24
	c0.21-3.88,0.47-8.61,0.71-13.36c-0.01-0.02,0.34,0.31,0.33,0.29c-5.03-0.26-10.05-0.51-15.04-0.76
	c-0.34,5.94-0.63,11.17-0.93,16.41C483.69,93.9,483.31,93.54,483.32,93.55z M467.81,27.03c-0.45-4.65-0.93-9.27-1.41-13.97
	c-4.8,0-9.58,0-13.77,0c-0.56,5-1.07,9.57-1.58,14.13l-0.29-0.34c5.76-0.04,11.52-0.08,17.27-0.12
	C468.04,26.73,467.79,27.06,467.81,27.03z M533.36,93.12c-0.97-4.89-1.96-9.77-3.01-14.95c-3.97,0-8.56,0-13.04,0
	c0,5.08,0,9.44,0,13.76c5.75,0.3,11.06,0.57,16.37,0.84C533.69,92.78,533.34,93.13,533.36,93.12z M888.4,544.27
	c0.01-5.4,0.01-10.79,0.02-16.19c0,0,0.36,0.34,0.36,0.34c-5.28,0.58-10.57,1.17-14.33,1.58c-1.9,4.77-3.51,8.8-5.12,12.83
	l-0.08-0.09c6.53,0.38,13.06,0.77,19.59,1.15L888.4,544.27z M467.47,141.13c-5.39,0-10.78,0-16.17-0.01c0,0,0.32-0.32,0.32-0.32
	c0,5.39,0,10.78,0,16.16c0,0-0.32-0.39-0.32-0.39c5.18,0,10.37,0,15.82,0c0-5.92,0-10.88,0-15.85
	C467.12,140.73,467.47,141.13,467.47,141.13z M564.53,156.98c0.11-5.39,0.22-10.79,0.33-16.18c-5.39,0.11-10.77,0.22-16.16,0.33
	c0,0,0.4-0.38,0.4-0.38c0,5.24,0,10.48,0,15.82c5.92,0,10.85,0,15.78,0L564.53,156.98z M403.78,851.98
	c5.42,0.11,10.83,0.22,16.25,0.33c-0.14-5.39-0.28-10.78-0.42-16.17c0,0,0.41,0.44,0.41,0.44c-5.26,0-10.53,0-15.78,0
	c0,5.85,0,10.84,0,15.83L403.78,851.98z M627.83,222.67c0.09-5.39,0.17-10.78,0.26-16.16c-5.35,0.12-10.7,0.24-16.05,0.36
	c0,0,0.36-0.26,0.36-0.26c0.66,4.9,1.33,9.79,1.93,14.26c4.73,0.52,9.29,1.03,13.85,1.53L627.83,222.67z M549.57,108.76
	c-0.17,5.51-0.34,11.02-0.51,16.53l-0.37-0.32c5.39,0.11,10.79,0.22,16.18,0.34c-0.11-5.4-0.23-10.79-0.34-16.19l0.35,0.37
	c-5.22-0.13-10.45-0.27-15.67-0.4L549.57,108.76z M516.86,59.04c4.91,0.01,9.81,0.01,13.82,0.01c0.77-5.83,1.44-10.8,2.1-15.77
	c0,0,0.3,0.3,0.3,0.29c-5.23,0.85-10.45,1.7-15.95,2.59c0,4.35,0,8.75,0,13.16C517.13,59.32,516.86,59.04,516.86,59.04z
	 M451.29,124.96c5.39,0,10.78,0.01,16.17,0.01c0,0-0.34,0.37-0.34,0.37c0.02-5.32,0.05-10.65,0.07-15.97c0,0,0.35,0.37,0.35,0.37
	c-5.61,0.14-11.23,0.29-16.84,0.43c0,0,0.3-0.35,0.28-0.33c0.2,5.19,0.42,10.36,0.65,15.53
	C451.64,125.36,451.29,124.96,451.29,124.96z M209.31,609.65c-0.01,5.39-0.01,10.79-0.02,16.18c0,0-0.32-0.33-0.32-0.33
	c5.39,0,10.78-0.01,16.18-0.01c0,0-0.42,0.34-0.42,0.34c-0.28-4.96-0.56-9.92-0.85-14.97c-5.02-0.28-9.94-0.55-14.86-0.82
	L209.31,609.65z M791,625.49c5.39,0.01,10.79,0.01,16.18,0.02c0,0-0.32,0.31-0.32,0.31c-0.01-5.39-0.01-10.79-0.02-16.18l0.34,0.41
	c-4.96,0-9.91,0-15.76,0c0,5.81,0,10.8,0,15.79L791,625.49z M612.03,206.87c0.14-5.2,0.29-10.4,0.43-15.6l0.24,0.31
	c-5.5-0.18-10.99-0.36-16.49-0.54l0.35-0.2c0.45,4.74,0.91,9.49,1.33,13.9c4.95,0.64,9.72,1.26,14.49,1.87L612.03,206.87z
	 M369.45,109.05c-5.21,0.15-10.42,0.31-15.62,0.46l0.39-0.4c-0.11,5.39-0.21,10.79-0.32,16.18c5.39-0.11,10.77-0.22,16.16-0.33
	l-0.41,0.35c-0.18-5.51-0.36-11.03-0.54-16.54C369.11,108.77,369.45,109.05,369.45,109.05z M225.15,625.49
	c-0.01,5.4-0.01,10.79-0.02,16.19c0,0-0.32-0.33-0.32-0.33c5.39-0.01,10.78-0.01,16.17-0.02l-0.38,0.29c0-4.97,0-9.95,0-14.9
	c-5.93-0.34-10.9-0.62-15.87-0.9L225.15,625.49z M419.95,191.05c-5.39-0.8-10.77-1.6-16.16-2.4c0,0,0.45-0.45,0.45-0.45
	c0,5.73,0,11.45,0,16.82c5.18,0,9.68,0,13.41,0c0.76-5.33,1.41-9.83,2.05-14.34L419.95,191.05z M775.16,641.34
	c5.39,0.01,10.78,0.02,16.17,0.02l-0.32,0.32c-0.01-5.39-0.01-10.79-0.02-16.18c0,0,0.43,0.35,0.43,0.35
	c-5.29,0.37-10.58,0.73-15.85,1.1c0,5.24,0,9.97,0,14.69L775.16,641.34z M353.09,801.23c-4.63,1.23-9.27,2.44-13.83,3.62
	c0,4.19,0,8.72,0,13.24c5.07,0,9.67,0,14.66,0c-0.34-6.07-0.64-11.5-0.95-16.94C352.97,801.16,353.07,801.21,353.09,801.23z
	 M596.21,191.03c0.09-6.19,0.17-12.38,0.26-18.58c-5.36,0.11-10.72,0.23-16.08,0.34l0.37-0.48c0.3,5.33,0.59,10.67,0.88,15.78
	c5.08,0.93,10,1.83,14.93,2.73L596.21,191.03z M384.48,787.38c1.63,4.81,3.2,9.65,4.74,14.41c3.95,0,8.27,0,12.67,0
	c0-5.08,0-9.64,0-14.25c-6.28,0-11.97,0-17.66,0C384.22,787.55,384.41,787.42,384.48,787.38z M338.39,93.27
	c0.34,4.93,0.68,9.86,1.02,14.92c4.92,0.3,9.87,0.61,14.82,0.92c0,0-0.39,0.4-0.39,0.4c0-5.2,0-10.41,0-15.85
	c-5.92,0-10.85,0-15.78,0L338.39,93.27z M628.21,93.27c0.87,4.87,1.75,9.74,2.63,14.68c5.09,0.39,10.33,0.78,15.56,1.18
	c0,0-0.32,0.3-0.32,0.3c-0.77-4.97-1.55-9.93-2.45-15.76c-4.96,0-10.42,0-15.87,0L628.21,93.27z M435.29,93.98
	c0.44,4.94,0.89,9.85,1.25,13.7c5.28,0.8,9.86,1.49,14.45,2.15c0.02-0.02-0.28,0.33-0.26,0.31c0.02-5.36,0.02-10.71,0.02-16.66
	c-5.61,0.3-10.66,0.56-15.7,0.83C435.04,94.31,435.31,93.96,435.29,93.98z M564.53,109.11c5-0.28,9.99-0.55,15.84-0.87
	c0-4.94,0-9.95,0-14.96l0.34,0.39c-5.16,0-10.32,0-15.11,0c-0.28,6.02-0.5,10.92-0.73,15.82L564.53,109.11z M725.61,93.27
	c0.47,4.88,0.93,9.76,1.41,14.73c4.76,0.37,9.6,0.74,14.44,1.12c0,0-0.45,0.42-0.45,0.42c0-5.21,0-10.42,0-15.85
	c-5.9,0-10.88,0-15.86,0L725.61,93.27z M369.73,883.67c5.08-0.27,10.16-0.53,15.84-0.83c0-4.86,0-9.93,0-15.01
	c0,0,0.32,0.3,0.32,0.3c-4.88,0.23-9.76,0.46-13.72,0.65c-0.81,5.61-1.5,10.42-2.19,15.23L369.73,883.67z M467.2,109.35
	c5.26-0.52,10.51-1.03,15.32-1.49c0.28-4.9,0.54-9.6,0.8-14.31c-0.01-0.01,0.37,0.35,0.36,0.34c-5.25-0.01-10.48-0.01-15.39-0.01
	c-0.27,5.93-0.5,10.89-0.73,15.84C467.55,109.72,467.2,109.36,467.2,109.35z M256.81,657.18c0,5.39,0.01,10.79,0.01,16.18
	c0,0-0.44-0.38-0.44-0.38c5.07,0,10.14,0,15.68,0c0-5.42,0-9.93,0-13.93c-5.7-0.53-10.68-1-15.66-1.47L256.81,657.18z
	 M661.92,109.12c4.95-0.34,9.9-0.67,14.84-1.01c0.33-4.95,0.66-9.89,0.99-14.84l0.37,0.4c-5.23,0-10.46,0-15.82,0
	c0,5.83,0,10.82,0,15.81L661.92,109.12z M240.99,93.27c0.45,4.88,0.91,9.77,1.37,14.76c4.74,0.36,9.6,0.72,14.45,1.09
	c0,0-0.42,0.36-0.42,0.36c0-5.22,0-10.44,0-15.81c-5.86,0-10.82,0-15.79,0L240.99,93.27z M759.34,109.11
	c4.52-0.3,9.03-0.61,14.05-0.94c0.55-4.65,1.16-9.78,1.77-14.9c0,0,0.43,0.43,0.43,0.43c-5.16,0-10.32,0-15.77,0
	c0,5.59,0,10.7,0,15.81L759.34,109.11z M240.98,641.33c0,5.39,0,10.79,0,16.18l-0.35-0.34c5.39,0,10.78,0,16.17,0
	c0,0-0.41,0.4-0.41,0.4c0-4.99,0-9.99,0-14.48c-5.83-0.54-10.82-1.01-15.8-1.48L240.98,641.33z M143.25,109.13
	c6.19,0.01,12.38,0.02,18.58,0.02c0,0-0.31,0.3-0.31,0.3c-0.96-5.21-1.93-10.42-2.86-15.46c-4.69,0-8.9,0-12.54,0
	c-0.92,5.58-1.74,10.51-2.55,15.44L143.25,109.13z M161.83,109.16c0,4.98,0,9.97,0,14.78c5.2,0.44,10.54,0.9,15.89,1.35
	c-0.13-5.39-0.27-10.78-0.4-16.17c0,0,0.44,0.42,0.44,0.42c-5.41-0.03-10.82-0.05-16.23-0.08L161.83,109.16z M838.86,77.44
	c-0.11,5.4-0.22,10.81-0.33,16.21c5.39-0.12,10.78-0.25,16.17-0.37c0,0-0.44,0.43-0.44,0.43c0-5.14,0-10.29,0-15.81
	c-5.48,0-10.65,0-15.82,0L838.86,77.44z M806.84,609.65c5.4,0.12,10.8,0.23,16.2,0.35c-0.12-5.4-0.24-10.79-0.35-16.19
	c0,0,0.31,0.41,0.31,0.41c-4.98,0-9.96,0-14.84,0c-0.36,5.84-0.67,10.84-0.98,15.83L806.84,609.65z M581.42,42.49
	c-0.69-4.49-1.39-8.98-2.04-13.2c-4.97-0.45-9.89-0.89-14.82-1.34c0,0,0.36-0.38,0.36-0.38c0.3,5.32,0.59,10.65,0.92,16.52
	c5.66-0.65,10.71-1.23,15.75-1.81C581.59,42.29,581.42,42.49,581.42,42.49z M323.21,837.26c4.65-1.24,9.3-2.47,14.17-3.77
	c0-3.94,0-8.46,0-13.28c-4.69,0-9.24,0-13.98,0c0,5.9,0,11.6,0,17.29L323.21,837.26z M548.64,27.36c5.43,0.07,10.85,0.14,16.28,0.21
	c0,0-0.36,0.38-0.36,0.38c-0.36-4.91-0.72-9.83-1.09-14.96c-4.82,0-9.56,0-14.54,0c0,5.31,0,9.99,0,14.67L548.64,27.36z
	 M580.38,836.16c5.39,0,10.77-0.01,16.16-0.01c0,0-0.34,0.34-0.34,0.34c0.01-6.2,0.01-12.4,0.02-18.59c0,0,0.37,0.2,0.37,0.2
	c-4.9,0.96-9.79,1.92-14.8,2.89c-0.35,5.09-0.71,10.34-1.07,15.59L580.38,836.16z M193.46,593.81c-0.1,5.39-0.21,10.77-0.31,16.16
	c5.39-0.11,10.78-0.22,16.16-0.33c0,0-0.29,0.39-0.29,0.39c-0.45-5.18-0.89-10.36-1.37-15.86c-5.06,0-9.75,0-14.45,0L193.46,593.81z
	 M580.39,172.8c0.11-5.39,0.21-10.77,0.32-16.16c-5.39,0.11-10.79,0.23-16.18,0.34c0,0,0.35-0.41,0.35-0.41
	c0.26,5.26,0.53,10.52,0.79,15.75c5.2,0,10.14,0,15.09,0L580.39,172.8z M500.96,124.16c5.27,0,9.73,0,13.89,0c0-5.31,0-9.86,0-14.13
	c-5.12,0-9.45,0-14.53,0C500.57,115.6,500.78,120.06,500.96,124.16z M677.76,93.27c4.88-0.46,9.76-0.92,14.88-1.4
	c0.31-4.65,0.64-9.54,0.97-14.43c0,0,0.39,0.44,0.39,0.44c-5.22,0-10.45,0-15.86,0c0,5.79,0,10.79,0,15.78
	C678.13,93.67,677.76,93.27,677.76,93.27z M451.62,156.97c-5.39,0-10.78,0.01-16.16,0.01l0.34-0.34
	c-0.01,5.38-0.02,10.76-0.03,16.15c0,0-0.36-0.44-0.36-0.44c4.93,0,9.86,0,14.92,0c0.33-5.32,0.65-10.54,0.97-15.77L451.62,156.97z
	 M225.14,836.5c-5.7,0.4-11.41,0.81-17.11,1.21l0.14-0.16c0.28,4.92,0.56,9.85,0.84,14.77c5.38-0.11,10.77-0.22,16.15-0.33
	l-0.41,0.4c0.02-5.41,0.05-10.82,0.07-16.24L225.14,836.5z M272.39,850.62c0-5.06,0-9.33,0-13.85c-5.16,0-9.7,0-14.14,0
	c0,4.89,0,9.09,0,13.85C263.61,850.62,268.03,850.62,272.39,850.62z M369.25,836.39c-5.15,0-9.49,0-13.91,0c0,5.24,0,10.04,0,14.3
	c4.98,0,9.21,0,14.64,0C369.72,845.67,369.49,841.07,369.25,836.39z M435.77,836.17c-0.09,5.37-0.18,10.75-0.27,16.12
	c5.37-0.1,10.74-0.2,16.11-0.3c0,0-0.34,0.4-0.34,0.4c-0.33-5.31-0.67-10.62-1-15.86c-5.26,0-10.02,0-14.78,0L435.77,836.17z
	 M564.52,851.98c5.39,0,10.78,0.01,16.17,0.01l-0.31,0.32c0-5.38,0-10.77,0-16.15c0,0,0.35,0.42,0.35,0.42c-5.16,0-10.31,0-15.82,0
	c0,5.83,0,10.8,0,15.78L564.52,851.98z M210.16,58.24c-0.26,6.56-0.53,13.11-0.79,19.67l-0.39-0.46c5.39-0.01,10.78-0.01,16.17-0.02
	c0,0-0.39,0.41-0.39,0.41c-0.24-5.41-0.49-10.81-0.67-14.77c-5.37-1.76-9.73-3.19-14.08-4.62L210.16,58.24z M533.95,141.83
	c-5.4,0-10.81,0-16.63,0c0,5,0,9.65,0,14.57c4.91,0,9.26,0,13.16,0c1.11-5.26,2.13-10.07,3.14-14.88L533.95,141.83z M452.33,61.63
	c0,5.14,0,9.7,0,14.33c4.85,0,9.37,0,14.23,0c0-4.67,0-9.24,0-14.33C461.24,61.63,456.65,61.63,452.33,61.63z M256.8,335.6
	c0,5.39-0.01,10.79-0.01,16.18l-0.38-0.38c5.3-0.64,10.61-1.27,15.82-1.9c0-4.48,0-8.47,0-13.52c-5.55,0-10.71,0-15.86,0
	L256.8,335.6z M127.75,528.08c0.01,5.39,0.01,10.79,0.02,16.18c0,0-0.43-0.41-0.43-0.41c5.11,0,10.23,0,15.6,0
	c0-5.16,0-9.72,0-13.57c-5.72-0.66-10.64-1.23-15.55-1.79C127.37,528.48,127.75,528.08,127.75,528.08z M322.53,77.45
	c0,4.64,0,9.28,0,14.05c5.55,0.62,10.7,1.2,15.85,1.77c0,0-0.34,0.39-0.34,0.39c-0.28-5.22-0.55-10.45-0.84-15.77
	c-5.11,0-10.08,0-15.05,0L322.53,77.45z M886.38,110.18c-4.55-0.35-9.17-0.7-13.79-1.06c0,4.97,0,9.95,0,14.85
	c5.47,0.44,10.8,0.87,16.13,1.31C887.93,120.17,887.13,115.07,886.38,110.18z M419.63,156.67c5.39-0.01,10.78-0.01,16.17-0.02
	l-0.34,0.34c0-5.39,0-10.79,0-16.18c0,0,0.38,0.31,0.38,0.31c-5.25,0.45-10.5,0.9-15.87,1.36c0,5.06,0,9.78,0,14.5
	C419.97,156.98,419.63,156.67,419.63,156.67z M225.16,851.98c0.34,4.92,0.69,9.85,1.03,14.75c4.96,0.37,9.88,0.73,14.8,1.09
	l-0.42,0.4c0-5.22,0-10.44,0-15.84c-5.86,0-10.84,0-15.82,0L225.16,851.98z M290.53,867.83c4.84-0.43,9.68-0.87,14.32-1.29
	c0.51-4.88,1.01-9.72,1.51-14.56c0,0,0.42,0.41,0.42,0.41c-5.13,0-10.27,0-15.83,0c0,5.54,0,10.67,0,15.81L290.53,867.83z
	 M791,383.48c0-5.4,0-10.8,0.01-16.19l0.33,0.32c-5.39,0.01-10.77,0.02-16.16,0.02l0.43-0.31c0,5.01,0,10.03,0,14.67
	c5.86,0.43,10.83,0.79,15.8,1.16L791,383.48z M888.4,140.81c5.39,0,10.78-0.01,16.17-0.01c0,0-0.28,0.36-0.28,0.36
	c-0.52-5.17-1.04-10.34-1.48-14.74c-5.26-0.53-9.84-0.99-14.42-1.45c0.13,5.38,0.26,10.76,0.4,16.14L888.4,140.81z M517.33,852
	c0,4.73,0,9.45,0,14.44c5.36,0.47,10.6,0.93,15.85,1.39l-0.32,0.3c-0.72-4.95-1.44-9.89-2.31-15.81c-4.05,0-8.79,0-13.53,0
	L517.33,852z M193.46,415.14c-5.39,0-10.79,0.01-16.18,0.01c0,0,0.36-0.41,0.36-0.41c0,5.13,0,10.26,0,15.6c5.28,0,9.93,0,13.64,0
	c0.69-5.64,1.3-10.61,1.91-15.58C193.19,414.76,193.46,415.14,193.46,415.14z M161.49,433.55c0.01,4.33,0.01,8.67,0.01,13.2
	c5.53,0,9.81,0,14.2,0c0-5.04,0-9.5,0-14.66c-5.34,0.66-9.9,1.22-14.46,1.78C161.24,433.87,161.49,433.56,161.49,433.55z
	 M839.12,430.49c0.47,5.32,0.93,10.64,1.41,16.24c4.64,0,8.91,0,13.55,0c0-4.72,0-8.96,0-12.98c-5.44-1.02-10.39-1.95-15.33-2.88
	C838.75,430.86,839.11,430.49,839.12,430.49z M451.07,27.21c-4.79,0.76-9.6,1.5-14.47,2.25c-0.55,4.28-1.14,8.8-1.69,13.34
	c0.03,0.03-0.26-0.27-0.24-0.25c5.26,0.5,10.5,0.97,16.09,1.48c0-6.54,0-11.87,0-17.19C450.77,26.84,451.05,27.19,451.07,27.21z
	 M533.18,867.84c0,4.91,0,9.83,0,14.9c5.42,0.32,10.63,0.62,15.85,0.92l-0.34,0.34c0-5.39,0-10.78,0-16.18c0,0,0.39,0.41,0.39,0.41
	c-5.41-0.03-10.81-0.07-16.22-0.1L533.18,867.84z M533.6,141.49c5.15-0.26,10.32-0.5,15.49-0.73c0,0-0.4,0.38-0.4,0.38
	c0-5.39,0-10.78,0-16.17c0,0,0.37,0.32,0.37,0.32c-5.32,0.34-10.64,0.68-16.26,1.03c0.4,5.41,0.77,10.46,1.15,15.52
	C533.95,141.83,533.62,141.52,533.6,141.49z M240.99,867.83c0.49,4.9,0.98,9.8,1.49,14.9c4.58,0.3,9.46,0.62,14.34,0.95
	c0,0-0.43,0.39-0.43,0.39c0-5.2,0-10.41,0-15.84c-5.84,0-10.83,0-15.82,0L240.99,867.83z M370.07,124.96
	c0.59,5,1.18,10.01,1.8,15.21c4.58,0.21,9.3,0.43,14.03,0.65c0,0-0.41,0.35-0.41,0.35c0-5.06,0-10.13,0-15.06
	c-5.69-0.29-10.76-0.54-15.82-0.8L370.07,124.96z M127.33,494.68c0-4.68,0-9.39,0-14.11l0.42,0.3c-5.39-0.01-10.79-0.01-16.18-0.02
	c0,0,0.27-0.36,0.27-0.36c-0.08,5.4-0.15,10.8-0.23,16.21C116.78,496.04,121.95,495.37,127.33,494.68z M483.45,43.2
	c-0.35-4.66-0.68-9.33-0.98-13.47c-4.98-0.93-9.8-1.83-14.65-2.69c-0.03,0.03,0.22-0.3,0.21-0.28C468,32.35,468,37.91,468,43.91
	c5.84-0.4,10.83-0.75,15.81-1.09C483.81,42.82,483.46,43.18,483.45,43.2z M193.15,480.87c0-5.38,0-10.77,0-16.15
	c0,0,0.39,0.46,0.39,0.46c-5.29,0-10.58,0-15.6,0c0,5.34,0,10.19,0,14.29c5.75,0.42,10.64,0.77,15.54,1.12
	C193.47,480.59,193.15,480.87,193.15,480.87z M193.45,77.45c0,5.38,0,10.77,0,16.15l-0.32-0.32c4.89-0.43,9.78-0.87,14.83-1.32
	c0.33-4.7,0.67-9.6,1.02-14.51c0,0,0.39,0.46,0.4,0.46c-5.42-0.03-10.84-0.06-16.26-0.09L193.45,77.45z M274.72,883.68
	c4.56-0.28,9.11-0.56,13.85-0.85c0.62-4.75,1.29-9.87,1.96-15c0,0,0.42,0.37,0.42,0.37c-5.36,0-10.73,0-16.68,0
	c0.34,5.83,0.63,10.85,0.93,15.86C275.2,884.06,274.72,883.68,274.72,883.68z M127.75,464.7c0,5.39,0.01,10.78,0.01,16.17
	c0,0-0.42-0.3-0.42-0.3c5.27-0.57,10.53-1.14,15.7-1.69c0-4.56,0-8.87,0-13.76c-5.54,0-10.63,0-15.72,0L127.75,464.7z M549.19,109.1
	c-0.69-4.92-1.36-9.85-2.03-14.83c-4.47-0.38-9.12-0.77-13.8-1.15c-0.02,0.01,0.33-0.34,0.31-0.33c-0.01,5.21-0.01,10.4-0.01,15.97
	c5.39,0,10.65,0,15.92,0C549.57,108.76,549.21,109.08,549.19,109.1z M904.58,480.86c-5.39,0-10.78,0.01-16.18,0.01
	c0,0,0.41-0.39,0.41-0.39c0,5.03,0,10.05,0,14.3c5.94,0.72,10.84,1.32,15.73,1.92c-0.07-5.39-0.14-10.79-0.2-16.18L904.58,480.86z
	 M225.15,77.43c0.4,4.83,0.8,9.66,1.19,14.38c4.91,0.49,9.78,0.98,14.65,1.47c0,0-0.38,0.4-0.38,0.4c0-5.3,0-10.61,0-15.84
	c-5.96,0-10.91,0-15.85,0L225.15,77.43z M369.13,108.78c5.57,0.01,11.13,0.01,16.26,0.01c0-6.05,0-10.61,0-14.82c-5.09,0-9.4,0-13,0
	c-1.07,5.47-2,10.27-2.94,15.07C369.45,109.05,369.11,108.77,369.13,108.78z M146.47,448.62c-0.44,4.87-0.87,9.73-1.31,14.78
	c5.48-0.26,9.7-0.45,13.98-0.65c0-4.89,0-9.17,0-13.88c-4.78,0-8.87,0-12.97,0C146.17,448.87,146.48,448.62,146.47,448.62z
	 M111.58,528.1c5.39-0.01,10.78-0.01,16.17-0.02c0,0-0.37,0.4-0.37,0.4c0-5.04,0-10.08,0-14.36c-5.98-0.7-10.87-1.28-15.76-1.85
	c0.08,5.39,0.15,10.79,0.23,16.18L111.58,528.1z M838.87,415.14c-5.39,0-10.79,0.01-16.18,0.01c0,0,0.31-0.41,0.31-0.41
	c0.55,5.2,1.1,10.4,1.66,15.74c5.03,0,9.75,0,14.46,0.01c-0.01,0.01-0.37,0.38-0.38,0.38c-0.08-5.37-0.15-10.76-0.22-16.14
	L838.87,415.14z M548.69,867.83c5.39,0,10.78,0,16.17,0.01l-0.32,0.33c0-5.39-0.01-10.78-0.01-16.18c0,0,0.4,0.38,0.4,0.38
	c-5.23,0-10.47,0-15.84,0c0,5.96,0,10.92,0,15.88L548.69,867.83z M482.97,867.83c4.95-0.42,9.9-0.84,15.86-1.35
	c0-4.4,0-9.44,0-14.48c0,0,0.33,0.35,0.33,0.35c-4.97,0-9.93,0-13.99,0c-0.75,6.05-1.35,10.94-1.96,15.83
	C483.21,868.19,482.97,867.83,482.97,867.83z M888.78,514.17c0,4.81,0,9.54,0,14.26c0,0-0.36-0.34-0.36-0.34c5.39,0,10.78,0,16.17,0
	c0,0-0.23,0.34-0.23,0.34c0.06-5.39,0.13-10.77,0.19-16.16C899.36,512.89,894.18,513.52,888.78,514.17z M775.18,367.63
	c0-5.39,0-10.79,0.01-16.18c0,0,0.42,0.36,0.42,0.36c-5.32,0.26-10.65,0.52-15.66,0.76c0,5.08,0,9.59,0,13.61
	c5.7,0.41,10.69,0.77,15.67,1.14L775.18,367.63z M256.79,351.78c-5.39,0-10.77,0-16.16,0c0,0,0.34-0.33,0.34-0.33
	c0.01,5.39,0.01,10.79,0.02,16.18c0,0-0.44-0.32-0.44-0.32c5.3-0.48,10.6-0.95,15.86-1.43c0-5.04,0-9.76,0-14.48L256.79,351.78z
	 M419.77,77.62c0,4.92,0,9.85,0,13.49c6.06,1.13,10.77,2.01,15.51,2.87c0.02-0.02-0.25,0.33-0.23,0.3
	c-0.23-5.33-0.47-10.64-0.73-16.34c-4.93,0-9.9,0-14.88,0C419.45,77.94,419.77,77.63,419.77,77.62z M498.04,157.65
	c0.32-5.32,0.63-10.62,0.89-15.25c-6.17-0.48-11.19-0.87-16.21-1.26c0.01,0,0.32-0.31,0.33-0.31c0.73,5.2,1.45,10.4,2.12,15.22
	c4.54,0.45,8.86,0.87,13.18,1.29C498.36,157.35,498.02,157.67,498.04,157.65z M193.15,544.24c0-5.38,0-10.76,0.01-16.14
	c0,0,0.31,0.27,0.31,0.27c-5.2,0.37-10.39,0.74-15.67,1.11c0,4.87,0,9.74,0,14.29c5.69,0,10.7,0,15.71,0L193.15,544.24z M823,528.1
	c0,5.38,0,10.77,0.01,16.15c0,0-0.36-0.42-0.36-0.42c5.25,0,10.5,0,15.52,0c0-5.35,0-10.18,0-14.3c-5.69-0.43-10.58-0.79-15.47-1.16
	L823,528.1z M580.38,93.28c4.87-0.53,9.74-1.05,15.85-1.71c0-4.23,0-9.18,0-14.12c0,0,0.35,0.4,0.35,0.4c-5.03,0-10.07,0-14.94,0
	c-0.33,5.75-0.63,10.78-0.92,15.81L580.38,93.28z M177.31,109.12c4.88-0.38,9.75-0.76,14.64-1.14c0.4-4.9,0.79-9.8,1.18-14.7
	c0,0,0.32,0.32,0.32,0.32c-5.39,0-10.77,0-16.16,0c0,0,0.35-0.36,0.35-0.36c0.03,5.43,0.06,10.87,0.1,16.3L177.31,109.12z
	 M869.36,542.87c-4.01,1.32-8.03,2.62-12.45,4.04c0,3.81,0,8.29,0,12.65c4.75,0,8.66,0,13.72,0c-0.49-6.02-0.93-11.42-1.37-16.82
	C869.25,542.75,869.34,542.84,869.36,542.87z M646.4,109.13c0.38,5.71,0.76,11.41,1.15,17.12l-0.08-0.11
	c4.94-0.29,9.88-0.58,14.82-0.88c-0.12-5.38-0.24-10.77-0.36-16.15c0,0,0.39,0.36,0.39,0.36c-5.41-0.02-10.82-0.03-16.23-0.05
	L646.4,109.13z M175.72,576.01c0-4.96,0-9.4,0-14.22c-4.98,0.25-9.18,0.46-13.77,0.69c0,4.42,0,8.35,0,13.53
	C167.1,576.01,171.36,576.01,175.72,576.01z M323.38,837.49c-6.03,0.12-12.04,0.25-18.06,0.39l0.15-0.17
	c0.44,4.89,0.88,9.79,1.32,14.68c0,0-0.42-0.41-0.42-0.41c5.39,0,10.77,0.01,16.16,0.01c0,0-0.33,0.37-0.33,0.37
	c0.34-5.03,0.67-10.07,1.01-15.1C323.21,837.26,323.4,837.51,323.38,837.49z M177.28,593.81c5.39,0,10.79,0,16.18,0.01
	c0,0-0.26,0.36-0.26,0.36c-0.65-5.23-1.31-10.45-1.98-15.78c-4.48,0-8.77,0-13.55,0c0,5.57,0,10.72,0,15.87L177.28,593.81z
	 M419.07,821.3c0.34,5.08,0.64,10.18,0.95,15.29c0,0-0.41-0.44-0.41-0.44c5.39,0.01,10.77,0.02,16.16,0.02c0,0-0.27,0.36-0.27,0.36
	c-0.49-5.3-0.98-10.61-1.56-16.79c-5.19,0.65-10.18,1.28-15.17,1.91C418.78,821.64,419.04,821.33,419.07,821.3z M305.36,837.83
	c0.03-5.72,0.03-11.4,0.03-17.23c-5,0-9.61,0-14.3,0c0,4.98,0,9.26,0,12.04c5.47,1.93,9.92,3.49,14.38,5.06
	C305.47,837.71,305.32,837.88,305.36,837.83z M709.78,77.44c0.46,4.79,0.91,9.58,1.36,14.31c4.84,0.51,9.65,1.02,14.46,1.53
	c0,0-0.47,0.41-0.46,0.41c0-5.26,0-10.52,0-15.78c-5.76,0-10.77,0-15.78,0L709.78,77.44z M775.18,657.51
	c-0.01-5.39-0.01-10.79-0.02-16.18c0,0,0.41,0.3,0.41,0.3c-5.31,0.5-10.61,1.01-15.89,1.51c0,4.57,0,8.85,0,14.02
	c5.61,0,10.77,0,15.92,0L775.18,657.51z M822.69,593.81c5.39,0,10.78,0.01,16.17,0.01c0,0-0.36,0.42-0.36,0.42
	c-0.25-5.39-0.51-10.78-0.74-15.68c-5.13,0-9.39,0-13.2,0c-0.57,5.7-1.07,10.68-1.57,15.66L822.69,593.81z M775.16,93.27
	c4.86-0.52,9.72-1.04,14.62-1.56c0.4-4.63,0.81-9.45,1.22-14.28c0,0,0.42,0.46,0.42,0.46c-5.28,0-10.55,0-15.83,0
	c0,5.82,0,10.82,0,15.82L775.16,93.27z M404.27,124.15c5.3,0,9.84,0,14,0c0-5.32,0-9.82,0-14.12c-4.92,0-9.24,0-14,0
	C404.27,115.33,404.27,119.93,404.27,124.15z M127.42,124.97c5.38,0.11,10.75,0.22,16.13,0.32c-0.1-5.39-0.2-10.77-0.3-16.16
	c0,0,0.32,0.3,0.32,0.3c-4.89,0.27-9.78,0.54-14.24,0.79c-0.58,5.29-1.12,10.19-1.65,15.09L127.42,124.97z M548.93,27.67
	c-5.21,0.63-10.41,1.25-15.86,1.91c0,4.57,0,9.28,0,13.99c0,0-0.3-0.29-0.3-0.29c4.89,0,9.78,0,14.54,0
	c0.46-5.52,0.88-10.72,1.31-15.92C548.64,27.36,548.93,27.67,548.93,27.67z M209.99,58.47c-0.9-4.39-1.79-8.8-2.67-13.21
	c-4.54,0-9.05,0-13.49,0c0,5.03,0,9.39,0,14.93c5.7-0.68,11.01-1.31,16.32-1.95C210.16,58.24,210.01,58.45,209.99,58.47z
	 M854.1,575.46c0-4.59,0-8.56,0-13.24c-4.89,0-9.43,0-14.03,0c0,4.75,0,8.96,0,14.07C845.4,575.97,849.65,575.72,854.1,575.46z
	 M581.56,42.32c-0.03,5.67-0.03,11.31-0.03,16.8c5.27,0,9.8,0,14.28,0c0-5.06,0-9.37,0-12.74c-5.23-1.42-9.81-2.66-14.39-3.9
	C581.42,42.49,581.59,42.29,581.56,42.32z M743.52,350.1c4.78,0,8.97,0,13.82,0c-0.21-4.63-0.42-9.21-0.64-13.9
	c-4.83,0-8.78,0-13.19,0C743.52,341.11,743.52,345.63,743.52,350.1z M870.77,462.62c-0.42-4.89-0.79-9.09-1.15-13.28
	c-4.79,0-8.75,0-13.02,0c0,4.67,0,8.9,0,13.93C861.94,463.02,866.13,462.83,870.77,462.62z M159.02,546.01c-4.8,0-9.22,0-13.89,0
	c0.35,5,0.64,9.19,0.93,13.3c4.59,0,8.51,0,12.96,0C159.02,554.52,159.02,550.27,159.02,546.01z M756.99,658.65
	c-4.79,0-8.99,0-13.38,0c0,5.05,0,9.58,0,14.07c4.65,0,8.63,0,13.38,0C756.99,667.33,756.99,662.98,756.99,658.65z M209.29,947.36
	c-15.95,4.38-19.14,1.1-15.8-16.28c-5.4,0.15-10.8,0.29-16.2,0.44l0.42-0.42c0,5.15,0,10.29,0,15.37
	c14.52,1.43,14.52,1.43,17.05,17.4c4.67,0,9.13,0,14.18,0c0-5.99,0-11.46,0-16.92L209.29,947.36z M709.46,836.16
	c4.89-0.81,9.79-1.62,15.54-2.58c-1.5-10.64,1.62-18.25,16.09-14.64c0-6.16,0-11.5,0-16.84c0,0,0.37,0.25,0.37,0.25
	c-4.86,0.62-9.72,1.23-14.58,1.84c0.84,15.11,0.09,15.87-15.91,16.4c-0.38,5.35-0.77,10.67-1.15,15.98L709.46,836.16z M888.74,884
	c-5.34,0.25-10.67,0.5-16.01,0.75c-0.01,16.4-1.27,17.42-18.44,14.8c0.13,5.38,0.26,10.76,0.39,16.14l-0.47-0.43
	c5.4,0,10.8,0,16.13,0c-0.01-15.77,0.58-16.33,16.23-16.76c0.61-4.99,1.21-9.9,1.82-14.82L888.74,884z M516.9,950.09
	c0.04-6.3,0.09-12.6,0.13-18.9l0.27,0.31c-6.16,0-12.31,0-18.47,0c0,0,0.29-0.31,0.29-0.31c0.17,6.49,0.35,12.98,0.52,19.48
	c0,0-0.26-0.34-0.24-0.32c5.92-0.16,11.83-0.35,17.73-0.54C517.14,949.8,516.9,950.09,516.9,950.09z M161.46,915.69
	c0.17-5.39,0.34-10.77,0.51-16.16c-6.24,0.1-12.47,0.21-18.71,0.31c0,0,0.3-0.29,0.3-0.29c0.8,4.97,1.61,9.93,2.54,15.7
	c4.79,0,10.32,0,15.85,0L161.46,915.69z M483.4,965.66c4.89-0.91,9.79-1.82,15.1-2.81c0.27-3.68,0.6-8.08,0.91-12.5
	c-0.02-0.03,0.24,0.32,0.22,0.29c-5.09-0.69-10.16-1.35-15.04-1.99c-0.32,6.72-0.57,12.04-0.82,17.36L483.4,965.66z M403.78,931.54
	c-0.8-4.92-1.6-9.83-2.36-14.5c-5.27-0.46-10.55-0.92-15.84-1.38c0,0,0.33-0.33,0.33-0.33c0.87,5.28,1.75,10.57,2.61,15.77
	c5.37,0,10.55,0,15.72,0L403.78,931.54z M517.14,949.79c0,4.65,0,9.31,0,13.88c5.55,0,10.04,0,14.17,0c0-5.37,0-9.89,0-14.97
	c-5.27,0.5-9.84,0.94-14.42,1.38C516.9,950.09,517.14,949.8,517.14,949.79z M290.54,915.69c-0.69-4.62-1.38-9.25-2.19-14.67
	c-3.9-0.34-8.77-0.76-13.64-1.18c0,0,0.56-0.33,0.56-0.33c-0.25,5.19-0.51,10.37-0.77,15.76c6.25,0,11.36,0,16.47,0
	C290.98,915.27,290.54,915.69,290.54,915.69z M612.32,817.96c0.01,6.16,0.02,12.32,0.03,18.48l-0.31-0.27
	c5.28-0.73,10.55-1.47,16.45-2.28c-0.21-4.43-0.42-8.99-0.58-12.51c-5.99-1.24-10.93-2.26-15.86-3.27L612.32,817.96z M647.11,802.85
	c-5.67,0.44-11.32,0.9-16.88,1.35c0,4.8,0,9.12,0,13.8c5.13,0,9.75,0,13.1,0c1.29-5.7,2.38-10.54,3.48-15.37
	C646.81,802.63,647.14,802.87,647.11,802.85z M322.53,931.52c-5.39,0-10.77,0.01-16.16,0.01l0.42-0.44c0,5.41,0,10.81,0,15.88
	c5.64,0,10.23,0,14.52,0c0.33-5.76,0.61-10.78,0.9-15.81L322.53,931.52z M759.34,899.85c0.12-5.37,0.25-10.73,0.37-16.1
	c-6.24-0.02-12.49-0.04-18.73-0.05c0.15,5.38,0.31,10.77,0.46,16.15l-0.45-0.41c6.28,0,12.55,0.01,18.83,0.01L759.34,899.85z
	 M420.81,946c-0.4-4.94-0.81-9.88-1.21-14.82c0,0,0.32,0.35,0.32,0.35c-5.38,0.01-10.76,0.02-16.15,0.02c0,0,0.47-0.44,0.47-0.44
	c0,5.31,0,10.63,0,16.94c6.05-0.76,11.34-1.42,16.63-2.09C420.87,945.95,420.81,946,420.81,946z M596.68,931.07
	c0.33,5.31,0.65,10.62,0.99,16.17c4.51,0,9.18,0,14.84,0c-0.54-6.11-1.03-11.56-1.52-17.01l0.14,0.16
	c-4.93,0.34-9.86,0.69-14.79,1.03C596.34,931.42,596.67,931.07,596.68,931.07z M823.01,947.36c-5.39,0-10.78,0-16.17,0l0.4-0.49
	c0.26,5.66,0.52,11.32,0.77,16.78c5.13,0,9.65,0,14.59,0c0-5.88,0-11.32,0-16.75L823.01,947.36z M611.78,898.85
	c0-5.27,0-9.8,0-14.05c-5.23,0-9.76,0-14.11,0c0,4.84,0,9.36,0,14.05C602.59,898.85,607.41,898.85,611.78,898.85z M564.85,883.99
	c-5.39,0-10.78,0.01-16.17,0.01l0.34-0.34c-0.01,5.39-0.01,10.79-0.02,16.18l-0.28-0.36c5.42-0.08,10.85-0.16,16.27-0.23l-0.34,0.35
	c-0.05-5.31-0.11-10.62-0.16-15.93L564.85,883.99z M467.13,899.85c0-5.39,0-10.79,0-16.18l0.33,0.33
	c-5.39-0.11-10.78-0.22-16.17-0.34c0.11,5.4,0.22,10.79,0.33,16.19c0,0-0.32-0.37-0.32-0.37c5.37,0.01,10.74,0.01,16.12,0.02
	L467.13,899.85z M143.26,899.84c0.09-5.39,0.18-10.77,0.28-16.16c-5.37,0.11-10.75,0.21-16.12,0.32c0,0,0.35-0.31,0.35-0.31
	c0.53,5.2,1.05,10.4,1.61,15.86c4.88,0,9.53,0,14.19,0L143.26,899.84z M661.92,883.67c4.95-0.31,9.9-0.62,14.86-0.94
	c0.33-4.98,0.65-9.94,0.98-14.9c0,0,0.35,0.39,0.35,0.39c-5.16,0.23-10.31,0.45-15.78,0.69c0,5.26,0,10.17,0,15.09L661.92,883.67z
	 M647.27,882.89c-1.22-4.62-2.45-9.22-3.81-14.26c-3.77,0-8.38,0-13.36,0c0,4.8,0,9.39,0,14.15c5.98,0,11.66,0,17.34,0
	C647.44,882.78,647.25,882.91,647.27,882.89z M580.7,868.16c-5.39,0-10.77,0-16.16-0.01l0.32-0.33c0,5.39,0,10.77,0,16.16
	l-0.35-0.32c5.16-0.27,10.31-0.54,15.81-0.83c0-5.21,0-10.1,0-14.98L580.7,868.16z M127.41,884c0.09-5.38,0.19-10.77,0.28-16.15
	c-5.37,0.1-10.74,0.2-16.11,0.31c0,0,0.28-0.34,0.28-0.34c0.41,4.91,0.82,9.82,1.24,14.9c4.74,0.31,9.69,0.64,14.65,0.97
	C127.76,883.69,127.41,884,127.41,884z M677.76,867.83c4.94-0.4,9.88-0.79,15-1.2c0.28-4.76,0.57-9.7,0.85-14.64
	c0,0,0.35,0.4,0.35,0.4c-5.2,0-10.4,0-15.84,0c0,5.99,0,10.91,0,15.84L677.76,867.83z M611.21,853.17c1.22,4.61,2.45,9.2,3.62,13.56
	c4.25,0,8.75,0,13.15,0c0-5,0-9.31,0-14.56c-5.95,0.38-11.42,0.72-16.89,1.07C611.1,853.23,611.23,853.15,611.21,853.17z
	 M354.23,899.85c-4.92,0.36-9.83,0.72-14.79,1.08c-0.35,4.91-0.7,9.83-1.05,14.76l-0.34-0.39c5.04,0,10.09,0,15.81,0
	c0-5.75,0-10.8,0-15.85L354.23,899.85z M451.62,899.85c-4.85,0.31-9.7,0.61-15.85,1c0,4.5,0,9.66,0,14.83l-0.29-0.36
	c5.17,0,10.33,0,14.85,0c0.38-6.17,0.68-11,0.97-15.84L451.62,899.85z M565,899.26c-0.01,5.25-0.01,10.5-0.01,15.54
	c6.01,0,11.01,0,16.01,0l-0.31,0.36c-0.4-4.87-0.81-9.74-1.17-14.08c-5.17-0.51-10.01-1-14.85-1.48
	C564.67,899.6,565.01,899.25,565,899.26z M177.29,931.52c0.11-5.41,0.22-10.81,0.34-16.22c-5.39,0.13-10.78,0.26-16.17,0.38
	c0,0,0.49-0.43,0.49-0.43c0,5.01,0,10.02,0,15.85c5.72,0,10.75,0,15.77,0C177.71,931.1,177.29,931.52,177.29,931.52z M663.08,801.2
	c-0.28,5.71-0.54,11.4-0.81,17.42c5.86-0.26,10.43-0.47,14.4-0.64c0-5.45,0-9.95,0-13.08c-5.08-1.31-9.41-2.43-13.73-3.55
	C662.93,801.35,663.1,801.19,663.08,801.2z M306.38,931.53c-0.53-4.8-1.05-9.59-1.58-14.41c-4.65-0.46-9.45-0.94-14.26-1.42
	c0,0,0.44-0.42,0.44-0.42c0,5.09,0,10.18,0,15.81c5.68,0,10.75,0,15.82,0L306.38,931.53z M338.39,915.69
	c-4.92,0.47-9.83,0.94-15.15,1.45c-0.22,4.53-0.46,9.46-0.71,14.39c0,0-0.32-0.36-0.32-0.36c5.16,0,10.31,0,15.84,0
	c0-5.93,0-10.89,0-15.86L338.39,915.69z M693.62,931.52c-0.25-4.61-0.5-9.22-0.77-14.32c-4.81-0.48-9.95-1-15.09-1.51l0.41-0.39
	c0,5.29,0,10.57,0,15.85c5.86,0,10.82,0,15.78,0L693.62,931.52z M420.87,945.96c-0.4,5.8-0.79,11.59-1.2,17.76
	c5.42,0,9.98,0,14.73,0c0-5.13,0-9.84,0-12.75c-5.39-1.97-9.48-3.47-13.58-4.97C420.81,946,420.87,945.95,420.87,945.96z
	 M581.35,966.25c4.74-1.1,9.44-2.24,14.49-3.45c0-4.1,0-8.73,0-13.73c-5.05,0-9.61,0-14.27,0c0,6.02,0,11.72,0,17.42
	C581.57,966.49,581.32,966.22,581.35,966.25z M451.36,981.53c0.43,4.89,0.85,9.78,1.26,14.47c4.91,0,9.62,0,14.45,0
	c0-5.46,0-10.15,0-14.83c0,0,0.32,0.32,0.32,0.32c-5.45,0.13-10.89,0.25-16.34,0.37L451.36,981.53z M565.59,982.3
	c-5.71-0.17-11.41-0.34-17.12-0.51l0.3-0.33c0.25,5.02,0.5,10.04,0.73,14.52c5.33,0,9.88,0,13.78,0c0.74-4.94,1.41-9.45,2.09-13.96
	C565.36,982.03,565.59,982.3,565.59,982.3z M483.76,966c-5.25-0.01-10.49-0.01-15.09-0.01c-0.46,5.63-0.87,10.57-1.27,15.51
	c0,0-0.32-0.32-0.33-0.32c5.17-0.57,10.35-1.13,15.38-1.68c0.31-4.6,0.63-9.22,0.94-13.84C483.4,965.66,483.77,966.02,483.76,966z
	 M838.87,931.52c-5.39-0.13-10.77-0.25-16.16-0.38c0.1,5.41,0.2,10.82,0.3,16.23c0,0-0.4-0.46-0.4-0.46c5.19,0,10.39,0,15.85,0
	c0-5.76,0-10.8,0-15.83L838.87,931.52z M806.84,947.36c0.11-5.4,0.23-10.79,0.34-16.19c-5.4,0.12-10.79,0.24-16.19,0.36l0.42-0.45
	c0,5.17,0,10.34,0,15.79c5.66,0,10.75,0,15.84,0L806.84,947.36z M709.77,931.53c-5.38,0-10.77-0.01-16.15-0.01
	c0,0,0.34-0.38,0.34-0.38c0.28,5.3,0.56,10.61,0.84,15.82c5.04,0,9.63,0,14.57,0c0-5.7,0-10.78,0-15.86L709.77,931.53z
	 M466.41,933.07c-5.26,0-9.79,0-14.15,0c0,5.05,0,9.37,0,14.12c4.6,0,8.96,0,14.15,0C466.41,941.94,466.41,937.36,466.41,933.07z
	 M854.69,915.69c-5.39-0.11-10.79-0.22-16.18-0.33c0.12,5.39,0.24,10.77,0.36,16.16c0,0-0.41-0.44-0.41-0.44c5.26,0,10.51,0,15.75,0
	c0-5.88,0-10.84,0-15.81L854.69,915.69z M611.02,930.25c5.46,0.45,10.89,0.87,16.93,1.34c0-5.64,0-10.26,0-14.83
	c-5.22,0-9.77,0-12.84,0c-1.5,5.14-2.74,9.39-3.97,13.63C611.13,930.39,611,930.22,611.02,930.25z M533.19,915.68
	c-4.96,0.48-9.91,0.97-15.89,1.55c0,4.28,0,9.28,0,14.27c0,0-0.27-0.31-0.27-0.31c4.86,0,9.73,0,13.56,0
	c0.89-6.18,1.58-11,2.27-15.81C532.86,915.38,533.19,915.68,533.19,915.68z M498.83,931.5c0-4.69,0-9.37,0-14.25
	c-5.4-0.53-10.63-1.05-15.86-1.57c0,0,0.38-0.37,0.38-0.37c0.55,5.19,1.11,10.37,1.7,15.88c4.69,0,9.38,0,14.07,0L498.83,931.5z
	 M612.35,836.44c-5.38,0.02-10.76,0.03-16.15,0.05c0,0,0.34-0.34,0.34-0.34c0,5.39,0,10.78-0.01,16.17l-0.34-0.35
	c5,0.4,10,0.81,15.01,1.2c0.01-0.02-0.12,0.07-0.11,0.06c0.32-5.69,0.63-11.37,0.94-17.05
	C612.05,836.18,612.35,836.44,612.35,836.44z M646.47,850.79c5.23,0,9.91,0,14.19,0c0-5.24,0-9.7,0-14.32c-5.08,0-9.39,0-14.19,0
	C646.47,841.44,646.47,846.02,646.47,850.79z M775.15,915.69c-0.51-4.85-1.01-9.69-1.53-14.63c-4.66-0.4-9.47-0.81-14.28-1.22
	c0,0,0.48-0.4,0.48-0.4c0,5.11,0,10.22,0,15.82c5.4,0,10.58,0,15.76,0C775.58,915.27,775.15,915.69,775.15,915.69z M741.45,899.85
	c-4.85,0.37-9.69,0.75-14.45,1.11c-0.46,4.93-0.92,9.83-1.38,14.74l-0.42-0.43c5.14,0,10.27,0,15.8,0c0-5.58,0-10.71,0-15.83
	L741.45,899.85z M647.03,900.4c-5.61,0.02-11.24,0.02-16.64,0.02c0,5.59,0,9.89,0,14.59c4.98,0,9.33,0,13.21,0
	c1.07-5.26,2.06-10.12,3.05-14.98C646.64,900.03,647.01,900.38,647.03,900.4z M385.58,915.67c0-4.76,0-9.53,0-14.66
	c-5.3-0.39-10.57-0.78-15.85-1.16c0,0,0.25-0.36,0.25-0.36c0.7,5.13,1.39,10.27,2.15,15.85c4.54,0,9.16,0,13.79,0L385.58,915.67z
	 M661.92,899.85c0-5.39,0-10.79,0-16.18c0,0,0.41,0.33,0.41,0.33c-5.02-0.38-10.03-0.75-15.07-1.11c-0.02,0.02,0.17-0.11,0.16-0.1
	c-0.14,5.88-0.26,11.75-0.4,17.61c-0.02-0.02-0.38-0.37-0.4-0.39c5.22-0.2,10.45-0.37,15.69-0.55L661.92,899.85z M596.54,852.31
	c-5.39,0-10.77,0-16.16,0l0.31-0.32c0,5.39,0,10.78,0.01,16.17c0,0-0.37-0.3-0.37-0.3c5.24-0.5,10.48-1,15.88-1.52
	c0-5.01,0-9.7,0-14.38L596.54,852.31z M904.57,868.16c-5.36-0.11-10.72-0.22-16.09-0.32c0.08,5.39,0.17,10.77,0.25,16.16
	c0,0-0.35-0.31-0.35-0.31c4.9-0.34,9.81-0.68,14.45-1c0.5-5.06,0.98-9.97,1.46-14.88L904.57,868.16z M548.47,981.78
	c-0.39-5.3-0.79-10.59-1.21-16.11c-4.66,0-9.26,0-13.86,0c0,5.09,0,9.68,0,13.37c5.63,0.89,10.5,1.66,15.36,2.42
	C548.76,981.46,548.46,981.79,548.47,981.78z M451.07,981.86c-0.23-5.31-0.47-10.61-0.72-16.26c-4.69,0-9.27,0-14.1,0
	c0,4.93,0,9.53,0,13.81c5.39,0.76,10.25,1.44,15.12,2.12C451.36,981.53,451.06,981.87,451.07,981.86z M256.83,899.84
	c-4.86,0.39-9.73,0.77-14.47,1.15c-0.46,4.92-0.91,9.81-1.36,14.7l-0.4-0.44c5.24,0,10.48,0,15.81,0c0-5.92,0-10.85,0-15.78
	L256.83,899.84z M482.97,915.68c0-4.87,0-9.73,0-14.62c-5.58-0.43-10.71-0.82-15.84-1.21c0,0,0.29-0.35,0.29-0.35
	c0.43,5.24,0.86,10.48,1.29,15.81c5.15,0,9.89,0,14.63,0L482.97,915.68z M549.01,899.84c-5.18,0.37-10.36,0.74-15.82,1.14
	c0,4.88,0,9.79,0,14.7c0,0-0.33-0.31-0.33-0.31c4.98,0,9.97,0,14.29,0c0.6-6,1.09-10.95,1.58-15.89
	C548.73,899.48,549.01,899.84,549.01,899.84z M677.76,915.69c-0.37-4.93-0.73-9.85-1.1-14.8c-4.85-0.34-9.8-0.69-14.74-1.04
	c0,0,0.39-0.39,0.39-0.39c0,5.19,0,10.39,0,15.84c5.97,0,10.91,0,15.86,0L677.76,915.69z M693.61,851.99
	c5.38,0.11,10.76,0.23,16.14,0.34c-0.09-5.39-0.19-10.78-0.28-16.17c0,0,0.36,0.41,0.37,0.41c-5.73,0.38-11.46,0.75-17.19,1.13
	l0.09-0.08c0.41,4.92,0.82,9.84,1.22,14.76L693.61,851.99z M241,915.69c-4.89,0.42-9.78,0.83-14.67,1.25
	c-0.39,4.86-0.78,9.72-1.17,14.58l-0.38-0.42c5.24,0,10.48,0,15.82,0c0-5.8,0-10.83,0-15.86L241,915.69z M435.77,915.68
	c-4.85,0.45-9.7,0.91-15.85,1.48c0,4.09,0,9.23,0,14.36c0,0-0.32-0.35-0.32-0.35c5.01,0,10.03,0,14.48,0
	c0.52-5.88,0.96-10.87,1.4-15.86L435.77,915.68z M580.99,914.81c-0.01,5.35-0.01,10.68-0.01,16.25c5.78,0,10.74,0,15.7,0.01
	c-0.01,0.01-0.34,0.35-0.34,0.36c-0.27-4.9-0.54-9.8-0.76-13.79c-5.39-0.9-10.14-1.69-14.89-2.48
	C580.69,915.16,581,914.8,580.99,914.81z M725.62,915.7c-4.86,0.44-9.72,0.87-14.57,1.3c-0.42,4.82-0.85,9.67-1.28,14.53
	c0,0-0.41-0.43-0.41-0.43c5.23,0,10.46,0,15.83,0c0-5.73,0-10.78,0-15.83L725.62,915.7z M790.99,931.53
	c-0.45-4.78-0.89-9.55-1.33-14.31c-4.83-0.5-9.67-1.01-14.51-1.53l0.43-0.43c0,5.32,0,10.65,0,15.82c5.83,0,10.83,0,15.83,0
	L790.99,931.53z M692.65,837.68c0.01-5.76,0.01-11.5,0.01-17.16c-4.85,0-9.5,0-14.03,0c0,5.04,0,9.39,0,12.64
	c5.06,1.6,9.58,3.03,14.1,4.46C692.73,837.62,692.64,837.7,692.65,837.68z M549.51,933.14c0,4.68,0,9.24,0,13.89
	c5.2,0,9.78,0,14.06,0c0-4.78,0-8.98,0-13.89C559.25,933.14,554.49,933.14,549.51,933.14z M225.15,931.53
	c-5.39-0.11-10.77-0.22-16.16-0.32c0.1,5.39,0.2,10.77,0.3,16.16c0,0-0.35-0.42-0.35-0.42c5.09,0,10.18,0,15.83,0
	c0-5.54,0-10.69,0-15.84L225.15,931.53z M565.33,981.99c4.68-0.95,9.39-1.86,14.06-2.77c0.63-4.11,1.32-8.53,1.97-12.98
	c-0.03-0.03,0.22,0.24,0.19,0.21c-5.34-0.45-10.65-0.88-15.96-1.3c0,6.4,0,11.77,0,17.14C565.59,982.3,565.36,982.03,565.33,981.99z
	 M709.77,172.47c0.41,5,0.81,9.99,1.29,15.81c10.35-0.44,20.07,1.05,15.16,15.99c5.53,0.81,10.38,1.53,15.24,2.24
	c0,0-0.46,0.44-0.46,0.44c0-5.34,0-10.67,0-15.96c-15.18-0.02-15.18-0.02-16.46-15.99c-5.17-0.77-10.11-1.5-15.05-2.23
	L709.77,172.47z M757.51,158.19c-4.99,0-9.49,0-14.38,0c0,4.7,0,9.24,0,14.26c4.57,0,8.93,0,14.38,0
	C757.51,167.29,757.51,162.7,757.51,158.19z M888.4,156.98c0-5.39,0.01-10.78,0.01-16.17c0,0,0.39,0.3,0.39,0.3
	c-5.32,0.39-10.65,0.79-16.43,1.21c0,4.44,0,9,0,14.23c5.65,0,11.07,0,16.49,0C888.85,156.57,888.4,156.98,888.4,156.98z
	 M838.85,125.29c-4.91,0.35-9.81,0.7-14.72,1.06c-0.38,4.93-0.75,9.86-1.12,14.79l-0.37-0.41c5.06,0,10.13,0,15.81,0
	c0-5.63,0-10.7,0-15.77L838.85,125.29z M823.01,141.14c-4.86,0.45-9.73,0.89-14.84,1.36c-0.33,4.78-0.67,9.63-1.01,14.48l-0.33-0.39
	c5.18,0,10.35,0,15.81,0c0-6.04,0-10.95,0-15.86L823.01,141.14z M854.14,206.51c5.27-0.64,10.54-1.29,16.51-2.02
	c-0.2-4.31-0.41-8.88-0.62-13.43c-5.24,0-9.52,0-12.86,0c-1.01,5.78-1.88,10.75-2.75,15.72
	C854.43,206.78,854.13,206.5,854.14,206.51z M760.3,207.58c4.58-1.22,9.19-2.42,13.54-3.55c0-4.33,0-8.53,0-13.17
	c-4.84,0-9.45,0-14.78,0c0.5,5.96,0.96,11.43,1.42,16.89C760.48,207.75,760.32,207.61,760.3,207.58z M887.03,188.45
	c0-5.25,0-9.66,0-14.17c-5.06,0-9.53,0-14.42,0c0,4.81,0,9.08,0,14.17C878.21,188.45,882.76,188.45,887.03,188.45z M840.13,158.31
	c0,5.32,0,9.78,0,14.23c5.08,0,9.43,0,14.18,0c0-4.96,0-9.59,0-14.23C849.05,158.31,844.34,158.31,840.13,158.31z M775.16,141.13
	c-0.58-4.86-1.15-9.71-1.76-14.82c-4.42-0.32-9.24-0.67-14.07-1.02c0,0,0.51-0.37,0.51-0.37c0,5.2,0,10.41,0,15.8
	c5.72,0,10.74,0,15.76,0L775.16,141.13z M741.44,125.29c-4.56,0.28-9.13,0.57-14.18,0.88c-0.51,4.68-1.08,9.83-1.65,14.98
	c0,0-0.44-0.43-0.44-0.43c5.3,0,10.6,0,15.85,0c0-5.84,0-10.81,0-15.78C741.02,124.94,741.44,125.29,741.44,125.29z M904.56,156.97
	c-5.39,0-10.77,0.01-16.16,0.01c0,0,0.46-0.42,0.46-0.42c0,5.33,0,10.66,0,16.28c5.42-0.26,9.96-0.47,13.81-0.66
	c0.61-5.83,1.11-10.7,1.62-15.57L904.56,156.97z M807.17,156.98c-5.39,0-10.78,0-16.17,0l0.4-0.4c-0.33,5.02-0.67,10.05-1,15.07
	l-0.18-0.26c5.98-0.03,11.95-0.06,17.93-0.09c0,0-0.11,0.1-0.11,0.1c-0.4-4.94-0.8-9.88-1.2-14.82
	C806.83,156.59,807.17,156.98,807.17,156.98z M854.69,109.43c-5.37-0.09-10.75-0.18-16.12-0.28c0.1,5.38,0.19,10.76,0.29,16.14
	c0,0-0.4-0.34-0.4-0.34c4.97,0.39,9.94,0.77,14.92,1.16c0,0-0.13,0.14-0.13,0.14c0.35-5.73,0.69-11.46,1.04-17.18L854.69,109.43z
	 M725.61,141.15c-4.89,0.41-9.78,0.82-14.68,1.23c-0.39,4.87-0.77,9.74-1.16,14.6l-0.37-0.4c5.25,0,10.5,0,15.77,0
	c0-5.97,0-10.92,0-15.87L725.61,141.15z M791,156.98c-0.41-4.86-0.81-9.73-1.22-14.6c-4.87-0.42-9.74-0.83-14.61-1.24
	c0,0,0.45-0.41,0.45-0.41c0,5.26,0,10.51,0,15.85c5.83,0,10.81,0,15.78,0L791,156.98z M837.61,207.87
	c0.27-5.66,0.53-11.32,0.8-17.02c-5.53,0-9.84,0-14.42,0c0,5.08,0,9.8,0,12.85c5.31,1.58,9.52,2.83,13.74,4.08
	C837.72,207.78,837.6,207.88,837.61,207.87z M709.78,156.98c-5.38-0.12-10.76-0.24-16.14-0.36c-0.29,4.93-0.58,9.85-0.87,14.78
	c0,0-0.12-0.11-0.12-0.11c5.71,0.4,11.42,0.79,17.12,1.19c0,0-0.29,0.31-0.29,0.31c-0.02-5.4-0.05-10.8-0.07-16.2L709.78,156.98z
	 M808.13,171.32c-0.02,5.74-0.02,11.46-0.02,17.23c4.69,0,9.36,0,13.98,0c0-4.92,0-9.21,0-12.83c-4.88-1.5-9.47-2.91-14.06-4.32
	C808.03,171.4,808.14,171.3,808.13,171.32z M790.43,171.7c-4.89,1.39-9.82,2.73-14.53,4.01c0,4.19,0,8.4,0,12.64
	c5.28,0,9.83,0,14.32,0c0-6.18,0-11.57,0-16.96C790.22,171.39,790.39,171.65,790.43,171.7z M853.41,126.08
	c1.3,4.58,2.57,9.19,3.93,14.12c3.88,0,8.42,0,12.72,0c0-5.21,0-9.76,0-13.95c-6.09,0-11.45,0-16.82,0
	C853.24,126.25,853.37,126.11,853.41,126.08z M822.69,625.82c5.05,0.22,10.1,0.45,15.15,0.67c0,0-0.19,0.2-0.19,0.2
	c0.4-5.68,0.81-11.35,1.21-17.03c-5.38,0-10.77,0.01-16.15,0.01C822.7,615.05,822.69,620.43,822.69,625.82z M837.87,626.46
	c0.89,4.78,1.75,9.58,2.59,14.31c4.45,0,9.08,0,13.85,0c0-4.94,0-9.78,0-14.09c-6,0-11.33,0-16.66,0
	C837.64,626.68,837.84,626.48,837.87,626.46z M837.89,382.59l0.35,0.32c-5.18,0.08-10.36,0.17-15.55,0.25
	c0.01,5.38,0.02,10.76,0.03,16.13c5.38,0.01,10.76,0.03,16.14,0.04C838.53,393.75,838.21,388.17,837.89,382.59z M837.9,382.6
	c5.64,0.02,11.25,0.02,16.33,0.02c0-5.48,0-10.01,0-14.32c-5.33,0-10.14,0-13.75,0c-0.85,5.51-1.55,10.06-2.25,14.6
	C838.23,382.9,837.89,382.59,837.9,382.6z M178.51,626.57c-5.68,0.01-11.37,0.01-17.09,0.01c0,4.89,0,9.53,0,14.12
	c5.51,0,10.4,0,13.82,0c1.14-5.48,2.06-9.93,2.99-14.39C178.23,626.32,178.49,626.56,178.51,626.57z M178.51,626.57
	c-0.01-0.01-0.28-0.25-0.3-0.27c5.07-0.18,10.17-0.33,15.26-0.48c-0.01-5.38-0.02-10.76-0.03-16.15
	c-5.38-0.01-10.76-0.02-16.15-0.04C177.7,615.28,178.11,620.94,178.51,626.57z M178.46,382.41c-1.01-4.72-2.04-9.41-3.1-14.31
	c-4.46,0-9.32,0-14.04,0c0,5.21,0,9.77,0,14.19c5.9,0,11.61,0,17.31,0C178.63,382.29,178.45,382.42,178.46,382.41z M193.46,383.16
	c-4.99-0.26-9.99-0.52-15-0.76c-0.02,0.02,0.17-0.12,0.16-0.11c-0.45,5.68-0.88,11.35-1.31,17.02c5.38-0.01,10.76-0.02,16.13-0.02
	C193.45,393.92,193.45,388.54,193.46,383.16z M886.38,821.07c-5.47-1.06-10.84-2.11-16.22-3.15c1,5.27,2,10.53,3,15.82
	c4.97,0.88,10.27,1.82,15.57,2.76C887.93,831.24,887.13,825.98,886.38,821.07z M870.55,804.48c-6.29-0.92-11.25-1.65-16.21-2.38
	c0.85,5.23,1.69,10.46,2.62,16.19c4.25,0,8.92,0,13.59,0C870.55,813.33,870.55,808.37,870.55,804.48z M904.56,851.99
	c0,0-0.26,0.37-0.26,0.37c-0.59-5.23-1.18-10.45-1.83-16.22c-4.64,0-9.37,0-14.09,0c0.02,5.39,0.04,10.77,0.06,16.16
	C893.82,852.2,899.19,852.09,904.56,851.99z M146.2,804.35c-1.02,4.94-1.95,9.4-2.88,13.87c5.33,0,10.66,0,15.39,0
	c1.1-5.66,2.11-10.87,3.12-16.08C156.31,802.92,150.78,803.7,146.2,804.35z M129.59,821.23c-0.74,5.22-1.45,10.24-2.16,15.25
	c5.25-1,10.5-2.01,16.1-3.08c0-5.08,0-10.24,0-15.4C138.6,819.14,133.66,820.29,129.59,821.23z M113.3,836.15
	c-0.55,6.25-0.98,11.23-1.42,16.21c0,0-0.29-0.36-0.29-0.36c5.37,0.1,10.74,0.21,16.11,0.31c0.02-5.39,0.04-10.78,0.06-16.17
	C122.74,836.15,117.72,836.15,113.3,836.15z M145.94,204.33c5.48,0.87,10.69,1.69,15.9,2.52c-1.1-5.25-2.19-10.5-3.37-16.11
	c-4.93,0-10.04,0-15.15,0C144.24,195.54,145.17,200.34,145.94,204.33z M129.59,187.69c4.82,1.13,9.39,2.2,13.95,3.27
	c0-5.63,0-11.26,0-15.69c-6.42-1.11-11.26-1.95-16.1-2.78C128.18,177.76,128.93,183.03,129.59,187.69z M111.59,156.98
	c0,0,0.29-0.36,0.29-0.36c0.45,5.25,0.9,10.5,1.39,16.19c5.02,0,9.75,0,14.48,0c-0.01-5.39-0.03-10.79-0.04-16.18
	C122.34,156.75,116.97,156.86,111.59,156.98z M743.12,836.4c0,4.91,0,9.43,0,14.3c5.09,0,9.81,0,14.49,0c0-4.96,0-9.22,0-14.3
	C752.27,836.4,747.98,836.4,743.12,836.4z M808.03,820.93c-0.35,4.78-0.75,10.15-1.14,15.52c4.94-0.88,9.89-1.75,15.06-2.67
	c0.33-5,0.68-10.41,1.03-15.83C818.08,818.93,813.19,819.9,808.03,820.93z M773.86,803.88c-4.74,0-9.21,0-14.13,0
	c0,4.66,0,9.28,0,14.35c4.66,0,8.91,0,14.13,0C773.86,813.2,773.86,808.72,773.86,803.88z M790.56,836.99
	c-0.01-5.57-0.01-11.16-0.01-16.48c-5.87,0-10.36,0-14.81,0c0,5.03,0,9.33,0,12.83c5.48,1.18,10.33,2.22,15.19,3.26
	C790.92,836.61,790.57,836.97,790.56,836.99z M741.44,868.92c-6.24-0.41-11.18-0.74-16.13-1.07c0.71,5.13,1.42,10.25,2.02,14.61
	c5,0.54,9.55,1.03,14.1,1.52C741.44,878.78,741.44,873.57,741.44,868.92z M759.35,868.96c0,5.12,0,10.07,0,15.02
	c4.85-0.49,9.7-0.99,14.22-1.45c0.64-4.96,1.27-9.82,1.9-14.68C770.21,868.21,764.95,868.57,759.35,868.96z M775.18,852.78
	c0,5.16,0,10.25,0,15.35c4.88-0.55,9.76-1.1,14.53-1.63c0.52-4.71,1.06-9.6,1.59-14.49C786.23,852.25,781.16,852.49,775.18,852.78z
	 M724.88,852.75c-5.27-0.26-10.34-0.51-15.41-0.76c0.53,4.9,1.07,9.79,1.58,14.51c4.78,0.54,9.66,1.09,14.55,1.64
	C725.36,863.07,725.12,857.99,724.88,852.75z M807.16,836.17c-5.54,0.28-11.08,0.56-16.6,0.82c0.01-0.02,0.36-0.39,0.38-0.4
	c0.04,5.22,0.06,10.46,0.08,15.7c5.38,0,10.75,0,16.13,0C807.15,846.92,807.15,841.54,807.16,836.17z M824.51,804.33
	c-0.64,4.94-1.23,9.43-1.81,13.93c5.09,0,10.17,0,15.19,0c0.34-5.86,0.64-10.99,0.94-16.12
	C833.74,802.91,828.65,803.69,824.51,804.33z M837.92,868.95c-5.24-0.38-10.23-0.75-15.22-1.11c0.52,4.91,1.04,9.82,1.56,14.79
	c4.71,0.44,9.64,0.9,14.58,1.36C838.53,878.96,838.22,873.93,837.92,868.95z M888.71,852c-5.34,0.24-10.69,0.49-16.13,0.73
	c0,5.35,0,10.37,0,15.4c5.38,0.01,10.77,0.01,16.15,0.02C888.73,862.76,888.72,857.38,888.71,852z M821.75,852.68
	c-5.05-0.23-9.97-0.46-14.89-0.69c0.44,4.86,0.88,9.71,1.31,14.43c5.07,0.58,9.95,1.15,14.82,1.71
	C822.58,862.99,822.17,857.84,821.75,852.68z M854.68,899.84c0-5.39,0-10.77,0-16.16c-5.38,0-10.76,0.01-16.14,0.01
	c0,5.38,0,10.76,0.01,16.14C843.92,899.83,849.3,899.84,854.68,899.84z M854.18,836.57c-5.11,0-9.7,0-14.11,0c0,5.2,0,9.73,0,14.16
	c4.79,0,9.04,0,14.11,0C854.18,845.77,854.18,841.47,854.18,836.57z M856.98,868.83c-0.91,5.26-1.76,10.2-2.62,15.15
	c5.25-0.47,10.5-0.94,15.4-1.38c1.05-4.98,2.08-9.86,3.12-14.74C867.39,868.19,861.91,868.53,856.98,868.83z M643.48,191.09
	c-4.45,0-9.01,0-12.25,0c-1.27,5.91-2.32,10.83-3.38,15.75c6.2-0.01,12.41-0.01,18.61-0.02
	C645.47,201.6,644.48,196.37,643.48,191.09z M612.45,191.25c5.19-1.27,10.4-2.52,15.9-3.85c-0.2-4.36-0.4-8.66-0.59-12.93
	c-5.2,0-9.74,0-13.7,0c-0.49,6.26-0.92,11.68-1.35,17.1C612.7,191.57,612.46,191.27,612.45,191.25z M662.73,140.07
	c5.3,0.36,10.33,0.7,15.35,1.05c-0.52-4.91-1.04-9.82-1.55-14.72c-4.8-0.47-9.7-0.94-14.59-1.42
	C662.2,130.01,662.46,135.04,662.73,140.07z M580.68,141.11c-0.38-5-0.75-9.99-1.12-14.84c-5.17-0.45-10.11-0.88-15.05-1.31
	c0,5.39,0.01,10.78,0.01,16.18C569.92,141.13,575.3,141.12,580.68,141.11z M595.55,142.57c-5.29-0.61-10.22-1.18-15.16-1.75
	c0,5.38-0.01,10.77-0.01,16.15c5.39,0,10.77,0,16.16,0.01C596.2,152.02,595.86,147.07,595.55,142.57z M678.96,156.25
	c5.15,0.25,10.06,0.48,14.97,0.72c-0.47-4.92-0.95-9.85-1.4-14.54c-4.95-0.54-9.85-1.07-14.74-1.61
	C678.17,145.98,678.57,151.15,678.96,156.25z M662.92,207.64c4.6-1.11,9.22-2.19,13.81-3.27c0-4.14,0-8.66,0-13.41
	c-4.61,0-9.19,0-14.55,0c0.33,6,0.62,11.43,0.91,16.86C663.09,207.82,662.94,207.68,662.92,207.64z M646.82,172.57
	c5.05,0,9.33,0,13.81,0c0-5.1,0-9.82,0-14.35c-4.79,0-9.03,0-14.55,0C646.35,163.26,646.58,167.82,646.82,172.57z M612.6,172.78
	c-0.63-6.25-1.18-11.71-1.72-17.17l0.1,0.13c-4.92,0.3-9.84,0.6-14.77,0.91c0.01,5.38,0.02,10.75,0.03,16.13
	C601.41,172.78,606.57,172.78,612.6,172.78z M692.79,171.43c-4.73,1.42-9.47,2.81-14.12,4.17c0,4.17,0,8.7,0,13.23
	c5.17,0,9.71,0,13.98,0c0-6.19,0-11.87,0-17.55C692.64,171.29,692.76,171.4,692.79,171.43z M597.67,110.02c0,5.14,0,9.87,0,14.13
	c5.16,0,9.71,0,14.12,0c0-4.62,0-8.91,0-14.13C606.8,110.02,602.24,110.02,597.67,110.02z M647.54,126.24
	c-5.65-0.01-11.29-0.01-17.39-0.01c0,4.81,0,9.4,0,14.06c5.07,0,9.68,0,13.05,0c1.57-5.2,2.92-9.67,4.28-14.15
	C647.47,126.15,647.55,126.25,647.54,126.24z M610.9,155.63c5.75,0.36,11.49,0.71,16.99,1.04c0-5.59,0-10.19,0-14.53
	c-5.28,0-9.78,0-12.69,0c-1.62,5.25-2.92,9.43-4.21,13.61C610.98,155.75,610.88,155.61,610.9,155.63z M178.63,800.97
	c-0.36,5.7-0.69,11.38-1.04,17.4c5.69,0,10.01,0,14.44,0c0-5.1,0-9.83,0-13.08c-5.2-1.63-9.36-2.93-13.52-4.23
	C178.51,801.06,178.65,800.95,178.63,800.97z M177.31,868.94c0,5.2,0,10.13,0,15.05c4.93-0.45,9.86-0.9,14.56-1.33
	c0.53-4.98,1.06-9.9,1.58-14.82C188.26,868.2,183.06,868.55,177.31,868.94z M176.05,850.84c0-4.95,0-9.49,0-14.04
	c-5.23,0-9.83,0-14.52,0c0,4.87,0,8.94,0,14.04C166.71,850.84,171.32,850.84,176.05,850.84z M194.1,852.77
	c-0.33,5.27-0.64,10.33-0.95,15.38c4.93-0.53,9.85-1.06,14.85-1.6c0.42-4.66,0.86-9.61,1.3-14.55
	C204.26,852.25,199.22,852.51,194.1,852.77z M143.57,852.02c-5.89,0-11,0-16.11,0c-0.01,5.38-0.03,10.76-0.04,16.15
	c5.38-0.01,10.77-0.02,16.15-0.03C143.57,863.07,143.57,858,143.57,852.02z M208.05,837.67c0.03-5.74,0.03-11.44,0.03-17.18
	c-5.17,0-9.74,0-14.26,0c0,5.07,0,9.36,0,12.72c5.18,1.56,9.76,2.95,14.34,4.33C208.16,837.55,208.02,837.71,208.05,837.67z
	 M177.61,883.69c-5.34,0.42-10.67,0.85-16.13,1.28c0,4.88,0,9.87,0,14.86c5.38,0,10.76-0.01,16.13-0.01
	C177.62,894.45,177.61,889.07,177.61,883.69z M159.2,882.56c0-4.67,0-9.28,0-13.86c-5.69-0.3-10.8-0.57-15.92-0.84
	c-0.01,5.37-0.02,10.73-0.03,16.1C148.56,883.5,153.87,883.03,159.2,882.56z M305.71,171.73c-4.73,1.16-9.44,2.36-14.93,3.75
	c3,12.81-3.6,17.6-15.99,15.42c0,5.52,0,10.1,0,14.2c5.34,0,9.83,0,14.33,0c-1.09-14.45-1.09-14.45,16.38-17.42
	c0-5.41,0-10.8,0-16.2C305.5,171.48,305.74,171.76,305.71,171.73z M258.36,172.87c5.29-0.23,9.85-0.43,14.26-0.63
	c0-5.09,0-9.39,0-14.03c-4.83,0-9.26,0-14.26,0C258.36,163.49,258.36,167.92,258.36,172.87z M240.09,156.25
	c0.3-5.3,0.59-10.36,0.88-15.43c-4.9,0.53-9.8,1.05-14.61,1.57c-0.49,4.79-1,9.67-1.5,14.55
	C229.89,156.72,234.93,156.49,240.09,156.25z M339.43,126.31c-0.48,5.19-0.92,10-1.36,14.81c5.01-0.32,10.02-0.64,15.24-0.98
	c0.3-5.12,0.6-10.14,0.9-15.16C349.11,125.44,344.01,125.9,339.43,126.31z M323.24,142.55c-0.36,5.13-0.69,9.78-1.02,14.43
	c5.02-0.28,10.04-0.56,14.79-0.82c0.47-5.35,0.92-10.34,1.36-15.33C333.16,141.42,327.96,142.01,323.24,142.55z M321.31,110.24
	c-4.93,0-9.7,0-14.07,0c0,5.31,0,9.79,0,13.91c4.78,0,9.03,0,14.07,0C321.31,119.35,321.31,114.83,321.31,110.24z M256.07,190.72
	c-5.2,0-10.29,0-15.38,0c0.65,4.9,1.31,9.8,1.82,13.63c5.19,0.9,9.74,1.69,14.3,2.48C256.57,201.71,256.34,196.59,256.07,190.72z
	 M339.59,204.79c4.97,0.7,9.79,1.37,14.61,2.04c-0.34-5.36-0.68-10.72-1.02-16.13c-5.55,0-10.33,0-15.11,0
	C338.6,195.53,339.11,200.36,339.59,204.79z M291.7,140.06c-1.16-4.64-2.31-9.28-3.47-13.94c-4.19,0-8.72,0-13.38,0
	c0,5.07,0,9.66,0,14.7c6.12-0.33,11.6-0.62,17.07-0.91L291.7,140.06z M256.82,140c0-5.14,0-10.09,0-15.03
	c-4.89,0.47-9.78,0.93-14.4,1.37c-0.58,4.96-1.16,9.86-1.74,14.77C245.91,140.75,251.13,140.39,256.82,140z M291.89,139.92
	c-0.48,5.49-0.94,10.96-1.46,17.12c6.63-0.53,11.91-0.95,17.18-1.37c0,0-0.16,0.14-0.14,0.12c-1.05-4.56-2.12-9.09-3.07-13.12
	c-4.12-0.85-8.41-1.73-12.7-2.6C291.7,140.06,291.91,139.91,291.89,139.92z M208.98,172.81c5.39,0,10.78,0,16.16,0
	c-0.01-5.38-0.01-10.75-0.02-16.13c-5.38-0.01-10.76-0.02-16.14-0.03C208.98,162.03,208.98,167.42,208.98,172.81z M307.47,155.79
	c-0.02,0.03,0.14-0.12,0.13-0.1c-0.65,5.35-1.28,10.68-1.88,16.05c0.03,0.03-0.21-0.25-0.19-0.22c5.68,0.45,11.34,0.87,17,1.29
	c0-5.37,0-10.75,0-16.12C317.51,156.37,312.5,156.07,307.47,155.79z M240.13,175.59c-5.52-1.12-10.41-2.12-15.3-3.11
	c0.55,5.23,1.1,10.45,1.63,15.54c4.7,0.96,9.59,1.97,14.49,2.97C240.66,185.63,240.38,180.27,240.13,175.59z M323.37,187.66
	c5.57,1.25,10.28,2.3,14.98,3.35c-0.39-5.41-0.77-10.83-1.15-16.12c-5-0.8-9.97-1.6-14.95-2.4
	C322.66,178.04,323.06,183.59,323.37,187.66z M177.32,190.71c0,6.04,0,11.08,0,16.12c5.06-0.85,10.12-1.71,14.19-2.39
	c0.69-4.91,1.32-9.32,1.94-13.73C188.22,190.71,182.99,190.71,177.32,190.71z M194.29,156.14c5.28,0.29,10.14,0.56,15.01,0.83
	c-0.48-4.89-0.95-9.78-1.42-14.55c-4.93-0.54-9.83-1.07-14.73-1.6C193.54,145.98,193.92,151.14,194.29,156.14z M162.11,172.31
	c5.25,0,9.59,0,13.88,0c0-5.22,0-9.79,0-14.11c-4.91,0-9.18,0-14.78,0C161.55,163.46,161.84,168.06,162.11,172.31z M194.05,174.97
	c-0.29,5.27-0.58,10.65-0.87,16.03c4.89-0.97,9.77-1.93,14.74-2.91c0.44-4.99,0.91-10.3,1.38-15.6
	C204.18,173.32,199.06,174.16,194.05,174.97z M159.54,140.18c0-4.91,0-9.5,0-13.78c-5.72-0.5-11-0.96-16.28-1.42
	c0.01,5.37,0.01,10.74,0.02,16.11C148.64,140.8,154,140.49,159.54,140.18z M177.31,140.07c6.34,0.42,11.25,0.74,16.16,1.06
	c-0.57-4.9-1.13-9.8-1.7-14.68c-4.69-0.48-9.58-0.97-14.46-1.47C177.31,130.17,177.31,135.37,177.31,140.07z M127.45,156.96
	c5.31-0.27,10.61-0.54,16.11-0.82c0-5.33,0-10.32,0-15.31c-5.37,0-10.75,0-16.12,0C127.45,146.2,127.45,151.58,127.45,156.96z
	 M355.18,158.25c0,4.8,0,9.35,0,14.21c4.84,0,9.46,0,14.36,0c0-4.71,0-9.04,0-14.21C364.39,158.25,359.9,158.25,355.18,158.25z
	 M532.87,480.86c-3.55-14.37-1.65-20.21,16.12-16.12l-0.28,0.28c-2.38-17.64,0.07-20.08,16.12-16.13l-0.28,0.47
	c0-16.54,0-33.08,0-49.1c-6.29,0-10.81,0-15.33,0c0.82,15.11-0.18,16.14-15.87,16.53c-0.31,15.52-1.13,16.35-16.3,16.03
	c0,15.72,0,31.43,0,46.61c6.1,0.44,11.13,0.79,16.16,1.15L532.87,480.86z M483.31,528.1c2.8,15.65,0,18.45-16.18,16.14l0.32-0.33
	c2.58,16.69-0.95,20.98-16.15,16.17l0.33-0.46c0,16.52,0,33.03,0,49.02c6.15,0,10.69,0,15.19,0c-0.28-13.59-1.87-17.22,15.7-16.1
	c0.47-15.99,0.47-15.99,16.21-16.95c0-7.76,0-15.51,0-23.27c0-7.73,0-15.47,0-22.86c-5.8-0.37-10.79-0.68-15.79-1L483.31,528.1z
	 M451.3,448.89c15.59-4.14,18.03-1.7,16.15,16.16l-0.31-0.32c13.93-3.36,19.87-1.68,16.15,16.14l-0.37-0.33
	c5.29-0.38,10.58-0.75,15.82-1.13c0-8,0-15.8,0-23.61c0-7.75,0-15.5,0-23.26c-14.83,0.9-16.18-0.48-16.14-15.51
	c-4.88-0.95-11.24-0.37-13.98-3.24c-2.75-2.89-1.89-9.21-2.53-13.48c-4.85,0-9.35,0-14.43,0c0,16.45,0,32.76,0,49.08L451.3,448.89z
	 M564.84,560.07c-15.94,3.99-18.98,0.95-16.12-16.18l0.29,0.35c-16.8,3.32-20.45-0.34-16.12-16.15l0.41,0.35
	c-5.31,0.28-10.62,0.55-15.97,0.83c0,8.5,0,16.3,0,24.1c0,7.66,0,15.32,0,22.99c14.54-0.87,15.91,0.53,16.11,16.02
	c14.79-0.68,16.08,0.61,16.2,16.3c4.83,0,9.6,0,14.89,0c0-16.66,0-32.85,0-49.05L564.84,560.07z M564.84,448.89
	c2.05,17.98-1.43,16-16.12,16.13c0,0,0.28-0.28,0.28-0.28c0.99,16.31,0.06,17.23-16.12,16.12c0,0,0.35-0.27,0.35-0.27
	c0,5.27,0,10.54,0,15.2c15.88,0,31.39,0,46.89,0c-1.71-14.81-0.5-16.06,15.26-16.59c0.74-4.75-0.1-11.03,2.57-13.45
	c3.07-2.79,9.23-2.18,14.18-3.06c0-4.35,0-8.69,0-13.32c-16.14,0-31.85,0-47.56,0L564.84,448.89z M532.88,528.08
	c15.87-1.3,17.76,0.59,16.12,16.15l-0.29-0.35c14.73,1.43,18.43-0.38,16.12,16.18c0,0-0.32-0.45-0.32-0.45c15.75,0,31.5,0,48.01,0
	c-0.27-2.39-0.63-4.51-0.73-6.64c-0.12-2.43-0.03-4.88-0.03-7.37c-14.4,0.76-15.37-0.24-17.1-16.94
	c-13.35,3.44-15.53-4.79-14.68-15.47c-16.02,0-31.19,0-46.69,0c0,5.15,0,10.2,0,15.24L532.88,528.08z M483.29,480.87
	c-16.31,1.12-17.55-0.12-16.15-16.14l0.31,0.32c-16.93,0.29-18.18-0.97-16.15-16.16c0,0,0.36,0.5,0.36,0.49
	c-16.05,0-32.09,0-48.32,0c0.28,5.09,0.53,9.73,0.79,14.4c14.42-1.65,16.22,0.19,16.18,15.71c13.86-1.15,15,0.03,15.92,16.34
	c15.73,0,31.45,0,46.69,0c0-5.35,0-10.32,0-15.29L483.29,480.87z M451.3,560.08c-2.63-13.33-0.69-17.25,16.15-16.17
	c0,0-0.32,0.33-0.32,0.33c-0.89-15.37,1.17-17.43,16.18-16.14c0,0-0.37,0.38-0.37,0.38c0-5.06,0-10.11,0-15.3
	c-16.39,0-31.72,0-47.05,0c-0.56,16.3-0.56,16.3-16.05,16.65c0.82,13.3,0.2,13.96-16,16.89c0,4.28,0,8.62,0,12.91
	c16.22,0,32,0,47.78,0L451.3,560.08z M370.06,367.63c0-15.81,0-31.63,0-47.79c-16.67,0-31.72,0-47.82,0c0,16.35,0,32.05,0,47.76
	C338.18,367.61,354.12,367.62,370.06,367.63z M346.56,352.32c-3.64-0.41-6.72-5.87-10.04-9.13c3.38-3.26,6.39-8.36,10.28-9.16
	c2.83-0.58,6.82,4.52,12.91,9.01C353.75,347.52,349.85,352.69,346.56,352.32z M322.23,641.35c0,15.86,0,31.71,0,47.76
	c16.96,0,31.96,0,47.82,0c0-16.33,0-32.04,0-47.76C354.11,641.35,338.17,641.35,322.23,641.35z M337.31,665.19
	c0.53-3.37,5.98-7.76,9.84-8.42c6.18-1.07,9.34,4.54,8.17,9.89c-0.82,3.74-4.96,6.75-9.76,12.78
	C341.45,672.8,336.78,668.59,337.31,665.19z M693.9,367.59c0-15.92,0-31.84,0-47.6c-16.83,0-32.11,0-47.79,0
	c0,16.58,0,32.09,0,47.61C662.04,367.6,677.97,367.6,693.9,367.59z M678.82,343.36c-0.4,3.45-5.83,8.23-9.56,8.73
	c-2.65,0.35-8.48-5.31-8.62-8.48c-0.17-3.71,4.31-7.62,8.87-14.71C674.29,335.89,679.22,339.94,678.82,343.36z M646.11,641.35
	c0,15.81,0,31.62,0,47.74c16.67,0,31.68,0,47.8,0c0-16.39,0-32.06,0-47.74C677.98,641.36,662.04,641.36,646.11,641.35z
	 M678.61,666.02c-0.76,3.62-6,8.11-9.8,8.64c-2.46,0.35-8.06-5.62-8.18-8.91c-0.14-3.54,4.48-7.26,7.02-10.91
	c1.52,0,3.05-0.01,4.57-0.01C674.56,658.61,679.27,662.88,678.61,666.02z M643.81,626.78c-15.19-0.09-15.21-0.11-16.37-16.15
	c-5.13-0.32-10.25-0.63-15.37-0.95c0.76,4.96,1.51,9.92,2.26,14.89c14.96-0.33,16.16,0.84,15.94,15.89
	c5.35,0.39,10.73,0.79,16.12,1.18C645.55,636.7,644.69,631.78,643.81,626.78z M646.36,559.82c-5.27,0.86-10.53,1.71-16.14,2.62
	c0,4.58,0,9.4,0,13.78c5.31,0,9.78,0,13.67,0c0.8-6.08,1.5-11.39,2.21-16.69C646.09,559.53,646.36,559.82,646.36,559.82z
	 M644.5,447.19c0-5.05,0-9.53,0-14.43c-5.08,0-9.82,0-14.44,0c0,5.02,0,9.29,0,14.43C635.46,447.19,639.98,447.19,644.5,447.19z
	 M404.28,593.64c-1.15-5.16-2.32-10.3-3.46-15.33c-4.39,0-8.7,0-13.04,0c0,5.09,0,9.63,0,14.04c6.07,0.34,11.44,0.65,16.81,0.95
	C404.6,593.29,404.27,593.65,404.28,593.64z M369.82,449.16c5.2-0.97,10.41-1.93,15.59-2.89c0-4.6,0-9.17,0-13.45
	c-5.3,0-9.77,0-13.54,0c-0.65,6.11-1.21,11.38-1.77,16.65C370.11,449.47,369.83,449.17,369.82,449.16z M388.52,610.47
	c-1.05,5.51-1.99,10.41-2.92,15.32c5.31-0.5,10.62-0.99,15.8-1.47c0.88-4.79,1.78-9.71,2.68-14.62
	C398.63,609.96,393.19,610.23,388.52,610.47z M370.17,559.47c0.56,5.34,1.13,10.66,1.75,16.45c4.48,0,9.05,0,13.55,0
	c0-5.05,0-9.38,0-12.98c-5.65-1.15-10.62-2.16-15.58-3.17C369.89,559.77,370.18,559.47,370.17,559.47z M404.42,415.39
	c-5.62,0.52-11.25,1.04-17.08,1.57c0.23,4.93,0.43,9.44,0.62,13.57c5.17,0,9.49,0,13.01,0c1.13-5.66,2.12-10.56,3.1-15.47
	C404.07,415.07,404.41,415.38,404.42,415.39z M628.19,398.29c0-5.24,0-10.19,0-15.13c-4.76,0.51-9.51,1.03-13.91,1.5
	c-0.76,4.99-1.49,9.82-2.23,14.64C617.36,398.97,622.67,398.64,628.19,398.29z M581.97,398.33c5.21,0.35,9.87,0.66,14.54,0.97
	c-0.35-5.11-0.69-10.23-0.99-14.67c-5.51-0.53-10.32-1-15.13-1.46C580.93,388.38,581.48,393.59,581.97,398.33z M611.84,415.34
	c0.96,4.87,1.93,9.72,3,15.07c3.74,0,8.32,0,13.14,0c0-4.95,0-9.22,0-13.45c-5.8-0.45-11.13-0.87-16.46-1.28
	C611.52,415.67,611.86,415.32,611.84,415.34z M434.05,398.23c0.6-5.25,1.16-10.16,1.72-15.06c-5.27,0.5-10.55,0.99-16.14,1.52
	c0,5.02,0,9.83,0,14.63C424.56,398.94,429.51,398.57,434.05,398.23z M388.56,398.47c5.29,0.28,10.4,0.54,15.52,0.81
	c-0.92-4.93-1.85-9.86-2.77-14.76c-5.1-0.44-10.41-0.89-15.71-1.34C386.6,388.34,387.6,393.5,388.56,398.47z M643.73,382.21
	c0.95-5.26,1.81-10.07,2.67-14.87c-5.34,0.39-10.68,0.78-15.46,1.13c-1.06,5.17-2.06,10.07-3.06,14.98
	C633.43,383.01,638.98,382.58,643.73,382.21z M565.7,382.31c5.26,0.4,10.12,0.77,14.99,1.15c-0.41-5.16-0.81-10.32-1.18-14.98
	c-5.28-0.41-10.12-0.78-14.95-1.16C564.95,372.5,565.34,377.66,565.7,382.31z M450.31,382.26c0.42-4.98,0.86-9.95,1.29-14.93
	c-4.99,0.37-9.98,0.74-15.11,1.12c-0.34,5.02-0.68,10.01-1.02,15C440.42,383.06,445.37,382.66,450.31,382.26z M612.14,593.92
	c5.24-0.73,10.47-1.46,15.78-2.2c0-4.29,0-8.57,0-13.21c-5.08,0-9.61,0-13.46,0c-0.73,5.76-1.36,10.75-1.99,15.73
	C612.47,594.23,612.14,593.92,612.14,593.92z M434,610.79c-5.07-0.41-9.73-0.78-14.39-1.15c0.32,5.17,0.63,10.33,0.9,14.63
	c5.65,0.57,10.47,1.05,15.28,1.54C435.17,620.6,434.55,615.38,434,610.79z M581.83,610.7c-0.52,5.41-0.98,10.25-1.45,15.1
	c5.25-0.51,10.5-1.03,15.18-1.48c0.34-5.23,0.65-9.94,0.95-14.65C591.4,610.03,586.29,610.39,581.83,610.7z M450.15,626.79
	c-4.79-0.42-9.73-0.86-14.68-1.3c0.31,5.17,0.63,10.33,0.91,14.96c5.53,0.43,10.37,0.8,15.21,1.18
	C451.11,636.69,450.63,631.75,450.15,626.79z M565.69,626.71c-0.39,5.22-0.76,10.06-1.13,14.91c4.97-0.39,9.94-0.77,14.93-1.16
	c0.4-4.96,0.79-9.96,1.19-14.97C575.51,625.92,570.33,626.34,565.69,626.71z M371.85,626.79c-0.74,5.23-1.42,10.04-2.1,14.85
	c5.29-0.45,10.57-0.9,16.14-1.38c0-5.21,0-9.99,0-14.77C381.03,625.95,376.15,626.39,371.85,626.79z M417.49,594.44
	c-4.41-0.27-8.8-0.54-13.21-0.8c-0.02,0.01,0.32-0.34,0.3-0.33c-0.27,5.55-0.53,11.09-0.79,16.63c5.38,0.01,10.76,0.02,16.14,0.03
	C419.12,604.78,418.3,599.59,417.49,594.44z M372.09,382.11c4.74,0.46,9.27,0.91,13.8,1.35c0-5.06,0-10.12,0-15.04
	c-5.95-0.4-11.05-0.75-16.15-1.1C370.54,372.39,371.35,377.45,372.09,382.11z M500.13,512.12c5.02-0.26,9.59-0.49,14.24-0.73
	c0-4.92,0-9.47,0-13.69c-4.81,0-9.02,0-14.24,0C500.13,502.35,500.13,506.92,500.13,512.12z M598.06,414.46
	c4.54,0.3,9.15,0.6,13.78,0.88c0.02-0.01-0.32,0.33-0.3,0.32c0.28-5.56,0.55-11.1,0.82-16.65c-5.38,0-10.75,0.01-16.13,0.01
	C596.84,404.18,597.45,409.34,598.06,414.46z M404.42,415.39c-0.01-0.01-0.35-0.33-0.36-0.33c4.72-0.01,9.44-0.01,13.22-0.01
	c1.02-6.21,1.83-11.13,2.63-16.04c-5.37,0-10.74,0.01-16.12,0.01C404.01,404.48,404.22,409.94,404.42,415.39z M612.14,593.92
	c0,0,0.32,0.31,0.32,0.31c-5,0-10.01,0-14.12,0c-0.78,5.89-1.43,10.79-2.08,15.7c5.37,0,10.73,0.01,16.1,0.01
	C612.28,604.6,612.21,599.26,612.14,593.92z M823.01,77.45c-5.39,0-10.78-0.01-16.17-0.01c0.42,4.92,0.83,9.83,1.21,14.27
	c5.24,0.66,10.09,1.27,14.94,1.88C823,88.21,823.01,82.83,823.01,77.45z M822.7,93.3c0.55,4.89,1.09,9.79,1.64,14.72
	c4.69,0.46,9.6,0.93,14.5,1.41c0-5.38,0-10.77,0-16.15C833.47,93.29,828.08,93.29,822.7,93.3z M224.1,124.11c0-5.41,0-9.91,0-13.91
	c-5.22,0-9.78,0-14.12,0c0,4.9,0,9.44,0,13.91C215.04,124.11,219.82,124.11,224.1,124.11z M515.17,884.9c-5.25,0-10.08,0-14.5,0
	c0,5.28,0,9.76,0,14.07c5.29,0,9.88,0,14.5,0C515.17,893.91,515.17,889.36,515.17,884.9z M436.36,882.69
	c5.27,0.45,10.26,0.87,15.25,1.29c0-5.38,0-10.76,0-16.14c-5.38,0-10.77,0-16.15-0.01C435.77,872.86,436.07,877.88,436.36,882.69z
	 M404.31,884.75c0,5.31,0,9.92,0,13.97c5.43,0,9.92,0,13.99,0c0-5.03,0-9.27,0-13.97C412.93,884.75,408.34,884.75,404.31,884.75z
	 M420.35,866.14c5.57,0.72,10.49,1.36,15.41,2c0-5.38,0-10.76,0.01-16.14c-5.38,0-10.76,0-16.15-0.01
	C419.88,856.98,420.14,861.97,420.35,866.14z M708.74,110.07c-5.32,0-9.85,0-13.9,0c0,5.23,0,9.77,0,14.12c4.82,0,9.35,0,13.9,0
	C708.74,119.2,708.74,114.43,708.74,110.07z M805.97,110.16c-4.97,0-9.46,0-14.09,0c0,4.74,0,9.26,0,14.01c4.67,0,9.2,0,14.09,0
	C805.97,119.07,805.97,114.52,805.97,110.16z M307.3,884.77c0,4.94,0,9.71,0,14.04c5.31,0,9.78,0,13.98,0c0-4.76,0-9.06,0-14.04
	C317.08,884.77,312.28,884.77,307.3,884.77z M224.12,884.75c-4.87,0-9.67,0-14.02,0c0,5.2,0,9.75,0,13.97c4.7,0,8.91,0,14.02,0
	C224.12,894.04,224.12,889.5,224.12,884.75z M209.29,931.51c-0.47-4.88-0.94-9.75-1.39-14.51c-4.93-0.55-9.84-1.09-14.74-1.63
	c-0.01,5.39-0.02,10.77-0.03,16.16C198.52,931.53,203.9,931.52,209.29,931.51z M193.44,915.66c-0.57-4.88-1.13-9.76-1.67-14.42
	c-4.76-0.56-9.61-1.13-14.45-1.7c-0.01,5.38-0.01,10.76-0.02,16.14C182.68,915.68,188.06,915.67,193.44,915.66z M838.84,899.54
	c-4.9,0.49-9.8,0.99-14.48,1.46c-0.55,4.88-1.11,9.78-1.66,14.69c5.39,0,10.77,0,16.16,0C838.85,910.3,838.85,904.92,838.84,899.54z
	 M694.72,898.77c4.93,0,9.69,0,14.07,0c0-5.38,0-9.87,0-13.94c-4.81,0-9.1,0-14.07,0C694.72,889.07,694.72,893.87,694.72,898.77z
	 M806.09,884.81c-5.04,0-9.83,0-14.08,0c0,5.31,0,9.81,0,13.94c4.69,0,8.92,0,14.08,0C806.09,894.07,806.09,889.51,806.09,884.81z
	 M808.18,917.29c-0.47,5-0.9,9.61-1.34,14.22c5.39,0,10.77,0,16.16,0c0-5.38,0-10.76,0-16.14
	C817.83,916.04,812.65,916.71,808.18,917.29z"/>
</svg>
