<?xml version="1.0" encoding="utf-8"?>
<!-- Generator: Adobe Illustrator 26.0.1, SVG Export Plug-In . SVG Version: 6.00 Build 0)  -->
<svg version="1.1" id="Layer_1" xmlns="http://www.w3.org/2000/svg" xmlns:xlink="http://www.w3.org/1999/xlink" x="0px" y="0px"
	 viewBox="0 0 512 512" style="enable-background:new 0 0 512 512;" xml:space="preserve">
<path d="M167.01,324.29c-2.19,0.2-4.39,0.4-7.02,0.65c0,17.76,0,35.55,0,53.73c2.01,0.17,3.96,0.34,6.2,0.53c0,1.97,0,3.74,0,5.75
	c-2.02,0.19-3.85,0.35-6.26,0.58c0,15.35,0,30.74,0,46.63c-2.31,0.11-4.08,0.19-6.43,0.31c0-15.78,0-31.19,0-46.88
	c-2.49-0.24-4.45-0.43-6.69-0.64c-0.09-1.85-0.18-3.49-0.28-5.6c2.22-0.22,4.19-0.42,6.58-0.65c0-17.75,0-35.54,0-53.7
	c-2.35-0.22-4.66-0.43-6.97-0.65l0.16,0.17c0.17-1.84,0.34-3.67,0.54-5.83c2.07-0.21,4.03-0.42,6.52-0.68c0-13.25,0-26.43,0-39.91
	c2.18-0.14,3.82-0.25,6.19-0.4c0,13.58,0,26.88,0,40.4c2.51,0.17,4.34,0.3,6.53,0.45c0.27,1.99,0.53,3.95,0.78,5.91
	C166.87,324.46,167.01,324.29,167.01,324.29z M388.97,324.38c2.17,0.18,4.34,0.36,6.78,0.56c0,18,0,35.79,0,53.63
	c-2.33,0.28-4.3,0.52-6.2,0.75c0,2.12,0,3.88,0,5.69c2.21,0.18,4.04,0.32,6.43,0.51c0,15.58,0,30.98,0,46.57c2.34,0,4.09,0,6.48,0
	c0-15.72,0-31.12,0-46.51c2.45-0.24,4.28-0.43,6.33-0.63c0-1.98,0-3.76,0-5.74c-2.22-0.2-4.17-0.38-6.14-0.56
	c0-18.17,0-35.95,0-53.68c2.29-0.24,4.11-0.43,6.08-0.64c0-2.05,0-3.83,0-5.65c-2.26-0.29-4.21-0.53-6.52-0.82
	c0-13.37,0-26.43,0-39.79c-2.18,0-3.94,0-6.28,0c0,13.49,0,26.69,0,39.94c-2.53,0.27-4.5,0.48-6.82,0.72c0,2.13,0,3.98,0,5.82
	L388.97,324.38z M214.13,183.21c0,2,0,4,0,6.22c2.3,0.25,4.26,0.47,6.79,0.75c0,13.4,0,26.59,0,39.76c2.36,0,4.12,0,6.29,0
	c0-13.44,0-26.51,0-39.73c2.34-0.31,4.28-0.57,6.24-0.83c0-2.07,0-3.85,0-5.72c-2.2-0.17-4.02-0.32-6.04-0.48
	c0-18.01,0-35.84,0-53.72c2.3-0.25,4.25-0.46,6.09-0.65c0-2.15,0-3.92,0-5.85c-2.21-0.12-4.04-0.21-6.41-0.34
	c0-15.6,0-31.04,0-46.61c-2.32,0-4.08,0-6.45,0c0,15.73,0,31.13,0,46.47c-2.57,0.3-4.53,0.53-6.71,0.78
	c0.12,2.13,0.22,3.78,0.32,5.62c2.24,0.2,4.2,0.37,6.26,0.55c0,18.14,0,35.92,0,53.96c-2.49,0-4.53,0-6.56,0L214.13,183.21z
	 M336.07,189.22c2.32,0.23,4.14,0.4,6.23,0.61c0,13.34,0,26.42,0,39.82c2.02,0,3.73,0,5.94,0c0-14.23,0-28.02,0-41.02
	c2.28,0.33,4.18,0.6,6.32,0.91c0-2.26,0-3.85,0-5.56c-2.35-0.2-4.31-0.37-6.38-0.54c0-18.63,0-36.98,0-54.96c2.35,0,4.4,0,6.84,0
	c-0.18-2.01-0.32-3.6-0.46-5.26c-2.38-0.11-4.21-0.2-6.57-0.31c0-15.61,0-31.03,0-46.6c-2.12,0-3.71,0-5.8,0c0,15.78,0,31.19,0,46.6
	c-2.32,0.16-4.14,0.28-6.16,0.42c0,1.87,0,3.48,0,5.21c2.24,0.27,4.18,0.5,5.96,0.72c0,18.35,0,36.31,0,54.25
	c-2.15,0.15-3.84,0.26-6.3,0.44C335.85,186.03,335.96,187.63,336.07,189.22z M105.72,183.41c0-18.09,0-36.06,0-54.13
	c2.35-0.3,4.32-0.55,6.4-0.82c0-1.75,0-3.23,0-4.95c-2.16-0.28-4.13-0.54-6.74-0.89c0-15.48,0-30.9,0-46.47c-2.12,0-3.59,0-5.71,0
	c0.71,11.19-1.05,22.23,0.8,32.12c-0.42,5.26-0.78,9.81-1.15,14.49c-2.03,0.24-3.98,0.48-6.24,0.75c0.14,1.98,0.25,3.58,0.36,5.11
	c2.35,0.21,4.17,0.37,5.49,0.49c2.94,4.45-2.21,10.11,3.13,13.66c-0.25,0.09-0.68,0.12-0.73,0.28c-0.58,1.6-1.54,3.22-1.56,4.84
	c-0.13,11.85-0.07,23.7-0.07,35.57c-2.4,0.17-4.22,0.3-6.32,0.46c0,1.82,0,3.42,0,5.23c2.22,0.24,4.17,0.45,6.31,0.68
	c0,12.33-0.08,24.4,0.12,36.47c0.02,1.27,1.71,2.52,2.63,3.77c1.01-1.17,2.68-2.24,2.9-3.54c0.45-2.65,0.12-5.43,0.12-8.16
	c0-9.48,0-18.96,0-28.4c2.71-0.38,4.68-0.66,6.61-0.93c0-1.82,0-3.29,0-4.97C109.83,183.84,107.84,183.63,105.72,183.41z
	 M280.84,385.29c2.48-0.23,4.31-0.4,6.33-0.59c0-1.86,0-3.45,0-5.23c-2.27-0.22-4.23-0.41-6.3-0.61c0-18.26,0-36.21,0-54.16
	c2.36-0.25,4.34-0.45,6.67-0.7c-0.14-1.91-0.25-3.5-0.36-5.04c-2.31-0.29-4.12-0.52-6.51-0.82c0-13.18,0-26.21,0-39.61
	c-2.17-0.11-3.77-0.19-5.86-0.29c0,13.65,0,26.81,0,40.02c-2.41,0.3-4.36,0.54-6.6,0.81c0.17,1.98,0.3,3.58,0.43,5.05
	c2.39,0.27,4.21,0.48,6.11,0.69c0,18.2,0,36.12,0,54.14c-2.17,0.17-3.99,0.3-6.13,0.47c0,1.83,0,3.43,0,5.3
	c2.16,0.18,4.12,0.34,6.62,0.55c0,15.69,0,31.19,0,46.72c1.89,0,3.23,0,5.6,0C280.84,416.14,280.84,400.75,280.84,385.29z
	 M194.14,216.63c2.37,0.2,4.33,0.36,6.23,0.52c0.15,2.21,0.27,4.04,0.41,6.1c2.19,0.16,4.17,0.31,6.19,0.47
	c0.21,2.21,0.4,4.19,0.61,6.33c2.06,0,3.84,0,5.83,0c0-13.3,0-26.32,0-39.47c-2.27-0.23-4.23-0.43-6.22-0.63
	c-0.26-2.26-0.48-4.21-0.73-6.3c-2.14-0.17-3.96-0.31-5.83-0.46c-0.3-2.2-0.56-4.13-0.84-6.17c-2.03,0-3.68,0-5.66,0
	C194.14,190.62,194.14,203.61,194.14,216.63z M389.14,324.55c-1.99,0.23-3.99,0.46-6.18,0.71c-0.27,2.1-0.53,4.07-0.81,6.22
	c-2.08,0.21-4.05,0.41-6.2,0.63c-0.15,2.2-0.28,4.17-0.42,6.16c-2.3,0.19-4.27,0.36-6.28,0.52c0,13.36,0,26.38,0,39.53
	c2.15,0,3.93,0,5.91,0c0.2-2.26,0.37-4.23,0.55-6.26c2.15-0.22,4.11-0.42,6.05-0.62c0.25-2.28,0.47-4.23,0.67-6.11
	c2.34-0.21,4.31-0.39,6.55-0.6c0-13.79,0-27.08,0-40.36C388.97,324.38,389.13,324.55,389.14,324.55z M213.95,183.39
	c0-13.32,0-26.64,0-39.87c-3.04-0.36-4.98-0.59-6.85-0.81c-0.19-2.26-0.34-4.09-0.51-6.08c-2.15-0.27-4.11-0.52-6.02-0.76
	c-0.23-2.07-0.44-3.89-0.65-5.83c-2.16,0-4.06,0-5.76,0c0,13.36,0,26.33,0,39.34c2.25,0.22,4.09,0.39,6.08,0.59
	c0.23,2.08,0.45,4.05,0.66,6.03c2.19,0.26,4.15,0.48,6.04,0.71c0.29,2.34,0.52,4.31,0.79,6.51c2.35,0,4.38,0,6.41,0
	C214.13,183.21,213.96,183.39,213.95,183.39z M368.9,326.47c-0.02,5.41,0.7,5.9,6.37,4c0.16-1.82,0.32-3.64,0.5-5.65
	c2.1-0.14,3.92-0.25,6.02-0.39c0.2-2.21,0.38-4.16,0.56-6.21c2.24-0.26,4.21-0.48,6.2-0.71c0-13.31,0-26.32,0-39.36
	c-2.16,0-3.92,0-5.65,0c-0.32,2.37-0.59,4.33-0.85,6.24c-2.21,0.18-4.04,0.33-6.1,0.5c-0.14,2.22-0.26,4.19-0.4,6.31
	c-2.23,0.14-4.21,0.27-6.64,0.42C368.91,303.39,368.93,314.93,368.9,326.47z M423.08,332.19c-2.32-0.26-4.64-0.53-6.96-0.79
	c-0.26-2.22-0.49-4.17-0.76-6.45c-2.09,0.1-3.85,0.18-5.57,0.26c0,13.57,0,26.57,0,39.64c2.27,0.19,4.22,0.35,6.1,0.5
	c0.19,2.34,0.36,4.3,0.51,6.16c2.51,0.27,4.46,0.49,6.3,0.69c0.18,2.25,0.33,4.08,0.49,6.16c2.01,0,3.76,0,5.79,0
	c0-13.31,0-26.31,0-39.61c-2.18-0.18-4.13-0.34-6.42-0.52c0.13-2.2,0.26-4.2,0.38-6.2L423.08,332.19z M422.93,332.02
	c1.95-0.35,3.9-0.7,6.05-1.08c0-13.18,0-26.2,0-39.39c-2.21-0.19-4.17-0.36-6.09-0.53c-0.25-2.28-0.47-4.24-0.68-6.09
	c-2.36-0.28-4.32-0.51-6.2-0.73c-0.19-2.22-0.35-4.05-0.53-6.13c-2,0-3.76,0-5.79,0c0,13.32,0,26.34,0,39.44
	c2.22,0.26,4.18,0.5,6.08,0.73c0.28,2.27,0.53,4.23,0.78,6.23c2.19,0.16,4.01,0.3,6.09,0.46c0.15,2.58,0.29,4.93,0.42,7.28
	C423.08,332.19,422.94,332.03,422.93,332.02z M180.15,331.76c1.99-0.23,3.98-0.45,6.23-0.71c0-13.24,0-26.24,0-39.54
	c-2.14-0.14-4.1-0.26-6.11-0.39c-0.21-2.19-0.4-4.16-0.6-6.23c-2.26-0.22-4.21-0.41-6.14-0.6c-0.29-2.3-0.54-4.25-0.83-6.52
	c-2.11,0.1-3.87,0.19-5.48,0.26c0,13.59,0,26.59,0,39.56c2.35,0.26,4.3,0.48,6.17,0.69c0.2,2.23,0.36,4.05,0.53,5.98
	c2.18,0.29,4.14,0.55,6.42,0.85c0,2.44,0,4.64,0,6.84L180.15,331.76z M180.33,331.94c-2.3-0.15-4.6-0.3-6.81-0.44
	c-0.29-2.4-0.53-4.34-0.75-6.15c-2.27-0.35-4.08-0.63-5.9-0.9c-0.01,0.01,0.13-0.16,0.13-0.15c0,13.43,0,26.86,0,40.52
	c2.17,0.16,4.16,0.31,6.36,0.47c0.18,2.08,0.35,4.07,0.53,6.23c2.07,0.22,4.04,0.43,6.01,0.64c0.27,2.21,0.5,4.16,0.74,6.07
	c2.14,0,3.9,0,5.66,0c0-13.44,0-26.45,0-39.52c-2.33-0.17-4.28-0.31-6.15-0.45c0-2.42,0-4.46,0-6.5
	C180.15,331.76,180.34,331.94,180.33,331.94z M240.2,183.45c0.23-2.17,0.46-4.34,0.72-6.77c2.04-0.23,4.01-0.46,6.13-0.7
	c0.29-2.1,0.55-4.05,0.81-5.93c2.14-0.28,3.95-0.51,5.79-0.75c0-13.29,0-26.31,0-39.64c-2.17,0.1-3.95,0.19-5.65,0.27
	c-0.26,2.41-0.46,4.23-0.65,6c-2.23,0.27-4.2,0.51-6.19,0.76c-0.2,2.33-0.37,4.29-0.53,6.22c-2.25,0.19-4.07,0.34-6.08,0.51
	c0,13.25,0,26.3,0,39.56c2.13,0.13,3.97,0.24,5.8,0.36L240.2,183.45z M146.31,324.51c-1.97,0.27-3.95,0.52-6.06,0.8
	c-0.23,2.16-0.44,4.14-0.66,6.2c-2.17,0.21-4.14,0.4-6.26,0.61c-0.18,2.21-0.34,4.17-0.5,6.09c-2.26,0.27-4.21,0.49-6.03,0.71
	c0,13.42,0,26.43,0,39.75c2.18-0.11,3.96-0.21,5.8-0.3c0.18-2.33,0.33-4.16,0.48-6.17c2.12-0.25,4.09-0.48,6.13-0.72
	c0.17-2.18,0.33-4.15,0.49-6.12c2.26-0.18,4.26-0.35,6.44-0.52c0-13.67,0-27.09,0-40.5C146.15,324.33,146.3,324.51,146.31,324.51z
	 M240.37,183.31c0.2,2.23,0.4,4.47,0.6,6.72c-2.59,0.21-4.41,0.36-6.42,0.53c0,13.23,0,26.23,0,39.46c2.07,0,3.83,0,5.78,0
	c0.2-2.25,0.37-4.2,0.54-6.16c2.32-0.29,4.28-0.54,6.41-0.81c0.11-2.09,0.2-3.9,0.31-5.94c2.12-0.17,4.07-0.32,6.14-0.48
	c0-13.39,0-26.38,0-39.45c-2.09,0-3.85,0-5.83,0c-0.15,2.15-0.28,3.96-0.44,6.27c-2.6,0-4.93,0-7.27,0
	C240.2,183.45,240.36,183.31,240.37,183.31z M133.07,324.98c2.13-0.25,4.09-0.49,6.07-0.72c0.26-2.21,0.49-4.14,0.72-6.07
	c2.21-0.22,4.05-0.41,6.05-0.61c0-13.29,0-26.42,0-39.56c-2.06,0-3.71,0-5.63,0c-0.2,2.17-0.39,4.13-0.59,6.31
	c-2.2,0.19-4.15,0.35-6.31,0.54c-0.17,2.29-0.32,4.27-0.47,6.19c-2.21,0.21-4.15,0.39-6.04,0.57c0,13.47,0,26.44,0,39.57
	c2.06,0,3.69,0,5.78,0C132.8,328.79,132.93,326.96,133.07,324.98z M79.21,216.97c0.34,2.17,0.65,4.11,0.95,6.02
	c2.26,0.18,4.08,0.32,5.85,0.46c0.2,2.26,0.38,4.22,0.6,6.62c1.97-0.13,3.54-0.24,5.13-0.35c0-13.28,0-25.99,0-38.85
	c-2.24-0.27-4.19-0.5-6.08-0.73c-0.21-2.27-0.39-4.25-0.57-6.28c-2.33-0.16-4.16-0.28-6.15-0.41c-0.27-2.07-0.52-4.02-0.79-6.09
	c-1.79,0-3.28,0-5.08,0c0,12.89,0,25.58,0,38.83C75.32,216.49,77.29,216.74,79.21,216.97z M248.3,330.93
	c2.01-0.12,3.62-0.21,5.23-0.31c0.2-2.32,0.36-4.14,0.52-5.95c2.29-0.2,4.26-0.37,6.33-0.55c0.19-2.3,0.35-4.3,0.52-6.33
	c2.03-0.21,3.86-0.4,6.27-0.64c0-2.48,0-4.82,0-7.17c0.02-9.37,0.14-18.73-0.07-28.09c-0.03-1.31-1.71-2.58-2.63-3.87
	c-1.04,1.18-2.27,2.26-3.04,3.59c-0.42,0.73-0.08,1.91-0.08,2.91c-2.37,0.3-4.31,0.55-6.2,0.79c-0.24,2.24-0.44,4.06-0.65,6
	c-2.11,0.25-3.94,0.47-6.2,0.75C248.3,305.19,248.3,317.87,248.3,330.93z M73.59,169.02c1.69,0.23,3.67,0.49,5.72,0.76
	c0.25,2,0.49,3.94,0.73,5.96c2.21,0.21,4.03,0.38,5.9,0.56c0.23,2.21,0.43,4.18,0.68,6.58c1.88-0.09,3.46-0.17,4.95-0.24
	c0-13.35,0-26.17,0-39c-2.29-0.22-4.11-0.39-5.91-0.56c-0.26-2.3-0.49-4.27-0.71-6.28c-2.29-0.24-4.25-0.44-6.12-0.63
	c-0.21-2.19-0.38-4-0.58-6.02c-1.79,0-3.27,0-4.67,0C73.59,143.39,73.59,156.04,73.59,169.02z M328.32,143.08
	c-0.32-2.15-0.62-4.1-0.94-6.28c-2.16-0.18-4.12-0.35-6.02-0.51c-0.16-2.21-0.3-4.16-0.46-6.41c-2.04,0.15-3.49,0.26-5.16,0.39
	c0,13.12,0,25.91,0,38.88c2.28,0.18,4.26,0.33,6.18,0.48c0.25,2.19,0.47,4.15,0.73,6.48c2.29,0,4.25,0,6.49,0c0,2.38,0,4.35,0,6.79
	c1.93-0.12,3.52-0.23,5.31-0.34c0-13.1,0-25.77,0-38.9C332.07,143.44,330.25,143.27,328.32,143.08z M315.7,177.6
	c0,12.96,0,25.65,0,38.58c2.22,0.27,4.17,0.5,6.18,0.74c0.25,2.02,0.47,3.85,0.73,5.96c2.95,0.23,5.8,0.45,7.57,0.59
	c-0.5,1.85-1.04,3.87-1.89,7.06c3.27-0.94,6.34,1.02,6.36-3.2c0.08-12.06,0.03-24.11,0.03-36.4c-2.51-0.27-4.46-0.49-6.76-0.74
	c1.03-5.39-1.45-7.43-6.44-6.67c-0.16-2.08-0.29-3.76-0.46-5.91C319.27,177.6,317.58,177.6,315.7,177.6z M362.92,136.93
	c-0.31,2.28-0.57,4.23-0.82,6.1c-2.22,0.26-4.03,0.48-6,0.71c0,13.09,0,25.91,0,39.19c2-0.13,3.58-0.22,5.16-0.32
	c0.21-2.4,0.38-4.23,0.55-6.17c2.23-0.3,4.2-0.57,6.33-0.86c0.15-2.05,0.29-3.88,0.43-5.78c2.17-0.25,4.15-0.47,6.24-0.71
	c0-13.09,0-25.94,0-39.23c-1.92,0.15-3.5,0.28-5.12,0.41c-0.21,2.17-0.37,3.85-0.56,5.94C366.87,136.48,364.89,136.71,362.92,136.93
	z M254.35,338.54c-2.21,0.27-4.03,0.5-6.35,0.79c0,12.22-0.06,24.27,0.13,36.32c0.01,0.87,1.79,2.19,2.91,2.39
	c0.74,0.14,2.16-1.18,2.58-2.15c0.5-1.14,0.26-2.62,0.36-4.09c2.16-0.17,4.13-0.33,6.91-0.55c-0.49-2.38-0.9-4.4-1.3-6.31
	c1.61-0.12,4.25-0.32,7.26-0.54c0-13.05,0-25.86,0-38.72c-1.92,0-3.51,0-5.16,0c-0.25,2.32-0.47,4.27-0.67,6.15
	c-2.04,0.16-3.72,0.3-5.77,0.46C254.89,334.73,254.61,336.68,254.35,338.54z M117.94,176.31c1.95-0.16,4.62-0.39,7.39-0.62
	c0.31-2.2,0.58-4.14,0.87-6.28c5.23,0.93,7.19-0.84,6.24-6.07c-0.54-2.94,0.1-6.08,0.11-9.13c0.03-7.94,0.01-15.87,0.01-23.87
	c-2.28,0-3.87,0-5.55,0c-0.19,2.21-0.34,4.05-0.5,5.9c-2.19,0.22-4.17,0.42-6.32,0.64c-0.18,2.26-0.33,4.23-0.48,6.22
	c-2.13,0.25-4.08,0.49-6.19,0.74c0,13.05,0,25.75,0,38.76c1.85,0,3.44,0,5.92,0C118.86,180.2,118.4,178.25,117.94,176.31z
	 M374.71,216.26c0-13.27,0-25.93,0-38.82c-1.83,0-3.27,0-4.92,0c-0.3,2.18-0.56,4.12-0.81,6.01c-2.22,0.21-4.19,0.4-6.16,0.59
	c-0.22,3-0.4,5.64-0.53,7.38c-2.11-0.38-3.94-0.72-6.47-1.18c0,2.36,0,4.02,0,5.67c0.03,9.71,0.24,19.42,0,29.12
	c-0.12,4.94,0.09,5.39,5.37,4.26c0.27-1.93,0.55-3.89,0.82-5.8c2.17-0.23,3.99-0.41,6.07-0.63c0.2-2.01,0.37-3.83,0.58-5.98
	C370.97,216.65,372.91,216.45,374.71,216.26z M307.43,292.08c-2.31-0.31-4.27-0.58-6.15-0.84c-0.29-2.25-0.54-4.2-0.78-6.1
	c-2.26-0.21-4.07-0.39-5.88-0.56c-0.27-2.25-0.51-4.22-0.76-6.32c-1.77,0-3.22,0-4.86,0c0,13.16,0,26.06,0,38.97
	c2.32,0.26,4.13,0.46,5.89,0.65c0.19,2.27,0.36,4.26,0.54,6.44c2.34,0,4.33,0,6.42,0c0.15,2.19,0.29,4.16,0.45,6.37
	c1.78,0,3.25,0,5.15,0C307.43,317.54,307.43,304.85,307.43,292.08z M125.47,222.75c0.22-2.31,0.4-4.28,0.6-6.46
	c5.41,1.4,7.52-0.42,6.3-5.67c-0.15-0.63,0.12-1.35,0.12-2.03c0.01-10.34,0.01-20.67,0.01-31.13c-2.14,0-3.74,0-5.47,0
	c-0.19,2.14-0.35,3.97-0.5,5.73c-6.94,0.86-7.96,2.19-5.48,7.09c-2.4,0.17-4.73,0.33-7.42,0.52c0,13.1,0,25.93,0,38.72
	c6.25,2.14,5.14-2.47,5.62-5.95C121.57,223.28,123.53,223.01,125.47,222.75z M301.01,338.9c-0.16-2.39-0.3-4.5-0.44-6.66
	c-2.37-0.19-4.2-0.34-5.97-0.48c-0.24-2.23-0.45-4.19-0.7-6.57c-1.98,0.25-3.55,0.46-4.96,0.64c0,13.19,0,25.85,0,38.58
	c2.59,0.2,4.69,0.37,6.51,0.51c0,2.29,0,4.24,0,6.37c1.96,0,3.58,0,5.36,0c0.28-1.64,0.52-3.05,0.76-4.48
	c0.23,3.74,0.46,7.43,0.68,11.01c3.96,1.12,5.84,0.3,5.57-3.97c-0.31-4.88-0.47-9.83-0.04-14.69c0.46-5.22-0.33-8.61-4.96-7.48
	c5.64,0.05,6.19-1.03,4.37-12.78C304.96,338.9,302.97,338.9,301.01,338.9z M274.36,176.54c0.17,2.22,0.31,4.19,0.46,6.18
	c2.22,0,4.11,0,5.86,0c0-11.2,0-21.95,0-32.67c-2.22,0-4,0-5.92,0c-0.14,2.32-0.26,4.29-0.37,6.2c-2.33,0.26-4.28,0.47-6.22,0.69
	c-0.15,2.2-0.28,4.04-0.42,6.03c-2.17,0.16-4.14,0.31-6.22,0.47c0,2.19,0,4.1,0,6.04c2.33,0.19,4.29,0.34,6.32,0.5
	c0.11,2.18,0.21,4,0.32,6.13C270.6,176.28,272.43,176.41,274.36,176.54z M213.47,285.02c-2.17,0-4.07,0-6.05,0
	c-0.12,2.25-0.21,4.09-0.32,6.05c-2.15,0.17-4.12,0.32-6.32,0.5c-0.16,2.21-0.31,4.17-0.46,6.2c-2.28,0.24-4.24,0.44-6.19,0.64
	c0,2.12,0,3.87,0,5.63c2.36,0.29,4.31,0.53,6.17,0.76c0.23,2.37,0.42,4.33,0.61,6.25c2.35,0.15,4.19,0.27,6.05,0.39
	c0.22,2.23,0.41,4.2,0.62,6.26c2.01,0,3.66,0,5.89,0C213.47,306.5,213.47,295.83,213.47,285.02z M106.1,291.12
	c-0.18-2.29-0.34-4.27-0.5-6.22c-2.12,0-3.92,0-5.79,0c0,11.07,0,21.82,0,32.65c2.19,0,3.97,0,5.94,0c0.14-2.26,0.25-4.2,0.37-6.05
	c2.35-0.27,4.3-0.5,6.16-0.71c0.26-2.38,0.48-4.32,0.69-6.17c2.24-0.2,4.07-0.35,6.14-0.53c0-2.02,0-3.79,0-5.78
	c-2.25-0.17-4.2-0.32-6.33-0.49c-0.12-2.16-0.23-3.98-0.36-6.29C109.98,291.37,108.02,291.24,106.1,291.12z M301.45,203.34
	c-0.24-2.35-0.43-4.3-0.62-6.19c-2.36-0.2-4.17-0.34-6.04-0.5c-0.15-2.15-0.29-3.99-0.43-5.98c-2.18,0-4.07,0-5.99,0
	c0,11.06,0,21.72,0,32.56c2.08,0,3.88,0,5.83,0c0.29-2.2,0.55-4.15,0.8-6.03c2.15-0.26,3.97-0.48,5.89-0.71
	c0.23-2.2,0.43-4.17,0.64-6.13c2.26-0.26,4.22-0.49,6.29-0.73c0-1.99,0-3.63,0-5.62C305.29,203.75,303.33,203.54,301.45,203.34z
	 M167.11,149.39c0,11.16,0,22.31,0,33.37c2.24,0,4,0,5.75,0c0.28-2.37,0.51-4.33,0.73-6.19c2.25-0.2,4.08-0.37,6.05-0.55
	c0.26-2.18,0.5-4.14,0.74-6.09c2.07-0.16,3.9-0.3,5.87-0.45c0-2.16,0-4.06,0-6.29c-2.21,0-4.02,0-6.03,0
	c-0.16-2.27-0.29-4.24-0.44-6.41c-2.3-0.16-4.26-0.3-6.29-0.45c-0.26-2.31-0.48-4.27-0.73-6.4c-2.14-0.15-3.98-0.28-5.83-0.41
	L167.11,149.39z M409.73,182.87c2.05,0,3.82,0,5.74,0c0.23-2.24,0.44-4.19,0.64-6.13c2.3-0.32,4.24-0.6,6.28-0.88
	c0.18-2.14,0.33-3.95,0.49-5.91c2.12-0.19,3.94-0.36,5.91-0.54c0-2.12,0-4.02,0-6.02c-2.22-0.14-4.03-0.26-5.87-0.38
	c-0.24-2.23-0.46-4.19-0.67-6.13c-2.3-0.27-4.27-0.49-6.15-0.71c-0.27-2.29-0.5-4.25-0.74-6.18c-2.04,0-3.68,0-5.64,0
	C409.73,161.28,409.73,171.94,409.73,182.87z M361.61,304.11c0-2.04,0-3.84,0-5.88c-2.19-0.15-4.15-0.28-6.07-0.41
	c-0.28-2.35-0.51-4.3-0.75-6.32c-2.34-0.19-4.29-0.35-6.23-0.51c-0.15-2.18-0.28-4.01-0.43-6.11c-1.96,0-3.75,0-5.81,0
	c0,11.01,0,21.78,0,32.71c2.1,0,3.88,0,5.76,0c0.25-2.26,0.46-4.22,0.67-6.12c2.28-0.22,4.25-0.41,6.22-0.6
	c0.18-2.34,0.32-4.17,0.48-6.29C357.85,304.4,359.69,304.26,361.61,304.11z M328.27,351.9c0.26,2.25,0.48,4.21,0.75,6.51
	c2.08-0.12,3.84-0.22,5.47-0.31c0-11.35,0-22.14,0-33.2c-2.09,0.11-3.73,0.19-5.55,0.28c-0.25,2.3-0.47,4.26-0.69,6.33
	c-2.18,0.22-4.13,0.41-6.13,0.61c-0.29,2.27-0.54,4.22-0.79,6.19c-2.16,0.15-3.97,0.28-5.88,0.42c0,2.13,0,3.92,0,5.85
	c2.2,0.28,4.15,0.54,6.13,0.79c0.12,1.98,0.23,3.66,0.36,5.83C324.33,351.47,326.3,351.69,328.27,351.9z M401.94,223.06
	c0-11,0-21.75,0-32.37c-2.19,0-3.95,0-5.71,0c-0.18,2.24-0.33,4.08-0.49,5.96c-2.19,0.21-4.16,0.4-6.34,0.61
	c-0.16,2.21-0.31,4.16-0.45,6.16c-2.31,0.25-4.26,0.47-6.47,0.71c0.13,2.16,0.24,3.93,0.35,5.65c2.36,0.23,4.17,0.41,6.05,0.6
	c0.23,2.2,0.44,4.16,0.65,6.18c2.25,0.26,4.2,0.49,6.27,0.74c0.14,2.01,0.26,3.69,0.41,5.77
	C398.11,223.06,399.99,223.06,401.94,223.06z M159.42,190.59c-2.11,0-3.89,0-5.74,0c-0.22,2.27-0.4,4.24-0.58,6.13
	c-2.25,0.19-4.22,0.35-6.2,0.52c-0.27,2.4-0.48,4.34-0.7,6.24c-2.22,0.2-4.03,0.37-5.91,0.54c0,2.08,0,3.84,0,5.79
	c2.12,0.17,3.94,0.32,5.97,0.48c0.21,2.15,0.4,4.11,0.61,6.33c2.19,0.2,4.14,0.38,6.16,0.57c0.29,2.18,0.55,4.13,0.81,6.07
	c2.02,0,3.66,0,5.56,0C159.42,212.24,159.42,201.47,159.42,190.59z M221.24,358.4c2.11-0.11,3.76-0.19,5.68-0.29
	c0.19-2.23,0.36-4.2,0.54-6.2c2.2-0.29,4.14-0.55,6.17-0.82c0.19-2.16,0.35-3.98,0.52-5.84c2.22-0.24,4.18-0.46,6.46-0.71
	c-0.1-2.13-0.19-3.91-0.28-5.79c-2.39-0.25-4.35-0.46-6.35-0.67c-0.15-2.13-0.29-3.97-0.43-5.98c-2.13-0.24-4.1-0.46-6.02-0.68
	c-0.28-2.24-0.52-4.2-0.77-6.28c-1.99,0-3.62,0-5.51,0C221.24,336.56,221.24,347.36,221.24,358.4z M91.84,324.85
	c-2.14,0.15-3.79,0.26-5.63,0.39c-0.19,2.29-0.36,4.25-0.52,6.22c-2.25,0.26-4.2,0.49-6.23,0.73c-0.16,2.32-0.3,4.27-0.44,6.17
	c-2.32,0.13-4.28,0.23-6.52,0.35c0.12,2.39,0.21,4.18,0.3,6.02c2.36,0.15,4.2,0.27,6.14,0.4c0.22,2.1,0.42,4.08,0.63,6.1
	c2.22,0.25,4.18,0.47,6.07,0.68c0.28,2.3,0.52,4.25,0.76,6.21c2.03,0,3.66,0,5.43,0C91.84,346.93,91.84,336.01,91.84,324.85z
	 M415.97,216.82c2.12-0.16,3.95-0.3,6.03-0.45c0.23-2.18,0.44-4.15,0.66-6.24c2-0.26,3.95-0.52,6.27-0.83
	c-0.11-1.87-0.2-3.45-0.29-5.09c-2.33-0.19-4.15-0.34-6-0.5c-0.22-2.21-0.41-4.17-0.61-6.2c-2.31-0.22-4.27-0.41-6.14-0.59
	c-0.33-2.28-0.61-4.23-0.92-6.42c-1.85,0.13-3.31,0.23-5.01,0.35c0,10.76,0,21.22,0,31.99c1.85,0,3.44,0,5.2,0
	C415.46,220.67,415.71,218.73,415.97,216.82z M159.27,152.63c-0.04-1.14-2.77-2.19-5.15-3.94c-0.33,3.88-0.5,5.85-0.67,7.86
	c-2.17,0.21-4.13,0.39-6.24,0.6c-0.27,2.25-0.51,4.21-0.76,6.23c-2.02,0.21-3.83,0.39-5.91,0.61c0,1.8,0,3.38,0,5.15
	c2.27,0.2,4.22,0.37,6.11,0.54c0.18,2.25,0.33,4.21,0.49,6.23c2.34,0.14,4.16,0.24,6.18,0.36c0.23,2.2,0.44,4.16,0.67,6.36
	c1.79,0,3.25,0,5.49,0C159.47,172.28,159.61,162.45,159.27,152.63z M167.35,222.87c1.86,0,3.45,0,5.22,0
	c0.22-2.23,0.41-4.17,0.59-6.02c2.33-0.25,4.3-0.46,6.41-0.69c0.18-2.28,0.33-4.22,0.48-6.16c2.18-0.2,3.98-0.36,5.91-0.53
	c0-1.92,0-3.51,0-5.15c-2.28-0.28-4.21-0.52-6.01-0.74c-0.18-2.24-0.33-4.04-0.47-5.84c-2.41-0.35-4.37-0.64-6.33-0.93
	c-0.2-2.11-0.37-3.93-0.56-6c-1.72,0-3.18,0-5.23,0C167.35,201.67,167.35,212.11,167.35,222.87z M402.09,178.38
	c-0.01-5.1,0-10.21-0.13-15.31c-0.06-2.47-0.51-4.92-0.62-7.38c-0.08-1.7,0.82-3.99,0.01-4.96c-0.75-0.9-3.18-0.4-5.24-0.53
	c0,2.74,0,4.69,0,6.55c-2.31,0.1-4.28,0.19-6.38,0.28c-0.22,2.39-0.4,4.36-0.57,6.25c-6.77,0.7-6.77,0.7-5.49,5.91
	c1.76,0.15,3.58,0.31,5.51,0.47c0.23,2.07,0.44,4.03,0.67,6.07c2.25,0.26,4.2,0.49,6.17,0.72c0.19,2.14,0.36,3.97,0.55,6.09
	C402.08,182.95,402.1,182.95,402.09,178.38z M342.63,357.76c1.95,0,3.52,0,5.09,0c0.3-2.33,0.56-4.29,0.8-6.14
	c2.33-0.3,4.28-0.55,6.44-0.83c0-2.23,0-4.06,0-5.95c2.24-0.18,4.22-0.34,6.56-0.53c-0.1-1.87-0.18-3.46-0.27-5.19
	c-2.25-0.19-4.07-0.33-6.01-0.5c-0.23-2.23-0.44-4.32-0.65-6.38c-2.44-0.19-4.41-0.35-6.32-0.5c-0.17-2.3-0.31-4.26-0.47-6.47
	c-1.97,0.13-3.45,0.23-5.17,0.34C342.63,336.48,342.63,347.05,342.63,357.76z M208.1,359.2c2.31-1.44,5.12-2.34,5.15-3.34
	c0.33-9.95,0.2-19.91,0.2-30.18c-2.17,0-3.77,0-5.53,0c-0.18,2.21-0.34,4.17-0.5,6.1c-2.3,0.22-4.25,0.4-6.27,0.6
	c-0.3,2.28-0.55,4.22-0.8,6.17c-0.31-0.27-0.62-0.54-0.93-0.81c-1.73,1.3-3.45,2.6-5.18,3.91c1.97,1.48,3.94,2.95,6.47,4.85
	c0.07,0.78,0.25,2.6,0.44,4.56c2.63,0.13,4.96,0.25,6.96,0.35C208.1,353.62,208.1,355.64,208.1,359.2z M322.19,298.08
	c-2.22,0.16-4.19,0.3-6.43,0.45c0,1.83,0,3.43,0,5.22c2.21,0.27,4.15,0.5,6,0.73c0.37,2.33,0.68,4.27,0.99,6.23
	c2.22,0.21,4.02,0.38,5.86,0.55c0.19,2.12,0.34,3.93,0.51,5.88c1.91,0,3.49,0,5.22,0c0-10.86,0-21.34,0-31.95c-1.93,0-3.54,0-5.29,0
	c-0.18,2.29-0.33,4.27-0.48,6.21c-2.14,0.16-3.98,0.3-6.39,0.49C322.19,294.28,322.19,296.11,322.19,298.08z M100,356.47
	c0.64,1.17,3.01,1.4,4.95,2.17c0.42-3.11,0.68-5.07,0.94-7c2.25-0.31,4.22-0.58,6.22-0.85c0.15-2.18,0.27-4.01,0.4-5.85
	c2.23-0.21,4.2-0.4,6.26-0.6c0-1.96,0-3.57,0-5.61c-2.62,0-4.87,0-6.77,0c0-2.38,0-4.32,0-6.48c-2.35-0.14-4.45-0.26-6.43-0.38
	c-0.11-2.33-0.2-4.3-0.3-6.57c-2.06,0.13-3.68,0.23-5.91,0.36c1.35,8.92-0.78,17.64,1.36,26.97
	C100.58,353.25,99.39,355.35,100,356.47z M200.97,115.45c0,2.28,0,4.55,0,6.66c4.44,0,8.42,0,12.42,0c0-15.65,0-30.86,0-46.17
	c-2.14,0-3.94,0-6.16,0c0,13.45,0,26.63,0,40.2c-2.44-0.21-4.43-0.38-6.42-0.55L200.97,115.45z M221.39,317.22c1.86,0,3.46,0,5.22,0
	c0.22-2.25,0.41-4.2,0.59-6.06c2.15-0.22,3.96-0.41,5.89-0.61c0.32-2.24,0.6-4.2,0.87-6.09c2.26-0.28,4.22-0.53,6.38-0.8
	c-0.09-1.83-0.16-3.31-0.24-4.98c-2.35-0.29-4.45-0.54-6.41-0.78c-0.2-2.2-0.36-4.01-0.53-5.92c-2.22-0.19-4.04-0.35-6.01-0.51
	c-0.18-2.09-0.35-4.07-0.54-6.32c-1.68-0.1-3.15-0.18-5.22-0.3C221.39,295.97,221.39,306.45,221.39,317.22z M307.58,166.73
	c0.86-5.01-4.18-2.05-6.36-3.87c-0.19-1.71-0.4-3.67-0.63-5.71c-2.24-0.26-4.2-0.48-6.26-0.72c0-1.12,0.31-2.14-0.06-2.77
	c-0.78-1.33-1.91-2.46-2.9-3.67c-0.97,1.22-2.3,2.31-2.8,3.69c-0.48,1.35-0.11,3.01-0.11,4.54c0,8.09,0,16.19,0,24.15
	c7.34,1.91,5.71-2.86,5.56-6.19c2.33-0.14,4.32-0.25,6.55-0.39c0.21-2.07,0.39-3.89,0.46-4.56
	C303.97,169.31,307.31,168.28,307.58,166.73z M86.03,311.25c0.18,2.12,0.34,3.94,0.51,5.9c1.91,0,3.48,0,5.2,0
	c0-10.84,0-21.31,0-31.94c-1.88,0-3.47,0-5.2,0c-0.2,2.28-0.38,4.25-0.55,6.15c-2.21,0.27-4.16,0.51-6.07,0.74
	c-0.21,2.3-0.38,4.12-0.54,5.87c-2.27,0.24-4.23,0.45-6.6,0.7c0.14,1.94,0.26,3.52,0.36,5.02c2.48,0.35,4.42,0.62,6.27,0.89
	c0.16,2.11,0.29,3.8,0.47,6.05C82.23,310.87,84.18,311.07,86.03,311.25z M267.99,209.03c0.18,2.14,0.41,4.76,0.65,7.61
	c2.34,0,4.17,0,6.01,0c0.21,2.26,0.39,4.24,0.59,6.35c1.76,0,3.24,0,5.05,0c0-10.81,0-21.42,0-32.17c-1.85,0-3.3,0-4.93,0
	c-0.26,2.22-0.49,4.19-0.73,6.2c-2.08,0.22-4.06,0.43-6.11,0.65c-0.22,2.24-0.4,4.2-0.59,6.09c-2.32,0.2-4.28,0.36-6.35,0.54
	c0,1.86,0,3.34,0,5.77C264.08,209.66,266.02,209.34,267.99,209.03z M234.57,122.24c4.31,0,8.29,0,12.55,0c0-2.1,0-3.86,0-5.89
	c-2.21-0.23-4.17-0.43-6.65-0.69c0-13.26,0-26.44,0-39.8c-2.17,0-3.82,0-5.9,0C234.57,91.64,234.57,106.87,234.57,122.24z
	 M423.01,251.18c-2.33-0.1-4.66-0.2-7.21-0.31c-0.22-4.6-0.42-8.75-0.63-13.18c-2,0.12-3.46,0.2-5.19,0.31c0,8.58,0,16.84,0,25.75
	c7.39,0,14.5-0.15,21.59,0.06c4.32,0.13,4.91-1.8,3.67-5.79c-4.16,0-8.34,0-13.01,0c0.23-2.69,0.42-4.84,0.61-7L423.01,251.18z
	 M213.56,242.34c0.16-4.32-1.42-5.51-5.88-4.03c0,4.11,0,8.29,0,12.45c-2.52,0.27-4.51,0.48-6.66,0.71
	c-0.16,2.22-0.3,4.19-0.48,6.67c-4.42,0-8.59,0-13.2,0c0.15,2.14,0.26,3.72,0.39,5.48c8.62,0,16.73,0,25.76,0
	C213.49,256.19,213.3,249.26,213.56,242.34z M341.06,251.32c-2.46-0.17-4.43-0.3-6.81-0.46c0-4.55,0-8.71,0-13.17
	c-1.93,0.11-3.4,0.19-5.04,0.28c0,8.7,0,17.08,0,25.51c8.67,0,16.92,0,25.33,0c0-1.93,0-3.49,0-5.45c-4.44,0-8.48,0-12.73,0
	C341.51,255.29,341.29,253.33,341.06,251.32z M422.8,392.22c-0.13-2-0.25-3.99-0.39-6.17c-4.43,0-8.57,0-12.6,0
	c0,15.63,0,30.87,0,46.46c2.16-0.13,3.92-0.24,6.12-0.38c0-13.55,0-26.59,0-40.09c2.67,0,4.86,0,7.05,0L422.8,392.22z
	 M132.24,263.51c0-8.71,0-17.06,0-25.84c-2.01,0.16-3.59,0.29-5.5,0.44c0,4.52,0,8.54,0,12.65c-2.46,0.28-4.54,0.51-6.6,0.74
	c-0.21,2.27-0.38,4.09-0.61,6.55c-4.3,0-8.46,0-12.77,0c0,2.12,0,3.58,0,5.45C115.59,263.51,123.81,263.51,132.24,263.51z
	 M180.02,392.25c0-1.99,0-3.98,0-6.05c-4.71,0-8.8,0-12.91,0c0,15.57,0,30.66,0,45.91c2.08,0,3.84,0,6.09,0c0-13.38,0-26.43,0-40.04
	c2.66,0,4.83,0,7,0L180.02,392.25z M133.01,392.13c2.16,0,4.32,0,7.14,0c0,13.72,0,26.89,0,40.36c2.31-0.11,3.96-0.19,5.84-0.29
	c0-15.55,0-30.77,0-46.18c-4.33,0-8.33,0-12.8,0c0,2.3,0,4.29,0,6.29L133.01,392.13z M375.88,392.24c2.12,0,4.24,0,6.81,0
	c0,13.66,0,26.68,0,39.88c2.23,0,3.99,0,5.89,0c0-15.54,0-30.75,0-46.05c-4.37,0-8.37,0-12.53,0c0,2.34,0,4.33,0,6.32L375.88,392.24
	z M149.15,263.57c7.73,0.38,15.49,0.21,23.47,0.21c0-8.96,0-17.21,0-25.78c-1.88,0-3.47,0-5.56,0c0,4.45,0,8.62,0,12.84
	c-2.3,0.21-4.11,0.38-6.13,0.56c-0.28,2.22-0.53,4.18-0.85,6.61c-4.39,0-8.58,0-14.4,0C147.27,260.65,148.14,263.52,149.15,263.57z
	 M79.09,258.08c-4.31,0-8.48,0-14.39,0c1.73,2.68,2.64,5.46,3.69,5.51c7.72,0.37,15.47,0.2,23.36,0.2c0-8.98,0-17.23,0-25.72
	c-1.89,0-3.47,0-5.57,0c0,4.48,0,8.63,0,12.81c-2.2,0.16-3.88,0.29-6.04,0.45C79.82,253.37,79.49,255.46,79.09,258.08z
	 M288.69,261.08c0.03,0.94,2.08,2.54,3.24,2.58c6.78,0.23,13.58,0.11,20.37,0.05c0.6-0.01,1.21-0.43,2.04-0.74
	c-0.13-1.59-0.26-3.04-0.44-5.17c-4.4,0-8.53,0-12.63,0c-0.28-2.52-0.48-4.34-0.69-6.29c-2.2-0.29-4.16-0.55-6.06-0.81
	c-0.71-13.02-0.71-13.02-5.99-12.32C288.54,245.88,288.43,253.49,288.69,261.08z M267,430.58c0.08-11.55,0.13-23.11,0.21-34.66
	c0.07-10.56,0.08-10.56-10.59-9.74c-0.48,0.04-0.93,0.36-1.76,0.69c0.09,1.52,0.18,3.1,0.27,4.68c2.39,0.19,4.21,0.34,6.55,0.53
	c0,13.41,0,26.58,0,40.07c2.03-0.14,3.49-0.23,4.79-0.32C266.75,431.19,267,430.89,267,430.58z M369.6,263.35
	c8.61,0,16.95,0,25.62,0c-0.13-1.96-0.22-3.41-0.36-5.5c-4.42,0-8.57,0-12.6,0c-0.4-2.61-0.7-4.55-0.99-6.45
	c-2.36-0.23-4.3-0.42-6.64-0.65c0-4.48,0-8.62,0-12.83c-1.86,0-3.18,0-5.03,0C369.6,246.76,369.6,255.01,369.6,263.35z
	 M334.33,76.27c-1.94,0-3.53,0-6.12,0c0.9,2.59,1.58,4.54,2.33,6.68c-2.16,1.32-2.19,1.32-1.64,21.94c0.04,1.5,1.1,2.97,1.19,3.21
	c-0.71,3.17-1.27,5.62-1.89,8.4c-1.74,0-3.72,0-5.9,0c0,1.92,0,3.53,0,5.39c4.11,0,7.93,0,12.02,0
	C334.33,106.29,334.33,91.35,334.33,76.27z M91.7,76.31c-1.88,0-3.47,0-5.39,0c0,13.54,0,26.74,0,39.89
	c-2.52,0.19-4.35,0.33-6.31,0.49c0,1.8,0,3.4,0,5.2c4.02,0,7.69,0,11.7,0C91.7,106.49,91.7,91.48,91.7,76.31z M361.56,80.55
	c0.08-4.34-1.38-5.51-5.54-4.1c-0.12,1-0.33,1.99-0.34,2.97c-0.03,2.54-0.05,5.08,0.07,7.61c0.13,2.66-0.45,5.88,0.84,7.82
	c1.72,2.59-1.45,2.84-1.21,5.02c0.81,7.14,0.3,14.44,0.3,21.91c4.59,0,8.51,0,12.75,0c-0.19-1.99-0.32-3.43-0.46-4.96
	c-2.16-0.26-3.97-0.47-6.51-0.77C361.48,103.93,361.33,92.24,361.56,80.55z M300.92,391.38c-0.13-1.88-0.23-3.34-0.37-5.32
	c-2.66,0-5.02,0.17-7.35-0.04c-3.47-0.32-5.02,0.77-4.69,4.54c0.31,3.54,0.02,7.14,0.02,10.71c-0.01,10.17,0,20.34,0,30.7
	c2.17,0,3.66,0,5.16,0c0-13.29,0-26.42,0-39.7C296.47,391.92,298.57,391.66,300.92,391.38z M118.86,79.75
	c-0.02-1.28-1.72-2.53-2.65-3.79c-0.96,1.22-2.72,2.42-2.76,3.66c-0.25,9.18-0.15,18.37-0.15,27.55c0,4.84,0,9.69,0,14.69
	c4.6,0,8.27,0,12.38,0c-0.09-1.91-0.16-3.49-0.23-5.08c-2.24-0.2-3.92-0.35-6.47-0.58C118.98,103.86,119.06,91.8,118.86,79.75z
	 M376.04,392.39c-2.18,0-4.35,0-6.83,0c0,13.52,0,26.53,0,39.78c2.07,0,3.86,0,6.16,0c0-1.94-0.02-3.61,0-5.28
	c0.16-11.55,0.33-23.1,0.5-34.66C375.88,392.24,376.05,392.39,376.04,392.39z M200.8,115.6c-0.19-2.67-0.52-5.35-0.54-8.03
	c-0.06-10.49-0.03-20.98-0.03-31.59c-2.45,0-4.23,0-6.16,0c0,13.31,0,26.31,0,39.48c2.53,0,4.71,0,6.89,0
	C200.97,115.45,200.81,115.59,200.8,115.6z M133.18,392.3c-2.13,0-4.26,0-6.46,0c0,13.74,0,26.74,0,39.81c2.14,0,3.91,0,6.28,0
	c0-13.53,0-26.76,0-39.99C133.01,392.13,133.19,392.3,133.18,392.3z M180.2,392.07c0,13.36,0,26.72,0,40.42
	c2.6-0.12,4.24-0.19,6.16-0.28c0-13.32,0-26.32,0-39.62c-2.33-0.13-4.33-0.24-6.34-0.35C180.02,392.25,180.2,392.06,180.2,392.07z
	 M422.98,392.04c0,13.36,0,26.71,0,40.43c2.47-0.13,4.23-0.22,5.83-0.3c0-13.58,0-26.56,0-39.58c-2.3-0.14-4.16-0.26-6.01-0.38
	C422.8,392.22,422.98,392.04,422.98,392.04z M253.69,75.67c-2.14,0.1-3.89,0.17-5.64,0.25c0,13.5,0,26.47,0,39.58
	c2.01,0,3.65,0,5.64,0C253.69,101.95,253.69,88.98,253.69,75.67z M72.86,112.73c0.08,4.5,3.17,2.52,5.44,2.19
	c0-13.06,0-25.76,0-38.74c-1.77,0-3.24,0-5.51,0C72.79,88.66,72.64,100.7,72.86,112.73z M320.97,76.25c-1.87,0-3.45,0-5.22,0
	c0,13.15,0,26,0,38.99c1.85,0,3.34,0,5.22,0C320.97,101.92,320.97,89.21,320.97,76.25z M248.32,392.89c0,13.25,0,26.06,0,38.97
	c1.87,0,3.35,0,5.07,0c0-12.96,0-25.67,0-39.19C251.58,392.75,249.97,392.82,248.32,392.89z M302.33,393.1c0,12.82,0,25.63,0,38.7
	c1.8,0,3.37,0,5.51,0c0-12.34,0.12-24.36-0.18-36.36c-0.03-1.22-2.63-2.37-4.04-3.56C303.18,392.28,302.75,392.69,302.33,393.1z
	 M132.64,80.36c0.06-4.42-1.65-5.31-5.46-3.85c0,13.04,0,25.85,0,38.8c1.79,0,3.14,0,5.4,0C132.58,103.37,132.47,91.87,132.64,80.36
	z M369.56,113c0.01,0.82,2.02,2.35,2.91,2.22c0.96-0.14,2.35-1.79,2.42-2.86c0.29-4.05,0.12-8.14,0.12-12.21c0-7.94,0-15.88,0-23.95
	c-2.07,0-3.52,0-5.58,0C369.43,88.64,369.37,100.82,369.56,113z M354.71,250.3c0-4.26,0-8.21,0-12.46c-4.42,0-8.36,0-12.37,0
	c0,4.38,0,8.35,0,12.46C346.67,250.3,350.64,250.3,354.71,250.3z M119.1,250.23c0-4.33,0-8.31,0-12.83
	c-4.27,0.19-8.21,0.37-12.48,0.56c0,4.32,0,8.14,0,12.27C110.79,250.23,114.9,250.23,119.1,250.23z M422.84,251.01
	c4.3-0.28,8.6-0.56,12.8-0.82c0-4.26,0-8.08,0-12.31c-4.39,0-8.33,0-12.64,0c0,4.58,0,8.94,0,13.31
	C423.01,251.18,422.85,251.01,422.84,251.01z M247.14,250.26c0-4.31,0-8.29,0-12.36c-4.25,0-8.17,0-12.49,0c0,4.3,0,8.11,0,12.36
	C239.01,250.26,242.98,250.26,247.14,250.26z M187.54,250.17c4.44,0,8.39,0,12.33,0c0-4.39,0-8.36,0-12.34c-4.17,0-7.98,0-12.33,0
	C187.54,242.53,187.54,246.46,187.54,250.17z M147.05,237.84c0,4.37,0,8.32,0,12.38c4.31,0,8.3,0,12.49,0c0-4.25,0-8.13,0-12.38
	C155.17,237.84,151.33,237.84,147.05,237.84z M78.47,249.95c0-4.47,0-8.3,0-12.02c-4.19,0-8,0-12.08,0
	c-0.26,4.31-0.48,8.13-0.71,12.02C70.66,249.95,74.7,249.95,78.47,249.95z M382.96,250.25c4.36,0,8.22,0,12.58,0
	c-0.21-4.32-0.41-8.27-0.61-12.52c-4.29,0-7.99,0-11.97,0C382.96,242.23,382.96,246.36,382.96,250.25z M234.79,270.24
	c4.46,0,8.4,0,12.39,0c0-4.3,0-8.16,0-12.33c-4.28,0-8.29,0-12.96,0C234.41,262.21,234.59,266.03,234.79,270.24z M267,250.25
	c1.71-12.16-0.98-14.75-12.38-12.04c0,3.83,0,7.71,0,12.04C259.08,250.25,263.07,250.25,267,250.25z M302,250.23
	c4.3,0,8.26,0,12.76,0c-0.24-4.3-0.47-8.23-0.7-12.46c-4.24,0-7.91,0-12.05,0C302,242.1,302,246.06,302,250.23z M254.8,270.2
	c4.17,0,7.96,0,12.23,0c0-4.27,0-8.06,0-12.23c-4.03,0-7.98,0-12.23,0C254.8,262.23,254.8,266.18,254.8,270.2z M335.62,371.41
	c2.07,0,3.97,0,5.86,0c0.14-12.86,0.54-13.88-5.86-11.73C335.62,363.73,335.62,367.54,335.62,371.41z M93.24,371.88
	c2.13-0.14,3.77-0.24,5.62-0.36c0-4.3,0-8.29,0-12.59c-1.92-0.09-3.55-0.17-5.62-0.28C93.24,363.44,93.24,367.55,93.24,371.88z
	 M219.91,359.3c-2.02,0-3.62,0-5.56,0c0,4.32,0,8.29,0,12.29c2.04,0,3.69,0,5.56,0C219.91,367.14,219.91,363.29,219.91,359.3z
	 M166.94,149.54c-0.21-3.33-0.23-6.69-0.73-9.97c-0.17-1.11-1.46-2.73-2.4-2.86c-0.98-0.13-3.02,1.17-3.11,2.01
	c-0.36,3.4-0.15,6.86-0.15,10.29c2.87,0.16,4.71,0.27,6.56,0.38C167.11,149.39,166.94,149.54,166.94,149.54z M287.49,141.33
	c0.47-4.67-1.41-5.77-5.41-4.22c0,4.07,0,7.88,0,11.89c1.81,0,3.29,0,5.37,0C287.45,146.05,287.26,143.67,287.49,141.33z
	 M408.54,139.21c-0.12-0.99-1.78-2.51-2.7-2.48c-0.96,0.03-2.56,1.56-2.67,2.56c-0.35,3.12-0.13,6.31-0.13,9.65
	c2.02,0,3.48,0,5.63,0C408.67,145.27,408.9,142.2,408.54,139.21z M321.7,419.67c0.12,2.37,0.2,4.12,0.31,6.18
	c2.31-0.11,4.07-0.2,6.01-0.29c0-2.09,0-3.73,0-6.25C325.73,419.45,323.86,419.55,321.7,419.67z M321.58,405.54
	c0.14,2.12,0.29,4.24,0.44,6.52c2.16,0,3.95,0,5.8,0c0-2.13,0-4.02,0-6.03c-2.42-0.12-4.43-0.21-6.43-0.31
	C321.39,405.72,321.58,405.54,321.58,405.54z M207.2,372.36c0.13,2.34,0.23,4.12,0.34,5.97c2.18,0,3.93,0,5.92,0
	c0-2.08,0-3.85,0-6.29C211.08,372.16,209.32,372.25,207.2,372.36z M341.8,426.14c0-2.11,0-4.23,0-6.52c-2.5,0-4.28,0-6.17,0
	c0,2.2,0,4.11,0,6.34c2.34,0,4.35,0,6.36,0L341.8,426.14z M85.94,405.73c-2.14,0.11-4.28,0.22-6.36,0.32c0,2.35,0,4.12,0,6.3
	c2.16-0.12,3.94-0.22,6.18-0.35c0-2.43,0-4.45,0-6.46L85.94,405.73z M99.8,378.68c2.18-0.12,3.93-0.22,5.74-0.33
	c0-2.27,0-4.03,0-6.04c-1.96-0.09-3.61-0.17-5.74-0.27C99.8,374.55,99.8,376.44,99.8,378.68z M227.22,425.96
	c2.01-0.11,4.02-0.22,6.28-0.34c0-2.13,0-4.06,0-6.36c-2.19,0.13-3.98,0.24-6.09,0.37c0,2.48,0,4.5,0,6.52L227.22,425.96z
	 M227.42,405.49c0,2.11,0,4.22,0,6.58c2.38,0,4.14,0,6.12,0c0-2.13,0-4.02,0-6.12c-2.33-0.1-4.32-0.19-6.3-0.28L227.42,405.49z
	 M85.75,426.11c0-2.11,0-4.21,0-6.53c-2.49,0-4.25,0-6.12,0c0,2.16,0,4.04,0,6.35c2.33,0,4.32,0,6.3,0L85.75,426.11z M335.53,406.1
	c0,2.1,0,3.88,0,6.17c2.2-0.1,4.11-0.19,6.01-0.28c0-2.17,0-3.81,0-5.89C339.18,406.1,337.41,406.1,335.53,406.1z M112.59,412.69
	c0,2.09,0,4.18,0,6.27l-0.17-0.21c2.13,0,4.27,0,6.7,0c0-2.06,0-3.81,0-5.86c-2.43,0-4.57,0-6.7,0L112.59,412.69z M200.99,413.29
	c-2.22-0.23-4.44-0.46-6.91-0.73c0,2.5,0,4.24,0,6.44c2.51-0.17,4.63-0.31,6.75-0.46l-0.13,0.15c0.08-1.83,0.16-3.67,0.24-5.5
	C200.93,413.19,200.98,413.28,200.99,413.29z M112.59,418.97c-2.09,0-4.18,0-6.26,0l0.21-0.17c0,2.15,0,4.31,0,6.72
	c2,0,3.76,0,5.89,0c0-2.44,0-4.6,0-6.76L112.59,418.97z M200.82,418.55c0,2.31,0,4.61,0,7.31c2.27-0.11,4.02-0.2,6.09-0.31
	c-0.12-2.33-0.21-4.1-0.29-5.68c-2.33-0.46-4.12-0.82-5.92-1.18C200.69,418.7,200.82,418.55,200.82,418.55z M112.35,405.56
	c-1.92,0.2-3.85,0.4-5.83,0.61c0,2.44,0,4.57,0,6.7l-0.2-0.17c2.09,0,4.18,0,6.27,0c0,0-0.17,0.21-0.17,0.21
	c-0.08-2.5-0.16-4.99-0.23-7.49C112.19,405.41,112.35,405.56,112.35,405.56z M200.77,405.35c-0.33-1.95-0.66-3.88-0.99-5.8
	c-2.01,0-3.78,0-5.69,0c0,2.08,0,3.83,0,6.01c2.52-0.13,4.66-0.24,6.8-0.35C200.89,405.21,200.76,405.36,200.77,405.35z
	 M112.2,405.41c2.18,0,4.36,0,6.87,0c0-2.07,0-3.84,0-5.76c-2.12,0-4,0-5.82,0c-0.34,2.26-0.61,4.08-0.89,5.9
	C112.35,405.56,112.19,405.41,112.2,405.41z M328.85,379.28c-2.26,0-4.51,0-6.66,0c0,2.24,0,3.98,0,6.07
	c2.18-0.15,3.94-0.27,5.66-0.39c0.33-2.24,0.59-4.05,0.85-5.85L328.85,379.28z M328.69,379.11c1.96-0.31,3.92-0.62,5.92-0.94
	c0-1.98,0-3.77,0-5.73c-2.07,0-3.82,0-5.76,0c0,2.5,0,4.67,0,6.84C328.85,379.28,328.69,379.12,328.69,379.11z M226.97,379.09
	c0-2.14,0-4.28,0-6.7c-2.11,0-3.87,0-5.72,0c0,2.18,0,4.07,0,6c2.25,0.2,4.07,0.36,5.9,0.53L226.97,379.09z M355.16,418.88
	c-1.97,0.3-3.95,0.59-6.02,0.9c0,1.98,0,3.76,0,5.71c2.06,0,3.82,0,5.85,0c0-2.47,0-4.62,0-6.78L355.16,418.88z M85.96,378.91
	c1.97-0.2,3.93-0.4,6.05-0.61c0-2.04,0-3.81,0-5.89c-2.02,0-3.78,0-5.87,0c0,2.41,0,4.54,0,6.68L85.96,378.91z M112.38,392.03
	c2.14,0,4.28,0,6.72,0c0-2.28,0-4.04,0-6.02c-2.09,0-3.88,0-5.87,0c-0.24,2.23-0.46,4.22-0.67,6.2L112.38,392.03z M342.04,378.92
	c1.96-0.21,3.92-0.41,6.05-0.64c0-2.04,0-3.8,0-5.69c-2.12,0-3.97,0-5.87,0c0,2.5,0,4.5,0,6.5L342.04,378.92z M214.16,405.48
	c0,2.11,0,4.22,0,6.53c2.16,0,3.91,0,5.73,0c0-2.19,0-4.05,0-6.02c-2.27-0.13-4.09-0.23-5.9-0.34L214.16,405.48z M206.36,413.24
	c0.52,1.85,1.04,3.71,1.62,5.78c1.97-0.12,3.73-0.23,5.47-0.34c0-2.16,0-3.8,0-6.14c-2.57,0.27-4.85,0.52-7.12,0.76L206.36,413.24z
	 M99.14,405.62c-1.96,0.19-3.92,0.38-6.09,0.58c0,2,0,3.77,0,5.66c2.13,0,4,0,5.91,0c0-2.43,0-4.42,0-6.42
	C98.96,405.45,99.14,405.62,99.14,405.62z M213.98,405.65c-0.2-1.97-0.39-3.95-0.6-6.17c-1.98,0-3.75,0-5.7,0c0,2.07,0,3.94,0,5.99
	c2.47,0,4.48,0,6.48,0C214.16,405.48,213.98,405.65,213.98,405.65z M213.99,426.01c1.96-0.15,3.92-0.29,6.08-0.45
	c0-2.09,0-3.85,0-5.8c-2.12,0-3.98,0-5.91,0c0,2.44,0,4.43,0,6.43C214.16,426.18,213.99,426.01,213.99,426.01z M199.96,386.07
	c-2.12,0-4.01,0-6.27,0c0.11,2.14,0.2,3.9,0.29,5.75c2.22,0,3.97,0,5.98,0C199.96,389.8,199.96,388.04,199.96,386.07z
	 M321.49,392.33c0.2,1.97,0.39,3.94,0.61,6.14c2.02,0,3.79,0,5.69,0c0-2.12,0-4,0-5.96c-2.46,0-4.47,0-6.48,0
	C321.31,392.51,321.49,392.33,321.49,392.33z M98.91,426.24c0-2.14,0-4.27,0-6.65c-2.09,0-3.88,0-5.73,0c0,2.13,0,4.02,0,5.99
	c2.24,0.19,4.07,0.35,5.9,0.5L98.91,426.24z M214.16,426.18c-2.16,0-4.31,0-6.63,0c0,2.24,0,4.03,0,6.03c2.07,0,3.87,0,5.87,0
	c0.21-2.21,0.4-4.21,0.58-6.2C213.99,426.01,214.16,426.18,214.16,426.18z M355.23,405.69c-1.99,0.14-3.97,0.28-6.17,0.43
	c0,2.04,0,3.82,0,5.79c2.09,0,3.98,0,5.99,0c0-2.39,0-4.39,0-6.39L355.23,405.69z M106.33,418.97c0-2.09,0-4.18-0.01-6.27
	c0,0,0.2,0.17,0.2,0.17c-2.26,0-4.51,0-6.76,0c0,2.3,0,4.04,0,5.94c2.48,0,4.62,0,6.77,0L106.33,418.97z M85.98,392.48
	c-2.13,0-4.26,0-6.48,0c0,2.28,0,4.06,0,6.01c2.05,0,3.84,0,5.92,0c0.14-2.22,0.26-4.2,0.38-6.19L85.98,392.48z M99.15,392.09
	c2.11,0,4.22,0,6.38,0c0-2.49,0-4.26,0-6.05c-2.1,0-3.87,0-6.2,0c0,2.27,0,4.25,0,6.23L99.15,392.09z M355.21,392.09
	c2.1,0,4.2,0,6.37,0c0-2.46,0-4.22,0-6.06c-2.09,0-3.85,0-5.88,0c-0.11,2.28-0.21,4.26-0.31,6.24L355.21,392.09z M227.32,392.29
	c0.1,1.98,0.21,3.95,0.31,6.02c2.26,0,4.15,0,6.39,0c-0.18-2.18-0.32-3.93-0.48-5.84c-2.41,0-4.41,0-6.4,0L227.32,392.29z
	 M213.78,392.28c0-2.01,0-4.02,0-6.21c-2.36,0-4.28,0-6.18,0c0,2.15,0,3.93,0,6.03c2.32,0,4.34,0,6.36,0L213.78,392.28z
	 M98.96,405.45c2.15,0,4.3,0,6.66,0c0-2.23,0-4.02,0-6.01c-2.06,0-3.86,0-5.87,0c-0.22,2.2-0.42,4.19-0.62,6.18
	C99.14,405.62,98.96,405.45,98.96,405.45z M355.06,405.51c2.13,0,4.25,0,6.56,0c0-2.31,0-4.08,0-6.01c-2.08,0-3.84,0-5.84,0
	c-0.2,2.24-0.37,4.21-0.54,6.18C355.23,405.69,355.06,405.51,355.06,405.51z M342.01,392.45c-2.12,0-4.23,0-6.39,0
	c0,2.34,0,4.1,0,5.99c2.08,0,3.85,0,6.21,0c0-2.23,0-4.2,0-6.17L342.01,392.45z M227.15,378.92c0.2,1.98,0.4,3.96,0.62,6.1
	c2.05,0,3.84,0,5.86,0c0-2.04,0-3.84,0-5.92c-2.33,0-4.49,0-6.66,0C226.97,379.09,227.15,378.92,227.15,378.92z M354.99,418.72
	c2.14,0,4.28,0,6.65,0c0-2,0-3.78,0-5.67c-2.06,0-3.94,0-5.9,0c-0.22,2.19-0.4,4.01-0.58,5.83
	C355.16,418.88,354.99,418.72,354.99,418.72z M206.33,413.29c0.19-2.37,0.37-4.73,0.54-7.03c-2.56-0.39-4.33-0.65-6.1-0.91
	c-0.01,0.01,0.12-0.14,0.12-0.14c0.03,2.7,0.07,5.39,0.1,8.07c-0.01-0.01-0.06-0.1-0.07-0.11c1.81,0.01,3.63,0.04,5.45,0.07
	C206.36,413.24,206.32,413.3,206.33,413.29z M341.83,392.27c2.09-0.16,4.19-0.32,6.56-0.5c-0.11-2.27-0.19-4.03-0.28-6.05
	c-2.24,0.11-4,0.2-6.09,0.31c0,2.44,0,4.43,0,6.43C342.01,392.45,341.83,392.27,341.83,392.27z M99.09,426.07
	c0.22,1.98,0.44,3.96,0.71,6.39c2.07-0.09,3.96-0.18,5.79-0.26c0-2.28,0-3.95,0-5.96c-2.36,0-4.52,0-6.67,0
	C98.91,426.24,99.09,426.08,99.09,426.07z M342.21,379.09c-2.12,0-4.23,0-6.61,0c0,2.16,0,3.93,0,5.73c2.18,0,4.04,0,5.89,0
	c0.21-2.26,0.38-4.08,0.55-5.89C342.04,378.92,342.22,379.09,342.21,379.09z M86.14,379.08c-2.14,0-4.28,0-6.59,0
	c0,2.17,0,3.95,0,5.96c2.04,0,3.81,0,5.8,0c0.22-2.18,0.42-4.15,0.61-6.13C85.96,378.91,86.14,379.09,86.14,379.08z M315.1,413.08
	c0.12,2.19,0.22,3.95,0.33,5.94c2.32-0.13,4.07-0.23,5.79-0.33c0-2.19,0-3.81,0-5.6C319.09,413.08,317.22,413.08,315.1,413.08z
	 M240.29,418.65c0-2.06,0-3.81,0-5.67c-2.06,0-3.81,0-5.78,0c0,1.93,0,3.55,0,5.67C236.67,418.65,238.42,418.65,240.29,418.65z
	 M226.76,412.65c-2.17,0.1-3.94,0.18-5.99,0.28c0.14,2.32,0.24,4.07,0.35,5.81c2.18,0,3.82,0,5.64,0
	C226.76,416.38,226.76,414.64,226.76,412.65z M179.45,123.44c-1.91,0-3.5,0-5.49,0c0.11,1.98,0.19,3.57,0.27,5.18
	c1.98,0,3.45,0,5.22,0C179.45,126.77,179.45,125.18,179.45,123.44z M328.83,418.61c2.25,0,4,0,5.69,0c0-2.13,0-3.88,0-5.75
	c-2,0-3.64,0-5.96,0C328.67,415.17,328.75,416.93,328.83,418.61z M348.05,412.99c-2.07,0-3.82,0-5.7,0c0,2.06,0,3.81,0,5.76
	c1.95,0,3.58,0,5.7,0C348.05,416.59,348.05,414.84,348.05,412.99z M172.55,103.15c-1.89,0-3.48,0-5.48,0
	c0.11,1.96,0.2,3.54,0.29,5.16c1.34,0.11,2.18,0.24,3.01,0.22c0.64-0.01,1.28-0.2,2.18-0.36
	C172.55,106.46,172.55,104.89,172.55,103.15z M98.46,379.27c-1.7,0-3.44,0-5.4,0c0,1.93,0,3.56,0,5.49
	C99.51,385.66,99.73,385.43,98.46,379.27z M112.27,378.9c-2.3,0.12-4.03,0.21-6.07,0.32c0.13,2.34,0.23,4.08,0.34,6.05
	c2.18-0.1,3.81-0.17,6.09-0.27C112.49,382.65,112.39,380.91,112.27,378.9z M206.51,384.93c0-2.08,0-3.82,0-5.65
	c-2.11,0-3.85,0-5.76,0c0,1.96,0,3.58,0,5.65C203.01,384.93,204.75,384.93,206.51,384.93z M214.44,384.95c1.9,0,3.64,0,5.59,0
	c0-2.03,0-3.77,0-5.76c-1.91,0-3.53,0-5.59,0C214.44,381.04,214.44,382.89,214.44,384.95z M158.49,130.42
	c-0.48-0.65-3.19-0.69-3.64-0.08c-0.91,1.23-0.95,3.1-1.51,5.33c2.5-0.11,4.08-0.18,6.28-0.28
	C159.23,133.36,159.33,131.54,158.49,130.42z M300.57,123.43c-1.95,0-3.55,0-5.55,0c0.19,2.02,0.35,3.62,0.51,5.32
	c1.8,0,3.14,0,5.04,0C300.57,126.69,300.57,125.09,300.57,123.43z M287.15,123.05c-1.95,0.13-3.52,0.23-5.46,0.36
	c0.12,2.01,0.22,3.58,0.32,5.25c1.89,0,3.35,0,5.14,0C287.15,126.54,287.15,124.98,287.15,123.05z M172.54,129.93
	c-2,0.1-3.47,0.17-5.12,0.25c0,1.89,0,3.46,0,5.28c1.82,0,3.28,0,5.5,0C172.78,133.39,172.67,131.8,172.54,129.93z M349.15,384.96
	c2.06,0,3.8,0,5.74,0c0-2.06,0-3.8,0-5.77c-1.93,0-3.55,0-5.74,0C349.15,381.36,349.15,383.1,349.15,384.96z M206.46,392.66
	c-1.9,0-3.66,0-5.61,0c0,2.05,0,3.81,0,5.81c1.92,0,3.56,0,5.61,0C206.46,396.62,206.46,394.73,206.46,392.66z M159.51,94.71
	c-0.15-2.02-0.26-3.59-0.4-5.48c-2.1,0.2-3.67,0.35-5.22,0.5c0,1.95,0,3.4,0,4.98C155.82,94.71,157.51,94.71,159.51,94.71z
	 M85.93,425.93c0.09,1.99,0.18,3.97,0.28,6.21c2.08,0,3.84,0,5.79,0c0-2.03,0-3.8,0-6.02c-2.27,0-4.26,0-6.25,0
	C85.75,426.11,85.93,425.93,85.93,425.93z M227.4,426.14c-2.11,0-4.22,0-6.61,0c0.13,2.55,0.22,4.32,0.33,6.36
	c2.34-0.15,4.1-0.26,6.1-0.39c0-2.45,0-4.3,0-6.16C227.22,425.96,227.41,426.14,227.4,426.14z M334.53,426.09
	c-2.11,0.09-3.85,0.17-5.6,0.25c0,2.25,0,4,0,5.92c1.99,0,3.62,0,5.6,0C334.53,429.97,334.53,428.21,334.53,426.09z M78.54,386.02
	c-2.04,0-3.78,0-5.73,0c0,2.06,0,3.81,0,5.82c1.9,0,3.52,0,5.73,0C78.54,389.77,78.54,388.02,78.54,386.02z M85.8,392.29
	c1.99-0.16,3.98-0.31,6.19-0.48c0-2.09,0-3.86,0-5.71c-2.07,0-3.83,0-6.02,0c0,2.35,0,4.36,0,6.37
	C85.98,392.48,85.8,392.29,85.8,392.29z M341.98,425.96c0,1.98,0,3.96,0,6.2c2.36,0,4.12,0,6.06,0c0-2.03,0-3.79,0-6.02
	c-2.28,0-4.27,0-6.25,0C341.8,426.14,341.98,425.96,341.98,425.96z M295.45,96.5c0,1.87,0,3.43,0,5.15c1.94,0,3.53,0,5.23,0
	c0-1.86,0-3.33,0-5.45C298.61,96.32,297.14,96.4,295.45,96.5z M287.63,101.63c-0.19-2.03-0.34-3.6-0.51-5.46
	c-2.07,0.16-3.64,0.28-5.43,0.41c0.11,1.95,0.18,3.4,0.27,5.05C283.93,101.63,285.61,101.63,287.63,101.63z M227.14,392.47
	c0-2.14,0-4.27,0-6.79c-2.53,0.14-4.3,0.24-6.34,0.36c0.15,2.33,0.26,4.1,0.37,5.89c2.44,0.14,4.29,0.25,6.15,0.36
	C227.32,392.29,227.14,392.48,227.14,392.47z M234.57,391.71c2.28,0,4.02,0,5.62,0c0-2.19,0-3.94,0-5.76c-2.05,0-3.68,0-5.96,0
	C234.37,388.3,234.47,390.06,234.57,391.71z M273.73,101.73c0-1.92,0-3.52,0-5.53c-1.97,0.12-3.56,0.21-5.18,0.3
	c0,1.98,0,3.45,0,5.23C270.4,101.73,272,101.73,273.73,101.73z M282.03,230.24c2.09-0.26,3.69-0.46,5.53-0.69
	c-0.14-1.95-0.25-3.41-0.38-5.05c-1.8,0-3.27,0-5.51,0C281.81,226.7,281.91,228.3,282.03,230.24z M321.31,392.51
	c0-2.14,0-4.27,0-6.39c-2.37,0-4.14,0-6.17,0c0.11,2.18,0.19,3.95,0.28,5.78c2.36,0.17,4.21,0.3,6.06,0.43
	C321.49,392.33,321.31,392.51,321.31,392.51z M328.92,386.13c0,2.13,0,3.87,0,5.63c2.1,0,3.85,0,5.78,0c0-2,0-3.63,0-5.63
	C332.46,386.13,330.72,386.13,328.92,386.13z M140.51,94.8c2.02,0,3.59,0,5.53,0c-0.11-1.9-0.19-3.45-0.29-5.21
	c-1.86,0-3.3,0-5.51,0C140.35,91.61,140.43,93.18,140.51,94.8z M86.31,418.63c2.11,0,3.84,0,5.62,0c0-2.08,0-3.82,0-5.75
	c-1.96,0-3.58,0-5.62,0C86.31,415.11,86.31,416.84,86.31,418.63z M274.12,115.04c-0.13-1.93-0.25-3.52-0.36-5.1
	c-1.97,0-3.44,0-5.19,0c-0.1,1.72-0.19,3.2-0.31,5.1C270.26,115.04,271.97,115.04,274.12,115.04z M428.98,94.8
	c-0.16-2.04-0.29-3.61-0.44-5.49c-2.04,0.15-3.61,0.27-5.21,0.38c0,1.92,0,3.37,0,5.52C425.52,95.06,427.1,94.94,428.98,94.8z
	 M281.64,110.05c0.15,2.06,0.27,3.64,0.41,5.49c2.08-0.17,3.65-0.29,5.48-0.44c-0.1-1.95-0.17-3.4-0.28-5.59
	C285.05,109.72,283.48,109.87,281.64,110.05z M99.33,392.27c-1.99,0.1-3.98,0.19-6.25,0.3c0,2.07,0,3.83,0,5.81c2.05,0,3.8,0,6.07,0
	c0-2.31,0-4.31,0-6.3C99.15,392.09,99.33,392.27,99.33,392.27z M112.56,392.22c-1.96,0.15-3.92,0.29-5.97,0.44c0,2.13,0,3.89,0,5.69
	c2.09,0,3.84,0,5.79,0c0-2.34,0-4.33,0-6.32C112.38,392.03,112.56,392.22,112.56,392.22z M410.03,89.78c0,1.77,0,3.34,0,5.05
	c1.9,0,3.48,0,5.27,0c0-1.75,0-3.2,0-5.05C413.58,89.78,411.88,89.78,410.03,89.78z M401.84,89.64c-1.85,0-3.41,0-5.26,0
	c0,1.8,0,3.37,0,5.22c1.81,0,3.38,0,5.58,0C402.04,92.8,401.95,91.36,401.84,89.64z M72.83,419.02c2.32-0.14,4.06-0.24,6.09-0.36
	c-0.14-2.3-0.25-4.05-0.36-5.75c-2.14,0-3.76,0-6.06,0C72.63,415.25,72.72,416.99,72.83,419.02z M213.97,392.1c0,2,0,4,0,6.31
	c2.25,0,4.02,0,5.89,0c0-2.08,0-3.96,0-6.13c-2.35,0-4.21,0-6.08,0C213.78,392.28,213.97,392.1,213.97,392.1z M300.52,109.6
	c-2,0.15-3.47,0.27-5.04,0.39c0,1.9,0,3.49,0,5.26c1.82,0,3.29,0,5.47,0C300.79,113.04,300.66,111.44,300.52,109.6z M172.58,94.88
	c0-1.84,0-3.43,0-5.2c-1.92,0-3.52,0-5.29,0c0,1.81,0,3.29,0,5.2C169.34,94.88,170.82,94.88,172.58,94.88z M300.52,87.97
	c1.37-4.96-0.78-5.91-5.19-4.73C294.38,88.42,296.46,89.41,300.52,87.97z M219.71,324.11c0-1.88,0-3.45,0-5.19
	c-1.85,0-3.42,0-5.19,0c0,1.89,0,3.45,0,5.19C216.34,324.11,217.92,324.11,219.71,324.11z M93.11,319.23c0.1,1.65,0.2,3.24,0.3,4.91
	c1.93,0,3.4,0,5.08,0C99.77,318.72,97.61,317.85,93.11,319.23z M355.38,392.27c-1.99,0.1-3.98,0.19-6.23,0.3c0,2.08,0,3.84,0,5.81
	c2.04,0,3.8,0,6.05,0c0-2.31,0-4.3,0-6.29C355.21,392.09,355.38,392.27,355.38,392.27z M268.64,128.92c2.07-0.15,3.63-0.27,5.2-0.38
	c0-1.95,0-3.4,0-5.15c-1.81,0-3.38,0-5.63,0C268.37,125.5,268.49,127.07,268.64,128.92z M389.76,115.18c1.99,0,3.46,0,5.12,0
	c0-1.87,0-3.48,0-5.32c-1.78,0-3.25,0-5.46,0C389.56,112.03,389.66,113.62,389.76,115.18z M267.22,94.79
	c-0.14-2.04-0.26-3.62-0.39-5.53c-2.03,0.17-3.6,0.29-5.21,0.42c0,1.89,0,3.34,0,5.48C263.77,95.02,265.34,94.92,267.22,94.79z
	 M98.63,269.11c0.52-0.33,0.49-2.88-0.06-3.25c-1.34-0.88-3.13-1.06-5.17-1.65c-0.14,2.33-0.24,3.81-0.41,6.66
	C95.47,270.17,97.26,269.97,98.63,269.11z M362.81,264.93c0,1.96,0,3.41,0,5c1.96,0,3.66,0,5.59,0c-0.11-1.9-0.19-3.35-0.31-5.53
	C365.92,264.62,364.35,264.78,362.81,264.93z M72.47,399.48c0.15,2.35,0.25,4.1,0.36,5.82c2.18,0,3.8,0,5.7,0c0-2,0-3.74,0-6.11
	C76.2,399.3,74.45,399.39,72.47,399.48z M85.76,405.55c1.99,0,3.97,0,6.23,0c0-2.24,0-4.01,0-5.85c-2.13,0-4,0-6.05,0
	c0,2.32,0,4.18,0,6.04C85.94,405.73,85.76,405.55,85.76,405.55z M409.74,76.26c0.1,1.96,0.18,3.56,0.28,5.53
	c2.08-0.15,3.68-0.27,5.53-0.4c-0.13-1.99-0.22-3.46-0.33-5.13C413.34,76.26,411.75,76.26,409.74,76.26z M396.61,81.36
	c1.93,0,3.53,0,5.1,0c0.45-5.36,0.45-5.36-5.1-5.22C396.61,78.08,396.61,79.67,396.61,81.36z M287.52,269.99
	c-0.09-1.93-0.15-3.38-0.23-5.03c-1.97,0-3.66,0-5.37,0c0,1.9,0,3.36,0,5.46C284.14,270.25,285.72,270.13,287.52,269.99z
	 M167.06,76.19c0.12,2.03,0.2,3.61,0.31,5.53c2.04-0.11,3.62-0.2,5.31-0.29c0-1.89,0-3.34,0-5.55
	C170.55,75.99,168.98,76.08,167.06,76.19z M227.23,405.67c-0.11-1.98-0.21-3.96-0.33-6.16c-2.09,0-3.85,0-5.75,0
	c0,2.05,0,3.81,0,5.98c2.29,0,4.28,0,6.26,0C227.42,405.49,227.24,405.67,227.23,405.67z M234.64,399.58c0,2.09,0,3.84,0,5.65
	c2.08,0,3.84,0,5.77,0c0-1.97,0-3.61,0-5.65C238.16,399.58,236.41,399.58,234.64,399.58z M321.39,405.72c0-1.98,0-3.96,0-6.2
	c-2.18,0-3.93,0-5.8,0c0,2.09,0,3.96,0,6.02c2.29,0,4.14,0,5.99,0C321.58,405.54,321.39,405.72,321.39,405.72z M328.92,405.24
	c2.07,0,3.81,0,5.66,0c0-2.1,0-3.85,0-5.81c-1.94,0-3.58,0-5.66,0C328.92,401.62,328.92,403.37,328.92,405.24z M342.38,405.22
	c2.11,0,3.86,0,5.62,0c0-2.12,0-3.86,0-5.75c-1.15-0.1-1.97-0.23-2.79-0.23c-0.82,0-1.64,0.13-2.83,0.24
	C342.38,401.71,342.38,403.45,342.38,405.22z M153.67,76.74c0.09,1.51,0.18,3.09,0.28,4.82c1.91,0,3.37,0,5.13,0
	C159.62,75.48,159.46,75.33,153.67,76.74z M214.47,270.06c1.86,0,3.44,0,5.25,0c0-1.85,0-3.42,0-5.24c-1.88,0-3.45,0-5.25,0
	C214.47,266.69,214.47,268.26,214.47,270.06z M174.32,265.02c0,1.67,0,3.27,0,5.1c1.79,0,3.25,0,5.09,0
	C180.45,265.2,178.9,263.63,174.32,265.02z M133.61,270.02c1.89,0,3.48,0,5.51,0c-0.11-1.94-0.19-3.52-0.29-5.24
	c-1.95,0-3.41,0-5.55,0C133.41,266.86,133.5,268.33,133.61,270.02z M181.55,95.07c2.01-0.23,5.12,1.11,4.64-2.94
	c-0.12-1.02-1.96-1.84-3.01-2.75c-1.11,1.42-2.23,2.83-3.34,4.25C180.4,94.11,180.98,94.59,181.55,95.07z M396.54,130.21
	c0,1.92,0,3.39,0,5.18c1.84,0,3.43,0,5.28,0c0-1.77,0-3.22,0-5.44C399.78,130.05,398.18,130.13,396.54,130.21z M307.59,93.52
	c0.51-0.44,0.25-2.93-0.28-3.18c-1.45-0.69-3.24-0.69-5.3-1.03c0.11,2.3,0.18,3.77,0.32,6.72C304.67,94.98,306.4,94.56,307.59,93.52
	z M387.23,89.72c-0.42-0.56-2.92-0.53-3.21-0.03c-0.8,1.39-0.94,3.16-1.44,5.2c2.31,0,3.76,0,6.6,0
	C388.42,92.7,388.16,90.95,387.23,89.72z M282.07,184.21c0,1.63,0,3.2,0,5.03c1.82,0,3.28,0,5,0
	C288.28,184.25,286.65,182.74,282.07,184.21z M408.61,114.69c-0.09-1.53-0.17-3.13-0.27-4.81c-1.93,0-3.4,0-4.82,0
	C402.4,115.67,402.66,115.92,408.61,114.69z M174.27,96.49c0,1.84,0,3.42,0,5.15c4.4,0.91,6.55-0.01,4.93-5.15
	C177.46,96.49,176,96.49,174.27,96.49z M394.92,101.6c0-1.65,0-3.24,0-5.15c-1.7-0.07-3.15-0.14-4.9-0.21
	C388.59,101.36,390.37,102.7,394.92,101.6z M162.13,89.24c1.39-1.17,2.79-2.34,4.18-3.52c-0.98-0.99-1.95-1.98-2.93-2.97
	c-1.22,1.32-2.44,2.63-3.67,3.95C160.53,87.55,161.33,88.4,162.13,89.24z M403.91,101.55c0.52,0.67,3.29,0.71,3.65,0.14
	c0.85-1.34,0.85-3.21,1.28-5.23c-2.25,0-3.7,0-6.15,0C403.14,98.62,403.06,100.45,403.91,101.55z M174.28,115.01
	c5.27,1.37,6.15-0.79,4.96-5.13c-1.61,0-3.06,0-5.27,0C174.1,111.96,174.19,113.56,174.28,115.01z M409.95,103.42
	c0,1.59,0,3.04,0,4.81c1.8,0,3.39,0,5.19,0C416.36,102.64,413.99,102.09,409.95,103.42z M267.21,107.78
	c-0.11-1.58-0.22-3.15-0.33-4.76c-2.8-0.16-5.89-1.2-5.34,2.74c0.19,1.36,2.59,2.4,3.98,3.59
	C266.09,108.83,266.65,108.3,267.21,107.78z M152.25,128.59c0-1.88,0-3.49,0-5.31c-1.79,0-3.26,0-5.12,0
	c-0.1,1.79-0.19,3.42-0.3,5.31C148.81,128.59,150.43,128.59,152.25,128.59z M159.22,103.09c-1.84,0-3.43,0-5.23,0
	c0,1.9,0,3.47,0,5.24c1.81,0,3.28,0,5.23,0C159.22,106.31,159.22,104.85,159.22,103.09z M415.25,134.24
	c0.54-0.43,0.41-2.97-0.1-3.24c-1.44-0.75-3.23-0.82-5.23-1.22c0,2.27,0,3.74,0,6.6C412.26,135.51,414.02,135.21,415.25,134.24z
	 M395.26,128.5c-0.15-1.98-0.26-3.58-0.37-5.01c-4.82-1.27-6.11,0.53-4.99,5.01C391.76,128.5,393.33,128.5,395.26,128.5z
	 M293.99,89.37c-1.91,0.09-3.47,0.17-5.11,0.25c0,1.98,0,3.56,0,5.27c1.13,0.1,1.93,0.21,2.75,0.23c0.65,0.01,1.3-0.09,2.37-0.17
	C293.99,92.94,293.99,91.35,293.99,89.37z M408.68,87.78c-0.13-1.54-0.26-3.12-0.39-4.71c-1.89,0-3.34,0-4.75,0
	C402.53,88.73,402.84,89.03,408.68,87.78z M403.22,123.38c0,1.89,0,3.51,0,5.5c1.94-0.11,3.52-0.2,5.16-0.29c0-1.96,0-3.43,0-5.21
	C406.54,123.38,404.95,123.38,403.22,123.38z M153.98,117.66c-0.62,0.53-0.45,3.32,0.16,3.65c1.4,0.77,3.28,0.65,5.35,0.96
	c-0.12-2.24-0.19-3.7-0.33-6.19C156.9,116.7,155.06,116.74,153.98,117.66z M145.78,103.09c-1.87,0-3.48,0-5.54,0
	c0.11,1.85,0.22,3.55,0.34,5.5c2.05-0.1,3.51-0.17,5.57-0.26C146,106.23,145.9,104.79,145.78,103.09z M416.58,123.42
	c0.15,2.08,0.27,3.67,0.4,5.47c2.01-0.1,3.49-0.17,5.15-0.26c0-1.76,0-3.25,0-5.55C420.11,123.21,418.53,123.3,416.58,123.42z
	 M186.27,105.6c-0.01-0.79-0.21-1.58-0.31-2.27c-5.86-0.9-6.01-0.72-4.53,5.25c1.4-0.08,2.86-0.16,4.52-0.26
	C186.09,107.23,186.28,106.41,186.27,105.6z M219.66,283.26c0-1.65,0-3.23,0-4.99c-1.8,0-3.28,0-5.1,0
	C213.49,283.33,215.21,284.71,219.66,283.26z M165.59,224.26c-1.6,0.11-3.18,0.22-4.85,0.34c0,1.9,0,3.37,0,5.08
	C166.24,230.9,167.04,228.67,165.59,224.26z M288.85,81.73c2.02-0.09,3.58-0.16,5.02-0.22c1.27-4.83-0.23-6.49-5.35-5.06
	C288.63,78.28,288.73,79.86,288.85,81.73z M288.53,103.72c0.1,1.41,0.21,2.88,0.33,4.57c1.9,0,3.51,0,5.09,0
	C294.46,102.36,294.14,102.09,288.53,103.72z M302.31,108.33c1.9,0,3.37,0,5.17,0c0-1.85,0-3.43,0-5.23
	c-1.75-0.1-3.24-0.18-5.52-0.31C302.1,105.02,302.2,106.62,302.31,108.33z M386.21,102.78c-1.13,0.87-3.09,1.61-3.26,2.64
	c-0.63,3.86,2.19,3.29,6.83,2.74C388.29,105.91,387.25,104.35,386.21,102.78z M401.83,103.08c-1.87,0-3.47,0-5.27,0
	c0,1.73,0,3.32,0,5.18c1.83,0,3.42,0,5.27,0C401.83,106.49,401.83,104.92,401.83,103.08z M421.95,115.16c0-1.95,0-3.54,0-5.54
	c-1.96,0.12-3.52,0.22-5.35,0.33c0.1,1.99,0.17,3.45,0.27,5.55C418.95,115.37,420.39,115.27,421.95,115.16z M423.5,108.56
	c1.95-0.1,3.53-0.18,5.46-0.28c-0.11-1.98-0.19-3.54-0.29-5.28c-1.9,0-3.35,0-5.17,0C423.5,105.08,423.5,106.64,423.5,108.56z
	 M160.94,109.84c0,1.97,0,3.69,0,5.65c1.9-0.09,3.36-0.17,5.12-0.26c0-1.85,0-3.45,0-5.64
	C164.01,109.69,162.55,109.76,160.94,109.84z M416.61,83.57c0.1,1.57,0.19,3.13,0.29,4.7c0.51,0.36,1.01,0.71,1.52,1.07
	c1.3-1.27,2.6-2.54,3.9-3.81c-1.38-1.17-2.76-2.34-4.14-3.51C417.66,82.53,417.14,83.05,416.61,83.57z M275.23,103.2
	c0,1.75,0,3.35,0,5.16c1.77,0,3.24,0,4.96,0C281.47,103.33,279.72,101.97,275.23,103.2z M422.1,96.46c-1.8,0-3.38,0-5.02,0
	c-1.21,4.24-0.34,6.42,5.02,5.21C422.1,99.92,422.1,98.31,422.1,96.46z M336.01,324.06c1.85,0,3.4,0,5.1,0c0-1.91,0-3.5,0-5.22
	c-1.83,0-3.28,0-5.38,0C335.84,320.9,335.92,322.36,336.01,324.06z M152.34,88.24c0-1.81,0-3.41,0-5.09c-1.92,0-3.49,0-5.22,0
	c0,1.84,0,3.31,0,5.09C148.98,88.24,150.59,88.24,152.34,88.24z M268.59,88.49c1.98-0.1,3.57-0.18,5.22-0.26c0-2.01,0-3.46,0-5.16
	c-1.88,0-3.49,0-5.22,0C268.59,84.97,268.59,86.55,268.59,88.49z M179.45,83.14c-1.92,0-3.53,0-5.5,0c0.1,1.94,0.19,3.53,0.27,5.14
	c1.99,0,3.46,0,5.23,0C179.45,86.44,179.45,84.86,179.45,83.14z M403.39,270.33c1.72-0.09,3.31-0.17,5.07-0.26c0-1.91,0-3.38,0-5.09
	C403.09,263.65,402.24,265.85,403.39,270.33z M287.29,86.85c0.52-0.45,0.29-2.97-0.19-3.18c-1.5-0.64-3.28-0.62-5.17-0.89
	c0,2.19,0,3.63,0,6.52C284.36,88.26,286.09,87.87,287.29,86.85z M160.55,96.52c0.1,1.93,0.18,3.53,0.26,5.2c1.95,0,3.41,0,5.2,0
	c0.08-1.69,0.14-3.16,0.24-5.2C164.14,96.52,162.54,96.52,160.55,96.52z M166.29,128.61c-0.09-2-0.16-3.61-0.24-5.37
	c-1.89,0-3.36,0-5.18,0c0,1.78,0,3.39,0,5.66C162.84,128.79,164.45,128.71,166.29,128.61z M410.89,121.81
	c0.6,0.64,3.28,0.55,3.62-0.04c0.78-1.33,0.69-3.17,0.98-5.02c-2.24,0-3.69,0-6.26,0C409.89,118.99,409.95,120.81,410.89,121.81z
	 M280.01,129.95c-1.61,0.07-3.2,0.14-4.91,0.21c0,1.94,0,3.42,0,5.18C280.41,136.54,281.51,134.56,280.01,129.95z M403.23,189.49
	c1.95-0.13,3.55-0.23,5.19-0.34c0-1.95,0-3.43,0-5.17c-1.71-0.08-3.19-0.15-5.19-0.25C403.23,185.92,403.23,187.52,403.23,189.49z
	 M167.33,117.97c-0.53,0.42-0.37,2.94,0.14,3.2c1.45,0.74,3.23,0.8,5.21,1.19c0-2.24,0-3.69,0-6.59
	C170.32,116.68,168.57,117,167.33,117.97z M265.77,115.77c-1.44,1.12-2.89,2.24-4.33,3.36c0.94,1.05,1.88,2.09,2.81,3.14
	c1.26-1.28,2.52-2.56,3.79-3.85C267.28,117.55,266.52,116.66,265.77,115.77z M165.9,183.66c-1.92,0.11-3.49,0.2-5.42,0.31
	c0.16,2.12,0.29,3.7,0.41,5.38c1.82,0,3.15,0,5.01,0C165.9,187.34,165.9,185.73,165.9,183.66z M403.22,230.06
	c1.98-0.1,3.55-0.17,5.18-0.25c0-2,0-3.47,0-5.23c-1.86,0-3.46,0-5.45,0C403.04,226.4,403.12,228.02,403.22,230.06z M280.29,94.82
	c0-1.89,0-3.48,0-5.23c-1.84,0-3.3,0-5.03,0c0,1.83,0,3.47,0,5.23C276.97,94.82,278.57,94.82,280.29,94.82z M389.89,88.5
	c1.92-0.14,3.5-0.25,5.33-0.38c-0.09-1.9-0.16-3.36-0.24-5.1c-1.73-0.08-3.2-0.15-5.08-0.24C389.89,84.74,389.89,86.44,389.89,88.5z
	 M147.29,101.91c5.59-0.16,5.59-0.16,4.69-5.48c-1.43,0-2.9,0-5.1,0C147.05,98.56,147.17,100.25,147.29,101.91z M396.24,116.96
	c0.17,1.92,0.3,3.35,0.42,4.7c4.86,1.61,6.18-0.14,5.04-4.7C399.94,116.96,398.24,116.96,396.24,116.96z M338.9,283.68
	c0.97-0.14,1.72-1.82,2.57-2.79c-1.44-1.15-2.87-2.3-4.31-3.44C335.68,281.42,335.01,284.23,338.9,283.68z M152.01,109.68
	c-1.75,0.09-3.32,0.16-5.13,0.25c0.14,2.01,0.25,3.49,0.37,5.22C152.81,116.26,153.13,113.75,152.01,109.68z M140.56,121.84
	c1.93,0,3.55,0,5.28,0c0-1.83,0-3.29,0-5.06c-1.85,0-3.45,0-5.28,0C140.56,118.65,140.56,120.23,140.56,121.84z M185.92,116.79
	c-5.13-0.96-6.18,0.96-4.79,5.22c1.68,0,3.14,0,5.36,0C186.25,119.83,186.08,118.26,185.92,116.79z M290.06,123.01
	c1.41-1.19,2.83-2.38,4.24-3.57c-0.98-0.99-1.97-1.97-2.95-2.96c-1.22,1.35-2.44,2.7-3.66,4.05
	C288.49,121.36,289.28,122.18,290.06,123.01z M279.15,76.17c-0.4-0.51-2.91-0.32-3.16,0.19c-0.71,1.45-0.74,3.23-1.09,5.12
	c2.17,0,3.6,0,6.45,0C280.44,79.11,280.12,77.39,279.15,76.17z M327.2,264.53c-1.68,0.11-3.22,0.21-5.03,0.33
	c0.09,1.98,0.15,3.44,0.23,5.17C327.8,271.06,328.48,268.82,327.2,264.53z M293.82,129.94c-1.89,0.11-3.45,0.21-5.35,0.33
	c0.14,1.98,0.25,3.43,0.37,5.12c1.76,0,3.2,0,4.98,0C293.82,133.58,293.82,131.99,293.82,129.94z M428.7,120.63
	c0.51-0.41,0.27-2.94-0.23-3.16c-1.48-0.67-3.27-0.68-5.16-0.98c-0.08,1.55-0.15,2.37-0.14,3.19c0.01,0.64,0.12,1.28,0.33,3.24
	C425.74,121.99,427.48,121.62,428.7,120.63z M388.66,121.42c-0.08-1.52-0.17-3.09-0.25-4.69c-1.95,0-3.41,0-4.83,0
	C382.46,122.25,382.91,122.67,388.66,121.42z M94.54,283.48c0.48,0.56,2.86,0.31,3.58-0.39c0.72-0.7,0.99-3.21,0.51-3.55
	c-1.3-0.9-3.11-1.05-6.22-1.92C93.38,280.53,93.56,282.34,94.54,283.48z M307.61,119.68c-0.27-1.21-1.71-2.17-2.65-3.23
	c-0.97,1-2.45,1.87-2.75,3.05c-0.21,0.79,1.24,2.01,2.52,3.88C306.19,121.59,307.78,120.44,307.61,119.68z M275.9,121.8
	c0.44,0.63,3.16,0.71,3.58,0.11c0.89-1.23,0.94-3.07,1.45-5.1c-2.28-0.11-3.71-0.18-6.12-0.3
	C275.22,118.85,275.1,120.64,275.9,121.8z"/>
</svg>
