<?xml version="1.0" encoding="utf-8"?>
<!-- Generator: Adobe Illustrator 26.0.1, SVG Export Plug-In . SVG Version: 6.00 Build 0)  -->
<svg version="1.1" id="Layer_1" xmlns="http://www.w3.org/2000/svg" xmlns:xlink="http://www.w3.org/1999/xlink" x="0px" y="0px"
	 viewBox="0 0 512 512" style="enable-background:new 0 0 512 512;" xml:space="preserve">
<path d="M339.64,462.25c-1.82-0.02-3.63-0.05-5.46-0.08c-0.01-0.01,0.13,0.1,0.13,0.1c-0.25-2.19-0.5-4.38-0.8-7.08
	c-15.44,0-30.99,0-46.96,0c-0.14,1.78-0.3,3.73-0.49,6.05c-1.87,0-3.64,0-5.77,0c-0.25-1.95-0.51-3.91-0.81-6.21
	c-15.54,0-31.12,0-46.85,0c-0.15,2.15-0.27,3.99-0.43,6.31c-1.83,0.09-3.61,0.17-5.67,0.27c-0.29-2.34-0.54-4.29-0.82-6.57
	c-15.56,0-30.99,0-46.81,0c-0.26,1.93-0.52,3.88-0.81,6.09c-1.92,0.31-3.88,0.63-5.85,0.95c-0.01-0.01,0.15,0.14,0.15,0.14
	c-0.17-2.21-0.34-4.41-0.54-7.08c-15.55,0-31.13,0-46.87,0c-0.21,1.95-0.41,3.79-0.65,6.06c-1.92,0-3.8,0-6,0
	c-0.13-2.02-0.24-3.86-0.39-6.1c-13.31,0-26.65,0-40.25,0c0,2.17,0,4.32,0,6.81c13.14,0,26.22,0,39.81,0
	c0.12,2.07,0.23,3.84,0.37,6.24c-11.28,0-22.25,0-33.44,0c-0.22,2.4-0.38,4.22-0.6,6.71c-1.86,0.12-3.81,0.25-6.29,0.4
	c0,10.9,0,21.87,0,33.19c-2.29,0-4.06,0-6.44,0c0-17.8,0-35.56,0-53.61c-4.66,0-8.71,0-13.37,0c0-4.43,0-8.59,0-13.33
	c-18.2,0-35.82,0-53.75,0c0-2.36,0-4.14,0-6.38c11.04,0,21.88,0,33.3,0c-0.16-2.61-0.29-4.73-0.42-6.86c0,0-0.17,0.17-0.17,0.17
	c2.2-0.15,4.4-0.29,7.24-0.48c0-10.94,0-21.9,0-33.17c2.25-0.13,3.89-0.22,6.12-0.35c0,13.4,0,26.56,0,40.15c2.64,0,4.71,0,7.2,0
	c0-13.28,0-26.45,0-39.97c-1.88-0.22-3.67-0.43-6.05-0.7c-0.12-1.68-0.24-3.44-0.39-5.59c2.17-0.32,4.11-0.62,6.42-0.96
	c0-15.57,0-31.1,0-46.97c-2.09-0.13-3.9-0.25-5.75-0.37c-0.52-2.06-1-3.97-1.48-5.87c0,0-0.13,0.14-0.13,0.14
	c2.34-0.24,4.68-0.48,7.36-0.75c0-15.6,0-31.04,0-46.88c-1.94-0.18-3.89-0.37-6.11-0.58c0-2.04,0-3.83,0-5.83
	c2-0.23,3.83-0.44,6.09-0.7c0-15.42,0-30.87,0-46.73c-1.81-0.22-3.74-0.45-6.01-0.73c0-1.84,0-3.61,0-5.73
	c1.88-0.16,3.68-0.32,5.94-0.52c0-15.63,0-31.19,0-47c-1.92-0.23-3.73-0.45-6.06-0.73c-0.08-1.74-0.17-3.51-0.27-5.61
	c2.21-0.26,4.02-0.47,6.33-0.73c0-15.5,0-31.07,0-46.84c-1.98-0.19-3.81-0.36-5.99-0.57c0-1.85,0-3.65,0-5.85
	c1.89-0.24,3.85-0.49,6.32-0.8c0-19.87,0-39.73,0-60.17c4.67,0,8.85,0,13.39,0c0-18.08,0-35.59,0-53.65c2.1-0.1,3.86-0.18,6.24-0.29
	c0,11.31,0,22.28,0,33.5c2.54,0.12,4.5,0.21,6.7,0.32c0.16,2.12,0.3,3.96,0.49,6.44c10.89,0,21.85,0,33.14,0c0,2.38,0,4.13,0,6.32
	c-13.16,0-26.22,0-39.63,0c0,2.52,0,4.65,0,7.11c13.26,0,26.49,0,40.1,0c0.11-1.89,0.22-3.71,0.35-5.99c1.95,0,3.85,0,6.03,0
	c0.21,1.84,0.41,3.67,0.66,5.91c15.4,0,30.83,0,46.62,0c0.28-1.9,0.56-3.84,0.88-6.04c1.9,0,3.68,0,5.7,0
	c0.17,2.05,0.31,3.87,0.49,6.07c15.62,0,31.2,0,47.03,0c0.22-1.93,0.43-3.75,0.71-6.14c1.7-0.08,3.47-0.16,5.62-0.26
	c0.23,2.14,0.42,3.96,0.66,6.28c15.47,0,31.01,0,46.89,0c0.17-1.89,0.33-3.7,0.53-5.87c1.91,0,3.68,0,5.85,0
	c0.21,1.81,0.44,3.77,0.72,6.06c15.49,0,30.92,0,46.73,0c0.27-2.01,0.54-3.95,0.84-6.17c1.85,0,3.62,0,5.69,0
	c0.16,2.07,0.29,3.88,0.46,6.08c15.62,0,31.05,0,46.92,0c0.23-1.81,0.47-3.75,0.76-6.03c1.8,0,3.58,0,5.7,0
	c0.25,1.94,0.5,3.89,0.82,6.35c19.94,0,39.78,0,60.08,0c0,20.4,0,40.27,0,60.31c2.4,0.21,4.35,0.38,6.59,0.57c0,2.04,0,3.82,0,5.87
	c-2.14,0.21-4.11,0.4-6.35,0.62c0,15.56,0,31.02,0,46.86c2.51,0.18,4.83,0.35,7.14,0.51c0,0-0.18-0.18-0.18-0.18
	c-0.17,1.84-0.34,3.67-0.55,5.87c-1.99,0.28-3.92,0.55-6.26,0.88c0,15.47,0,30.97,0,46.79c1.94,0.25,3.89,0.5,6.04,0.77
	c0.28,2.04,0.56,4.02,0.83,6l0.17-0.18c-2.21,0.11-4.42,0.23-7.04,0.36c0,15.61,0,31.19,0,46.74c6.66,1.04,6.66,1.04,6.13,6.63
	c-1.89,0.19-3.86,0.4-6.2,0.64c0,15.54,0,31.1,0,46.91c2.54,0.28,4.87,0.54,7.19,0.8c0,0-0.13-0.15-0.13-0.15
	c-0.3,1.81-0.6,3.63-0.95,5.73c-1.84,0.17-3.66,0.33-5.98,0.54c0,15.64,0,31.34,0,47.16c1.94,0.14,3.79,0.27,6.05,0.43
	c0,1.96,0,3.84,0,5.98c-2.12,0.16-3.96,0.3-6.16,0.47c0,13.37,0,26.7,0,40.29c2.25,0,4.23,0,6.75,0c0-13.27,0-26.44,0-39.94
	c2.31,0,4.07,0,6.31,0c0,10.95,0,21.76,0,32.95c2.72,0.27,5.02,0.5,7.32,0.73l-0.16-0.17c0,2.02,0,4.04,0,6.55
	c10.98,0,21.81,0,33.07,0c0,2.24,0,3.99,0,6.28c-17.57,0-35.19,0-53.4,0c0,4.67,0,8.83,0,13.51c-20.41,0-40.23,0-60.48,0
	c-0.13,2.83-0.23,5.15-0.34,7.46l0.18-0.18c-1.99-0.2-3.99-0.4-6.2-0.63c-0.2-2.16-0.39-4.14-0.6-6.36c-15.6,0-31.04,0-46.8,0
	c-0.39,2.48-0.78,4.92-1.16,7.37L339.64,462.25z M448.3,448.4c0-128.43,0-256.29,0-384.26c-128.28,0-256.25,0-384.2,0
	c0,128.31,0,256.17,0,384.26C192.21,448.4,319.94,448.4,448.3,448.4z M4.07,51.49c0.11,2,0.19,3.46,0.29,5.44
	c16.94,0,33.55,0.04,50.16-0.13c0.83-0.01,2.3-1.94,2.27-2.94c-0.03-1.02-1.38-2.51-2.46-2.87c-1.51-0.49-3.3-0.12-4.96-0.12
	c7.39-0.81,7.49-0.81,7.57-8.51c0.11-11.39-0.03-22.79,0.13-34.18c0.06-4.37-1.9-4.85-5.96-3.47c0,13.08,0,26.25,0,39.34
	c-2.61,0.22-4.58,0.39-6.66,0.56c0,2.32,0,4.18,0,6.9C30.76,51.49,17.58,51.49,4.07,51.49z M462.05,334.14
	c4.89-0.21,9.78-0.54,14.68-0.59c10.5-0.09,21-0.03,31.67-0.03c0-2.43,0-4.2,0-6.62c-11.27,0-22.24,0-33.09,0
	c-0.25-2.49-0.43-4.31-0.62-6.14c-2.32-0.27-4.28-0.5-6.64-0.78c0-11.14,0-21.97,0-32.92c-2.22,0-3.98,0-5.86,0
	c0,15.96,0,31.6,0,47.24C462.19,334.3,462.06,334.15,462.05,334.14z M475.48,159.15c-2.31-0.3-4.61-0.59-7.51-0.96
	c0-11.13,0-22.08,0-33.01c-2.27,0-3.92,0-5.92,0c0,15.88,0,31.49,0,47.1c0,0-0.18-0.18-0.19-0.18c15.51,0,31.01,0,46.92,0
	c-0.14-2.9-0.22-4.67-0.33-6.96c-11.46,0-22.37,0-33.54,0c0.18-2.43,0.31-4.28,0.44-6.13C475.36,159,475.48,159.15,475.48,159.15z
	 M245.44,475.5c0.27-2.31,0.54-4.61,0.86-7.34c11.08,0,21.9,0,33,0c0-2.22,0-3.98,0-5.98c-15.54,0-30.78,0-46.32,0
	c0,15.49,0,30.72,0,46.3c2.02,0,3.79,0,6.1,0c0-11.04,0-22,0-33.11c2.53,0,4.53,0,6.53,0L245.44,475.5z M339.66,462.24
	c0.32,7,0.77,14.01,0.9,21.03c0.15,8.42,0.04,16.85,0.04,25.65c2.64-0.18,4.4-0.31,6.59-0.46c0-11.41,0-22.25,0-33.04
	c2.31-0.26,4.14-0.47,6.11-0.69c0.21-2.17,0.4-4.13,0.65-6.63c11.17,0,22.14,0,33.44,0c-0.17-2.36-0.29-4.13-0.41-5.79
	c-16.17,0-31.81,0-47.45,0C339.53,462.31,339.64,462.25,339.66,462.24z M49.91,334.29c0.16-5.26,0.42-10.52,0.45-15.77
	c0.07-10.47,0.02-20.94,0.02-31.43c-2.42,0-4.18,0-6.36,0c0,11.21,0,22.03,0,33.06c-2.38,0.2-4.35,0.37-6.48,0.54
	c-0.13,2.19-0.26,4.17-0.4,6.61c-11.21,0-22.17,0-33.11,0c0,2.27,0,4.05,0,6.19c4.06,0,7.78-0.05,11.49,0.01
	c11.5,0.19,23.01,0.43,34.51,0.65C50.03,334.15,49.9,334.3,49.91,334.29z M36.81,158.93c0.19,2.09,0.37,4.18,0.58,6.6
	c-11.52,0-22.36,0-33.25,0c0,2.21,0,4.12,0,5.98c15.54,0,30.64,0,45.98,0c0-15.57,0-30.81,0-46.25c-2.05,0-3.81,0-6.21,0
	c0,11.27,0,22.24,0,33.11c-2.84,0.28-5.04,0.5-7.24,0.72L36.81,158.93z M233.02,50.1c15.58,0,30.82,0,46.25,0c0-2.05,0-3.81,0-6.15
	c-11.29,0-22.27,0-33.19,0c-0.18-2.42-0.31-4.25-0.46-6.32c-2.21-0.2-4.18-0.38-6.64-0.61c0-11.04,0-22.01,0-33.07
	c-2.29,0-4.07,0-5.96,0C233.02,19.51,233.02,34.75,233.02,50.1z M51.19,463.1c0,13.77,0.03,27.54-0.03,41.31
	c-0.01,2.34,0.39,4.48,3.18,3.73c1.13-0.3,2.45-2.44,2.51-3.8c0.28-5.93,0.14-11.88,0.14-17.83c0-10.12,0-20.23,0-30.73
	c-17.9,0-35.13,0-52.65,0c0,1.82,0,3.27,0,5.37c13.36,0,26.51,0,39.59,0c0.32,2.6,0.55,4.56,0.83,6.81c1.98-0.11,3.6-0.19,5.27-0.28
	c0.28-1.83,0.49-3.21,0.7-4.6C50.9,463.09,51.05,463.1,51.19,463.1z M455.57,9.42c-0.03,14.59,0.03,29.18-0.15,43.77
	c-0.04,3.46,1.55,3.86,4.37,3.82c8.32-0.12,16.65-0.04,24.97-0.04c7.72,0,15.45,0,23.56,0c-0.19-2.4-0.31-3.85-0.46-5.83
	c-13.99,0-27.65,0-40.62,0c0.26-2.44,0.47-4.41,0.72-6.64c-2.59-0.2-4.56-0.35-6.97-0.54c0-13.28,0-26.32,0-39.65
	c-1.91,0-3.36,0-5.42,0C455.57,6.13,455.58,7.78,455.57,9.42z M394.29,461.94c0,15.4,0,30.8,0,46.53c2.41,0,4.17,0,6.55,0
	c0-11.15,0-22.08,0-33.16c2.64,0,4.65,0,6.66,0l-0.17,0.16c0.21-2.3,0.41-4.59,0.67-7.43c11.29,0,22.22,0,33.37,0
	c-0.11-2.24-0.19-3.89-0.29-5.92c-15.85,0-31.41,0-46.97,0C394.1,462.12,394.28,461.94,394.29,461.94z M138.21,475.25
	c0-2.17,0-4.34,0-7.1c11.34,0,22.29,0,33.19,0c0.34-2.42,0.6-4.24,0.86-6.07c-0.01-0.01,0.15,0.14,0.15,0.13
	c-15.72,0-31.44,0-47.11,0c0,15.77,0,30.99,0,46.19c2.13,0,3.89,0,6.09,0c0-11.24,0-22.07,0-33.34c2.63,0,4.82,0,7,0
	C138.38,475.06,138.21,475.25,138.21,475.25z M462.1,232.24c0,15.71,0,31.41,0,46.99c15.86,0,31.05,0,46.22,0c0-2.16,0-3.91,0-6.01
	c-11.26,0-22.09,0-33.18,0c0-2.52,0-4.7,0-6.88l0.18,0.18c-2.28-0.12-4.57-0.23-7.35-0.37c0-11.4,0-22.27,0-33.21
	c-2.37-0.21-4.2-0.37-6.03-0.53C461.93,232.41,462.1,232.23,462.1,232.24z M340.84,50.09c15.51,0,30.73,0,46.16,0
	c0-2.07,0-3.83,0-6.21c-11.27,0-22.23,0-33.14,0c-0.18-2.46-0.32-4.31-0.46-6.34c-2.19-0.14-4.17-0.27-6.6-0.43
	c0-11.17,0-22.16,0-33.34c-2.12,0-3.79,0-5.95,0C340.84,19.42,340.84,34.64,340.84,50.09z M475.27,104.59c-2.3,0-4.61,0-7.25,0
	c0-11.44,0-22.26,0-33.34c-2.14,0-3.9,0-5.91,0c0,15.54,0,30.76,0,46.16c15.6,0,30.93,0,46.35,0c0-2.06,0-3.69,0-5.86
	c-11.23,0-22.2,0-33.37,0c0-2.74,0-4.94,0-7.13L475.27,104.59z M300.1,475.22c0-2.18,0-4.35,0-7.12c10.99,0,22.03,0,32.94,0
	c0.46-2.37,0.81-4.15,1.15-5.93c-0.01-0.01,0.13,0.1,0.12,0.1c-15.73-0.01-31.46-0.01-47.34-0.01c0,15.59,0,30.8,0,46.19
	c2.07,0,3.83,0,6.13,0c0-11.31,0-22.26,0-33.41c2.76,0,4.96,0,7.17,0C300.27,475.04,300.09,475.23,300.1,475.22z M407.53,36.81
	c-2.12,0.14-4.24,0.27-6.86,0.44c0-11.43,0-22.25,0-33.25c-2.23,0-3.98,0-5.87,0c0,15.55,0,30.76,0,46.08c15.61,0,30.83,0,46.2,0
	c0-2.06,0-3.81,0-6.19c-11.29,0-22.24,0-33.16,0c-0.19-2.84-0.34-5.04-0.48-7.25L407.53,36.81z M3.97,273.4c0,2.17,0,3.96,0,5.92
	c15.5,0,30.72,0,46.04,0c0-15.67,0-31.02,0-46.7c-2.21,0.14-3.97,0.26-6.08,0.4c0,11.43,0,22.29,0,33.09
	c-2.35,0.25-4.31,0.46-6.36,0.67c-0.15,2.24-0.27,4.09-0.44,6.62C25.86,273.4,15.03,273.4,3.97,273.4z M125.21,49.95
	c15.64,0,30.99,0,46.61,0c-0.09-2.09-0.16-3.73-0.26-5.98c-11.24,0-22.21,0-33.19,0c-0.2-2.45-0.34-4.28-0.51-6.34
	c-2.23-0.21-4.22-0.39-6.73-0.62c0-11.08,0-22.07,0-33.11c-2.21,0-3.87,0-5.92,0C125.21,19.64,125.21,34.73,125.21,49.95z
	 M462.21,387.06c15.56,0,30.77,0,46.18,0c0-2.09,0-3.84,0-6.13c-11.31,0-22.27,0-33.17,0c-0.18-2.51-0.33-4.47-0.48-6.52
	c-2.4-0.15-4.25-0.27-6.62-0.41c0-10.99,0-21.96,0-33.15c-2.18,0-3.83,0-5.92,0C462.21,356.48,462.21,371.7,462.21,387.06z
	 M292.89,3.95c-2.18,0-3.95,0-5.9,0c0,15.48,0,30.68,0,46.16c15.53,0,30.73,0,46.25,0c0-2.02,0-3.78,0-6.04
	c-11.26,0-22.23,0-33.15,0c-0.21-2.46-0.37-4.42-0.55-6.53c-2.19-0.17-4.03-0.32-6.64-0.53C292.89,25.9,292.89,15.07,292.89,3.95z
	 M475.36,219.23c-0.26-2.38-0.47-4.35-0.7-6.51c-2.24-0.16-4.22-0.29-6.59-0.46c0-11.12,0-21.95,0-33.06c-2.19,0-3.95,0-5.87,0
	c0,15.51,0,30.73,0,46.39c14.1,0,27.86-0.17,41.61,0.09c4.65,0.09,5.86-1.51,4.29-6.46C497.12,219.23,486.27,219.23,475.36,219.23z
	 M44.09,104.47c-2.31,0.11-4.28,0.21-6.42,0.32c-0.23,2.36-0.43,4.47-0.67,6.91c-11.15,0-21.99,0-32.93,0c0,2.14,0,3.89,0,5.74
	c15.55,0,30.76,0,45.99,0c0-15.62,0-30.83,0-46.28c-1.98,0-3.62,0-5.97,0C44.09,82.56,44.09,93.4,44.09,104.47z M225.25,468.04
	c0-2.16,0-3.92,0-5.74c-15.59,0-30.8,0-46,0c0,15.6,0,30.83,0,46.1c2.15,0,3.9,0,6.11,0c0-11.24,0-22.09,0-33.03
	c2.28-0.2,4.11-0.36,6.18-0.55c0.23-2.09,0.44-4.08,0.74-6.79C203.45,468.04,214.3,468.04,225.25,468.04z M4.01,387.1
	c15.63,0,30.72,0,46.11,0c0-15.52,0-30.76,0-46.24c-1.99,0-3.79,0-6.1,0c0,11.21,0,22.2,0,33.13c-2.47,0.23-4.44,0.4-6.39,0.58
	c-0.24,2.41-0.43,4.36-0.64,6.56c-11.1,0-21.79,0-33.32,0C3.8,383.49,3.9,385.25,4.01,387.1z M44.09,212.2
	c-2.34,0.22-4.31,0.41-6.45,0.61c-0.21,2.23-0.4,4.19-0.62,6.53c-11.09,0-21.93,0-33.05,0c0,2.19,0,3.97,0,6
	c15.45,0,30.68,0,46.12,0c0-15.54,0-30.76,0-46.19c-1.99,0-3.65,0-6,0C44.09,190.44,44.09,201.29,44.09,212.2z M225.25,50.08
	c0-2.07,0-3.83,0-6.25c-11.27,0-22.21,0-33.05,0c-0.23-2.49-0.39-4.31-0.58-6.39c-2.22-0.15-4.15-0.27-6.45-0.42
	c0-11.26,0-22.1,0-33.15c-2.2,0-4.01,0-5.99,0c0,15.47,0,30.69,0,46.21C194.67,50.08,209.88,50.08,225.25,50.08z M504.34,461.05
	c1.29-0.02,2.55-1.73,3.83-2.65c-1.28-0.95-2.51-2.67-3.83-2.73c-5.93-0.3-11.88-0.13-17.83-0.13c-10.15,0-20.3,0-31.02,0
	c0,5.36,0,10.08,0,14.79c0,11.38-0.09,22.77,0.14,34.15c0.02,1.27,1.81,2.51,2.78,3.77c0.89-1.3,2.32-2.5,2.56-3.91
	c0.42-2.48,0.11-5.08,0.1-7.63c0-9.45,0-18.9,0-28.38c2.68-0.26,4.5-0.44,6.56-0.64c0.21-2.07,0.39-3.89,0.66-6.51
	C480.58,461.17,492.46,461.26,504.34,461.05z M505.02,474.72c1.11-0.03,2.16-1.75,3.24-2.69c-1.03-1-1.9-2.48-3.13-2.87
	c-1.54-0.5-3.37-0.12-5.07-0.12c-10.16,0-20.31,0-30.75,0c0,13.37,0,26.05,0,38.63c4.1,1.46,5.64,0.38,5.5-3.81
	c-0.24-7.39-0.07-14.8-0.07-22.17c2.5-0.25,4.32-0.43,6.3-0.64c0.2-2.11,0.38-3.93,0.6-6.22
	C489.75,474.85,497.39,474.96,505.02,474.72z M474.59,4c-2.08,0.12-3.65,0.21-5.61,0.32c0,12.38,0.04,24.27-0.03,36.15
	c-0.02,3.04,1.8,3.08,4.05,3.06c10.16-0.1,20.32-0.12,30.48-0.16c2.12-0.01,4.74,0.83,4.73-2.79c-0.02-3.56-2.64-2.85-4.76-2.85
	c-7.25-0.02-14.51-0.01-21.65-0.01c-0.38-2.72-0.65-4.69-0.93-6.67c-2.03-0.14-3.72-0.25-6.28-0.42
	C474.59,21.66,474.59,13.07,474.59,4z M43.27,476.88c-0.12-7.67-0.28-7.75-8.16-7.82c-10.17-0.09-20.34-0.02-30.71-0.02
	c0,2.2,0,3.78,0,5.85c8.95,0,17.53,0,26.26,0c0.18,2.3,0.32,4.11,0.48,6.18c2.88,0.26,5.56,0.5,7.99,0.72
	c-0.52,1-1.3,1.82-1.31,2.65c-0.11,6.97-0.13,13.95-0.06,20.93c0.04,4,2.74,2.92,5.55,2.66C43.31,497.5,43.43,487.19,43.27,476.88z
	 M43.28,8.86c-0.01-2.07,0.86-4.77-2.74-4.81c-3.66-0.04-2.74,2.77-2.76,4.78c-0.08,7.26-0.03,14.52-0.03,21.72
	c-2.56,0.27-4.53,0.48-6.61,0.69c-0.18,2.28-0.34,4.23-0.54,6.68c-8.92,0-17.52,0-26.25,0c0,1.98,0,3.43,0,5.22
	c13.06,0,25.83,0,38.94,0C43.29,31.48,43.31,20.17,43.28,8.86z M407.51,475.31c0.01,10.97,0.01,21.94,0.01,33.21
	c2.71,0,4.48,0,6.85,0c0-6.76,0-13.26,0-19.67c2.56-0.27,4.51-0.48,6.46-0.69c0.19-2.21,0.34-4.04,0.55-6.56c6.64,0,13.16,0,20,0
	c-0.14-2.48-0.24-4.23-0.34-6.13c-11.64,0-22.67,0-33.7,0C407.33,475.47,407.5,475.31,407.51,475.31z M475.24,428.31
	c11.09-0.01,22.19-0.01,33.58-0.01c-0.14-2.98-0.22-4.63-0.32-6.85c-6.78,0-13.28,0-19.7,0c-0.28-2.55-0.5-4.5-0.72-6.44
	c-2.21-0.19-4.03-0.34-6.55-0.55c0-6.65,0-13.18,0-20.05c-2.48,0.16-4.24,0.27-6.13,0.39c0,11.62,0,22.66,0,33.7
	C475.4,428.49,475.25,428.31,475.24,428.31z M245.61,475.36c0.01,10.95,0.01,21.91,0.01,33.15c2.89,0,4.66,0,7.06,0
	c0-6.76,0-13.26,0-19.76c2.44-0.16,4.26-0.28,6.33-0.42c0.21-2.21,0.39-4.18,0.63-6.82c6.72,0,13.24,0,20.02,0
	c-0.14-2.36-0.24-4-0.35-6.02c-11.5,0-22.68,0-33.87,0C245.44,475.5,245.61,475.36,245.61,475.36z M475.35,158.99
	c11.04-0.37,22.1-0.74,33.42-1.11c-0.12-2.27-0.22-4.05-0.33-6.27c-6.92,0-13.28,0-19.65,0c-0.25-2.29-0.44-4.11-0.65-6.08
	c-2.18-0.23-4.13-0.43-6.6-0.69c0-6.67,0-13.04,0-19.57c-2.31,0-4.06,0-6.07,0c0,11.52,0,22.71,0,33.89
	C475.48,159.15,475.36,159,475.35,158.99z M36.71,428.43c0-11.13,0-22.25,0-33.65c-2.06,0-3.8,0-6.21,0c0,6.79,0,13.29,0,19.61
	c-2.85,0.34-5.02,0.6-7.2,0.86l0.12-0.15c0.11,1.98,0.23,3.95,0.37,6.47c-6.9,0-13.28,0-19.79,0c0,2.3,0,4.08,0,6.69
	c11.16,0,22.02,0,32.88,0C36.88,428.26,36.71,428.44,36.71,428.43z M279.63,36.5c-0.1-2.07-0.18-3.72-0.29-6
	c-6.78,0-13.31,0-19.75,0c-0.26-2.62-0.45-4.58-0.66-6.63c-2.27-0.11-4.1-0.19-6.3-0.29c0-6.62,0-13.01,0-19.6c-2.3,0-4.21,0-6.24,0
	c0,10.99,0,21.63,0,32.53C257.81,36.5,268.6,36.5,279.63,36.5z M36.67,159.07c0-11.2,0-22.4,0-33.83c-2.02,0-3.77,0-6.04,0
	c0,6.7,0,13.1,0,19.63c-2.45,0.26-4.41,0.47-6.51,0.69c-0.27,2.16-0.51,4.12-0.81,6.55c-6.64,0-13.01,0-19.31,0
	c0,2.31,0,4.09,0,6.15c1.82,0,3.34-0.03,4.85,0c9.32,0.21,18.63,0.44,27.95,0.66C36.81,158.93,36.67,159.08,36.67,159.07z
	 M407.36,36.65c11.25,0,22.49,0,34.04,0c-0.14-2.3-0.25-3.93-0.39-6.19c-6.79,0-13.28,0-19.61,0c-0.33-2.84-0.59-5.02-0.85-7.2
	c0,0,0.15,0.12,0.15,0.12c-1.97,0.11-3.95,0.22-6.57,0.37c0-6.93,0-13.39,0-20.21c-2.41,0.15-4.17,0.25-6.61,0.4
	c0,11.28,0,22.07,0,32.86C407.53,36.81,407.35,36.65,407.36,36.65z M475.14,266.33c11.01,0,22.01,0,33.29,0c0-2.54,0-4.31,0-6.6
	c-6.7,0-13.1,0-19.6,0c-0.26-2.47-0.47-4.43-0.68-6.52c-2.24-0.19-4.19-0.35-6.63-0.56c0-6.73,0-13.11,0-19.6c-2.29,0-4.04,0-6.2,0
	c0,11.4,0,22.43,0,33.46C475.31,266.52,475.14,266.33,475.14,266.33z M313.31,488.57c0-2.15,0-4.29,0-7.02c7.01,0,13.39,0,19.83,0
	c0-2.37,0-4.13,0-6.33c-11.27,0-22.16,0-33.04,0c0,0,0.17-0.19,0.17-0.18c0,11.1,0,22.2,0,33.39c2.33,0,4.08,0,6.26,0
	c0-6.75,0-13.12,0-19.64c2.61-0.15,4.78-0.27,6.96-0.4L313.31,488.57z M151.37,488.64c0.15-2.16,0.3-4.32,0.49-7.17
	c6.74,0,13.24,0,19.99,0c-0.13-2.36-0.22-3.99-0.34-6.23c-11.32,0-22.32,0-33.31,0c0,0,0.17-0.18,0.17-0.18
	c0,9.67,0.01,19.34-0.01,29.01c-0.01,5.15,0.6,5.55,6.56,3.66c0-6.19,0-12.55,0-19.26c2.55,0,4.58,0,6.6,0L151.37,488.64z
	 M475.09,104.4c11.11,0,22.21,0,33.37,0c0-2.54,0-4.17,0-6.5c-6.76,0-13.24,0-20.08,0c0-2.74,0-4.77,0-6.79l0.17,0.17
	c-2.16-0.1-4.32-0.2-6.96-0.32c0-6.71,0-13.11,0-19.74c-2.27,0-4.02,0-6.32,0c0,11.33,0,22.35,0,33.37
	C475.27,104.59,475.09,104.4,475.09,104.4z M313.42,23.63c-2.16,0-4.33,0-6.96,0c0-6.83,0-13.22,0-19.79c-2.28,0-4.08,0-6.03,0
	c0,11,0,21.78,0,32.75c11.09,0,21.85,0,32.74,0c0-2.09,0-3.85,0-6.1c-6.76,0-13.15,0-19.94,0c0-2.67,0-4.86,0-7.05L313.42,23.63z
	 M23.58,253.12c0,2.11,0,4.23,0,6.91c-6.95,0-13.33,0-20.03,0c0.19,2.38,0.32,4.15,0.45,5.8c11.21,0,21.86,0,32.62,0
	c0-11.13,0-21.92,0-32.76c-2.12,0-3.87,0-6.13,0c0,6.78,0,13.17,0,19.63c-2.69,0.23-4.88,0.41-7.07,0.59L23.58,253.12z
	 M488.5,360.63c-2.16,0-4.32,0-6.92,0c0-6.72,0-13.11,0-19.71c-2.23,0-4.02,0-5.93,0c0,11.02,0,21.79,0,32.65
	c11.12,0,21.88,0,32.72,0c0-2.13,0-3.88,0-6.09c-6.76,0-13.15,0-19.65,0c-0.15-2.64-0.27-4.83-0.4-7.02L488.5,360.63z M23.61,91.19
	c0,2.15,0,4.3,0,6.99c-6.82,0-13.2,0-19.9,0c0.11,2.33,0.2,4.09,0.29,5.89c11.19,0,21.81,0,32.62,0c0-11.1,0-21.87,0-32.75
	c-2.1,0-3.86,0-6.12,0c0,6.76,0,13.16,0,19.65c-2.69,0.15-4.88,0.28-7.07,0.41L23.61,91.19z M151.52,23.58c-2.17,0-4.33,0-6.97,0
	c0-6.72,0-13.11,0-19.59c-2.26,0-4.03,0-5.9,0c0,11.01,0,21.67,0,32.61c11.1,0,21.89,0,32.8,0c0-2.1,0-3.86,0-6.12
	c-6.74,0-13.15,0-19.66,0c-0.17-2.68-0.31-4.88-0.45-7.07L151.52,23.58z M84.88,508.35c6.1,0.74,6.08,0.74,6.04-4.86
	c-0.03-4.87-0.01-9.75-0.01-14.71c2.51-0.19,4.33-0.33,6.34-0.49c0.2-2.2,0.39-4.16,0.63-6.78c6.71,0,13.23,0,20,0
	c-0.13-2.35-0.23-4-0.34-5.9c-10.96,0-21.6,0-32.67,0C84.88,486.83,84.88,497.62,84.88,508.35z M488.52,198.77
	c-2.16,0-4.33,0-6.98,0c0-6.64,0-13.05,0-19.49c-2.27,0-4.03,0-5.94,0c0,11.02,0,21.66,0,32.52c11.1,0,21.89,0,32.78,0
	c0-2.11,0-3.87,0-6.13c-6.76,0-13.17,0-19.67,0c-0.14-2.69-0.25-4.89-0.36-7.09L488.52,198.77z M205.83,488.54c0-2.16,0-4.32,0-6.98
	c6.55,0,12.95,0,19.36,0c0-2.27,0-4.02,0-5.89c-11.02,0-21.66,0-32.45,0c0,11.11,0,21.9,0,33.13c2.16-0.1,3.91-0.17,6.14-0.27
	c0-6.95,0-13.35,0-19.78c2.71-0.15,4.91-0.27,7.12-0.38L205.83,488.54z M97.91,30.56c-0.3-2.49-0.53-4.44-0.78-6.58
	c-2.05-0.17-3.87-0.33-6.24-0.53c0-6.57,0-12.96,0-19.53c-2.39,0-4.17,0-6.03,0c0,11.1,0,21.91,0,32.72c11.06,0,21.73,0,32.67,0
	c0-1.91,0-3.55,0-6.09C110.79,30.56,104.4,30.56,97.91,30.56z M23.54,360.66c0,2.17,0,4.33,0,7.03c-6.66,0-13.05,0-19.47,0
	c0,2.31,0,4.07,0,5.8c11.15,0,21.91,0,32.63,0c0-11.11,0-21.77,0-32.55c-2.07,0-3.86,0-6.19,0c0,6.69,0,13.08,0,19.9
	c-2.74,0-4.94,0-7.13,0C23.37,360.84,23.54,360.65,23.54,360.66z M475.66,319.57c11.17,0,21.95,0,33.15,0
	c-0.16-2.25-0.29-4-0.45-6.23c-6.93,0-13.31,0-19.64,0c-0.18-2.34-0.31-4.16-0.46-6.14c-2.27-0.2-4.25-0.38-6.7-0.6
	c0-6.57,0-12.98,0-19.66c-2.12-0.1-3.77-0.17-5.91-0.27C475.66,298.12,475.66,308.89,475.66,319.57z M354.47,475.7
	c0,11.11,0,21.87,0,32.68c2.16,0,3.91,0,6.13,0c0-6.81,0-13.2,0-19.54c2.43-0.24,4.38-0.44,6.25-0.63c0.28-2.4,0.5-4.36,0.78-6.75
	c6.72,0,13.09,0,19.45,0c0-2.16,0-3.81,0-5.76C375.79,475.7,365.17,475.7,354.47,475.7z M192.76,36.6c11.07,0,21.72,0,32.45,0
	c0-2.09,0-3.84,0-6.11c-6.75,0-13.13,0-19.44,0c-0.24-2.5-0.43-4.47-0.62-6.51c-2.28-0.19-4.12-0.34-6.46-0.53
	c0-6.49,0-12.89,0-19.55c-2.3,0-4.08,0-5.92,0C192.76,14.99,192.76,25.78,192.76,36.6z M387.36,36.51
	c-0.11-2.07-0.21-3.72-0.32-5.81c-6.7,0-13.12,0-19.49,0c-0.31-2.58-0.57-4.7-0.82-6.71c-2.31-0.22-4.12-0.39-6.44-0.6
	c0-6.63,0-13,0-19.38c-2.33,0-4.09,0-5.88,0c0,11.06,0,21.72,0,32.51C365.51,36.51,376.29,36.51,387.36,36.51z M36.68,179.23
	c-2.06,0-3.82,0-6.03,0c0,6.71,0,13.13,0,19.51c-2.55,0.26-4.66,0.48-6.62,0.68c-0.24,2.43-0.41,4.24-0.64,6.59
	c-6.62,0-13.01,0-19.72,0c0.14,2.35,0.25,4.11,0.35,5.93c11.1,0,21.62,0,32.66,0C36.68,200.71,36.68,190.05,36.68,179.23z
	 M36.6,287.11c-2.12,0-3.87,0-6.15,0c0,6.76,0,13.13,0,19.44c-2.47,0.33-4.41,0.58-6.46,0.85c-0.17,2.17-0.31,3.98-0.49,6.28
	c-6.64,0-13.01,0-19.61,0c0,2.32,0,4.11,0,6.06c11.04,0,21.84,0,32.71,0C36.6,308.64,36.6,297.85,36.6,287.11z M482.83,482.86
	c0,8.63,0,16.84,0,25.45c2.04-0.17,3.63-0.31,5.54-0.47c0-4.56,0-8.59,0-12.57c2.3-0.34,4.23-0.63,6.13-0.91
	c0.24-2.26,0.43-4.07,0.67-6.37c4.4,0,8.56,0,13.04,0c-0.12-2.02-0.2-3.48-0.29-5.14C499.38,482.86,491.17,482.86,482.83,482.86z
	 M495.2,24.04c-0.34-2.45-0.62-4.39-0.89-6.33c-2.18-0.21-3.98-0.39-6.05-0.59c0-3.03-0.18-5.74,0.04-8.42
	c0.36-4.32-1.35-5.55-5.47-4.09c0,8.29,0,16.5,0,24.75c8.63,0,16.83,0,25.23,0c0-1.78,0-3.1,0-5.33
	C503.48,24.04,499.31,24.04,495.2,24.04z M26.94,29.63c1.01-0.04,2.77-1.99,2.8-3.1c0.2-6.97,0.03-13.95-0.07-20.93
	c-0.01-0.44-0.42-0.86-0.78-1.56c-1.43,0.1-2.88,0.21-4.86,0.35c0,4.48,0,8.64,0,12.8c-2.38,0.2-4.2,0.36-6.26,0.53
	c-0.24,2.18-0.45,4.14-0.72,6.59c-4.38,0-8.55,0-12.73,0c0,2.01,0,3.48,0,5.46C12.02,29.77,19.49,29.89,26.94,29.63z M29.7,485.32
	c-0.02-0.95-1.37-2.66-2.14-2.68c-7.72-0.2-15.45-0.12-22.89-0.12c-1.46,4.8,0.09,6.16,4.04,5.8c2.81-0.26,5.66-0.05,8.54-0.05
	c0.19,2.33,0.34,4.16,0.51,6.2c2.17,0.28,4.11,0.52,6.59,0.84c0,4.37,0,8.52,0,12.98c2.05-0.1,3.51-0.17,5.47-0.27
	C29.8,500.23,29.88,492.77,29.7,485.32z M151.54,488.48c0,6.55,0,13.1,0,19.92c2.69,0,4.57,0,6.58,0c0.16-2.34,0.29-4.29,0.42-6.17
	c2.31-0.24,4.26-0.45,6.2-0.66c0.19-2.33,0.35-4.29,0.51-6.19c2.33-0.14,4.28-0.26,6.57-0.39c-0.11-2.25-0.19-4.02-0.3-6.35
	c-7.01,0-13.58,0-20.16,0C151.37,488.64,151.54,488.48,151.54,488.48z M488.38,91.11c6.57,0,13.14,0,20.03,0c0-2.49,0-4.25,0-6.2
	c-2.21-0.25-4.18-0.47-6.24-0.7c-0.2-2.14-0.39-4.11-0.58-6.22c-2.2-0.16-4.16-0.3-6.12-0.44c-0.23-2.33-0.42-4.29-0.61-6.32
	c-2.1,0-3.87,0-6.31,0c0,6.89,0,13.47,0,20.05C488.55,91.28,488.38,91.11,488.38,91.11z M495.48,239.3
	c-0.27-2.28-0.51-4.24-0.75-6.24c-2.06,0-3.82,0-5.72,0c0,6.58,0,12.79,0,19.24c6.63,0,12.97,0,19.33,0c0-2.17,0-3.93,0-5.84
	c-2.35-0.19-4.3-0.35-6.25-0.5c-0.16-2.23-0.29-4.05-0.44-6.14C499.48,239.63,497.53,239.47,495.48,239.3z M313.48,488.4
	c0,6.6,0,13.2,0,20.12c2.44,0,4.2,0,6.11,0c0.29-2.29,0.53-4.27,0.78-6.24c2.19-0.25,4.17-0.47,6.18-0.7
	c0.13-2.18,0.24-4.03,0.36-6.03c2.23-0.24,4.34-0.47,6.74-0.74c-0.17-2.21-0.31-3.98-0.49-6.25c-6.94,0-13.39,0-19.83,0
	C313.31,488.57,313.48,488.39,313.48,488.4z M151.35,23.41c6.73,0,13.46,0,20.56,0c-0.18-2.52-0.31-4.28-0.43-6.06
	c-2.41-0.17-4.23-0.3-6.21-0.44c-0.2-2.27-0.38-4.24-0.57-6.36c-2.28-0.19-4.25-0.35-6.17-0.51c-0.19-2.24-0.36-4.21-0.56-6.53
	c-2.17,0.13-3.96,0.24-6.44,0.39c0,6.85,0,13.27,0,19.69C151.52,23.58,151.34,23.41,151.35,23.41z M502.19,407.62
	c-0.24-2.1-0.46-4.06-0.69-6.08c-2.16-0.18-3.98-0.33-6-0.49c-0.25-2.1-0.49-4.07-0.75-6.27c-1.92,0-3.68,0-5.73,0
	c0,6.51,0,12.71,0,19.28c6.56,0,12.89,0,19.48,0c0-1.94,0-3.59,0-5.77C506.16,408.04,504.19,407.83,502.19,407.62z M421.78,508.82
	c2.21-0.11,3.97-0.2,5.78-0.29c0.24-2.54,0.43-4.5,0.6-6.4c2.18-0.14,4-0.26,6.07-0.4c0.17-2.19,0.32-4.15,0.48-6.19
	c2.3-0.27,4.27-0.5,6.25-0.73c0-2.1,0-3.87,0-5.84c-6.46,0-12.56,0-19.19,0C421.78,495.76,421.78,502.11,421.78,508.82z
	 M488.32,360.46c6.59,0,13.18,0,20.1,0c0-2.26,0-4.03,0-5.99c-2.21-0.24-4.17-0.45-6.21-0.66c-0.24-2.22-0.45-4.19-0.68-6.3
	c-2.21-0.15-4.17-0.28-6.07-0.41c-0.22-2.3-0.4-4.26-0.61-6.51c-2.16,0.12-3.96,0.21-6.35,0.34c0,6.84,0,13.27,0,19.71
	C488.5,360.63,488.32,360.46,488.32,360.46z M420.56,23.27c6.75,0.01,13.49,0.01,20.47,0.01c0-2.12,0-3.88,0-5.84
	c-2.23-0.21-4.19-0.39-6.25-0.58c-0.23-2.2-0.43-4.16-0.65-6.23c-2.19-0.27-4.13-0.51-5.98-0.74c-0.24-2.18-0.43-3.99-0.64-5.89
	c-2.12,0-3.89,0-5.67,0c-0.4,6.7-0.77,13.04-1.15,19.39C420.7,23.39,420.55,23.27,420.56,23.27z M23.31,415.25
	c0.01-6.76,0.01-13.51,0.01-20.47c-2.16,0-3.93,0-5.87,0c-0.19,2.25-0.35,4.21-0.52,6.21c-2.28,0.25-4.24,0.46-6.37,0.69
	c-0.15,2.12-0.28,3.95-0.42,5.89c-2.16,0.27-4.12,0.51-6.13,0.76c0,2.07,0,3.86,0,5.62c6.68,0.4,13.05,0.78,19.42,1.16
	C23.42,415.11,23.31,415.26,23.31,415.25z M23.42,253.28c0-6.75,0-13.5,0-20.18c-2.39,0-4.15,0-5.88,0
	c-0.28,2.37-0.51,4.33-0.74,6.21c-2.39,0.22-4.35,0.4-6.33,0.58c-0.1,2.32-0.19,4.15-0.27,6.05c-2.24,0.23-4.19,0.43-6.19,0.63
	c0,2.13,0,3.91,0,6.55c6.73,0,13.15,0,19.56,0C23.58,253.12,23.42,253.29,23.42,253.28z M488.34,198.6c6.59,0,13.18,0,20.08,0
	c0-2.19,0-3.94,0-5.87c-2.23-0.26-4.19-0.49-6.21-0.72c-0.24-2.42-0.46-4.6-0.67-6.77l0.17,0.15c-2.11,0-4.22,0-6.27,0
	c-0.24-2.41-0.43-4.34-0.6-6.11c-2.21,0-3.97,0-6.31,0c0,6.74,0,13.12,0,19.51C488.52,198.77,488.34,198.6,488.34,198.6z
	 M23.44,91.37c0-6.71,0-13.42,0-20.16c-2.39,0-4.03,0-5.87,0c-0.26,2.22-0.48,4.17-0.72,6.28c-2.14,0.19-4.1,0.37-6.25,0.56
	c-0.17,2.23-0.32,4.19-0.47,6.18c-2.22,0.22-4.17,0.42-6.09,0.61c0,2.13,0,3.9,0,6.35c6.75,0,13.17,0,19.58,0
	C23.61,91.19,23.44,91.37,23.44,91.37z M313.24,23.45c6.55,0,13.09,0,19.96,0c0-2.22,0-3.98,0-5.96c-2.14-0.24-4.08-0.46-6.21-0.7
	c-0.18-2.33-0.34-4.49-0.5-6.65l0.16,0.16c-2.12,0-4.25,0-6.32,0c-0.3-2.6-0.52-4.53-0.77-6.73c-2.15,0.14-3.91,0.26-6.15,0.41
	c0,6.87,0,13.26,0,19.65C313.42,23.63,313.24,23.45,313.24,23.45z M381.05,501.76c-0.12-2.12-0.24-4.25-0.36-6.34
	c2.46-0.16,4.3-0.29,6.61-0.44c-0.09-2.09-0.18-3.99-0.25-5.75c-6.8,0-13,0-19.15,0c0,6.68,0,12.91,0,19.2c2.11,0,3.87,0,5.69,0
	c0.26-2.31,0.48-4.27,0.7-6.2c2.54-0.23,4.73-0.44,6.92-0.64C381.2,501.6,381.05,501.76,381.05,501.76z M206.01,488.36
	c0,6.61,0,13.22,0,20.13c2.09,0,3.86,0,5.82,0c0.22-2.25,0.41-4.22,0.61-6.24c2.28-0.24,4.26-0.44,6.32-0.66
	c0.16-2.26,0.29-4.24,0.43-6.16c2.31-0.18,4.27-0.33,6.16-0.47c0-2.24,0-3.9,0-6.42c-6.66,0-13.09,0-19.51,0
	C205.83,488.54,206.01,488.36,206.01,488.36z M111.74,501.75c-0.23-2.09-0.46-4.19-0.69-6.26c2.58-0.25,4.54-0.44,6.81-0.66
	c-0.12-2.14-0.22-3.91-0.31-5.69c-6.67,0-12.87,0-19.07,0c0,6.69,0,13.02,0,19.69c2.22-0.12,3.96-0.22,5.7-0.32
	c0.19-2.45,0.32-4.27,0.47-6.26c2.56-0.23,4.9-0.44,7.23-0.66L111.74,501.75z M501.71,292.9c-2.11,0.21-4.22,0.42-6.31,0.63
	c-0.21-2.55-0.38-4.54-0.55-6.56c-2.06,0-3.86,0-5.83,0c0,6.5,0,12.72,0,19.14c6.64,0,12.97,0,19.73,0
	c-0.1-2.17-0.17-3.93-0.25-5.74c-2.37-0.18-4.2-0.31-6.25-0.46c-0.24-2.49-0.47-4.82-0.7-7.15L501.71,292.9z M260.21,508.88
	c2.12-0.13,3.88-0.24,5.7-0.35c0.19-2.47,0.34-4.43,0.49-6.43c2.17-0.1,3.99-0.18,6.11-0.28c0.18-2.18,0.35-4.14,0.52-6.25
	c2.19-0.25,4.15-0.48,6.23-0.72c0-2,0-3.76,0-5.78c-6.37,0-12.43,0-19.06,0C260.21,495.45,260.21,501.99,260.21,508.88z
	 M10.37,347.28c0,2.16,0,4.31,0,6.65C7.95,354.11,6,354.25,4,354.4c0,2.14,0,3.92,0,6.26c6.72,0,13.13,0,19.54,0
	c0,0-0.17,0.18-0.16,0.18c0-6.55,0-13.09,0-19.79c-2.17,0-4.05,0-6.01,0c-0.15,2.2-0.27,4-0.41,6.02c-2.44,0.14-4.6,0.26-6.75,0.38
	C10.2,347.45,10.37,347.28,10.37,347.28z M10.47,185.29c-0.14,2.3-0.28,4.6-0.41,6.79c-2.39,0.24-4.2,0.43-6.01,0.61
	c0,2.11,0,3.89,0,5.69c6.57,0,12.77,0,19.19,0c0-6.54,0-12.75,0-19.17c-2.06,0-3.83,0-5.67,0c-0.29,2.23-0.55,4.16-0.83,6.25
	c-2.39,0-4.42,0-6.46,0L10.47,185.29z M219.24,10.39c-2.18,0-4.35,0-6.72,0c-0.27-2.43-0.48-4.38-0.7-6.38c-2.08,0-3.84,0-5.68,0
	c0,6.58,0,12.78,0,19.19c6.53,0,12.73,0,19.15,0c0-2.06,0-3.82,0-5.78c-2.12-0.19-3.94-0.36-6.22-0.56c0-2.33,0-4.49,0-6.65
	L219.24,10.39z M489.05,144.32c6.65,0,12.97,0,19.7,0c-0.1-2.19-0.18-3.95-0.26-5.65c-2.49-0.29-4.43-0.51-6.3-0.73
	c-0.22-2.21-0.41-4.03-0.6-5.95c-2.17-0.2-4.14-0.39-6.15-0.58c-0.21-2.22-0.4-4.2-0.6-6.31c-1.96,0-3.61,0-5.78,0
	C489.05,131.82,489.05,138.01,489.05,144.32z M381.14,10.44c-2.33-0.14-4.66-0.28-6.92-0.42c-0.28-2.3-0.51-4.24-0.78-6.47
	c-2.13,0.14-3.89,0.26-5.49,0.37c0,6.77,0,12.96,0,19.24c6.6,0,12.81,0,19.04,0c0-2.12,0-3.91,0-5.79
	c-2.13-0.15-3.96-0.28-6.03-0.43c0-2.37,0-4.52,0-6.68L381.14,10.44z M272.29,10.57c-2.25-0.23-4.07-0.41-5.86-0.59
	C266.2,7.8,266,5.85,265.8,3.93c-2.17,0-3.96,0-5.67,0c0,6.67,0,13.02,0,19.21c6.71,0,12.93,0,19.1,0c0-2.14,0-3.92,0-5.77
	c-2.19-0.16-4.03-0.29-6.11-0.44C272.8,14.41,272.54,12.48,272.29,10.57z M10.5,292.78c-0.13,2.33-0.27,4.66-0.4,7.04
	c-2.24,0.27-4.17,0.49-6.05,0.72c0,2.13,0,3.89,0,5.65c6.53,0,12.73,0,19.05,0c0-6.62,0-12.91,0-19.23c-2.1,0-3.75,0-5.65,0
	c-0.17,2.17-0.32,4.13-0.51,6.56c-2.35-0.2-4.48-0.38-6.62-0.56C10.32,292.95,10.5,292.78,10.5,292.78z M98.4,23.07
	c6.55,0,12.85,0,19.16,0c0-2.09,0-3.74,0-5.63c-2.18-0.18-4.14-0.34-6.2-0.52c-0.19-2.22-0.37-4.33-0.57-6.66c-2.27,0-4.1,0-6.09,0
	c-0.23-2.21-0.44-4.17-0.67-6.34c-1.92,0-3.57,0-5.63,0C98.4,10.26,98.4,16.58,98.4,23.07z M23.13,125.19c-2.1,0-3.75,0-5.63,0
	c-0.2,2.21-0.38,4.18-0.57,6.22c-2.22,0.21-4.19,0.4-6.29,0.6c-0.23,2.22-0.43,4.17-0.63,6.17c-2.14,0.12-3.96,0.22-6.03,0.34
	c0,2.08,0,3.87,0,5.94c6.48,0,12.71,0,19.15,0C23.13,137.59,23.13,131.39,23.13,125.19z M506.27,508.67
	c0.88-0.08,2.27-1.52,2.34-2.43c0.28-3.33,0.11-6.71,0.11-10.29c-4.61,0-8.6,0-12.84,0c0,4.3,0,8.28,0,12.84
	C499.55,508.78,502.93,508.96,506.27,508.67z M4.11,508.52c4.32,0,8.16,0,12.16,0c0-4.41,0-8.5,0-12.62c-4.34,0-8.19,0-12.16,0
	C4.11,500.27,4.11,504.37,4.11,508.52z M508.41,3.93c-4.32,0-8.29,0-12.53,0c0,4.28,0,8.24,0,12.47c4.29,0,8.26,0,12.53,0
	C508.41,12.15,508.41,8.18,508.41,3.93z M16.34,16.3c0-4.37,0-8.34,0-12.32c-4.4,0-8.39,0-12.52,0c0,4.22,0,8.1,0,12.32
	C8.33,16.3,12.31,16.3,16.34,16.3z M165.66,502.61c0,2.26,0,4,0,5.9c2.13,0,3.89,0,5.89,0c0-2.05,0-3.81,0-6.26
	C169.16,502.4,167.41,502.51,165.66,502.61z M507.98,71.25c-1.74,0-3.49,0-5.44,0c0,2.09,0,3.84,0,5.87
	C509.18,77.58,509.46,77.23,507.98,71.25z M330.11,508.86c2.7,0.1,3.57-1.06,3.44-3.57c-0.25-4.85-3.53-2.52-6.55-2.87
	C327.44,505.39,325.28,508.69,330.11,508.86z M502.6,233.22c0,1.83,0,3.7,0,5.6c2.16,0,3.93,0,5.64,0
	C509.16,232.41,509,232.25,502.6,233.22z M508.76,130.93c-0.12-2.28-0.21-4.02-0.3-5.81c-2.29,0-3.93,0-5.91,0c0,1.98,0,3.75,0,6.2
	C504.92,131.17,506.67,131.06,508.76,130.93z M508.4,394.45c-2.14,0.1-3.91,0.18-5.76,0.26c0,2.19,0,3.96,0,5.91
	c1.98,0,3.63,0,5.76,0C508.4,398.36,508.4,396.6,508.4,394.45z M111.87,501.6c0,2.28,0,4.55,0,7.22c2.16-0.1,3.91-0.18,5.59-0.26
	c0-2.32,0-4.08,0-5.83c-2.14-0.37-3.93-0.67-5.72-0.98C111.74,501.75,111.88,501.59,111.87,501.6z M273.56,502.61
	c0,2.12,0,3.91,0,5.89c2.09,0,3.86,0,5.83,0c0-1.99,0-3.66,0-5.89C277.23,502.61,275.46,502.61,273.56,502.61z M381.19,501.6
	c0,2.29,0,4.58,0,6.95c2.25,0,3.88,0,5.72,0c0-2.14,0-4.01,0-5.81c-2.25-0.38-4.05-0.68-5.86-0.99
	C381.05,501.76,381.2,501.6,381.19,501.6z M435.45,508.87c2.22-0.14,3.96-0.25,5.65-0.36c0-2.28,0-3.93,0-5.88c-2,0-3.78,0-5.65,0
	C435.45,504.75,435.45,506.63,435.45,508.87z M508.47,346.62c0-1.89,0-3.64,0-5.66c-2.08,0-3.97,0-6.06,0c0,1.98,0,3.62,0,5.66
	C504.39,346.62,506.28,346.62,508.47,346.62z M501.55,292.76c2.27,0,4.54,0,7.21,0c-0.11-2.3-0.19-4.03-0.28-5.88
	c-2.26,0-3.92,0-5.74,0c-0.36,2.11-0.7,4.06-1.04,6.02C501.71,292.9,501.55,292.75,501.55,292.76z M9.78,77.11c0-2.12,0-3.89,0-5.87
	c-2.06,0-3.82,0-5.78,0c0,2.09,0,3.86,0,5.87C6.09,77.11,7.85,77.11,9.78,77.11z M501.55,185.23c2.26,0,4.52,0,6.81,0
	c0-2.51,0-4.25,0-6.02c-2.14,0-3.9,0-5.67,0c-0.36,2.26-0.67,4.21-0.98,6.16C501.71,185.37,501.54,185.23,501.55,185.23z
	 M219.57,502.66c0,2.14,0,3.9,0,5.8c2.08,0,3.84,0,5.8,0c0-1.99,0-3.65,0-5.8C223.16,502.66,221.4,502.66,219.57,502.66z
	 M3.94,238.91c2.04,0,3.83,0,5.76,0c0-2.15,0-4.05,0-6.06c-2.04,0-3.69,0-5.76,0C3.94,235.16,3.94,236.94,3.94,238.91z
	 M326.49,10.14c2.14-0.1,4.27-0.19,6.6-0.3c0-2.17,0-4.02,0-6.23c-2.2,0.11-3.95,0.2-5.76,0.3c-0.26,2.46-0.47,4.42-0.68,6.39
	C326.65,10.3,326.49,10.14,326.49,10.14z M171.52,4.01c-2.08,0-3.97,0-6.21,0c0.1,2.12,0.18,3.88,0.27,5.75c2.17,0,3.92,0,5.94,0
	C171.52,7.72,171.52,5.96,171.52,4.01z M111.92,3.86c0,2.16,0,4.04,0,5.79c2.14,0,3.87,0,5.75,0c0-2.04,0-3.68,0-5.79
	C115.46,3.86,113.69,3.86,111.92,3.86z M10.2,347.45c-0.1-2.16-0.2-4.31-0.3-6.51c-2.19,0-3.98,0-5.87,0c0,2.08,0,3.85,0,5.8
	c2.32,0.2,4.33,0.37,6.33,0.54C10.37,347.28,10.2,347.45,10.2,347.45z M380.96,10.26c1.97-0.17,3.93-0.34,5.96-0.51
	c0-2.15,0-4.02,0-6.24c-2.19,0.17-3.92,0.3-5.78,0.44c0,2.5,0,4.49,0,6.49C381.14,10.44,380.96,10.26,380.96,10.26z M219.07,10.2
	c1.97-0.13,3.94-0.26,6.21-0.41c0-2,0-3.75,0-5.76c-1.99,0-3.87,0-6.03,0c0,2.37,0,4.36,0,6.35
	C219.24,10.39,219.07,10.21,219.07,10.2z M4.05,400.89c2.33-0.14,3.95-0.24,5.72-0.34c0-2.12,0-3.88,0-5.87c-1.97,0-3.62,0-6.09,0
	C3.82,396.94,3.93,398.79,4.05,400.89z M9.65,124.89c-2.06,0.1-3.69,0.17-5.49,0.26c0,2.16,0,4.02,0,5.85c2.07,0,3.7,0,5.49,0
	C9.65,128.63,9.65,126.89,9.65,124.89z M279.6,9.67c-0.09-2.14-0.17-3.9-0.25-5.65c-2.24,0-4,0-5.91,0c0,1.98,0,3.61,0,5.65
	C275.74,9.67,277.49,9.67,279.6,9.67z M10.32,292.95c-0.19-1.96-0.39-3.92-0.58-5.89c-2.13,0-3.9,0-6.02,0
	c0.1,2.12,0.19,3.87,0.28,5.71c2.51,0,4.5,0,6.5,0C10.5,292.78,10.32,292.95,10.32,292.95z M434.95,4.13
	c0.13,2.17,0.23,3.93,0.33,5.65c2.21,0,3.83,0,5.74,0c0.14-1.86,0.26-3.5,0.41-5.65C439.21,4.13,437.23,4.13,434.95,4.13z
	 M10.28,185.47c-0.14-1.97-0.27-3.94-0.42-6.16c-2.1,0-3.97,0-6.17,0c0.11,2.14,0.19,3.88,0.3,5.98c2.49,0,4.48,0,6.47,0
	C10.47,185.29,10.29,185.47,10.28,185.47z"/>
</svg>
