<?xml version="1.0" encoding="utf-8"?>
<!-- Generator: Adobe Illustrator 26.0.2, SVG Export Plug-In . SVG Version: 6.00 Build 0)  -->
<svg version="1.1" xmlns="http://www.w3.org/2000/svg" xmlns:xlink="http://www.w3.org/1999/xlink" x="0px" y="0px"
	 viewBox="0 0 100 100" style="enable-background:new 0 0 100 100;" xml:space="preserve">
<style type="text/css">
	.st0{fill:#E6E6E6;}
	.st1{stroke:#000000;stroke-miterlimit:10;}
</style>
<g id="Layer_2">
	<rect class="st0" width="100" height="100"/>
</g>
<g id="Layer_1">
	<path class="st1" d="M32.4,6.7c-2,0-20.4,0-20.4,0l36.9,27.6L82.4,7.7h-22c0,0-11,13.7-11.5,13.9C48.4,21.7,32.4,6.7,32.4,6.7z"/>
	<path class="st1" d="M32.4,33.7c-2,0-18.7,0-20.4,0s34,23.3,35.2,24.7c1.2,1.3,38.2-22.7,38.2-22.7s-23,1-25,1S48,47.2,47.2,48
		C46.4,48.7,32.4,33.7,32.4,33.7z"/>
	<path class="st1" d="M25.1,58.5c-3.8,0.3-19.8,1.3-19.8,1.3s36,30,38,32s49-29,50-30s-30,0-32,0s-16,20-17,20S25.1,58.5,25.1,58.5z
		"/>
</g>
</svg>
